<?xml version="1.0" encoding="UTF-8" standalone="no"?>
<svg
   xmlns:dc="http://purl.org/dc/elements/1.1/"
   xmlns:cc="http://creativecommons.org/ns#"
   xmlns:rdf="http://www.w3.org/1999/02/22-rdf-syntax-ns#"
   xmlns:svg="http://www.w3.org/2000/svg"
   xmlns="http://www.w3.org/2000/svg"
   id="svg100"
   version="1.1"
   viewBox="0 0 225.44 155.98">
  <metadata
     id="metadata104">
    <rdf:RDF>
      <cc:Work
         rdf:about="">
        <dc:format>image/svg+xml</dc:format>
        <dc:type
           rdf:resource="http://purl.org/dc/dcmitype/StillImage" />
      </cc:Work>
    </rdf:RDF>
  </metadata>
  <defs
     id="defs4">
    <style
       id="style2">.cls-1{fill:#393839;}.cls-1,.cls-10,.cls-11,.cls-12,.cls-13,.cls-2,.cls-3,.cls-4,.cls-5,.cls-6,.cls-7,.cls-8,.cls-9{stroke:#000;}.cls-1,.cls-10,.cls-11,.cls-12,.cls-13,.cls-14,.cls-15,.cls-16,.cls-17,.cls-18,.cls-19,.cls-2,.cls-3,.cls-4,.cls-5,.cls-6,.cls-7,.cls-8,.cls-9{stroke-miterlimit:10;}.cls-1,.cls-10,.cls-11,.cls-12,.cls-13,.cls-14,.cls-15,.cls-16,.cls-17,.cls-2,.cls-3,.cls-4,.cls-5,.cls-6,.cls-7,.cls-8,.cls-9{stroke-width:0.25px;}.cls-19,.cls-2{fill:#464547;}.cls-3{fill:#d75d5e;}.cls-4{fill:#919396;}.cls-5{fill:#fff682;}.cls-6{fill:#4d7aae;}.cls-7{fill:#009d6f;}.cls-8{fill:#fff462;}.cls-9{fill:#5aa2d8;}.cls-10{fill:#2cb67a;}.cls-11{fill:#3e3e3f;}.cls-12,.cls-18{fill:#b1b3b6;}.cls-13{fill:#848689;}.cls-14,.cls-15,.cls-16,.cls-17{fill:none;}.cls-14{stroke:#7baac0;}.cls-15{stroke:#c53648;}.cls-16{stroke:#7e7794;}.cls-17{stroke:#1d998b;}.cls-18,.cls-19{stroke:#231f20;stroke-width:0.1px;}.cls-20{font-size:1.47px;letter-spacing:0em;}.cls-20,.cls-23{fill:#d1d3d4;font-family:MyriadPro-Regular, Myriad Pro;}.cls-21{letter-spacing:0.02em;}.cls-22{letter-spacing:0em;}.cls-23{font-size:1.39px;}.cls-24{letter-spacing:0.01em;}.cls-25{letter-spacing:0.01em;}</style>
  </defs>
  <g
     id="ghome">
    <circle
       class="cls-18"
       cx="112.52029"
       cy="104.88794"
       r="1.2865788"
       id="circle70"
       style="fill:#b1b3b6;stroke:#231f20;stroke-width:0.0691709px;stroke-miterlimit:10" />
    <path
       class="cls-19"
       d="m 112.69323,104.54209 v 0.42886 a 0.2075127,0.2075127 0 0 0 0.31818,-0.16601 0.38735704,0.38735704 0 0 0 -0.25593,-0.46345 c -0.10376,-0.0415 -0.47036,-0.13834 -0.47036,-0.13834 v 1.27966 l 0.29743,0.0899 v -1.06523 c 0,0 0,-0.0968 0.0623,-0.0692 0.0622,0.0277 0.0484,0.10376 0.0484,0.10376 z"
       id="path72"
       style="fill:#464547;stroke:#231f20;stroke-width:0.0691709px;stroke-miterlimit:10" />
    <path
       class="cls-19"
       d="m 113.38494,105.17154 c -0.0553,-0.0899 -0.35278,-0.12451 -0.42886,-0.12451 a 1.2519933,1.2519933 0 0 0 -0.32511,0.0553 v 0.17984 l 0.30435,-0.11067 a 0.30435196,0.30435196 0 0 1 0.19368,0 c 0.0415,0 0,0.0484 -0.0553,0.0623 l -0.4427,0.1591 v 0.16601 l 0.62946,-0.22135 c 0,0 0.18676,-0.0692 0.12451,-0.16601 z"
       id="path74"
       style="fill:#464547;stroke:#231f20;stroke-width:0.0691709px;stroke-miterlimit:10" />
    <path
       class="cls-19"
       d="m 111.65566,105.23379 c 0,0.0553 0,0.11068 0.20752,0.1591 a 1.002978,1.002978 0 0 0 0.39427,0 v -0.15218 h -0.0899 a 0.3458545,0.3458545 0 0 1 -0.2421,0 c 0,0 0,-0.0484 0,-0.0484 l 0.30435,-0.11067 v -0.16601 l -0.3666,0.12451 c 0,0 -0.20752,0.13834 -0.20752,0.19367 z"
       id="path76"
       style="fill:#464547;stroke:#231f20;stroke-width:0.0691709px;stroke-miterlimit:10" />
  </g>
</svg>
