<svg id="Controllers" xmlns="http://www.w3.org/2000/svg" viewBox="0 0 254.89 140.88"><defs><style>.cls-1{fill:#58595b;}.cls-1,.cls-2,.cls-3{stroke:#231f20;}.cls-1,.cls-2,.cls-3,.cls-4,.cls-5,.cls-6,.cls-7,.cls-8{stroke-miterlimit:10;}.cls-2{fill:#bcbec0;}.cls-3{fill:#302e2f;}.cls-4,.cls-5,.cls-6,.cls-7{fill:none;}.cls-4{stroke:#1c75bc;}.cls-5{stroke:#bb567c;}.cls-6{stroke:#5955a2;}.cls-7{stroke:#5bae41;}.cls-8{fill:#939598;stroke:#000;stroke-width:0.5px;}.cls-9{font-size:3.01px;fill:#231f20;font-family:MyriadPro-Regular, Myriad Pro;}</style></defs><g id="PS3Ctrl"><g id="BaseFront"><path class="cls-1" d="M208.37,22.88c7.43,1.7,6.15,17.4,6.15,17.4,7,4.24,11.25,8.91,14.65,17.82s8.48,45,10.18,58.78-4,28-20.37,29.89-22.92-11-31.83-26.28l-3.75-6.23s-4.74,9.06-17.89,9.06-22.28-11.18-22.28-14.79l-21.51-.07s-4,15.21-20.93,15.21c-13,0-19.52-10.18-19.52-10.18s-11.46,19.09-13.8,22.06S55.38,152.11,38,144.47s-12.52-27.8-12.52-27.8S30.55,92.05,34,69.56s15.91-27.8,15.91-27.8,0-2.75.21-6.36c.64-8.91,5.73-11.46,5.73-11.46s3.82-1.13,14.43-1.13,11.88.92,11.88.92c5,2.61,6.37,15.06,6.37,15.06h87.43c0-13.15,7-15.91,7-15.91s8.27-.53,13.89-.53S208.37,22.88,208.37,22.88Z" transform="translate(-5.62 -6.57)"/></g><g id="CtrlBtnUsed"><path class="cls-2" d="M68.75,67l-5.27-5.28V53.58H74.4v8.48l-5,4.89A.5.5,0,0,1,68.75,67Z" transform="translate(-5.62 -6.57)"/><path class="cls-2" d="M72.36,70.61l5.27-5.27h8.1V76.27H77.24l-4.88-5A.51.51,0,0,1,72.36,70.61Z" transform="translate(-5.62 -6.57)"/><path class="cls-2" d="M69.74,74.48,75,79.75v8.1H64.08V79.36l5-4.88A.5.5,0,0,1,69.74,74.48Z" transform="translate(-5.62 -6.57)"/><path class="cls-2" d="M65.2,71l-5.27,5.27h-8.1V65.34h8.49l4.88,5A.5.5,0,0,1,65.2,71Z" transform="translate(-5.62 -6.57)"/><circle class="cls-2" cx="191.18" cy="80.21" r="7.91"/><circle class="cls-2" cx="208.65" cy="63.6" r="7.91"/><circle class="cls-2" cx="172.85" cy="63.6" r="7.91"/><circle class="cls-2" cx="191.18" cy="47.77" r="7.91"/><path class="cls-2" d="M107.79,67.66V72.5a.64.64,0,0,0,.69.56H118a.64.64,0,0,0,.69-.56V67.66a.64.64,0,0,0-.69-.57h-9.51A.64.64,0,0,0,107.79,67.66Z" transform="translate(-5.62 -6.57)"/><path class="cls-2" d="M147.4,67.09c-.45,0-.82.26-.82.57V72.5c0,.31.37.56.82.56L158,70.61a.53.53,0,0,0,0-1.06Z" transform="translate(-5.62 -6.57)"/><circle class="cls-2" cx="94.91" cy="95.01" r="14.81"/><circle class="cls-2" cx="160.11" cy="95.01" r="14.81"/><circle class="cls-2" cx="127.2" cy="75.72" r="7"/><path class="cls-3" d="M81.84,23.47s0-4.25-7-4.25H64.63s-8.28.21-8.28,4.25a133.26,133.26,0,0,1,13.35-.55A94.1,94.1,0,0,1,81.84,23.47Z" transform="translate(-5.62 -6.57)"/><path class="cls-3" d="M208.8,22.85s0-4.24-7-4.24H191.6s-8.28.21-8.28,4.24a133,133,0,0,1,13.35-.55A94,94,0,0,1,208.8,22.85Z" transform="translate(-5.62 -6.57)"/><polyline class="cls-4" points="195.32 75.48 191.18 80.21 187.01 75.48"/><polyline class="cls-4" points="195.32 84.85 191.18 80.21 187.01 84.85"/><circle class="cls-5" cx="208.65" cy="63.6" r="4.99"/><path class="cls-6" d="M174.26,66.61v7.11a.46.46,0,0,0,.44.48h7.55a.47.47,0,0,0,.44-.48V66.61a.47.47,0,0,0-.44-.48H174.7A.46.46,0,0,0,174.26,66.61Z" transform="translate(-5.62 -6.57)"/><path class="cls-7" d="M196.5,50l-3.61,7a.34.34,0,0,0,.3.5h7.2a.34.34,0,0,0,.3-.5l-3.59-7A.33.33,0,0,0,196.5,50Z" transform="translate(-5.62 -6.57)"/></g><g id="Layer_9" data-name="Layer 9"><path class="cls-8" d="M10.82,21.27h22.1s2.36.49,2.36-2.26V9.19s.59-1.57-3.15-1.57H10.72S8.06,7.13,8.06,9.19v9.33A2.78,2.78,0,0,0,10.82,21.27Z" transform="translate(-5.62 -6.57)"/><path class="cls-8" d="M33.81,28.94,9.21,29s-3.14-.23-3.14,4.72S5.9,56,5.9,56s-.59,3.44,3.54,3.44H31.61s4.13.1,4.13-3.44,1-22.56,1-22.56S37.54,28.94,33.81,28.94Z" transform="translate(-5.62 -6.57)"/><path class="cls-8" d="M234.78,20.53h22.1s2.36.49,2.36-2.26V8.44s.59-1.57-3.14-1.57H234.68S232,6.38,232,8.44v9.34A2.77,2.77,0,0,0,234.78,20.53Z" transform="translate(-5.62 -6.57)"/><path class="cls-8" d="M257.27,27c-3.73,0-24.59.07-24.59.07s-3.14-.23-3.14,4.71,1,22.24,1,22.24a5.13,5.13,0,0,0,5.11,3.44H256s4.12.1,4.12-3.44.07-22.56.07-22.56S261,27,257.27,27Z" transform="translate(-5.62 -6.57)"/><text class="cls-9" transform="translate(238.81 8.42)">R1</text><text class="cls-9" transform="translate(238.81 39.76)">R2</text><text class="cls-9" transform="translate(13.45 8.9)">L1</text><text class="cls-9" transform="translate(13.45 40.23)">L2</text></g></g></svg>