<svg id="Controllers" xmlns="http://www.w3.org/2000/svg" viewBox="0 0 254.89 110.32"><defs><style>.cls-1{fill:#bcbec0;stroke:#231f20;}.cls-1,.cls-2,.cls-3,.cls-4,.cls-5,.cls-6{stroke-miterlimit:10;}.cls-2,.cls-3,.cls-4,.cls-5{fill:none;}.cls-2{stroke:#1c75bc;}.cls-3{stroke:#bb567c;}.cls-4{stroke:#5955a2;}.cls-5{stroke:#5bae41;}.cls-6{fill:#939598;stroke:#000;stroke-width:0.5px;}.cls-7{font-size:3.01px;fill:#231f20;font-family:MyriadPro-Regular, Myriad Pro;}</style></defs><g id="PS3Ctrl"><g id="CtrlBtnUsed"><path class="cls-1" d="M68.75,67l-5.27-5.28V53.58H74.4v8.48l-5,4.89A.5.5,0,0,1,68.75,67Z" transform="translate(-5.62 -6.57)"/><path class="cls-1" d="M72.36,70.61l5.27-5.27h8.1V76.27H77.24l-4.88-5A.51.51,0,0,1,72.36,70.61Z" transform="translate(-5.62 -6.57)"/><path class="cls-1" d="M69.74,74.48,75,79.75v8.1H64.08V79.36l5-4.88A.5.5,0,0,1,69.74,74.48Z" transform="translate(-5.62 -6.57)"/><path class="cls-1" d="M65.2,71l-5.27,5.27h-8.1V65.34h8.49l4.88,5A.5.5,0,0,1,65.2,71Z" transform="translate(-5.62 -6.57)"/><circle class="cls-1" cx="191.18" cy="80.21" r="7.91"/><circle class="cls-1" cx="208.65" cy="63.6" r="7.91"/><circle class="cls-1" cx="172.85" cy="63.6" r="7.91"/><circle class="cls-1" cx="191.18" cy="47.77" r="7.91"/><path class="cls-1" d="M107.79,67.66V72.5a.64.64,0,0,0,.69.56H118a.64.64,0,0,0,.69-.56V67.66a.64.64,0,0,0-.69-.57h-9.51A.64.64,0,0,0,107.79,67.66Z" transform="translate(-5.62 -6.57)"/><path class="cls-1" d="M147.4,67.09c-.45,0-.82.26-.82.57V72.5c0,.31.37.56.82.56L158,70.61a.53.53,0,0,0,0-1.06Z" transform="translate(-5.62 -6.57)"/><circle class="cls-1" cx="94.91" cy="95.01" r="14.81"/><circle class="cls-1" cx="160.11" cy="95.01" r="14.81"/><circle class="cls-1" cx="127.2" cy="75.72" r="7"/><polyline class="cls-2" points="195.32 75.48 191.18 80.21 187.01 75.48"/><polyline class="cls-2" points="195.32 84.85 191.18 80.21 187.01 84.85"/><circle class="cls-3" cx="208.65" cy="63.6" r="4.99"/><path class="cls-4" d="M174.26,66.61v7.11a.46.46,0,0,0,.44.48h7.55a.47.47,0,0,0,.44-.48V66.61a.47.47,0,0,0-.44-.48H174.7A.46.46,0,0,0,174.26,66.61Z" transform="translate(-5.62 -6.57)"/><path class="cls-5" d="M196.5,50l-3.61,7a.34.34,0,0,0,.3.5h7.2a.34.34,0,0,0,.3-.5l-3.59-7A.33.33,0,0,0,196.5,50Z" transform="translate(-5.62 -6.57)"/></g><g id="Layer_9" data-name="Layer 9"><path class="cls-6" d="M10.82,21.27h22.1s2.36.49,2.36-2.26V9.19s.59-1.57-3.15-1.57H10.72S8.06,7.13,8.06,9.19v9.33A2.78,2.78,0,0,0,10.82,21.27Z" transform="translate(-5.62 -6.57)"/><path class="cls-6" d="M33.81,28.94,9.21,29s-3.14-.23-3.14,4.72S5.9,56,5.9,56s-.59,3.44,3.54,3.44H31.61s4.13.1,4.13-3.44,1-22.56,1-22.56S37.54,28.94,33.81,28.94Z" transform="translate(-5.62 -6.57)"/><path class="cls-6" d="M234.78,20.53h22.1s2.36.49,2.36-2.26V8.44s.59-1.57-3.14-1.57H234.68S232,6.38,232,8.44v9.34A2.77,2.77,0,0,0,234.78,20.53Z" transform="translate(-5.62 -6.57)"/><path class="cls-6" d="M257.27,27c-3.73,0-24.59.07-24.59.07s-3.14-.23-3.14,4.71,1,22.24,1,22.24a5.13,5.13,0,0,0,5.11,3.44H256s4.12.1,4.12-3.44.07-22.56.07-22.56S261,27,257.27,27Z" transform="translate(-5.62 -6.57)"/><text class="cls-7" transform="translate(238.81 8.42)">R1</text><text class="cls-7" transform="translate(238.81 39.76)">R2</text><text class="cls-7" transform="translate(13.45 8.9)">L1</text><text class="cls-7" transform="translate(13.45 40.23)">L2</text></g></g></svg>