<?xml version="1.0" encoding="UTF-8" standalone="no"?>
<svg
   xmlns:dc="http://purl.org/dc/elements/1.1/"
   xmlns:cc="http://creativecommons.org/ns#"
   xmlns:rdf="http://www.w3.org/1999/02/22-rdf-syntax-ns#"
   xmlns:svg="http://www.w3.org/2000/svg"
   xmlns="http://www.w3.org/2000/svg"
   version="1.1"
   viewBox="0 0 261.11 153.14"
   id="PS3DrumGH">
  <metadata
     id="metadata74">
    <rdf:RDF>
      <cc:Work
         rdf:about="">
        <dc:format>image/svg+xml</dc:format>
        <dc:type
           rdf:resource="http://purl.org/dc/dcmitype/StillImage" />
      </cc:Work>
    </rdf:RDF>
  </metadata>
  <defs
     id="defs4">
    <style
       id="style2">.cls-1{fill:#333132;}.cls-1,.cls-10,.cls-2,.cls-3,.cls-4,.cls-5,.cls-6,.cls-7,.cls-8,.cls-9{stroke:#000;}.cls-1,.cls-10,.cls-11,.cls-12,.cls-13,.cls-14,.cls-15,.cls-16,.cls-17,.cls-18,.cls-2,.cls-3,.cls-4,.cls-5,.cls-6,.cls-7,.cls-8,.cls-9{stroke-miterlimit:10;}.cls-1,.cls-10,.cls-9{stroke-width:0.75px;}.cls-2{fill:#393839;}.cls-11,.cls-12,.cls-13,.cls-14,.cls-15,.cls-16,.cls-17,.cls-2,.cls-3,.cls-4,.cls-5,.cls-6,.cls-7,.cls-8{stroke-width:0.25px;}.cls-3{fill:#97999c;}.cls-4{fill:#302e2f;}.cls-5{fill:#565759;}.cls-6{fill:#cc493a;}.cls-7{fill:#496fb6;}.cls-8{fill:#46a07c;}.cls-9{fill:#db6f4b;}.cls-10{fill:#ffe17f;}.cls-11,.cls-12,.cls-13,.cls-14{fill:none;}.cls-11{stroke:#717a8d;}.cls-12{stroke:#9f5553;}.cls-13{stroke:#2ea081;}.cls-14{stroke:#b09fc1;}.cls-15{fill:#2d2a2b;}.cls-15,.cls-16,.cls-17,.cls-18{stroke:#231f20;}.cls-16,.cls-18{fill:#464547;}.cls-17{fill:#86888a;}.cls-18{stroke-width:0.1px;}</style>
  </defs>
  <g
     id="ga">
    <path
       class="cls-5"
       d="M214.26,141c-20.46,0-35.11-15.35-35.11-35.47,0-12.09,8.95-28.83,32.67-28.83S245.19,96.54,245.19,110,234.72,141,214.26,141Z"
       transform="translate(-2.18 -5.04)"
       id="path30" />
    <path
       class="cls-3"
       d="M146.93,33.32a1.72,1.72,0,0,0,1.8,1.89,2,2,0,0,0,2-1.89,1.91,1.91,0,0,0-3.82,0Z"
       transform="translate(-2.18 -5.04)"
       id="path40" />
    <polyline
       class="cls-11"
       points="145.86 29.07 146.7 28.26 145.86 27.41"
       id="polyline48" />
    <polyline
       class="cls-11"
       points="147.45 27.41 146.7 28.26 147.45 29.07"
       id="polyline50" />
  </g>
</svg>
