<?xml version="1.0" encoding="UTF-8" standalone="no"?>
<svg
   xmlns:dc="http://purl.org/dc/elements/1.1/"
   xmlns:cc="http://creativecommons.org/ns#"
   xmlns:rdf="http://www.w3.org/1999/02/22-rdf-syntax-ns#"
   xmlns:svg="http://www.w3.org/2000/svg"
   xmlns="http://www.w3.org/2000/svg"
   version="1.1"
   viewBox="0 0 261.11 153.14"
   id="PS3DrumGH">
  <metadata
     id="metadata74">
    <rdf:RDF>
      <cc:Work
         rdf:about="">
        <dc:format>image/svg+xml</dc:format>
        <dc:type
           rdf:resource="http://purl.org/dc/dcmitype/StillImage" />
      </cc:Work>
    </rdf:RDF>
  </metadata>
  <defs
     id="defs4">
    <style
       id="style2">.cls-1{fill:#333132;}.cls-1,.cls-10,.cls-2,.cls-3,.cls-4,.cls-5,.cls-6,.cls-7,.cls-8,.cls-9{stroke:#000;}.cls-1,.cls-10,.cls-11,.cls-12,.cls-13,.cls-14,.cls-15,.cls-16,.cls-17,.cls-18,.cls-2,.cls-3,.cls-4,.cls-5,.cls-6,.cls-7,.cls-8,.cls-9{stroke-miterlimit:10;}.cls-1,.cls-10,.cls-9{stroke-width:0.75px;}.cls-2{fill:#393839;}.cls-11,.cls-12,.cls-13,.cls-14,.cls-15,.cls-16,.cls-17,.cls-2,.cls-3,.cls-4,.cls-5,.cls-6,.cls-7,.cls-8{stroke-width:0.25px;}.cls-3{fill:#97999c;}.cls-4{fill:#302e2f;}.cls-5{fill:#565759;}.cls-6{fill:#cc493a;}.cls-7{fill:#496fb6;}.cls-8{fill:#46a07c;}.cls-9{fill:#db6f4b;}.cls-10{fill:#ffe17f;}.cls-11,.cls-12,.cls-13,.cls-14{fill:none;}.cls-11{stroke:#717a8d;}.cls-12{stroke:#9f5553;}.cls-13{stroke:#2ea081;}.cls-14{stroke:#b09fc1;}.cls-15{fill:#2d2a2b;}.cls-15,.cls-16,.cls-17,.cls-18{stroke:#231f20;}.cls-16,.cls-18{fill:#464547;}.cls-17{fill:#86888a;}.cls-18{stroke-width:0.1px;}</style>
  </defs>
  <g
     id="ghome">
    <path
       class="cls-3"
       d="M125.52,29.43a2.84,2.84,0,0,0,2.92,2.92,2.51,2.51,0,0,0,2.73-2.73s.52-2.83-2.83-2.83C125.24,26.79,125.52,29.43,125.52,29.43Z"
       transform="translate(-2.18 -5.04)"
       id="path10" />
    <path
       class="cls-18"
       d="M128.83,28.8v1a.5.5,0,0,0,.78-.4.94.94,0,0,0-.62-1.12c-.27-.11-1.15-.34-1.15-.34v3.11l.71.22V28.72s0-.25.16-.18S128.83,28.8,128.83,28.8Z"
       transform="translate(-2.18 -5.04)"
       id="path65" />
    <path
       class="cls-18"
       d="M130.52,30.34c-.14-.23-.86-.31-1.05-.3a2.62,2.62,0,0,0-.79.13v.43l.74-.26a.74.74,0,0,1,.47,0c.1.05,0,.11-.13.16l-1.08.38v.41l1.53-.56S130.66,30.57,130.52,30.34Z"
       transform="translate(-2.18 -5.04)"
       id="path67" />
    <path
       class="cls-18"
       d="M126.25,30.48c0,.13,0,.27.5.39a2.43,2.43,0,0,0,1,0v-.37l-.21.08c-.22.09-.52.13-.6.06s.08-.13.08-.13l.73-.26v-.41l-.88.31S126.29,30.35,126.25,30.48Z"
       transform="translate(-2.18 -5.04)"
       id="path69" />
  </g>
</svg>
