<?xml version="1.0" encoding="UTF-8" standalone="no"?>
<svg
   xmlns:dc="http://purl.org/dc/elements/1.1/"
   xmlns:cc="http://creativecommons.org/ns#"
   xmlns:rdf="http://www.w3.org/1999/02/22-rdf-syntax-ns#"
   xmlns:svg="http://www.w3.org/2000/svg"
   xmlns="http://www.w3.org/2000/svg"
   version="1.1"
   viewBox="0 0 261.11 153.14"
   id="PS3DrumGH">
  <metadata
     id="metadata74">
    <rdf:RDF>
      <cc:Work
         rdf:about="">
        <dc:format>image/svg+xml</dc:format>
        <dc:type
           rdf:resource="http://purl.org/dc/dcmitype/StillImage" />
      </cc:Work>
    </rdf:RDF>
  </metadata>
  <defs
     id="defs4">
    <style
       id="style2">.cls-1{fill:#333132;}.cls-1,.cls-10,.cls-2,.cls-3,.cls-4,.cls-5,.cls-6,.cls-7,.cls-8,.cls-9{stroke:#000;}.cls-1,.cls-10,.cls-11,.cls-12,.cls-13,.cls-14,.cls-15,.cls-16,.cls-17,.cls-18,.cls-2,.cls-3,.cls-4,.cls-5,.cls-6,.cls-7,.cls-8,.cls-9{stroke-miterlimit:10;}.cls-1,.cls-10,.cls-9{stroke-width:0.75px;}.cls-2{fill:#393839;}.cls-11,.cls-12,.cls-13,.cls-14,.cls-15,.cls-16,.cls-17,.cls-2,.cls-3,.cls-4,.cls-5,.cls-6,.cls-7,.cls-8{stroke-width:0.25px;}.cls-3{fill:#97999c;}.cls-4{fill:#302e2f;}.cls-5{fill:#565759;}.cls-6{fill:#cc493a;}.cls-7{fill:#496fb6;}.cls-8{fill:#46a07c;}.cls-9{fill:#db6f4b;}.cls-10{fill:#ffe17f;}.cls-11,.cls-12,.cls-13,.cls-14{fill:none;}.cls-11{stroke:#717a8d;}.cls-12{stroke:#9f5553;}.cls-13{stroke:#2ea081;}.cls-14{stroke:#b09fc1;}.cls-15{fill:#2d2a2b;}.cls-15,.cls-16,.cls-17,.cls-18{stroke:#231f20;}.cls-16,.cls-18{fill:#464547;}.cls-17{fill:#86888a;}.cls-18{stroke-width:0.1px;}</style>
  </defs>
  <g
     id="gLB">
    <path
       class="cls-5"
       d="M43,24.46l-1-9S41.49,8,50.93,6s12.75,8.16,12.75,8.16l.77,9.44,42.08,16.7s3.06.64,1.91,3.19S96.71,72.15,62.79,76.1,5.54,51.24,2.6,46.9c-1.91-2.29,6.12-5.81,6.12-5.81Z"
       transform="translate(-2.18 -5.04)"
       id="path32" />
    <path
       class="cls-9"
       d="M46.4,9.22S40.6,13,44.81,21s12.94,4.84,14.92,3.06,4.91-7.27.89-12.18S52,6.61,49.78,7.31A8.43,8.43,0,0,0,46.4,9.22Z"
       transform="translate(-2.18 -5.04)"
       id="path36" />
  </g>
</svg>
