<?xml version="1.0" encoding="UTF-8" standalone="no"?>
<svg
   xmlns:dc="http://purl.org/dc/elements/1.1/"
   xmlns:cc="http://creativecommons.org/ns#"
   xmlns:rdf="http://www.w3.org/1999/02/22-rdf-syntax-ns#"
   xmlns:svg="http://www.w3.org/2000/svg"
   xmlns="http://www.w3.org/2000/svg"
   version="1.1"
   viewBox="0 0 261.11 153.14"
   id="PS3DrumGH">
  <metadata
     id="metadata74">
    <rdf:RDF>
      <cc:Work
         rdf:about="">
        <dc:format>image/svg+xml</dc:format>
        <dc:type
           rdf:resource="http://purl.org/dc/dcmitype/StillImage" />
      </cc:Work>
    </rdf:RDF>
  </metadata>
  <defs
     id="defs4">
    <style
       id="style2">.cls-1{fill:#333132;}.cls-1,.cls-10,.cls-2,.cls-3,.cls-4,.cls-5,.cls-6,.cls-7,.cls-8,.cls-9{stroke:#000;}.cls-1,.cls-10,.cls-11,.cls-12,.cls-13,.cls-14,.cls-15,.cls-16,.cls-17,.cls-18,.cls-2,.cls-3,.cls-4,.cls-5,.cls-6,.cls-7,.cls-8,.cls-9{stroke-miterlimit:10;}.cls-1,.cls-10,.cls-9{stroke-width:0.75px;}.cls-2{fill:#393839;}.cls-11,.cls-12,.cls-13,.cls-14,.cls-15,.cls-16,.cls-17,.cls-2,.cls-3,.cls-4,.cls-5,.cls-6,.cls-7,.cls-8{stroke-width:0.25px;}.cls-3{fill:#97999c;}.cls-4{fill:#302e2f;}.cls-5{fill:#565759;}.cls-6{fill:#cc493a;}.cls-7{fill:#496fb6;}.cls-8{fill:#46a07c;}.cls-9{fill:#db6f4b;}.cls-10{fill:#ffe17f;}.cls-11,.cls-12,.cls-13,.cls-14{fill:none;}.cls-11{stroke:#717a8d;}.cls-12{stroke:#9f5553;}.cls-13{stroke:#2ea081;}.cls-14{stroke:#b09fc1;}.cls-15{fill:#2d2a2b;}.cls-15,.cls-16,.cls-17,.cls-18{stroke:#231f20;}.cls-16,.cls-18{fill:#464547;}.cls-17{fill:#86888a;}.cls-18{stroke-width:0.1px;}</style>
  </defs>
  <g
     id="gx">
    <path
       style="fill:#565759;stroke:#000000;stroke-width:0.25px;stroke-miterlimit:10"
       class="cls-5"
       d="m 43.579996,18.05 -41.18,19.2 c 0,0 -3,0.84 -1.69,3.31 1.31,2.47 16.1,30.77 50.21,32.4 C 85.03,74.59 106.34,44.24 108.92,39.72 c 1.75,-2.42 -6.5,-5.38 -6.5,-5.38 L 67.58,18.91 67.15,12.43 c 0,0 0.33,-12.36 -13.760004,-12.36 -7.21,0 -10.24,8.55 -10.39,10.5 a 67.22,67.22 0 0 0 0.58,7.48 z"
       id="path34" />
    <path
       style="fill:#ffe17f;stroke:#000000;stroke-width:0.75px;stroke-miterlimit:10"
       class="cls-10"
       d="m 64.03,10.44 c 0,0 1,10 -9.200004,10 -10.2,0 -10.24,-8.16 -10.18,-9.69 a 10.23,10.23 0 0 1 10.18,-9.18 C 63.21,1.33 64.03,10.44 64.03,10.44 Z"
       id="path38" />
    <path
       class="cls-3"
       d="M145,31.41s1.95.28,1.95-2a1.79,1.79,0,0,0-2-2,2,2,0,1,0,.05,4Z"
       transform="translate(-2.18 -5.04)"
       id="path46" />
    <rect
       class="cls-14"
       x="141.74"
       y="23.41"
       width="2.03"
       height="1.98"
       rx="0.03"
       id="rect56" />
  </g>
</svg>
