<?xml version="1.0" encoding="UTF-8" standalone="no"?>
<svg
   xmlns:dc="http://purl.org/dc/elements/1.1/"
   xmlns:cc="http://creativecommons.org/ns#"
   xmlns:rdf="http://www.w3.org/1999/02/22-rdf-syntax-ns#"
   xmlns:svg="http://www.w3.org/2000/svg"
   xmlns="http://www.w3.org/2000/svg"
   version="1.1"
   viewBox="0 0 261.11 153.14"
   id="PS3DrumGH">
  <metadata
     id="metadata74">
    <rdf:RDF>
      <cc:Work
         rdf:about="">
        <dc:format>image/svg+xml</dc:format>
        <dc:type
           rdf:resource="http://purl.org/dc/dcmitype/StillImage" />
      </cc:Work>
    </rdf:RDF>
  </metadata>
  <defs
     id="defs4">
    <style
       id="style2">.cls-1{fill:#333132;}.cls-1,.cls-10,.cls-2,.cls-3,.cls-4,.cls-5,.cls-6,.cls-7,.cls-8,.cls-9{stroke:#000;}.cls-1,.cls-10,.cls-11,.cls-12,.cls-13,.cls-14,.cls-15,.cls-16,.cls-17,.cls-18,.cls-2,.cls-3,.cls-4,.cls-5,.cls-6,.cls-7,.cls-8,.cls-9{stroke-miterlimit:10;}.cls-1,.cls-10,.cls-9{stroke-width:0.75px;}.cls-2{fill:#393839;}.cls-11,.cls-12,.cls-13,.cls-14,.cls-15,.cls-16,.cls-17,.cls-2,.cls-3,.cls-4,.cls-5,.cls-6,.cls-7,.cls-8{stroke-width:0.25px;}.cls-3{fill:#97999c;}.cls-4{fill:#302e2f;}.cls-5{fill:#565759;}.cls-6{fill:#cc493a;}.cls-7{fill:#496fb6;}.cls-8{fill:#46a07c;}.cls-9{fill:#db6f4b;}.cls-10{fill:#ffe17f;}.cls-11,.cls-12,.cls-13,.cls-14{fill:none;}.cls-11{stroke:#717a8d;}.cls-12{stroke:#9f5553;}.cls-13{stroke:#2ea081;}.cls-14{stroke:#b09fc1;}.cls-15{fill:#2d2a2b;}.cls-15,.cls-16,.cls-17,.cls-18{stroke:#231f20;}.cls-16,.cls-18{fill:#464547;}.cls-17{fill:#86888a;}.cls-18{stroke-width:0.1px;}</style>
  </defs>
  <g
     id="gy">
    <path
       class="cls-7"
       d="M130,49.77c-26.11,0-34.14,22.59-34.14,37.6,0,14.26,14.6,32.17,34.14,32.17s35.2-15.29,35.2-33.73S152.68,49.77,130,49.77Zm.05,66.88c-17.93,0-31.31-16.43-31.31-29.52,0-13.77,7.36-34.49,31.31-34.49,20.83,0,32.3,16.15,32.3,33.07S148,116.65,130,116.65Z"
       transform="translate(-2.18 -5.04)"
       id="path24" />
    <path
       class="cls-5"
       d="M130,116.65c-17.93,0-31.31-16.43-31.31-29.52,0-13.77,7.36-34.49,31.31-34.49,20.83,0,32.3,16.15,32.3,33.07S148,116.65,130,116.65Z"
       transform="translate(-2.18 -5.04)"
       id="path26" />
    <path
       class="cls-3"
       d="M149,27.4a1.78,1.78,0,0,0,1.89-1.89,2.06,2.06,0,0,0-1.89-2.2,2,2,0,1,0,0,4.09Z"
       transform="translate(-2.18 -5.04)"
       id="path44" />
    <path
       style="fill:none;stroke:#2ea081;stroke-width:0.25;stroke-linecap:butt;stroke-linejoin:round;stroke-miterlimit:10;stroke-dasharray:none;stroke-opacity:1;paint-order:normal"
       d="m 147.8275,21.079473 c 0,0.01662 -0.0134,0.03 -0.03,0.03 h -1.97 c -0.0166,0 -0.0378,-0.01531 -0.03,-0.03 l 1.00719,-1.931719 c 0.33213,0.648666 0.68112,1.288159 1.023,1.93172 z"
       id="rect56-3" />
  </g>
</svg>
