<svg xmlns="http://www.w3.org/2000/svg" viewBox="0 0 227.95 158.41"><defs><style>.cls-1{fill:#393839;}.cls-1,.cls-15,.cls-16,.cls-17,.cls-18,.cls-2,.cls-3,.cls-4,.cls-5,.cls-6,.cls-7{stroke:#000;}.cls-1,.cls-10,.cls-11,.cls-12,.cls-13,.cls-14,.cls-15,.cls-16,.cls-17,.cls-18,.cls-19,.cls-2,.cls-20,.cls-21,.cls-3,.cls-4,.cls-5,.cls-6,.cls-7,.cls-8,.cls-9{stroke-miterlimit:10;}.cls-1,.cls-10,.cls-11,.cls-12,.cls-13,.cls-14,.cls-15,.cls-16,.cls-17,.cls-18,.cls-2,.cls-20,.cls-3,.cls-4,.cls-5,.cls-6,.cls-7,.cls-8,.cls-9{stroke-width:0.25px;}.cls-2{fill:#ba4125;}.cls-10,.cls-11,.cls-12,.cls-3,.cls-8,.cls-9{fill:#77787b;}.cls-4{fill:#4d70b3;}.cls-5{fill:#f6d854;}.cls-6{fill:#a92129;}.cls-7{fill:#5cbb59;}.cls-8{stroke:#a0410d;}.cls-9{stroke:#0054a6;}.cls-10{stroke:#ffe073;}.cls-11{stroke:#a3062a;}.cls-12{stroke:#007a4b;}.cls-13{fill:#888a8c;}.cls-13,.cls-14,.cls-19,.cls-20,.cls-21{stroke:#231f20;}.cls-14,.cls-15{fill:#2d2a2b;}.cls-16{fill:#c4c6c8;}.cls-17{fill:#6f7173;}.cls-18{fill:#999;}.cls-19{fill:#8f9194;}.cls-19,.cls-21{stroke-width:0.1px;}.cls-20{fill:#bcbec0;}.cls-21{fill:#464547;}</style></defs><g id="PS3GHGuitarWT"><path class="cls-1" d="M39,134.48s9.13,19.3,20.22,24,25,3.26,32.61-4.44,16.3-28.3,21.65-30.39,5.35-2.74,12.78-3.52,15.13-3.26,20.48-9.52c2.48-3.26,2.22-7.18-1.17-7.31s-7.06,6.13-13,3.27-12.45-8.87-4.23-14.22S138.91,85,138.91,85l.26-1.3s26.35-19,55.05-37.31C218,31.29,223.43,23.09,234.13,29.09c0,0,8.28-10.7,15.13-11.87,6.13-1,6.49-1.18,6.49-1.18L258,13.53,243.13,3.13s-.59-.46-1.6.39a20.62,20.62,0,0,1-9.06,5.32,87,87,0,0,1-12.72,1.79l-1.86,1.76s.72,4.73-1.6,5.68-89.12,53.54-89.12,53.54-3.87,3.87-6.43-1-2.91-9,2.22-13.61,7.17-5,5.3-11.65c-1.48-4.74-13.35.18-17.48,3.22S94.65,70.87,83.26,75C64.74,82.7,47,78.09,37.61,90.17s-8.09,24.7-4.78,32.26A94.44,94.44,0,0,0,39,134.48Z" transform="translate(-30.24 -2.88)"/><path class="cls-2" d="M190.17,41.74,187,37.6l-4.86,3.26,3.39,4.73a3.17,3.17,0,0,0,3.64.65,2.79,2.79,0,0,0,1.64-1.42A3.31,3.31,0,0,0,190.17,41.74ZM189.69,44a2,2,0,0,1-1.17,1,2.26,2.26,0,0,1-2.61-.47l-2.43-3.39L187,38.79l2.29,3A2.37,2.37,0,0,1,189.69,44Z" transform="translate(-30.24 -2.88)"/><path class="cls-3" d="M189.69,44a2,2,0,0,1-1.17,1,2.26,2.26,0,0,1-2.61-.47l-2.43-3.39L187,38.79l2.29,3A2.37,2.37,0,0,1,189.69,44Z" transform="translate(-30.24 -2.88)"/><path class="cls-4" d="M196.83,38.25l-3.69-4.92-4.92,3.35,4.2,5.38a3,3,0,0,0,3.82,0C198.46,40.53,196.83,38.25,196.83,38.25Zm-1.33,2.63a2.11,2.11,0,0,1-2.7,0l-3-3.8,3.48-2.38,2.6,3.49A1.87,1.87,0,0,1,195.5,40.88Z" transform="translate(-30.24 -2.88)"/><path class="cls-3" d="M195.5,40.88a2.11,2.11,0,0,1-2.7,0l-3-3.8,3.48-2.38,2.6,3.49A1.87,1.87,0,0,1,195.5,40.88Z" transform="translate(-30.24 -2.88)"/><path class="cls-5" d="M203.45,34.43l-3.72-5-5,3.26L199,38a3.1,3.1,0,0,0,3.75,0A2.91,2.91,0,0,0,203.45,34.43Zm-1.68,2.48a2.27,2.27,0,0,1-2.74,0L195.93,33l3.63-2.38,2.71,3.64A2.12,2.12,0,0,1,201.77,36.91Z" transform="translate(-30.24 -2.88)"/><path class="cls-3" d="M201.77,36.91a2.27,2.27,0,0,1-2.74,0L195.93,33l3.63-2.38,2.71,3.64A2.12,2.12,0,0,1,201.77,36.91Z" transform="translate(-30.24 -2.88)"/><path class="cls-6" d="M209.71,30.2l-3.77-4.72-4.58,3.05,4.21,5.38s1.33,1.54,3.39,0A2.81,2.81,0,0,0,209.71,30.2Zm-1.66,2.62a1.73,1.73,0,0,1-2.44,0l-3-3.86,3.29-2.2,2.71,3.39A2,2,0,0,1,208.05,32.82Z" transform="translate(-30.24 -2.88)"/><path class="cls-3" d="M208.05,32.86a1.73,1.73,0,0,1-2.44,0l-3-3.87,3.29-2.19,2.71,3.39A2,2,0,0,1,208.05,32.86Z" transform="translate(-30.24 -2.88)"/><path class="cls-7" d="M216.07,26.58l-3.79-4.83-4.76,3.07,4.21,5.31a2.84,2.84,0,0,0,3.62,0A2.62,2.62,0,0,0,216.07,26.58ZM214.46,29a2,2,0,0,1-2.58,0l-3-3.79,3.4-2.18L215,26.45A1.87,1.87,0,0,1,214.46,29Z" transform="translate(-30.24 -2.88)"/><path class="cls-3" d="M214.46,29a2,2,0,0,1-2.58,0l-3-3.79,3.4-2.18L215,26.45A1.87,1.87,0,0,1,214.46,29Z" transform="translate(-30.24 -2.88)"/><polygon class="cls-3" points="112.63 63.29 116.94 69.29 123.63 64.77 119.54 58.81 112.63 63.29"/><polygon class="cls-3" points="130.54 60.4 126.4 54.36 119.54 58.81 123.63 64.77 130.54 60.4"/><polygon class="cls-3" points="137.21 56.01 133.28 50.12 126.4 54.36 130.54 60.4 137.21 56.01"/><polygon class="cls-3" points="143.98 51.64 140.11 45.99 133.28 50.12 137.21 56.01 143.98 51.64"/><polygon class="cls-3" points="150.54 47.18 146.67 42.03 140.11 45.99 143.98 51.64 150.54 47.18"/><line class="cls-8" x1="113.94" y1="63.77" x2="119.79" y2="59.82"/><line class="cls-9" x1="120.53" y1="59.4" x2="126.56" y2="55.49"/><line class="cls-10" x1="127.51" y1="54.95" x2="133.65" y2="51.08"/><line class="cls-11" x1="134.61" y1="50.73" x2="140.22" y2="46.86"/><line class="cls-12" x1="141.2" y1="46.37" x2="146.81" y2="42.79"/><polygon class="cls-13" points="51.46 104.12 77.06 88.29 78.85 90.81 53.06 106.68 51.46 104.12"/><path class="cls-14" d="M83.3,109.57s-1.6,1.06-2.39,0c-1-1.44.79-2.57.79-2.57Z" transform="translate(-30.24 -2.88)"/><path class="cls-14" d="M107.3,91.17s2.1-1.48,3-.14-1.26,2.67-1.26,2.67Z" transform="translate(-30.24 -2.88)"/><path class="cls-15" d="M70.3,134.52l-6.69,7.22a1.64,1.64,0,0,0,0,2.55c1.41,1.34,3,3,3,3s1,.88,2.52-.65,6.2-6.88,6.2-6.88a1.45,1.45,0,0,0,0-2.38l-3.1-2.83A1.62,1.62,0,0,0,70.3,134.52Z" transform="translate(-30.24 -2.88)"/><path class="cls-16" d="M68.26,139.85s-.89.84-.21,1.52c.53.53,1.62-.19,1.62-.19l27.76-20.46a.7.7,0,0,0-.15-.87c-.42-.46-.73-.4-.73-.4Z" transform="translate(-30.24 -2.88)"/><path class="cls-17" d="M96.42,119.18a3.45,3.45,0,0,1,.86.67,4.58,4.58,0,0,1,.35,1.05l13.32-10a.82.82,0,0,0-.19-1.17c-.67-.64-1.11-.46-1.11-.46Z" transform="translate(-30.24 -2.88)"/><circle class="cls-18" cx="49.71" cy="146.03" r="3.95"/><circle class="cls-19" cx="49.61" cy="145.97" r="2.54"/><path class="cls-20" d="M61.07,107.31,73,126.07a1.63,1.63,0,0,0,2.19.55l.8-.46a1.64,1.64,0,0,0,.56-2.31l-12-18.66a1.63,1.63,0,0,0-2.15-.56l-.68.37A1.62,1.62,0,0,0,61.07,107.31Z" transform="translate(-30.24 -2.88)"/><rect class="cls-20" x="74.86" y="125.95" width="3.9" height="3.9" rx="1.59" transform="translate(-89.28 63.35) rotate(-34.6)"/><rect class="cls-20" x="58.7" y="101.33" width="3.9" height="3.9" rx="1.59" transform="translate(-78.16 49.83) rotate(-34.6)"/></g><g id="Layer_28" data-name="Layer 28"><path class="cls-21" d="M80.19,148v.87a.42.42,0,0,0,.65-.33.8.8,0,0,0-.52-.95c-.22-.09-1-.28-1-.28v2.61l.59.19v-2.18s0-.21.14-.15S80.19,148,80.19,148Z" transform="translate(-30.24 -2.88)"/><path class="cls-21" d="M81.61,149.29c-.11-.19-.72-.26-.88-.25a2.26,2.26,0,0,0-.66.11v.36l.63-.22a.61.61,0,0,1,.39,0c.08,0,0,.09-.11.13l-.91.32v.34l1.29-.46S81.73,149.48,81.61,149.29Z" transform="translate(-30.24 -2.88)"/><path class="cls-21" d="M78,149.41c0,.11,0,.23.43.33a2.1,2.1,0,0,0,.81,0v-.31l-.18.07c-.18.06-.43.1-.5,0s.06-.11.06-.11l.62-.22v-.34l-.74.26S78.05,149.3,78,149.41Z" transform="translate(-30.24 -2.88)"/></g></svg>