<?xml version="1.0" encoding="UTF-8" standalone="no"?>
<svg
   xmlns:dc="http://purl.org/dc/elements/1.1/"
   xmlns:cc="http://creativecommons.org/ns#"
   xmlns:rdf="http://www.w3.org/1999/02/22-rdf-syntax-ns#"
   xmlns:svg="http://www.w3.org/2000/svg"
   xmlns="http://www.w3.org/2000/svg"
   xmlns:sodipodi="http://sodipodi.sourceforge.net/DTD/sodipodi-0.dtd"
   xmlns:inkscape="http://www.inkscape.org/namespaces/inkscape"
   viewBox="0 0 227.95 158.41"
   version="1.1"
   id="svg78"
   sodipodi:docname="Base.svg"
   inkscape:version="0.92.5 (2060ec1f9f, 2020-04-08)">
  <metadata
     id="metadata82">
    <rdf:RDF>
      <cc:Work
         rdf:about="">
        <dc:format>image/svg+xml</dc:format>
        <dc:type
           rdf:resource="http://purl.org/dc/dcmitype/StillImage" />
      </cc:Work>
    </rdf:RDF>
  </metadata>
  <sodipodi:namedview
     pagecolor="#ffffff"
     bordercolor="#666666"
     borderopacity="1"
     objecttolerance="10"
     gridtolerance="10"
     guidetolerance="10"
     inkscape:pageopacity="0"
     inkscape:pageshadow="2"
     inkscape:window-width="2560"
     inkscape:window-height="1555"
     id="namedview80"
     showgrid="false"
     inkscape:zoom="11.756964"
     inkscape:cx="61.285605"
     inkscape:cy="8.5845689"
     inkscape:window-x="1080"
     inkscape:window-y="182"
     inkscape:window-maximized="0"
     inkscape:current-layer="svg78" />
  <defs
     id="defs4">
    <style
       id="style2">.cls-1{fill:#393839;}.cls-1,.cls-15,.cls-16,.cls-17,.cls-18,.cls-2,.cls-3,.cls-4,.cls-5,.cls-6,.cls-7{stroke:#000;}.cls-1,.cls-10,.cls-11,.cls-12,.cls-13,.cls-14,.cls-15,.cls-16,.cls-17,.cls-18,.cls-19,.cls-2,.cls-20,.cls-21,.cls-3,.cls-4,.cls-5,.cls-6,.cls-7,.cls-8,.cls-9{stroke-miterlimit:10;}.cls-1,.cls-10,.cls-11,.cls-12,.cls-13,.cls-14,.cls-15,.cls-16,.cls-17,.cls-18,.cls-2,.cls-20,.cls-3,.cls-4,.cls-5,.cls-6,.cls-7,.cls-8,.cls-9{stroke-width:0.25px;}.cls-2{fill:#ba4125;}.cls-10,.cls-11,.cls-12,.cls-3,.cls-8,.cls-9{fill:#77787b;}.cls-4{fill:#4d70b3;}.cls-5{fill:#f6d854;}.cls-6{fill:#a92129;}.cls-7{fill:#5cbb59;}.cls-8{stroke:#a0410d;}.cls-9{stroke:#0054a6;}.cls-10{stroke:#ffe073;}.cls-11{stroke:#a3062a;}.cls-12{stroke:#007a4b;}.cls-13{fill:#888a8c;}.cls-13,.cls-14,.cls-19,.cls-20,.cls-21{stroke:#231f20;}.cls-14,.cls-15{fill:#2d2a2b;}.cls-16{fill:#c4c6c8;}.cls-17{fill:#6f7173;}.cls-18{fill:#999;}.cls-19{fill:#8f9194;}.cls-19,.cls-21{stroke-width:0.1px;}.cls-20{fill:#bcbec0;}.cls-21{fill:#464547;}</style>
  </defs>
  <path
     inkscape:connector-curvature="0"
     class="cls-1"
     d="m 8.76,131.60001 c 0,0 9.13,19.3 20.22,24 11.09,4.7 25,3.26 32.6,-4.44 7.6,-7.7 16.31,-28.3 21.66,-30.39 5.35,-2.09 5.34,-2.74 12.78,-3.52 7.44,-0.78 15.13,-3.26 20.48,-9.52 2.48,-3.27 2.21,-7.18 -1.18,-7.31 -3.39,-0.13 -7,6.13 -13,3.26 -6,-2.87 -12.43,-8.900007 -4.21,-14.220007 8.22,-5.32 10.56,-7.3 10.56,-7.3 l 0.26,-1.3 c 0,0 26.35,-19 55,-37.31 23.78,-15.14 29.21,-23.35 39.91,-17.35 0,0 8.28,-10.69 15.13,-11.87 6.13,-1 6.49,-1.17 6.49,-1.17 l 2.25,-2.51 -14.82,-10.40000002 c 0,0 -0.58,-0.47 -1.58,0.39 a 20.54,20.54 0 0 1 -9.06,5.30999992 86.11,86.11 0 0 1 -12.74,1.83 l -1.86,1.76 c 0,0 0.72,4.7300001 -1.6,5.6700001 -2.32,0.94 -89.12,53.57 -89.12,53.57 0,0 -3.87,3.87 -6.43,-1 -2.56,-4.87 -2.92,-9 2.21,-13.61 5.13,-4.61 7.18,-5 5.31,-11.65 -1.48,-4.74 -13.35,0.17 -17.48,3.22 -4.13,3.05 -16.13,22.25 -27.52,26.33 -18.52,7.71 -36.26,3.13 -45.65,15.22 -9.39,12.09 -8.08999997,24.700007 -4.79,32.260007 a 95.14,95.14 0 0 0 6.18,12.05 z"
     id="path6"
     style="fill:#393839;stroke:#000000;stroke-width:0.25px;stroke-miterlimit:10" />
  <g
     transform="translate(3.2900505e-8,2.9755464e-6)"
     id="gLB"
     inkscape:label="#g958">
    <path
       inkscape:connector-curvature="0"
       id="path8"
       transform="translate(-25.69,-1.22)"
       d="m 185.62,40.08 -3.19,-4.15 -4.86,3.27 3.43,4.72 a 3.16,3.16 0 0 0 3.64,0.66 2.79,2.79 0 0 0 1.64,-1.42 3.3,3.3 0 0 0 -0.66,-3.08 z m -0.48,2.22 a 2,2 0 0 1 -1.17,1 2.28,2.28 0 0 1 -2.61,-0.47 l -2.43,-3.39 3.48,-2.34 2.29,3 a 2.37,2.37 0 0 1 0.44,2.2 z"
       class="cls-2"
       style="fill:#ba4125;stroke:#000000;stroke-width:0.25px;stroke-miterlimit:10" />
    <path
       inkscape:connector-curvature="0"
       id="path10"
       transform="translate(-25.69,-1.22)"
       d="m 185.14,42.3 a 2,2 0 0 1 -1.17,1 2.28,2.28 0 0 1 -2.61,-0.47 l -2.43,-3.39 3.48,-2.34 2.29,3 a 2.37,2.37 0 0 1 0.44,2.2 z"
       class="cls-3"
       style="fill:#77787b;stroke:#000000;stroke-width:0.25px;stroke-miterlimit:10" />
  </g>
  <g
     transform="translate(3.2900505e-8,2.9755464e-6)"
     id="gx"
     inkscape:label="#g962">
    <path
       inkscape:connector-curvature="0"
       id="path12"
       transform="translate(-25.69,-1.22)"
       d="m 192.27,36.59 -3.68,-4.93 -4.92,3.34 4.2,5.38 a 3,3 0 0 0 3.82,0 c 2.21,-1.51 0.58,-3.79 0.58,-3.79 z M 191,39.22 a 2.11,2.11 0 0 1 -2.7,0 l -3,-3.8 3.46,-2.42 2.6,3.48 A 1.89,1.89 0 0 1 191,39.22 Z"
       class="cls-4"
       style="fill:#4d70b3;stroke:#000000;stroke-width:0.25px;stroke-miterlimit:10" />
    <path
       inkscape:connector-curvature="0"
       id="path14"
       transform="translate(-25.69,-1.22)"
       d="m 191,39.22 a 2.11,2.11 0 0 1 -2.7,0 l -3,-3.8 3.46,-2.42 2.6,3.48 A 1.89,1.89 0 0 1 191,39.22 Z"
       class="cls-3"
       style="fill:#77787b;stroke:#000000;stroke-width:0.25px;stroke-miterlimit:10" />
  </g>
  <g
     transform="translate(3.2900505e-8,2.9755464e-6)"
     id="gy"
     inkscape:label="#g974">
    <path
       inkscape:connector-curvature="0"
       id="path16"
       transform="translate(-25.69,-1.22)"
       d="m 198.89,32.77 -3.71,-5 -5,3.26 4.24,5.33 a 3.1,3.1 0 0 0 3.75,0 2.91,2.91 0 0 0 0.72,-3.59 z m -1.67,2.48 a 2.27,2.27 0 0 1 -2.74,0 l -3.1,-3.89 3.62,-2.36 2.72,3.65 a 2.12,2.12 0 0 1 -0.5,2.6 z"
       class="cls-5"
       style="fill:#f6d854;stroke:#000000;stroke-width:0.25px;stroke-miterlimit:10" />
    <path
       inkscape:connector-curvature="0"
       id="path18"
       transform="translate(-25.69,-1.22)"
       d="m 197.22,35.25 a 2.27,2.27 0 0 1 -2.74,0 l -3.1,-3.89 3.62,-2.36 2.72,3.65 a 2.12,2.12 0 0 1 -0.5,2.6 z"
       class="cls-3"
       style="fill:#77787b;stroke:#000000;stroke-width:0.25px;stroke-miterlimit:10" />
  </g>
  <g
     transform="translate(3.2900505e-8,2.9755464e-6)"
     id="gb"
     inkscape:label="#g970">
    <path
       inkscape:connector-curvature="0"
       id="path20"
       transform="translate(-25.69,-1.22)"
       d="m 205.15,28.53 -3.76,-4.72 -4.58,3.06 4.2,5.38 c 0,0 1.34,1.53 3.39,0 a 2.81,2.81 0 0 0 0.75,-3.72 z m -1.65,2.63 a 1.73,1.73 0 0 1 -2.44,0 l -3,-3.87 3.29,-2.19 2.65,3.39 a 2,2 0 0 1 -0.5,2.67 z"
       class="cls-6"
       style="fill:#a92129;stroke:#000000;stroke-width:0.25px;stroke-miterlimit:10" />
    <path
       inkscape:connector-curvature="0"
       id="path22"
       transform="translate(-25.69,-1.22)"
       d="m 203.5,31.19 a 1.72,1.72 0 0 1 -2.44,0 l -3,-3.86 3.29,-2.2 2.65,3.39 a 2,2 0 0 1 -0.5,2.67 z"
       class="cls-3"
       style="fill:#77787b;stroke:#000000;stroke-width:0.25px;stroke-miterlimit:10" />
  </g>
  <g
     transform="translate(3.2900505e-8,2.9755464e-6)"
     id="ga"
     inkscape:label="#g966">
    <path
       inkscape:connector-curvature="0"
       id="path24"
       transform="translate(-25.69,-1.22)"
       d="m 211.51,24.91 -3.78,-4.82 -4.73,3.06 4.21,5.32 a 2.84,2.84 0 0 0 3.62,0 2.63,2.63 0 0 0 0.68,-3.56 z m -1.6,2.41 a 2,2 0 0 1 -2.58,0 l -3,-3.79 3.4,-2.19 2.69,3.44 a 1.88,1.88 0 0 1 -0.51,2.54 z"
       class="cls-7"
       style="fill:#5cbb59;stroke:#000000;stroke-width:0.25px;stroke-miterlimit:10" />
    <path
       inkscape:connector-curvature="0"
       id="path26"
       transform="translate(-25.69,-1.22)"
       d="m 209.91,27.32 a 2,2 0 0 1 -2.58,0 l -3,-3.79 3.4,-2.19 2.69,3.44 a 1.88,1.88 0 0 1 -0.51,2.54 z"
       class="cls-3"
       style="fill:#77787b;stroke:#000000;stroke-width:0.25px;stroke-miterlimit:10" />
  </g>
  <polygon
     transform="translate(3.2900505e-8,2.9755464e-6)"
     class="cls-3"
     points="112.63,63.29 116.94,69.29 123.63,64.77 119.54,58.81 "
     id="polygon28"
     style="fill:#77787b;stroke:#000000;stroke-width:0.25px;stroke-miterlimit:10" />
  <polygon
     transform="translate(3.2900505e-8,2.9755464e-6)"
     class="cls-3"
     points="130.54,60.4 126.4,54.36 119.54,58.81 123.63,64.77 "
     id="polygon30"
     style="fill:#77787b;stroke:#000000;stroke-width:0.25px;stroke-miterlimit:10" />
  <polygon
     transform="translate(3.2900505e-8,2.9755464e-6)"
     class="cls-3"
     points="137.21,56.01 133.28,50.12 126.4,54.36 130.54,60.4 "
     id="polygon32"
     style="fill:#77787b;stroke:#000000;stroke-width:0.25px;stroke-miterlimit:10" />
  <polygon
     transform="translate(3.2900505e-8,2.9755464e-6)"
     class="cls-3"
     points="143.98,51.64 140.11,45.99 133.28,50.12 137.21,56.01 "
     id="polygon34"
     style="fill:#77787b;stroke:#000000;stroke-width:0.25px;stroke-miterlimit:10" />
  <polygon
     transform="translate(3.2900505e-8,2.9755464e-6)"
     class="cls-3"
     points="150.54,47.18 146.67,42.03 140.11,45.99 143.98,51.64 "
     id="polygon36"
     style="fill:#77787b;stroke:#000000;stroke-width:0.25px;stroke-miterlimit:10" />
  <line
     class="cls-8"
     x1="113.94"
     y1="63.770004"
     x2="119.79"
     y2="59.820004"
     id="line38"
     style="fill:#77787b;stroke:#a0410d;stroke-width:0.25px;stroke-miterlimit:10" />
  <line
     class="cls-9"
     x1="120.53"
     y1="59.400005"
     x2="126.56001"
     y2="55.490005"
     id="line40"
     style="fill:#77787b;stroke:#0054a6;stroke-width:0.25px;stroke-miterlimit:10" />
  <line
     class="cls-10"
     x1="127.51"
     y1="54.950005"
     x2="133.64999"
     y2="51.080006"
     id="line42"
     style="fill:#77787b;stroke:#ffe073;stroke-width:0.25px;stroke-miterlimit:10" />
  <line
     class="cls-11"
     x1="134.61"
     y1="50.730003"
     x2="140.22"
     y2="46.860004"
     id="line44"
     style="fill:#77787b;stroke:#a3062a;stroke-width:0.25px;stroke-miterlimit:10" />
  <line
     class="cls-12"
     x1="141.2"
     y1="46.370003"
     x2="146.81"
     y2="42.790005"
     id="line46"
     style="fill:#77787b;stroke:#007a4b;stroke-width:0.25px;stroke-miterlimit:10" />
  <g
     transform="translate(3.2900505e-8,2.9755464e-6)"
     id="gstrum"
     inkscape:label="#g954">
    <polygon
       id="polygon48"
       points="51.46,104.12 77.06,88.29 78.85,90.81 53.06,106.68 "
       class="cls-13"
       style="fill:#888a8c;stroke:#231f20;stroke-width:0.25px;stroke-miterlimit:10" />
    <path
       inkscape:connector-curvature="0"
       id="path50"
       transform="translate(-25.69,-1.22)"
       d="m 78.75,107.9 c 0,0 -1.61,1.07 -2.39,0 -1.06,-1.44 0.78,-2.56 0.78,-2.56 z"
       class="cls-14"
       style="fill:#2d2a2b;stroke:#231f20;stroke-width:0.25px;stroke-miterlimit:10" />
    <path
       inkscape:connector-curvature="0"
       id="path52"
       transform="translate(-25.69,-1.22)"
       d="m 102.75,89.51 c 0,0 2.1,-1.48 3,-0.15 0.9,1.33 -1.21,2.64 -1.21,2.64 z"
       class="cls-14"
       style="fill:#2d2a2b;stroke:#231f20;stroke-width:0.25px;stroke-miterlimit:10" />
  </g>
  <g
     transform="translate(3.2900505e-8,2.9755464e-6)"
     id="gr_x">
    <path
       inkscape:connector-curvature="0"
       id="path54"
       transform="translate(-25.69,-1.22)"
       d="m 65.75,132.86 -6.69,7.22 a 1.63,1.63 0 0 0 0,2.55 c 1.41,1.34 3,3 3,3 0,0 1,0.88 2.52,-0.65 1.52,-1.53 6.2,-6.88 6.2,-6.88 a 1.46,1.46 0 0 0 0,-2.39 l -3.1,-2.82 a 1.62,1.62 0 0 0 -1.93,-0.03 z"
       class="cls-15"
       style="fill:#2d2a2b;stroke:#000000;stroke-width:0.25px;stroke-miterlimit:10" />
    <path
       inkscape:connector-curvature="0"
       id="path56"
       transform="translate(-25.69,-1.22)"
       d="m 63.71,138.18 c 0,0 -0.89,0.85 -0.21,1.53 0.52,0.52 1.62,-0.19 1.62,-0.19 l 27.76,-20.47 a 0.71,0.71 0 0 0 -0.15,-0.87 C 92.31,117.73 92,117.78 92,117.78 Z"
       class="cls-16"
       style="fill:#c4c6c8;stroke:#000000;stroke-width:0.25px;stroke-miterlimit:10" />
    <path
       inkscape:connector-curvature="0"
       id="path58"
       transform="translate(-25.69,-1.22)"
       d="m 91.87,117.52 a 3.6,3.6 0 0 1 0.86,0.66 4.75,4.75 0 0 1 0.35,1 l 13.32,-10 a 0.82,0.82 0 0 0 -0.2,-1.17 c -0.66,-0.64 -1.11,-0.46 -1.11,-0.46 z"
       class="cls-17"
       style="fill:#6f7173;stroke:#000000;stroke-width:0.25px;stroke-miterlimit:10" />
  </g>
  <path
     inkscape:connector-curvature="0"
     class="cls-20"
     d="m 30.83,104.43001 11.87,18.76 a 1.64,1.64 0 0 0 2.2,0.54 l 0.8,-0.45 a 1.64,1.64 0 0 0 0.56,-2.31 l -11.95,-18.67 a 1.64,1.64 0 0 0 -2.15,-0.56 l -0.68,0.37 a 1.64,1.64 0 0 0 -0.65,2.32 z"
     id="gback"
     inkscape:label="#path64"
     style="fill:#bcbec0;stroke:#231f20;stroke-width:0.25px;stroke-miterlimit:10" />
  <g
     transform="translate(3.2900505e-8,2.9755464e-6)"
     id="g949">
    <rect
       id="rect66"
       transform="rotate(-34.6,57.459285,166.86361)"
       rx="1.59"
       height="3.9000001"
       width="3.9000001"
       y="124.28"
       x="70.309998"
       class="cls-20"
       style="fill:#bcbec0;stroke:#231f20;stroke-width:0.25px;stroke-miterlimit:10" />
    <rect
       id="rect68"
       transform="rotate(-34.6,41.299371,142.24751)"
       rx="1.59"
       height="3.9000001"
       width="3.9000001"
       y="99.669998"
       x="54.150002"
       class="cls-20"
       style="fill:#bcbec0;stroke:#231f20;stroke-width:0.25px;stroke-miterlimit:10" />
  </g>
  <circle
     class="cls-15"
     id="circle46-6"
     style="fill:#434345;stroke:#231f20;stroke-width:0.27672404;stroke-linejoin:round;stroke-miterlimit:10;stroke-dasharray:none"
     cy="-138.86409"
     cx="65.895317"
     r="5.6254334"
     transform="rotate(135)" />
  <path
     sodipodi:type="star"
     style="opacity:1;vector-effect:none;fill:#000000;fill-opacity:1;stroke:#231f20;stroke-width:0.2;stroke-linecap:round;stroke-linejoin:round;stroke-miterlimit:4;stroke-dasharray:none;stroke-dashoffset:0;stroke-opacity:1"
     id="gdown"
     sodipodi:sides="3"
     sodipodi:cx="97.942856"
     sodipodi:cy="67.830307"
     sodipodi:r1="0.85285169"
     sodipodi:r2="0.42642584"
     sodipodi:arg1="1.5707963"
     sodipodi:arg2="2.6179939"
     inkscape:flatsided="false"
     inkscape:rounded="0"
     inkscape:randomized="0"
     d="m 97.942856,68.683159 -0.369296,-0.639639 -0.369295,-0.639639 0.738591,0 0.738591,0 -0.369296,0.639639 z"
     inkscape:transform-center-y="-0.35994506"
     transform="matrix(-1.1312258,1.1312258,-0.97169321,-0.97169319,226.05311,97.722108)"
     inkscape:transform-center-x="-0.32033002"
     inkscape:label="#path1699" />
  <path
     sodipodi:type="star"
     style="opacity:1;vector-effect:none;fill:#000000;fill-opacity:1;stroke:#231f20;stroke-width:0.2;stroke-linecap:round;stroke-linejoin:round;stroke-miterlimit:4;stroke-dasharray:none;stroke-dashoffset:0;stroke-opacity:1"
     id="gup"
     sodipodi:sides="3"
     sodipodi:cx="97.942856"
     sodipodi:cy="67.830307"
     sodipodi:r1="0.85285169"
     sodipodi:r2="0.42642584"
     sodipodi:arg1="1.5707963"
     sodipodi:arg2="2.6179939"
     inkscape:flatsided="false"
     inkscape:rounded="0"
     inkscape:randomized="0"
     d="m 97.942856,68.683159 -0.369296,-0.639639 -0.369295,-0.639639 0.738591,0 0.738591,0 -0.369296,0.639639 z"
     inkscape:transform-center-y="2.2707169"
     transform="matrix(-1.2426055,1.2426055,1.0673654,1.0673654,103.19544,-46.70595)"
     inkscape:transform-center-x="1.0091855"
     inkscape:label="#path1699-0" />
  <path
     sodipodi:type="star"
     style="opacity:1;vector-effect:none;fill:#050506;fill-opacity:1;stroke:#231f20;stroke-width:0.2;stroke-linecap:round;stroke-linejoin:round;stroke-miterlimit:4;stroke-dasharray:none;stroke-dashoffset:0;stroke-opacity:1"
     id="gright"
     sodipodi:sides="3"
     sodipodi:cx="97.942856"
     sodipodi:cy="67.830307"
     sodipodi:r1="0.85285169"
     sodipodi:r2="0.42642584"
     sodipodi:arg1="1.5707963"
     sodipodi:arg2="2.6179939"
     inkscape:flatsided="false"
     inkscape:rounded="0"
     inkscape:randomized="0"
     d="m 97.942856,68.683159 -0.369296,-0.639639 -0.369295,-0.639639 0.738591,0 0.738591,0 -0.369296,0.639639 z"
     transform="matrix(1.2085851,1.2085851,-1.0381428,1.0381428,1.390603,-41.380864)"
     inkscape:transform-center-x="0.38454831"
     inkscape:transform-center-y="-0.34223691"
     inkscape:label="#path1699-6" />
  <path
     sodipodi:type="star"
     style="opacity:1;vector-effect:none;fill:#000000;fill-opacity:1;stroke:#231f20;stroke-width:0.2;stroke-linecap:round;stroke-linejoin:round;stroke-miterlimit:4;stroke-dasharray:none;stroke-dashoffset:0;stroke-opacity:1"
     id="gleft"
     sodipodi:sides="3"
     sodipodi:cx="97.942856"
     sodipodi:cy="67.830307"
     sodipodi:r1="0.85285169"
     sodipodi:r2="0.42642584"
     sodipodi:arg1="1.5707963"
     sodipodi:arg2="2.6179939"
     inkscape:flatsided="false"
     inkscape:rounded="0"
     inkscape:randomized="0"
     d="m 97.942856,68.683159 -0.369296,-0.639639 -0.369295,-0.639639 0.738591,0 0.738591,0 -0.369296,0.639639 z"
     inkscape:transform-center-y="1.0478705"
     transform="matrix(1.2902708,1.2902708,1.1083087,-1.1083087,-147.51369,91.307632)"
     inkscape:transform-center-x="-2.3578049"
     inkscape:label="#path1699-0-1" />
  <circle
     style="fill:#8f9194;stroke:#231f20;stroke-width:0.0873729px;stroke-miterlimit:10"
     class="cls-19"
     cx="65.944763"
     cy="-138.97447"
     r="2.2192714"
     id="circle62"
     transform="rotate(135)" />
  <g
     id="ghome"
     inkscape:label="#g1242">
    <ellipse
       transform="rotate(135)"
       id="ellipse70-6"
       ry="1.5669546"
       rx="1.6123737"
       cy="-138.92204"
       cx="65.97097"
       class="cls-21"
       style="fill:#d1d3d4;stroke:#231f20;stroke-width:0.03784915px;stroke-miterlimit:10;fill-opacity:1" />
    <g
       transform="matrix(0.73335778,0,0,0.73335778,15.194372,37.794244)"
       data-name="Layer 28"
       id="Layer_28">
      <path
         style="fill:#464547;stroke:#231f20;stroke-width:0.1px;stroke-miterlimit:10"
         inkscape:connector-curvature="0"
         id="path71"
         transform="translate(-30.24,-2.88)"
         d="m 80.19,148 v 0.87 a 0.42,0.42 0 0 0 0.65,-0.33 0.8,0.8 0 0 0 -0.52,-0.95 c -0.22,-0.09 -1,-0.28 -1,-0.28 v 2.61 l 0.59,0.19 v -2.18 c 0,0 0,-0.21 0.14,-0.15 0.14,0.06 0.14,0.22 0.14,0.22 z"
         class="cls-21" />
      <path
         style="fill:#464547;stroke:#231f20;stroke-width:0.1px;stroke-miterlimit:10"
         inkscape:connector-curvature="0"
         id="path73"
         transform="translate(-30.24,-2.88)"
         d="m 81.61,149.29 c -0.11,-0.19 -0.72,-0.26 -0.88,-0.25 a 2.26,2.26 0 0 0 -0.66,0.11 v 0.36 l 0.63,-0.22 a 0.61,0.61 0 0 1 0.39,0 c 0.08,0 0,0.09 -0.11,0.13 l -0.91,0.32 v 0.34 l 1.29,-0.46 c 0,0 0.37,-0.14 0.25,-0.33 z"
         class="cls-21" />
      <path
         style="fill:#464547;stroke:#231f20;stroke-width:0.1px;stroke-miterlimit:10"
         inkscape:connector-curvature="0"
         id="path75"
         transform="translate(-30.24,-2.88)"
         d="m 78,149.41 c 0,0.11 0,0.23 0.43,0.33 a 2.1,2.1 0 0 0 0.81,0 v -0.31 l -0.18,0.07 c -0.18,0.06 -0.43,0.1 -0.5,0 -0.07,-0.1 0.06,-0.11 0.06,-0.11 l 0.62,-0.22 v -0.34 l -0.74,0.26 c 0,0 -0.45,0.21 -0.5,0.32 z"
         class="cls-21" />
    </g>
    <ellipse
       transform="rotate(135)"
       id="ellipse70"
       ry="1.8086189"
       rx="1.8610427"
       cy="-138.92204"
       cx="65.97097"
       class="cls-21"
       style="fill:none;stroke:#231f20;stroke-width:0.04368645px;stroke-miterlimit:10" />
  </g>
  <circle
     class="cls-13"
     cx="59.731346"
     cy="136.80821"
     r="4.5300002"
     id="gljoy"
     style="fill:#999999;fill-opacity:1;stroke:#231f20;stroke-width:0.1px;stroke-miterlimit:10"
     inkscape:label="#circle68" />
</svg>
