<svg xmlns="http://www.w3.org/2000/svg" viewBox="0 0 158.17 131.4"><defs><style>.cls-1{fill:#ba4125;}.cls-1,.cls-14,.cls-15,.cls-16,.cls-17,.cls-2,.cls-3,.cls-4,.cls-5,.cls-6{stroke:#000;}.cls-1,.cls-10,.cls-11,.cls-12,.cls-13,.cls-14,.cls-15,.cls-16,.cls-17,.cls-18,.cls-19,.cls-2,.cls-20,.cls-3,.cls-4,.cls-5,.cls-6,.cls-7,.cls-8,.cls-9{stroke-miterlimit:10;}.cls-1,.cls-10,.cls-11,.cls-12,.cls-13,.cls-14,.cls-15,.cls-16,.cls-17,.cls-19,.cls-2,.cls-3,.cls-4,.cls-5,.cls-6,.cls-7,.cls-8,.cls-9{stroke-width:0.25px;}.cls-10,.cls-11,.cls-2,.cls-7,.cls-8,.cls-9{fill:#77787b;}.cls-3{fill:#4d70b3;}.cls-4{fill:#f6d854;}.cls-5{fill:#a92129;}.cls-6{fill:#5cbb59;}.cls-7{stroke:#a0410d;}.cls-8{stroke:#0054a6;}.cls-9{stroke:#ffe073;}.cls-10{stroke:#a3062a;}.cls-11{stroke:#007a4b;}.cls-12{fill:#888a8c;}.cls-12,.cls-13,.cls-18,.cls-19,.cls-20{stroke:#231f20;}.cls-13,.cls-14{fill:#2d2a2b;}.cls-15{fill:#c4c6c8;}.cls-16{fill:#6f7173;}.cls-17{fill:#999;}.cls-18{fill:#8f9194;}.cls-18,.cls-20{stroke-width:0.1px;}.cls-19{fill:#bcbec0;}.cls-20{fill:#464547;}</style></defs><g id="PS3GHGuitarWT"><path class="cls-1" d="M190.17,41.74,187,37.6l-4.86,3.26,3.39,4.73a3.17,3.17,0,0,0,3.64.65,2.79,2.79,0,0,0,1.64-1.42A3.31,3.31,0,0,0,190.17,41.74ZM189.69,44a2,2,0,0,1-1.17,1,2.26,2.26,0,0,1-2.61-.47l-2.43-3.39L187,38.79l2.29,3A2.37,2.37,0,0,1,189.69,44Z" transform="translate(-58.44 -21.58)"/><path class="cls-2" d="M189.69,44a2,2,0,0,1-1.17,1,2.26,2.26,0,0,1-2.61-.47l-2.43-3.39L187,38.79l2.29,3A2.37,2.37,0,0,1,189.69,44Z" transform="translate(-58.44 -21.58)"/><path class="cls-3" d="M196.83,38.25l-3.69-4.92-4.92,3.35,4.2,5.38a3,3,0,0,0,3.82,0C198.46,40.53,196.83,38.25,196.83,38.25Zm-1.33,2.63a2.11,2.11,0,0,1-2.7,0l-3-3.8,3.48-2.38,2.6,3.49A1.87,1.87,0,0,1,195.5,40.88Z" transform="translate(-58.44 -21.58)"/><path class="cls-2" d="M195.5,40.88a2.11,2.11,0,0,1-2.7,0l-3-3.8,3.48-2.38,2.6,3.49A1.87,1.87,0,0,1,195.5,40.88Z" transform="translate(-58.44 -21.58)"/><path class="cls-4" d="M203.45,34.43l-3.72-5-5,3.26L199,38a3.1,3.1,0,0,0,3.75,0A2.91,2.91,0,0,0,203.45,34.43Zm-1.68,2.48a2.27,2.27,0,0,1-2.74,0L195.93,33l3.63-2.38,2.71,3.64A2.12,2.12,0,0,1,201.77,36.91Z" transform="translate(-58.44 -21.58)"/><path class="cls-2" d="M201.77,36.91a2.27,2.27,0,0,1-2.74,0L195.93,33l3.63-2.38,2.71,3.64A2.12,2.12,0,0,1,201.77,36.91Z" transform="translate(-58.44 -21.58)"/><path class="cls-5" d="M209.71,30.2l-3.77-4.72-4.58,3.05,4.21,5.38s1.33,1.54,3.39,0A2.81,2.81,0,0,0,209.71,30.2Zm-1.66,2.62a1.73,1.73,0,0,1-2.44,0l-3-3.86,3.29-2.2,2.71,3.39A2,2,0,0,1,208.05,32.82Z" transform="translate(-58.44 -21.58)"/><path class="cls-2" d="M208.05,32.86a1.73,1.73,0,0,1-2.44,0l-3-3.87,3.29-2.19,2.71,3.39A2,2,0,0,1,208.05,32.86Z" transform="translate(-58.44 -21.58)"/><path class="cls-6" d="M216.07,26.58l-3.79-4.83-4.76,3.07,4.21,5.31a2.84,2.84,0,0,0,3.62,0A2.62,2.62,0,0,0,216.07,26.58ZM214.46,29a2,2,0,0,1-2.58,0l-3-3.79,3.4-2.18L215,26.45A1.87,1.87,0,0,1,214.46,29Z" transform="translate(-58.44 -21.58)"/><path class="cls-2" d="M214.46,29a2,2,0,0,1-2.58,0l-3-3.79,3.4-2.18L215,26.45A1.87,1.87,0,0,1,214.46,29Z" transform="translate(-58.44 -21.58)"/><polygon class="cls-2" points="84.43 44.59 88.74 50.59 95.43 46.07 91.34 40.11 84.43 44.59"/><polygon class="cls-2" points="102.34 41.7 98.2 35.66 91.34 40.11 95.43 46.07 102.34 41.7"/><polygon class="cls-2" points="109.01 37.31 105.08 31.42 98.2 35.66 102.34 41.7 109.01 37.31"/><polygon class="cls-2" points="115.78 32.94 111.91 27.29 105.08 31.42 109.01 37.31 115.78 32.94"/><polygon class="cls-2" points="122.34 28.48 118.48 23.33 111.91 27.29 115.78 32.94 122.34 28.48"/><line class="cls-7" x1="85.75" y1="45.07" x2="91.6" y2="41.12"/><line class="cls-8" x1="92.33" y1="40.7" x2="98.36" y2="36.79"/><line class="cls-9" x1="99.31" y1="36.25" x2="105.45" y2="32.38"/><line class="cls-10" x1="106.42" y1="32.03" x2="112.02" y2="28.16"/><line class="cls-11" x1="113" y1="27.67" x2="118.61" y2="24.09"/><polygon class="cls-12" points="23.26 85.42 48.87 69.59 50.65 72.11 24.87 87.98 23.26 85.42"/><path class="cls-13" d="M83.3,109.57s-1.6,1.06-2.39,0c-1-1.44.79-2.57.79-2.57Z" transform="translate(-58.44 -21.58)"/><path class="cls-13" d="M107.3,91.17s2.1-1.48,3-.14-1.26,2.67-1.26,2.67Z" transform="translate(-58.44 -21.58)"/><path class="cls-14" d="M70.3,134.52l-6.69,7.22a1.64,1.64,0,0,0,0,2.55c1.41,1.34,3,3,3,3s1,.88,2.52-.65,6.2-6.88,6.2-6.88a1.45,1.45,0,0,0,0-2.38l-3.1-2.83A1.62,1.62,0,0,0,70.3,134.52Z" transform="translate(-58.44 -21.58)"/><path class="cls-15" d="M68.26,139.85s-.89.84-.21,1.52c.53.53,1.62-.19,1.62-.19l27.76-20.46a.7.7,0,0,0-.15-.87c-.42-.46-.73-.4-.73-.4Z" transform="translate(-58.44 -21.58)"/><path class="cls-16" d="M96.42,119.18a3.45,3.45,0,0,1,.86.67,4.58,4.58,0,0,1,.35,1.05l13.32-10a.82.82,0,0,0-.19-1.17c-.67-.64-1.11-.46-1.11-.46Z" transform="translate(-58.44 -21.58)"/><circle class="cls-17" cx="21.51" cy="127.33" r="3.95"/><circle class="cls-18" cx="21.41" cy="127.26" r="2.54"/><path class="cls-19" d="M61.07,107.31,73,126.07a1.63,1.63,0,0,0,2.19.55l.8-.46a1.64,1.64,0,0,0,.56-2.31l-12-18.66a1.63,1.63,0,0,0-2.15-.56l-.68.37A1.62,1.62,0,0,0,61.07,107.31Z" transform="translate(-58.44 -21.58)"/><rect class="cls-19" x="74.86" y="125.95" width="3.9" height="3.9" rx="1.59" transform="translate(-117.48 44.65) rotate(-34.6)"/><rect class="cls-19" x="58.7" y="101.33" width="3.9" height="3.9" rx="1.59" transform="translate(-106.36 31.13) rotate(-34.6)"/></g><g id="Layer_28" data-name="Layer 28"><path class="cls-20" d="M80.19,148v.87a.42.42,0,0,0,.65-.33.8.8,0,0,0-.52-.95c-.22-.09-1-.28-1-.28v2.61l.59.19v-2.18s0-.21.14-.15S80.19,148,80.19,148Z" transform="translate(-58.44 -21.58)"/><path class="cls-20" d="M81.61,149.29c-.11-.19-.72-.26-.88-.25a2.26,2.26,0,0,0-.66.11v.36l.63-.22a.61.61,0,0,1,.39,0c.08,0,0,.09-.11.13l-.91.32v.34l1.29-.46S81.73,149.48,81.61,149.29Z" transform="translate(-58.44 -21.58)"/><path class="cls-20" d="M78,149.41c0,.11,0,.23.43.33a2.1,2.1,0,0,0,.81,0v-.31l-.18.07c-.18.06-.43.1-.5,0s.06-.11.06-.11l.62-.22v-.34l-.74.26S78.05,149.3,78,149.41Z" transform="translate(-58.44 -21.58)"/></g></svg>