<svg xmlns="http://www.w3.org/2000/svg" viewBox="0 0 225.44 154.02"><defs><style>.cls-1{fill:#d75d5e;}.cls-1,.cls-10,.cls-11,.cls-2,.cls-3,.cls-4,.cls-5,.cls-6,.cls-7,.cls-8,.cls-9{stroke:#000;}.cls-1,.cls-10,.cls-11,.cls-12,.cls-13,.cls-14,.cls-15,.cls-16,.cls-2,.cls-23,.cls-24,.cls-25,.cls-3,.cls-4,.cls-5,.cls-6,.cls-7,.cls-8,.cls-9{stroke-miterlimit:10;}.cls-1,.cls-10,.cls-11,.cls-12,.cls-13,.cls-14,.cls-15,.cls-2,.cls-3,.cls-4,.cls-5,.cls-6,.cls-7,.cls-8,.cls-9{stroke-width:0.25px;}.cls-2{fill:#919396;}.cls-3{fill:#fff682;}.cls-4{fill:#4d7aae;}.cls-5{fill:#009d6f;}.cls-6{fill:#fff462;}.cls-7{fill:#5aa2d8;}.cls-8{fill:#2cb67a;}.cls-16,.cls-9{fill:#b1b3b6;}.cls-10{fill:#3e3e3f;}.cls-11{fill:#848689;}.cls-12,.cls-13,.cls-14,.cls-15,.cls-23{fill:none;}.cls-12{stroke:#7baac0;}.cls-13{stroke:#c53648;}.cls-14{stroke:#7e7794;}.cls-15{stroke:#1d998b;}.cls-16,.cls-23,.cls-24,.cls-25{stroke:#231f20;}.cls-16{stroke-width:0.1px;}.cls-17{font-size:1.44px;letter-spacing:0em;}.cls-17,.cls-20{fill:#d1d3d4;font-family:MyriadPro-Regular, Myriad Pro;}.cls-18{letter-spacing:0.02em;}.cls-19{letter-spacing:0em;}.cls-20{font-size:1.48px;}.cls-21{letter-spacing:0.01em;}.cls-22{letter-spacing:0.01em;}.cls-24{fill:#fff;stroke-width:0.05px;}.cls-25{fill:#9fa1a4;stroke-width:0.03px;}</style></defs><g id="RB"><g id="LogoDrum"><path class="cls-1" d="M75.49,117.31c-4.26-7.22-13.3-17-30.61-10.78s-18.17,22.95-18.26,26.95c0,0,1.13,23.31,27.13,20.7C75.06,151.05,81.49,127.22,75.49,117.31ZM58.1,151.22C51.23,154.79,24.88,151,29,128.88s24-22,24-22c7.14-1.34,21.83,3.19,22.78,18.76S65,147.66,58.1,151.22Z" transform="translate(-15.94 -2.75)"/><path class="cls-2" d="M58.05,151.15c-6.87,3.56-33.22-.26-29.13-22.35s24-22,24-22c7.14-1.33,21.83,3.2,22.78,18.76S64.92,147.58,58.05,151.15Z" transform="translate(-15.94 -2.75)"/><path class="cls-3" d="M115,73.57c-5.24-3.32-18.91-9.91-32.87,2.22s-7.17,27.32-2.28,32c0,0,10.11,12.19,28.69,5.15S126.51,80.88,115,73.57ZM99.71,113.29c-17.56,1.25-23.09-14-23.09-14C73.69,92,76.49,74.29,95,71s26.12,12.3,26.48,18.13C122.06,98.37,116.14,112.11,99.71,113.29Z" transform="translate(-15.94 -2.75)"/><path class="cls-2" d="M99.71,113.29c-17.56,1.25-23.09-14-23.09-14C73.69,92,76.49,74.29,95,71s26.12,12.3,26.48,18.13C122.06,98.37,116.14,112.11,99.71,113.29Z" transform="translate(-15.94 -2.75)"/><path class="cls-4" d="M180.38,80.48c-4.3-8.41-14.8-17.47-29.54-13.82s-20.77,17.1-19.31,23.8c0,0,.85,22,25.31,22C178.75,112.44,186.12,92,180.38,80.48ZM158,110.81c-23.35,0-24.33-20.8-24.33-20.8s0-10.1,5.68-14.74c16.26-13.24,27.58-7.46,36.39.71C186.58,86.09,178,110.81,158,110.81Z" transform="translate(-15.94 -2.75)"/><path class="cls-2" d="M158,110.83C134.6,110.83,133.62,90,133.62,90s0-10.1,5.68-14.73c16.26-13.24,27.58-7.46,36.39.71C186.58,86.11,178,110.83,158,110.83Z" transform="translate(-15.94 -2.75)"/><path class="cls-5" d="M233.57,119.25C231.4,111.29,223,98,205.1,98c-17.36,0-22.8,12.22-24.49,19.13a18.61,18.61,0,0,0,0,8.9c1.88,7.63,8.23,22.78,28.91,22.78,21.1-1.11,24.26-15.63,24.56-24.9A15,15,0,0,0,233.57,119.25Zm-24.75,27.43c-18.45,0-24.62-14.72-26.48-21.41a14.61,14.61,0,0,1-.28-6.83c1.28-6.4,6.08-18.54,22.78-18.54,21.23,0,26.22,17.69,26.93,20.89S232.69,146.68,208.82,146.68Z" transform="translate(-15.94 -2.75)"/><path class="cls-2" d="M208.82,146.75c-18.45,0-24.62-14.71-26.48-21.4a14.66,14.66,0,0,1-.28-6.84c1.28-6.4,6.08-18.53,22.78-18.53,21.23,0,26.22,17.69,26.93,20.88S232.69,146.75,208.82,146.75Z" transform="translate(-15.94 -2.75)"/><path class="cls-2" d="M16.1,67.66s-1.83,14,22.43,18.26S92,72.35,87.75,54.18,52.36,38.35,43.06,41.83,15.75,53.4,16.1,67.66Z" transform="translate(-15.94 -2.75)"/><path class="cls-2" d="M47.32,28.27s4.24,13.47,29.56,14.3a55.27,55.27,0,0,0,23.34-4.06c8.36-3.52,17.6-10,17.36-21.55C117.58,2.83,88.9,2,78.36,3.31,73.66,4,45.49,8.18,47.32,28.27Z" transform="translate(-15.94 -2.75)"/><path class="cls-2" d="M164.19,52.18S160,72.25,196.87,78.09c28.19,4.79,52-17.82,42.1-32-7.65-10.78-23.91-19.74-50.87-13.82C166.19,37.75,164.19,52.18,164.19,52.18Z" transform="translate(-15.94 -2.75)"/><path class="cls-6" d="M52.51,51a9.19,9.19,0,0,0-6.61,2.37c-1,.94-1.73,2.07-.71,3,2.21,2,6.93.59,6.93.59s6.5-2.09,3.83-4.69A5.44,5.44,0,0,0,52.51,51Z" transform="translate(-15.94 -2.75)"/><path class="cls-7" d="M84.91,11.2a9.62,9.62,0,0,0-6.27-.11C76,12.07,73,14,76.75,15.33c5.48,2,11.94-1,10-2.93A5.67,5.67,0,0,0,84.91,11.2Z" transform="translate(-15.94 -2.75)"/><path class="cls-8" d="M205.79,42.59a9.78,9.78,0,0,0-5.91-.34c-1.93.46-4.18,1.37-3.82,3.1.6,3,6.39,3,6.39,3s6.74.17,6.08-3A4.06,4.06,0,0,0,205.79,42.59Z" transform="translate(-15.94 -2.75)"/><path class="cls-2" d="M149,150.47s2.4.37,2.59-1.85,0-11.11,0-11.11.65-2.23-2.59-1.95-20,1.67-30.28.56-16.31-3-24.91,0-10.65,3.42-10.46,9-1.21,7.5,6.76,9.44,10.18,3.15,19.53.84A150.7,150.7,0,0,1,149,150.47Z" transform="translate(-15.94 -2.75)"/><path class="cls-9" d="M133,118.22a1.47,1.47,0,0,0,1.65,1.66,1.64,1.64,0,1,0,.12-3.28A1.63,1.63,0,0,0,133,118.22Z" transform="translate(-15.94 -2.75)"/><path class="cls-9" d="M131.58,117a1.51,1.51,0,0,0,1.54-1.54,1.47,1.47,0,0,0-1.52-1.52,1.49,1.49,0,0,0-1.64,1.64C130,117.07,131.58,117,131.58,117Z" transform="translate(-15.94 -2.75)"/><path class="cls-9" d="M136.08,115.09a1.58,1.58,0,0,0,3.15,0,1.44,1.44,0,0,0-1.55-1.55A1.49,1.49,0,0,0,136.08,115.09Z" transform="translate(-15.94 -2.75)"/><path class="cls-9" d="M134.47,113.72a1.52,1.52,0,0,0,1.56-1.56,1.39,1.39,0,0,0-1.53-1.53s-1.52-.22-1.52,1.52A1.48,1.48,0,0,0,134.47,113.72Z" transform="translate(-15.94 -2.75)"/><path class="cls-10" d="M118.67,115.51s-.16,3,3.44,3,3.55-3.09,3.55-3.09.35-3.26-3.4-3.26A3.23,3.23,0,0,0,118.67,115.51Z" transform="translate(-15.94 -2.75)"/><path class="cls-11" d="M118.72,115h1.51s1.29.07,1.29-1.12v-1.61l1.15,0v1.63s.08,1.18,1.1,1.18h1.8v.86s-1.22,0-1.77,0-1.12.14-1.12.9,0,1.67,0,1.67h-1.16l0-1.75s0-.79-1.15-.79h-1.65Z" transform="translate(-15.94 -2.75)"/><polyline class="cls-12" points="117.91 114.68 118.74 115.45 117.91 116.31"/><polyline class="cls-12" points="119.58 116.31 118.74 115.45 119.58 114.68"/><path class="cls-13" d="M136.82,115a.76.76,0,0,0,.84.84.78.78,0,0,0,.85-.84.85.85,0,0,0-1.69,0Z" transform="translate(-15.94 -2.75)"/><rect class="cls-14" x="114.9" y="112.06" width="1.26" height="1.24"/><polygon class="cls-15" points="118.47 108.65 117.81 109.95 119.24 109.95 118.47 108.65"/><circle class="cls-16" cx="116.34" cy="105.01" r="0.65"/><circle class="cls-16" cx="108.26" cy="104.9" r="0.65"/><text class="cls-17" transform="translate(115.1 107)">Sta<tspan class="cls-18" x="1.88" y="0">r</tspan><tspan class="cls-19" x="2.38" y="0">t</tspan></text><text class="cls-20" transform="translate(106.05 107.04)"><tspan class="cls-21">S</tspan><tspan x="0.74" y="0">ele</tspan><tspan class="cls-22" x="2.58" y="0">c</tspan><tspan x="3.26" y="0">t</tspan></text><g id="Layer_34" data-name="Layer 34"><path class="cls-23" d="M126.59,37" transform="translate(-15.94 -2.75)"/><circle class="cls-24" cx="112.49" cy="105.18" r="2.73"/><rect class="cls-25" x="110.59" y="104.21" width="1.45" height="0.07"/><rect class="cls-25" x="112.9" y="104.22" width="1.45" height="0.06"/><path class="cls-25" d="M128.41,105.48a2.47,2.47,0,1,0,2.47,2.47A2.47,2.47,0,0,0,128.41,105.48ZM126.23,108a2.19,2.19,0,0,1,2.18-2.19,2.6,2.6,0,0,1,.56.07,2.53,2.53,0,0,0-.41,0,.91.91,0,0,0-.59.32.31.31,0,0,0,.09.49,1,1,0,0,0,.62.1v.46a1.14,1.14,0,0,0-.26,0,1.84,1.84,0,0,0-.41.05v-.18h-1.52v1H127l0,.06h-.48v.07H127a1.52,1.52,0,0,0-.11.57,1.54,1.54,0,0,0,.43,1.08A2.18,2.18,0,0,1,126.23,108Zm2.6,2.14a1.87,1.87,0,0,1-.42,0,2.31,2.31,0,0,1-.37,0,1.38,1.38,0,1,1,.79,0Zm.73-.28a1.55,1.55,0,0,0,.42-1.06,1.43,1.43,0,0,0-.12-.58h.43v-.05h-.45l0-.08h.53v-1H128.8v.17l-.08,0v-.48a.93.93,0,0,0,.56-.26.32.32,0,0,0,.05-.51h0a2.18,2.18,0,0,1,.22,3.84Z" transform="translate(-15.94 -2.75)"/><ellipse class="cls-25" cx="128.63" cy="106.14" rx="0.08" ry="0.05" transform="translate(-41.97 41.01) rotate(-17.56)"/><path class="cls-25" d="M128.61,106s-.07.06-.05.07.05,0,.05,0h0v0s.07,0,0,0S128.62,106,128.61,106Z" transform="translate(-15.94 -2.75)"/></g></g></g></svg>