<?xml version="1.0" encoding="UTF-8" standalone="no"?>
<svg
   xmlns:dc="http://purl.org/dc/elements/1.1/"
   xmlns:cc="http://creativecommons.org/ns#"
   xmlns:rdf="http://www.w3.org/1999/02/22-rdf-syntax-ns#"
   xmlns:svg="http://www.w3.org/2000/svg"
   xmlns="http://www.w3.org/2000/svg"
   id="svg88"
   version="1.1"
   viewBox="0 0 225.44 155.98">
  <metadata
     id="metadata92">
    <rdf:RDF>
      <cc:Work
         rdf:about="">
        <dc:format>image/svg+xml</dc:format>
        <dc:type
           rdf:resource="http://purl.org/dc/dcmitype/StillImage" />
      </cc:Work>
    </rdf:RDF>
  </metadata>
  <defs
     id="defs4">
    <style
       id="style2">.cls-1{fill:#393839;}.cls-1,.cls-10,.cls-11,.cls-12,.cls-2,.cls-3,.cls-4,.cls-5,.cls-6,.cls-7,.cls-8,.cls-9{stroke:#000;stroke-width:0.25px;}.cls-1,.cls-10,.cls-11,.cls-12,.cls-13,.cls-14,.cls-15,.cls-16,.cls-17,.cls-18,.cls-19,.cls-2,.cls-20,.cls-21,.cls-22,.cls-23,.cls-24,.cls-3,.cls-4,.cls-5,.cls-6,.cls-7,.cls-8,.cls-9{stroke-miterlimit:10;}.cls-2{fill:#464547;}.cls-3{fill:#d75d5e;}.cls-4{fill:#919396;}.cls-5{fill:#fff682;}.cls-6{fill:#4d7aae;}.cls-7{fill:#009d6f;}.cls-8{fill:#fff462;}.cls-9{fill:#5aa2d8;}.cls-10{fill:#2cb67a;}.cls-11{fill:#3e3e3f;}.cls-12{fill:#848689;}.cls-13{fill:#6ca63c;}.cls-13,.cls-14,.cls-15,.cls-16,.cls-17,.cls-18,.cls-19,.cls-20,.cls-21,.cls-22,.cls-23,.cls-24{stroke:#231f20;}.cls-13,.cls-14,.cls-15,.cls-16,.cls-17,.cls-18,.cls-19,.cls-20{stroke-width:0.1px;}.cls-14{fill:#0058a3;}.cls-15{fill:#f6bd17;}.cls-16{fill:#aa1e23;}.cls-17{fill:#1687c9;}.cls-18{fill:#febf38;}.cls-19{fill:#99ca3c;}.cls-20{fill:#dd1f26;}.cls-21{fill:none;}.cls-21,.cls-22,.cls-23,.cls-24{stroke-width:0.05px;}.cls-22{fill:#8dc63f;}.cls-23{fill:#d1d3d4;}.cls-24{fill:#9d9fa2;}</style>
  </defs>
  <g
     id="ga">
    <path
       class="cls-7"
       d="m 217.63,116.5 c -2.18,-8 -10.63,-21.29 -28.48,-21.29 -17.36,0 -22.8,12.22 -24.49,19.13 a 18.61,18.61 0 0 0 0,8.9 c 1.88,7.63 8.22,22.78 28.91,22.78 21.1,-1.11 24.25,-15.63 24.56,-24.9 a 15.62,15.62 0 0 0 -0.5,-4.62 z m -24.76,27.43 c -18.44,0 -24.62,-14.72 -26.48,-21.41 a 14.75,14.75 0 0 1 -0.28,-6.83 c 1.26,-6.44 6.08,-18.54 22.78,-18.54 21.24,0 26.22,17.69 26.94,20.89 0.72,3.2 0.91,25.89 -22.96,25.89 z"
       id="path26"
       style="fill:#009d6f;stroke:#000000;stroke-width:0.25px;stroke-miterlimit:10" />
    <path
       class="cls-4"
       d="m 192.87,144 c -18.44,0 -24.62,-14.71 -26.48,-21.4 a 14.79,14.79 0 0 1 -0.28,-6.84 c 1.29,-6.4 6.08,-18.53 22.78,-18.53 21.24,0 26.22,17.69 26.94,20.88 0.72,3.19 0.91,25.89 -22.96,25.89 z"
       id="path28"
       style="fill:#919396;stroke:#000000;stroke-width:0.25px;stroke-miterlimit:10" />
    <circle
       class="cls-13"
       cx="119.96"
       cy="115.2"
       r="1.0599999"
       id="circle52"
       style="fill:#6ca63c;stroke:#231f20;stroke-width:0.1px;stroke-miterlimit:10" />
    <path
       class="cls-19"
       d="m 120.11,114.52 h -0.36 l -0.42,1.12 h 0.3 l 0.13,-0.3 h 0.32 l 0.13,0.3 h 0.26 z m -0.27,0.56 0.07,-0.26 v 0 l 0.08,0.26 z"
       id="path64"
       style="fill:#99ca3c;stroke:#231f20;stroke-width:0.1px;stroke-miterlimit:10" />
  </g>
</svg>
