<svg id="_360RBGuitar" data-name="360RBGuitar" xmlns="http://www.w3.org/2000/svg" viewBox="0 0 261.21 108.38"><defs><style>.cls-1{fill:#171717;}.cls-1,.cls-13,.cls-2,.cls-3,.cls-4,.cls-5,.cls-6,.cls-7{stroke:#000;stroke-width:0.25px;}.cls-1,.cls-10,.cls-11,.cls-12,.cls-13,.cls-16,.cls-17,.cls-18,.cls-19,.cls-2,.cls-3,.cls-4,.cls-5,.cls-6,.cls-7,.cls-8,.cls-9{stroke-miterlimit:10;}.cls-2{fill:#393839;}.cls-3{fill:#939598;}.cls-4{fill:#a7a9ac;}.cls-5{fill:#414042;}.cls-6{fill:#121212;}.cls-7{fill:#f1f2f2;}.cls-10,.cls-11,.cls-12,.cls-17,.cls-8,.cls-9{fill:none;}.cls-8{stroke:#f15a29;}.cls-9{stroke:#1c75bc;}.cls-10{stroke:#f9ed32;}.cls-11{stroke:#be1e2d;}.cls-12{stroke:#009444;}.cls-13{fill:#8c8c8c;}.cls-14{fill:#292728;}.cls-15,.cls-16{fill:#b1b3b6;}.cls-16,.cls-17,.cls-18,.cls-19{stroke:#231f20;}.cls-16{stroke-width:0.1px;}.cls-17,.cls-18,.cls-19{stroke-width:0.05px;}.cls-18{fill:#8dc63f;}.cls-19{fill:#d1d3d4;}</style></defs><path class="cls-1" d="M12.78,124.69s9.13,23.74,34.83,16.7c19.3-5.22,15.52-20.87,40.69-23.22,18.66-2.09,20.74,5.35,29.35-9.26,0,0,2.22-6-12.91-4.3-3.39.39-18.59-9.88-4.11-14.32,2.28-.7,6.59-3,8.76-3.73,11.63-3.94,21.93-7.37,61-19.13,46.3-14,52.43-18.39,56-10,.92,2.09,7.18-.13,16.31-8.09,2.35-2.09,3.78-3.78,7.43,0s12.26-.65,12.53-6.91-6.79-7.83-6.79-7.83L217,35.87s-1.69-.52-3.13,5.21L104.17,72.69s-10.13.09-5-11.78c2.09-4.3,18-5.48,15.39-12.39s-20.87-7.83-39.39,8c-15,13.3-45.13.78-58.43,6.91S-.13,82.17,2.35,95.48,12.78,124.69,12.78,124.69Z" transform="translate(-1.49 -34.44)"/><path class="cls-2" d="M59.35,89.87s-3.13,1-1.7,3.78c1.11,2,3.78,1.11,3.78,1.11Z" transform="translate(-1.49 -34.44)"/><path class="cls-2" d="M78,84.06l2.41,5.42a3.24,3.24,0,0,0,1.76-4.37C81.39,82.63,78,84.06,78,84.06Z" transform="translate(-1.49 -34.44)"/><polygon class="cls-3" points="57.86 55.43 76.51 49.63 78.93 55.04 59.95 60.32 57.86 55.43"/><polygon class="cls-4" points="172.27 18.2 176.55 30.66 183.74 28.43 179 16.26 172.27 18.2"/><polygon class="cls-4" points="190.67 26.25 186.08 14.23 179 16.26 183.74 28.43 190.67 26.25"/><polygon class="cls-4" points="198.15 23.89 193.38 12.13 186.08 14.23 190.67 26.25 198.15 23.89"/><polygon class="cls-4" points="205.32 21.68 200.68 10.03 193.38 12.13 198.15 23.89 205.32 21.68"/><polygon class="cls-4" points="212.04 19.81 207.7 8.01 200.68 10.03 205.32 21.68 212.04 19.81"/><polyline class="cls-4" points="108.4 36.57 113.12 50.73 107.73 52.13 102.69 38.26 108.4 36.57"/><polygon class="cls-4" points="113.6 35.07 118.56 49.21 113.12 50.73 108.4 36.57 113.6 35.07"/><polygon class="cls-4" points="119.34 33.42 123.95 47.48 118.56 49.21 113.6 35.07 119.34 33.42"/><polygon class="cls-4" points="125.27 31.71 129.54 45.54 123.95 47.48 119.34 33.42 125.27 31.71"/><polygon class="cls-4" points="130.35 30.25 134.89 43.72 129.54 45.54 125.27 31.71 130.35 30.25"/><path class="cls-4" d="M50.91,118.79s0,3.72,3.64,3.72a3.55,3.55,0,0,0,3.39-2.1,3.88,3.88,0,0,0,0-3.57,3.38,3.38,0,0,0-3.19-1.78A3.61,3.61,0,0,0,50.91,118.79Z" transform="translate(-1.49 -34.44)"/><path class="cls-4" d="M53.82,109s0,3.73,3.65,3.73a3.55,3.55,0,0,0,3.38-2.1,3.9,3.9,0,0,0,0-3.58,3.4,3.4,0,0,0-3.19-1.77A3.61,3.61,0,0,0,53.82,109Z" transform="translate(-1.49 -34.44)"/><circle class="cls-5" cx="53.28" cy="84.32" r="0.76"/><circle class="cls-5" cx="56.06" cy="74.58" r="0.79"/><path class="cls-6" d="M27.33,107.87l.42,1.42a1.51,1.51,0,0,0,1.87,1l5.87-1.75a1.5,1.5,0,0,0,.94-2.08l-.76-1.62a1.51,1.51,0,0,0-1.87-.78L28.28,106A1.53,1.53,0,0,0,27.33,107.87Z" transform="translate(-1.49 -34.44)"/><path class="cls-3" d="M66.92,98.34l-30.55,5.14s-2.32.08-3.2,3.13c-.22.9,1.36.66,1.9-.18s0-1.07,4.1-1.8S67.5,99.87,67.5,99.87l-.29-1.54Z" transform="translate(-1.49 -34.44)"/><path class="cls-7" d="M67.21,98.33l.29,1.54c.62.53,10.54-1.36,11.88-1.61s.68-2.42.68-2.42,0-.53-1.22-.35S67.83,97.38,67.21,98.33Z" transform="translate(-1.49 -34.44)"/><line class="cls-8" x1="107.69" y1="51.34" x2="112.54" y2="49.84"/><line class="cls-9" x1="113.12" y1="49.73" x2="117.75" y2="48.23"/><line class="cls-10" x1="118.56" y1="48.06" x2="123.25" y2="46.58"/><line class="cls-11" x1="123.95" y1="46.39" x2="128.97" y2="44.82"/><line class="cls-12" x1="129.8" y1="44.5" x2="134.23" y2="43.04"/><line class="cls-8" x1="176.94" y1="29.69" x2="182.77" y2="27.79"/><line class="cls-9" x1="183.91" y1="27.34" x2="189.63" y2="25.46"/><line class="cls-10" x1="190.87" y1="24.94" x2="197.04" y2="22.89"/><line class="cls-11" x1="198.17" y1="22.58" x2="204.28" y2="20.6"/><line class="cls-12" x1="205.32" y1="20.41" x2="210.93" y2="18.52"/><circle class="cls-13" cx="50.13" cy="94.32" r="4.53"/><polygon class="cls-14" points="63.91 72.65 60.3 88.52 61.34 88.56 64.99 72.69 63.91 72.65"/><circle class="cls-15" cx="62.7" cy="80.12" r="0.67"/><path class="cls-4" d="M33.22,117.24s0,3.72,3.64,3.72a3.55,3.55,0,0,0,3.38-2.1,3.91,3.91,0,0,0,0-3.57,3.41,3.41,0,0,0-3.2-1.78A3.6,3.6,0,0,0,33.22,117.24Z" transform="translate(-1.49 -34.44)"/><path class="cls-16" d="M47.26,127.49s3.12,2,1.77,5l1.75.74a3.33,3.33,0,0,1,4.74-2.3l.48-1.35a4.11,4.11,0,0,1-1.65-4.39l-1.78-.78a3.2,3.2,0,0,1-4.27,1.26Z" transform="translate(-1.49 -34.44)"/><ellipse class="cls-17" cx="35.49" cy="82.72" rx="2.88" ry="2.8"/><path class="cls-18" d="M35.71,115.1a4,4,0,0,0-.72,0h0a5.76,5.76,0,0,1,1.45.72,8,8,0,0,0-1.78,3h0A8.9,8.9,0,0,1,37,116.21a3.65,3.65,0,0,1,1.08.91,4.82,4.82,0,0,1,1,1.83h0a4.64,4.64,0,0,0-1.69-3.13,4.16,4.16,0,0,1,1.4-.78h0a2.2,2.2,0,0,0-.53,0" transform="translate(-1.49 -34.44)"/><path class="cls-18" d="M35.71,115.1a2.08,2.08,0,0,1,1.3.49,2.76,2.76,0,0,1,1.34-.55" transform="translate(-1.49 -34.44)"/><path class="cls-19" d="M35,115.14a2.66,2.66,0,0,0-.88,2,2.78,2.78,0,0,0,.57,1.67,7.93,7.93,0,0,1,1.77-3A5.56,5.56,0,0,0,35,115.14Z" transform="translate(-1.49 -34.44)"/><path class="cls-19" d="M37,116.23a8.84,8.84,0,0,0-2.37,2.6A2.9,2.9,0,0,0,37,120a2.93,2.93,0,0,0,2.13-1,4.85,4.85,0,0,0-1.05-1.83A3.88,3.88,0,0,0,37,116.23Z" transform="translate(-1.49 -34.44)"/><path class="cls-19" d="M38.88,115.06a4.31,4.31,0,0,0-1.4.79A4.64,4.64,0,0,1,39.17,119a2.73,2.73,0,0,0,.68-1.93A2.61,2.61,0,0,0,38.88,115.06Z" transform="translate(-1.49 -34.44)"/><path class="cls-19" d="M37,115.61a2.72,2.72,0,0,1,1.87-.55,2.77,2.77,0,0,0-1.9-.7,3,3,0,0,0-2,.78A2.82,2.82,0,0,1,37,115.61Z" transform="translate(-1.49 -34.44)"/></svg>