<svg xmlns="http://www.w3.org/2000/svg" viewBox="0 0 250.73 148.38"><defs><style>.cls-1{fill:#2d2a2b;}.cls-1,.cls-2,.cls-3,.cls-4,.cls-5,.cls-6,.cls-7{stroke:#231f20;stroke-miterlimit:10;}.cls-1,.cls-2,.cls-3,.cls-4{stroke-width:0.5px;}.cls-2{fill:#58595b;}.cls-3{fill:#b1b3b6;}.cls-4,.cls-7{fill:#9d9fa2;}.cls-5{fill:#fff;}.cls-5,.cls-6,.cls-7{stroke-width:0.25px;}.cls-6{fill:#231f20;}</style></defs><g id="GH"><g id="GHLive"><path class="cls-1" d="M21.93,134.9c1,2,14.89,28.39,39.65,16.08,14.48-7.2,18.13-21.25,29.22-26.77,7.94-3.95,14.06,1.31,26.79-5s8.72-13.22-.21-11.25-13.07-1.67-13.12-4.41.94-4.25,4.68-6.11l13.67-6.8a1.91,1.91,0,0,0,.88-2.62l-1.09-2.19,92.54-47.76s6.9-4.11,11.66,3.33l1.19-.54A47,47,0,0,1,242,29.46a68.51,68.51,0,0,1,17.43-5.66,1.33,1.33,0,0,0,.61-1.91c-.64-1.38-17.28-15.41-17.28-15.41s-3,4-11.77,6.65a45.66,45.66,0,0,1-15.61,2s-1.66-.27-.84,4.24-1.94,5.62-9.32,9.3-90.05,42.68-90.05,42.68l-1.26-2.53a.92.92,0,0,0-1.25-.43c-.84.42-9.32,5.63-11.11-.71-1.93-8.56,12.84-13.52,13.47-18s-5.48-6.94-15.53-1.94S80.8,65.43,69,71.28,39,71.6,24.71,78.7,6.09,103,13.64,118.15,19.85,130.72,21.93,134.9Z" transform="translate(-9.73 -6.11)"/><path class="cls-2" d="M59.12,105.4s-2.52,1.44-1.62,3.25,3.58.69,3.58.69Z" transform="translate(-9.73 -6.11)"/><path class="cls-2" d="M87.34,91.4s2.67-1.15,3.57.66-1.61,3.28-1.61,3.28Z" transform="translate(-9.73 -6.11)"/><rect class="cls-3" x="58.47" y="98.24" width="31.55" height="4.3" transform="translate(-46.66 37.45) rotate(-26.44)"/><path class="cls-2" d="M35.86,143.93l1.25,1.36a2,2,0,0,0,2.82.09l6.4-6.08a2,2,0,0,0,.05-2.82l-1.1-1.13a2,2,0,0,0-2.74-.09L36,141.11A2,2,0,0,0,35.86,143.93Z" transform="translate(-9.73 -6.11)"/><path class="cls-3" d="M72.11,123.76s.4.62.82.5l.11.12L41.82,141a1.06,1.06,0,0,1-.93-.6,1.58,1.58,0,0,1-.23-1l31.65-16.87s.1.06,0,.09a.81.81,0,0,0-.2,1.08" transform="translate(-9.73 -6.11)"/><path class="cls-4" d="M73,124.38l12.66-6.23a1.64,1.64,0,0,0,.37-2,2.13,2.13,0,0,0-1.65-1.28l-12.11,7.72S71.44,123.74,73,124.38Z" transform="translate(-9.73 -6.11)"/><path class="cls-3" d="M37.19,109.26l7.68,15.46a.63.63,0,0,0,.84.28L49,123.35a.62.62,0,0,0,.28-.84l-7.68-15.45a.63.63,0,0,0-.84-.28l-3.32,1.64A.62.62,0,0,0,37.19,109.26Z" transform="translate(-9.73 -6.11)"/><polygon class="cls-3" points="180.44 37.15 187.77 33.5 184.93 27.63 177.39 31.16 180.44 37.15"/><polygon class="cls-3" points="183.38 43.19 180.44 37.15 187.77 33.5 190.72 39.28 183.38 43.19"/><polygon class="cls-3" points="195.17 29.71 187.77 33.5 190.72 39.28 198.19 35.56 195.17 29.71"/><polygon class="cls-3" points="192.47 24.06 195.17 29.71 187.77 33.5 184.93 27.63 192.47 24.06"/><polygon class="cls-3" points="202.57 26.14 195.17 29.71 192.47 24.06 199.7 20.43 202.57 26.14"/><polygon class="cls-3" points="205.43 31.89 198.19 35.56 195.17 29.71 202.57 26.14 205.43 31.89"/><circle class="cls-5" cx="193.03" cy="34.49" r="0.6"/><circle class="cls-6" cx="190.02" cy="28.36" r="0.6"/><circle class="cls-3" cx="58.38" cy="128.51" r="3.17"/><circle class="cls-3" cx="47.4" cy="136.82" r="3.55"/><polygon class="cls-7" points="58.01 130.03 57.13 128.25 58.9 127.37 59.78 129.13 60.22 127.81 57.56 126.92 56.67 129.58 59.33 130.47 59.77 129.15 58.01 130.03"/><path class="cls-7" d="M56.24,141a2,2,0,1,0,2.74.92A2,2,0,0,0,56.24,141Zm1.47,2.92a1.24,1.24,0,1,1,.56-1.66A1.23,1.23,0,0,1,57.71,143.92Z" transform="translate(-9.73 -6.11)"/><rect class="cls-3" x="35.46" y="102.97" width="4.96" height="4.81" rx="0.77" transform="translate(-52.68 21.8) rotate(-26.44)"/><rect class="cls-3" x="46.11" y="123.97" width="4.96" height="4.81" rx="0.77" transform="translate(-60.92 28.74) rotate(-26.44)"/></g></g></svg>