<svg xmlns="http://www.w3.org/2000/svg" viewBox="0 0 180.84 120.53"><defs><style>.cls-1{fill:#b1b3b6;}.cls-1,.cls-2,.cls-3,.cls-4,.cls-5{stroke:#231f20;stroke-miterlimit:10;}.cls-1,.cls-2{stroke-width:0.5px;}.cls-2,.cls-5{fill:#9d9fa2;}.cls-3{fill:#fff;}.cls-3,.cls-4,.cls-5{stroke-width:0.25px;}.cls-4{fill:#231f20;}</style></defs><g id="GH"><g id="GHLive"><rect class="cls-1" x="58.47" y="98.24" width="31.55" height="4.3" transform="translate(-71.59 17.36) rotate(-26.44)"/><path class="cls-1" d="M72.11,123.76s.4.62.82.5l.11.12L41.82,141a1.06,1.06,0,0,1-.93-.6,1.58,1.58,0,0,1-.23-1l31.65-16.87s.1.06,0,.09a.81.81,0,0,0-.2,1.08" transform="translate(-34.66 -26.21)"/><path class="cls-2" d="M73,124.38l12.66-6.23a1.64,1.64,0,0,0,.37-2,2.13,2.13,0,0,0-1.65-1.28l-12.11,7.72S71.44,123.74,73,124.38Z" transform="translate(-34.66 -26.21)"/><path class="cls-1" d="M37.19,109.26l7.68,15.46a.63.63,0,0,0,.84.28L49,123.35a.62.62,0,0,0,.28-.84l-7.68-15.45a.63.63,0,0,0-.84-.28l-3.32,1.64A.62.62,0,0,0,37.19,109.26Z" transform="translate(-34.66 -26.21)"/><polygon class="cls-1" points="155.51 17.05 162.84 13.4 160 7.54 152.46 11.06 155.51 17.05"/><polygon class="cls-1" points="158.45 23.09 155.51 17.05 162.84 13.4 165.79 19.19 158.45 23.09"/><polygon class="cls-1" points="170.24 9.62 162.84 13.4 165.79 19.19 173.26 15.47 170.24 9.62"/><polygon class="cls-1" points="167.54 3.97 170.24 9.62 162.84 13.4 160 7.54 167.54 3.97"/><polygon class="cls-1" points="177.65 6.04 170.24 9.62 167.54 3.97 174.77 0.34 177.65 6.04"/><polygon class="cls-1" points="180.5 11.8 173.26 15.47 170.24 9.62 177.65 6.04 180.5 11.8"/><circle class="cls-3" cx="168.1" cy="14.39" r="0.6"/><circle class="cls-4" cx="165.09" cy="8.26" r="0.6"/><circle class="cls-1" cx="33.45" cy="108.42" r="3.17"/><circle class="cls-1" cx="22.47" cy="116.73" r="3.55"/><polygon class="cls-5" points="33.08 109.93 32.2 108.16 33.97 107.28 34.85 109.04 35.29 107.72 32.63 106.83 31.74 109.48 34.4 110.38 34.84 109.06 33.08 109.93"/><path class="cls-5" d="M56.24,141a2,2,0,1,0,2.74.92A2,2,0,0,0,56.24,141Zm1.47,2.92a1.24,1.24,0,1,1,.56-1.66A1.23,1.23,0,0,1,57.71,143.92Z" transform="translate(-34.66 -26.21)"/><rect class="cls-1" x="35.46" y="102.97" width="4.96" height="4.81" rx="0.77" transform="translate(-77.61 1.71) rotate(-26.44)"/><rect class="cls-1" x="46.11" y="123.97" width="4.96" height="4.81" rx="0.77" transform="translate(-85.85 8.65) rotate(-26.44)"/></g></g></svg>