<?xml version="1.0" encoding="UTF-8" standalone="no"?>
<svg
   xmlns:dc="http://purl.org/dc/elements/1.1/"
   xmlns:cc="http://creativecommons.org/ns#"
   xmlns:rdf="http://www.w3.org/1999/02/22-rdf-syntax-ns#"
   xmlns:svg="http://www.w3.org/2000/svg"
   xmlns="http://www.w3.org/2000/svg"
   id="svg88"
   version="1.1"
   viewBox="0 0 225.44 155.98">
  <metadata
     id="metadata92">
    <rdf:RDF>
      <cc:Work
         rdf:about="">
        <dc:format>image/svg+xml</dc:format>
        <dc:type
           rdf:resource="http://purl.org/dc/dcmitype/StillImage" />
      </cc:Work>
    </rdf:RDF>
  </metadata>
  <defs
     id="defs4">
    <style
       id="style2">.cls-1{fill:#393839;}.cls-1,.cls-10,.cls-11,.cls-12,.cls-2,.cls-3,.cls-4,.cls-5,.cls-6,.cls-7,.cls-8,.cls-9{stroke:#000;stroke-width:0.25px;}.cls-1,.cls-10,.cls-11,.cls-12,.cls-13,.cls-14,.cls-15,.cls-16,.cls-17,.cls-18,.cls-19,.cls-2,.cls-20,.cls-21,.cls-22,.cls-23,.cls-24,.cls-3,.cls-4,.cls-5,.cls-6,.cls-7,.cls-8,.cls-9{stroke-miterlimit:10;}.cls-2{fill:#464547;}.cls-3{fill:#d75d5e;}.cls-4{fill:#919396;}.cls-5{fill:#fff682;}.cls-6{fill:#4d7aae;}.cls-7{fill:#009d6f;}.cls-8{fill:#fff462;}.cls-9{fill:#5aa2d8;}.cls-10{fill:#2cb67a;}.cls-11{fill:#3e3e3f;}.cls-12{fill:#848689;}.cls-13{fill:#6ca63c;}.cls-13,.cls-14,.cls-15,.cls-16,.cls-17,.cls-18,.cls-19,.cls-20,.cls-21,.cls-22,.cls-23,.cls-24{stroke:#231f20;}.cls-13,.cls-14,.cls-15,.cls-16,.cls-17,.cls-18,.cls-19,.cls-20{stroke-width:0.1px;}.cls-14{fill:#0058a3;}.cls-15{fill:#f6bd17;}.cls-16{fill:#aa1e23;}.cls-17{fill:#1687c9;}.cls-18{fill:#febf38;}.cls-19{fill:#99ca3c;}.cls-20{fill:#dd1f26;}.cls-21{fill:none;}.cls-21,.cls-22,.cls-23,.cls-24{stroke-width:0.05px;}.cls-22{fill:#8dc63f;}.cls-23{fill:#d1d3d4;}.cls-24{fill:#9d9fa2;}</style>
  </defs>
  <g
     id="ghome">
    <ellipse
       class="cls-21"
       cx="112.63"
       cy="106.13"
       rx="1.27"
       ry="1.24"
       id="ellipse68"
       style="fill:none;stroke:#231f20;stroke-width:0.05px;stroke-miterlimit:10" />
    <path
       class="cls-22"
       d="m 112.06,105.25 a 1.8,1.8 0 0 0 -0.32,0 v 0 a 2.61,2.61 0 0 1 0.64,0.32 3.54,3.54 0 0 0 -0.78,1.31 v 0 a 4,4 0 0 1 1.05,-1.15 2,2 0 0 1 0.48,0.41 2.2,2.2 0 0 1 0.46,0.81 v 0 a 2,2 0 0 0 -0.74,-1.38 1.8,1.8 0 0 1 0.61,-0.35 v 0 a 1,1 0 0 0 -0.23,0"
       id="path70"
       style="fill:#8dc63f;stroke:#231f20;stroke-width:0.05px;stroke-miterlimit:10" />
    <path
       class="cls-22"
       d="m 112.06,105.25 a 1,1 0 0 1 0.58,0.22 1.19,1.19 0 0 1 0.59,-0.24"
       id="path72"
       style="fill:#8dc63f;stroke:#231f20;stroke-width:0.05px;stroke-miterlimit:10" />
    <path
       class="cls-23"
       d="m 111.74,105.25 a 1.19,1.19 0 0 0 -0.39,0.9 1.25,1.25 0 0 0 0.25,0.74 3.52,3.52 0 0 1 0.78,-1.32 2.61,2.61 0 0 0 -0.64,-0.32 z"
       id="path74"
       style="fill:#d1d3d4;stroke:#231f20;stroke-width:0.05px;stroke-miterlimit:10" />
    <path
       class="cls-23"
       d="m 112.65,105.72 a 3.9,3.9 0 0 0 -1.05,1.15 1.29,1.29 0 0 0 2,0.06 2.2,2.2 0 0 0 -0.46,-0.81 1.7,1.7 0 0 0 -0.49,-0.4 z"
       id="path76"
       style="fill:#d1d3d4;stroke:#231f20;stroke-width:0.05px;stroke-miterlimit:10" />
    <path
       class="cls-23"
       d="m 113.46,105.25 a 1.88,1.88 0 0 0 -0.62,0.35 2,2 0 0 1 0.75,1.38 1.19,1.19 0 0 0 0.3,-0.85 1.14,1.14 0 0 0 -0.43,-0.88 z"
       id="path78"
       style="fill:#d1d3d4;stroke:#231f20;stroke-width:0.05px;stroke-miterlimit:10" />
    <path
       class="cls-23"
       d="m 112.64,105.44 a 1.18,1.18 0 0 1 0.82,-0.24 1.22,1.22 0 0 0 -0.84,-0.31 1.33,1.33 0 0 0 -0.88,0.34 1.27,1.27 0 0 1 0.9,0.21 z"
       id="path80"
       style="fill:#d1d3d4;stroke:#231f20;stroke-width:0.05px;stroke-miterlimit:10" />
  </g>
</svg>
