<?xml version="1.0" encoding="UTF-8" standalone="no"?>
<svg
   xmlns:dc="http://purl.org/dc/elements/1.1/"
   xmlns:cc="http://creativecommons.org/ns#"
   xmlns:rdf="http://www.w3.org/1999/02/22-rdf-syntax-ns#"
   xmlns:svg="http://www.w3.org/2000/svg"
   xmlns="http://www.w3.org/2000/svg"
   id="svg88"
   version="1.1"
   viewBox="0 0 225.44 155.98">
  <metadata
     id="metadata92">
    <rdf:RDF>
      <cc:Work
         rdf:about="">
        <dc:format>image/svg+xml</dc:format>
        <dc:type
           rdf:resource="http://purl.org/dc/dcmitype/StillImage" />
      </cc:Work>
    </rdf:RDF>
  </metadata>
  <defs
     id="defs4">
    <style
       id="style2">.cls-1{fill:#393839;}.cls-1,.cls-10,.cls-11,.cls-12,.cls-2,.cls-3,.cls-4,.cls-5,.cls-6,.cls-7,.cls-8,.cls-9{stroke:#000;stroke-width:0.25px;}.cls-1,.cls-10,.cls-11,.cls-12,.cls-13,.cls-14,.cls-15,.cls-16,.cls-17,.cls-18,.cls-19,.cls-2,.cls-20,.cls-21,.cls-22,.cls-23,.cls-24,.cls-3,.cls-4,.cls-5,.cls-6,.cls-7,.cls-8,.cls-9{stroke-miterlimit:10;}.cls-2{fill:#464547;}.cls-3{fill:#d75d5e;}.cls-4{fill:#919396;}.cls-5{fill:#fff682;}.cls-6{fill:#4d7aae;}.cls-7{fill:#009d6f;}.cls-8{fill:#fff462;}.cls-9{fill:#5aa2d8;}.cls-10{fill:#2cb67a;}.cls-11{fill:#3e3e3f;}.cls-12{fill:#848689;}.cls-13{fill:#6ca63c;}.cls-13,.cls-14,.cls-15,.cls-16,.cls-17,.cls-18,.cls-19,.cls-20,.cls-21,.cls-22,.cls-23,.cls-24{stroke:#231f20;}.cls-13,.cls-14,.cls-15,.cls-16,.cls-17,.cls-18,.cls-19,.cls-20{stroke-width:0.1px;}.cls-14{fill:#0058a3;}.cls-15{fill:#f6bd17;}.cls-16{fill:#aa1e23;}.cls-17{fill:#1687c9;}.cls-18{fill:#febf38;}.cls-19{fill:#99ca3c;}.cls-20{fill:#dd1f26;}.cls-21{fill:none;}.cls-21,.cls-22,.cls-23,.cls-24{stroke-width:0.05px;}.cls-22{fill:#8dc63f;}.cls-23{fill:#d1d3d4;}.cls-24{fill:#9d9fa2;}</style>
  </defs>
  <g
     id="gx">
    <path
       class="cls-6"
       d="m 164.44,77.73 c -4.31,-8.41 -14.81,-17.47 -29.55,-13.82 -14.74,3.65 -20.77,17.1 -19.3,23.8 0,0 0.85,22 25.3,22 21.91,-0.02 29.28,-20.46 23.55,-31.98 z M 142,108.06 c -23.35,0 -24.33,-20.8 -24.33,-20.8 0,0 0,-10.1 5.68,-14.74 16.26,-13.24 27.58,-7.46 36.39,0.71 10.89,10.11 2.28,34.83 -17.74,34.83 z"
       id="path22"
       style="fill:#4d7aae;stroke:#000000;stroke-width:0.25px;stroke-miterlimit:10" />
    <path
       class="cls-4"
       d="m 142,108.08 c -23.35,0 -24.33,-20.83 -24.33,-20.83 0,0 0,-10.1 5.68,-14.73 16.26,-13.24 27.58,-7.46 36.39,0.71 10.89,10.13 2.28,34.85 -17.74,34.85 z"
       id="path24"
       style="fill:#919396;stroke:#000000;stroke-width:0.25px;stroke-miterlimit:10" />
    <circle
       class="cls-14"
       cx="117.68"
       cy="113.15"
       r="1.0599999"
       id="circle54"
       style="fill:#0058a3;stroke:#231f20;stroke-width:0.1px;stroke-miterlimit:10" />
    <polygon
       class="cls-17"
       points="118.17,112.54 117.85,113.08 118.27,113.71 117.9,113.71 117.63,113.25 117.39,113.7 117.08,113.7 117.43,113.06 117.08,112.54 117.43,112.54 117.63,112.91 117.86,112.54 "
       id="polygon60"
       style="fill:#1687c9;stroke:#231f20;stroke-width:0.1px;stroke-miterlimit:10" />
  </g>
</svg>
