<?xml version="1.0" encoding="UTF-8" standalone="no"?>
<svg
   xmlns:dc="http://purl.org/dc/elements/1.1/"
   xmlns:cc="http://creativecommons.org/ns#"
   xmlns:rdf="http://www.w3.org/1999/02/22-rdf-syntax-ns#"
   xmlns:svg="http://www.w3.org/2000/svg"
   xmlns="http://www.w3.org/2000/svg"
   xmlns:sodipodi="http://sodipodi.sourceforge.net/DTD/sodipodi-0.dtd"
   xmlns:inkscape="http://www.inkscape.org/namespaces/inkscape"
   inkscape:version="1.0 (4035a4fb49, 2020-05-01)"
   sodipodi:docname="Base.svg"
   id="svg15"
   version="1.1"
   viewBox="0 0 77.13 153.21">
  <metadata
     id="metadata19">
    <rdf:RDF>
      <cc:Work
         rdf:about="">
        <dc:format>image/svg+xml</dc:format>
        <dc:type
           rdf:resource="http://purl.org/dc/dcmitype/StillImage" />
      </cc:Work>
    </rdf:RDF>
  </metadata>
  <sodipodi:namedview
     inkscape:current-layer="svg15"
     inkscape:window-maximized="0"
     inkscape:window-y="182"
     inkscape:window-x="1080"
     inkscape:cy="68.448494"
     inkscape:cx="22.263288"
     inkscape:zoom="7.7444366"
     showgrid="false"
     id="namedview17"
     inkscape:window-height="1555"
     inkscape:window-width="2560"
     inkscape:pageshadow="2"
     inkscape:pageopacity="0"
     guidetolerance="10"
     gridtolerance="10"
     objecttolerance="10"
     borderopacity="1"
     bordercolor="#666666"
     pagecolor="#ffffff" />
  <defs
     id="defs4">
    <style
       id="style2">.cls-1{fill:#414042;}.cls-1,.cls-2{stroke:#231f20;stroke-miterlimit:10;}.cls-2{fill:#6d6e71;}</style>
  </defs>
  <path
     class="cls-1"
     d="m 37.99,0.88 c 0,0 -34.82,2.22 -36.65,27.65 -1.83,25.43 3.65,37.83 -0.26,70.05 -3.91,32.22 12.52,54.13 36.65,54.13 21.83,0 41.13,-15 38.7,-48.52 C 74,70.67 72.43,70.23 75.34,42.8 77.82,21.06 67.56,0.88 37.99,0.88 Z"
     id="gmouse" />
  <path
     class="cls-2"
     d="m 5.12,16.36 c 0,0 -0.52,29.74 2.79,48.87 0.69,3.13 0.52,4.52 4.69,4.52 4.17,0 25.74,-0.35 25.74,-0.35 V 42.97 c 0,0 -6.26,1.39 -6.26,-4.87 0,-6.26 0.17,-15.48 0.17,-15.48 0,0 -0.34,-3.82 4.7,-4.52 0,0 1.39,0.52 1.56,-4.52 0.17,-5.04 0,-13 0,-13 0,0 -22.08,1.35 -33.39,15.78 z"
     id="ga" />
  <path
     class="cls-2"
     d="m 71.91,18.88 c 0,0 0.78,18.52 -2.87,47.22 -0.27,2.74 -0.4,3.13 -3.4,3.39 -3,0.26 -27.3,-0.09 -27.3,-0.09 V 42.97 c 0,0 5.65,1.09 5.78,-3.35 0.13,-4.44 0.13,-16 0.13,-16 0,0 0.79,-5.74 -4,-5.74 -1.3,0.13 -1.83,-0.44 -1.7,-4.26 0.13,-3.82 0,-13 0,-13 0,0 23.79,-1.39 33.36,18.26 z"
     id="gb" />
  <path
     class="cls-2"
     d="m 33.99,21.32 c 0,0 0.7,-1.83 4.44,-1.83 3.74,0 4.08,2 4.08,2 l -0.34,20 c 0,0 0,0.87 -4,0.87 -4,0 -4.35,-1.13 -4.35,-1.13 z"
     id="gscroll" />
</svg>
