<?xml version="1.0" encoding="UTF-8" standalone="no"?>
<svg
   xmlns:dc="http://purl.org/dc/elements/1.1/"
   xmlns:cc="http://creativecommons.org/ns#"
   xmlns:rdf="http://www.w3.org/1999/02/22-rdf-syntax-ns#"
   xmlns:svg="http://www.w3.org/2000/svg"
   xmlns="http://www.w3.org/2000/svg"
   xmlns:sodipodi="http://sodipodi.sourceforge.net/DTD/sodipodi-0.dtd"
   xmlns:inkscape="http://www.inkscape.org/namespaces/inkscape"
   id="PS3DrumGH"
   viewBox="0 0 261.11 153.14"
   version="1.1"
   sodipodi:docname="Base.svg"
   inkscape:version="0.92.5 (2060ec1f9f, 2020-04-08)">
  <metadata
     id="metadata74">
    <rdf:RDF>
      <cc:Work
         rdf:about="">
        <dc:format>image/svg+xml</dc:format>
        <dc:type
           rdf:resource="http://purl.org/dc/dcmitype/StillImage" />
      </cc:Work>
    </rdf:RDF>
  </metadata>
  <sodipodi:namedview
     pagecolor="#ffffff"
     bordercolor="#666666"
     borderopacity="1"
     objecttolerance="10"
     gridtolerance="10"
     guidetolerance="10"
     inkscape:pageopacity="0"
     inkscape:pageshadow="2"
     inkscape:window-width="2560"
     inkscape:window-height="1555"
     id="namedview72"
     showgrid="false"
     inkscape:zoom="4"
     inkscape:cx="93.32305"
     inkscape:cy="26.721976"
     inkscape:window-x="1080"
     inkscape:window-y="182"
     inkscape:window-maximized="0"
     inkscape:current-layer="PS3DrumGH" />
  <defs
     id="defs4">
    <style
       id="style2">.cls-1{fill:#333132;}.cls-1,.cls-10,.cls-2,.cls-3,.cls-4,.cls-5,.cls-6,.cls-7,.cls-8,.cls-9{stroke:#000;}.cls-1,.cls-10,.cls-11,.cls-12,.cls-13,.cls-14,.cls-15,.cls-16,.cls-17,.cls-18,.cls-2,.cls-3,.cls-4,.cls-5,.cls-6,.cls-7,.cls-8,.cls-9{stroke-miterlimit:10;}.cls-1,.cls-10,.cls-9{stroke-width:0.75px;}.cls-2{fill:#393839;}.cls-11,.cls-12,.cls-13,.cls-14,.cls-15,.cls-16,.cls-17,.cls-2,.cls-3,.cls-4,.cls-5,.cls-6,.cls-7,.cls-8{stroke-width:0.25px;}.cls-3{fill:#97999c;}.cls-4{fill:#302e2f;}.cls-5{fill:#565759;}.cls-6{fill:#cc493a;}.cls-7{fill:#496fb6;}.cls-8{fill:#46a07c;}.cls-9{fill:#db6f4b;}.cls-10{fill:#ffe17f;}.cls-11,.cls-12,.cls-13,.cls-14{fill:none;}.cls-11{stroke:#717a8d;}.cls-12{stroke:#9f5553;}.cls-13{stroke:#2ea081;}.cls-14{stroke:#b09fc1;}.cls-15{fill:#2d2a2b;}.cls-15,.cls-16,.cls-17,.cls-18{stroke:#231f20;}.cls-16,.cls-18{fill:#464547;}.cls-17{fill:#86888a;}.cls-18{stroke-width:0.1px;}</style>
  </defs>
  <path
     class="cls-1"
     d="M81.66,31.22l.81-.28L99,25.35a50,50,0,0,1,2.23-8.73c1.09-2.55,4.08-2,4.08-2l50.88-.38s2.42-.45,3.38,2.48,2.36,8.36,2.36,8.36l14.54,4.78s1.65.13,2.16,2.61-.57,7.53,7,11.1,19.38,3.82,23,16.57c2.8,10.46,3.06,11.48,3.06,11.48s15.42,1.4,24,11.09,12.62,18.49,11.22,32.65-14.41,28.43-31.88,28.43-27.8-5.61-38.51-21.68c-3.57-4.84-1.58-8.22-12-11.86-4.41-1.21-9.51.07-14,3.19S140.12,120,129.1,120s-21.17-8-21.17-8-7-4.21-14.16-.7a18.1,18.1,0,0,0-9,10.46s-4.27,12.43-19.89,19-30.54,3.57-41-7.21a34,34,0,0,1-6.56-37.87c5.48-11.73,13.64-18.42,24.29-21.29a65.7,65.7,0,0,1,11.62-1l2.55-11S57.09,44.9,71,44.73,81.66,31.22,81.66,31.22Z"
     transform="translate(-2.18 -5.04)"
     id="path6" />
  <path
     class="cls-2"
     d="M97.6,39.38c-.18,3.57,5.48,3.12,5.48,3.12l55.47,0s5.16.94,4.91-4.86-3.06-18.75-3.83-21-1.4-2.29-4.9-2.29H104.8s-2.67-.45-3.76,3.31A94,94,0,0,0,97.6,39.38Z"
     id="path8"
     transform="translate(-2.18 -5.04)" />
  <g
     id="gLB"
     inkscape:label="#g956"
     transform="translate(154.75,-0.5)">
    <path
       id="path32"
       transform="translate(-2.18,-5.04)"
       d="m 43,24.46 -1,-9 c 0,0 -0.51,-7.46 8.93,-9.46 9.44,-2 12.75,8.16 12.75,8.16 l 0.77,9.44 42.08,16.7 c 0,0 3.06,0.64 1.91,3.19 C 107.29,46.04 96.71,72.15 62.79,76.1 28.87,80.05 5.54,51.24 2.6,46.9 0.69,44.61 8.72,41.09 8.72,41.09 Z"
       class="cls-5"
       inkscape:connector-curvature="0"
       style="fill:#565759;stroke:#000000;stroke-width:0.25px;stroke-miterlimit:10" />
    <path
       id="path36"
       transform="translate(-2.18,-5.04)"
       d="m 46.4,9.22 c 0,0 -5.8,3.78 -1.59,11.78 4.21,8 12.94,4.84 14.92,3.06 1.98,-1.78 4.91,-7.27 0.89,-12.18 C 56.6,6.97 52,6.61 49.78,7.31 A 8.43,8.43 0 0 0 46.4,9.22 Z"
       class="cls-9"
       inkscape:connector-curvature="0"
       style="fill:#db6f4b;stroke:#000000;stroke-width:0.75px;stroke-miterlimit:10" />
  </g>
  <path
     class="cls-8"
     d="M211,73.55c-26,0-35.83,18.36-35.83,31.62,0,22.07,16.06,38.9,38.51,38.9s33.91-19.13,33.91-33.92S237,73.55,211,73.55Zm3.3,67.41c-20.46,0-35.11-15.35-35.11-35.47,0-12.09,8.95-28.83,32.67-28.83S245.19,96.54,245.19,110,234.72,141,214.26,141Z"
     transform="translate(-2.18 -5.04)"
     id="path28" />
  <g
     id="ga"
     inkscape:label="#g916">
    <path
       id="path30"
       transform="translate(-2.18 -5.04)"
       d="M214.26,141c-20.46,0-35.11-15.35-35.11-35.47,0-12.09,8.95-28.83,32.67-28.83S245.19,96.54,245.19,110,234.72,141,214.26,141Z"
       class="cls-5" />
    <path
       id="path40"
       transform="translate(-2.18 -5.04)"
       d="M146.93,33.32a1.72,1.72,0,0,0,1.8,1.89,2,2,0,0,0,2-1.89,1.91,1.91,0,0,0-3.82,0Z"
       class="cls-3" />
    <polyline
       id="polyline48"
       points="145.86 29.07 146.7 28.26 145.86 27.41"
       class="cls-11" />
    <polyline
       id="polyline50"
       points="147.45 27.41 146.7 28.26 147.45 29.07"
       class="cls-11" />
  </g>
  <g
     id="gx"
     inkscape:label="#g934">
    <path
       id="path34"
       d="m 43.579996,18.05 -41.18,19.2 c 0,0 -3,0.84 -1.69,3.31 1.31,2.47 16.1,30.77 50.21,32.4 C 85.03,74.59 106.34,44.24 108.92,39.72 c 1.75,-2.42 -6.5,-5.38 -6.5,-5.38 L 67.58,18.91 67.15,12.43 c 0,0 0.33,-12.36 -13.760004,-12.36 -7.21,0 -10.24,8.55 -10.39,10.5 a 67.22,67.22 0 0 0 0.58,7.48 z"
       class="cls-5"
       inkscape:connector-curvature="0"
       style="fill:#565759;stroke:#000000;stroke-width:0.25px;stroke-miterlimit:10" />
    <path
       id="path38"
       d="m 64.03,10.44 c 0,0 1,10 -9.200004,10 -10.2,0 -10.24,-8.16 -10.18,-9.69 a 10.23,10.23 0 0 1 10.18,-9.18 C 63.21,1.33 64.03,10.44 64.03,10.44 Z"
       class="cls-10"
       inkscape:connector-curvature="0"
       style="fill:#ffe17f;stroke:#000000;stroke-width:0.75px;stroke-miterlimit:10" />
    <path
       id="path46"
       transform="translate(-2.18 -5.04)"
       d="M145,31.41s1.95.28,1.95-2a1.79,1.79,0,0,0-2-2,2,2,0,1,0,.05,4Z"
       class="cls-3" />
    <rect
       id="rect56"
       rx="0.03"
       height="1.98"
       width="2.03"
       y="23.41"
       x="141.74"
       class="cls-14" />
  </g>
  <g
     id="gb"
     inkscape:label="#g922">
    <path
       id="path20"
       transform="translate(-2.18 -5.04)"
       d="M38.13,78.82s-23.15,10.09-21,35.1c1.86,20.51,23,28.12,31.38,27.5,7.29-.54,20.24-1.9,29.21-20.26a31,31,0,0,0,.07-27.53,31.81,31.81,0,0,0-8.93-11.09C60.34,76.17,45.43,75.4,38.13,78.82Z"
       class="cls-5" />
    <path
       id="path22"
       transform="translate(-2.18 -5.04)"
       d="M81,91.72A34.52,34.52,0,0,0,71.2,79.59c-9.35-7-25.67-7.82-33.66-4.08,0,0-25.33,11-22.95,38.42,2,22.44,25.16,30.77,34.34,30.09,8-.59,22.16-2.08,32-22.17A33.89,33.89,0,0,0,81,91.72Zm-3.23,29.59c-9,18.35-21.92,19.72-29.21,20.26-8.39.62-29.52-7-31.38-27.5C15,89.06,38.13,79,38.13,79c7.3-3.41,22.21-2.64,30.76,3.73a31.81,31.81,0,0,1,8.93,11.09A31,31,0,0,1,77.75,121.31Z"
       class="cls-6" />
    <path
       id="path42"
       transform="translate(-2.18 -5.04)"
       d="M152.81,31.26a1.84,1.84,0,0,0,1.92-1.91,1.88,1.88,0,0,0-1.94-1.94,1.75,1.75,0,0,0-2,2C150.81,31.26,152.81,31.26,152.81,31.26Z"
       class="cls-3" />
    <path
       id="path52"
       transform="translate(-2.18 -5.04)"
       d="M151.64,29.18a1.23,1.23,0,0,0,1.29,1.29c.26,0,1-.14,1-1.29a1,1,0,0,0-1.16-1.06C152.75,28.12,151.64,28.17,151.64,29.18Z"
       class="cls-12" />
  </g>
  <g
     id="gRB"
     inkscape:label="#g880">
    <g
       data-name="Layer 14"
       id="Layer_14">
      <path
         id="path58"
         transform="translate(-2.18 -5.04)"
         d="M86.31,126.47a22.4,22.4,0,0,0-2.65,6.16c-.47,2.65-.63,10.06-.63,10.06A19.22,19.22,0,0,0,84.67,150c1.72,3.9,7.49,2.81,7.49,2.81s14.47-.19,25.89.78,8.79.43,27.82,3.08a7,7,0,0,0,2.51-.06s8.89-2.51,8.43-17.78c0-11.64-8.25-12.38-8.25-12.38s-7.78.74-26.44.74a237.12,237.12,0,0,1-29.94-2.16S88.28,124.09,86.31,126.47Z"
         class="cls-15" />
      <path
         id="path60"
         transform="translate(-2.18 -5.04)"
         d="M99.14,127.51a54.94,54.94,0,0,1-7.2-.77c-2.1-.52-3-.29-4.09,2.11a31.13,31.13,0,0,0-1.64,4.33l-.58,10s.82,4.74,1.75,6.49.94,2.05,6,1.81,9-.23,9-.23.88.47.88-.88,0-3.27,0-3.27-.08-.76,1.08-.76,3.68.11,3.68.11.5.09.5-.81c0-1.14.43-12,.43-12s.21-.5-.49-.5-4.36-.15-4.36-.15l.09-4.71s.11-.43-.65-.46S99.14,127.51,99.14,127.51Z"
         class="cls-16" />
      <path
         id="path62"
         transform="translate(-2.18 -5.04)"
         d="M104.78,128.18v4.56s2.9.15,3.89.15.76,1.05.76,1.05L109,145.87a1,1,0,0,1-1.08,1h-3.27s-.71-.14-.71,1V151s-.14.59,1.38.59,17.49.9,25.21,2.22S157.13,158,157.13,158a1,1,0,0,0,.93-.18,55.62,55.62,0,0,1,9.33-3.86c3.69-1.08,8.36-2.25,8.36-2.25s.71,0,1-.91,2.37-7.07,2.37-8.19-1.38-8.3-1.38-8.3-.06-.59-1.11-.82a39.79,39.79,0,0,1-8.63-2.92C164.55,128.82,160,126,160,126a6.13,6.13,0,0,0-1.58.15c-1.46.2-24.33,2.1-34.47,2.1S104.78,128.18,104.78,128.18Z"
         class="cls-17" />
    </g>
  </g>
  <g
     id="ghome"
     inkscape:label="#g952">
    <path
       id="path10"
       transform="translate(-2.18 -5.04)"
       d="M125.52,29.43a2.84,2.84,0,0,0,2.92,2.92,2.51,2.51,0,0,0,2.73-2.73s.52-2.83-2.83-2.83C125.24,26.79,125.52,29.43,125.52,29.43Z"
       class="cls-3" />
    <path
       id="path65"
       transform="translate(-2.18 -5.04)"
       d="M128.83,28.8v1a.5.5,0,0,0,.78-.4.94.94,0,0,0-.62-1.12c-.27-.11-1.15-.34-1.15-.34v3.11l.71.22V28.72s0-.25.16-.18S128.83,28.8,128.83,28.8Z"
       class="cls-18" />
    <path
       id="path67"
       transform="translate(-2.18 -5.04)"
       d="M130.52,30.34c-.14-.23-.86-.31-1.05-.3a2.62,2.62,0,0,0-.79.13v.43l.74-.26a.74.74,0,0,1,.47,0c.1.05,0,.11-.13.16l-1.08.38v.41l1.53-.56S130.66,30.57,130.52,30.34Z"
       class="cls-18" />
    <path
       id="path69"
       transform="translate(-2.18 -5.04)"
       d="M126.25,30.48c0,.13,0,.27.5.39a2.43,2.43,0,0,0,1,0v-.37l-.21.08c-.22.09-.52.13-.6.06s.08-.13.08-.13l.73-.26v-.41l-.88.31S126.29,30.35,126.25,30.48Z"
       class="cls-18" />
  </g>
  <g
     id="gy"
     inkscape:label="#g928">
    <path
       id="path24"
       transform="translate(-2.18 -5.04)"
       d="M130,49.77c-26.11,0-34.14,22.59-34.14,37.6,0,14.26,14.6,32.17,34.14,32.17s35.2-15.29,35.2-33.73S152.68,49.77,130,49.77Zm.05,66.88c-17.93,0-31.31-16.43-31.31-29.52,0-13.77,7.36-34.49,31.31-34.49,20.83,0,32.3,16.15,32.3,33.07S148,116.65,130,116.65Z"
       class="cls-7" />
    <path
       id="path26"
       transform="translate(-2.18 -5.04)"
       d="M130,116.65c-17.93,0-31.31-16.43-31.31-29.52,0-13.77,7.36-34.49,31.31-34.49,20.83,0,32.3,16.15,32.3,33.07S148,116.65,130,116.65Z"
       class="cls-5" />
    <path
       id="path44"
       transform="translate(-2.18 -5.04)"
       d="M149,27.4a1.78,1.78,0,0,0,1.89-1.89,2.06,2.06,0,0,0-1.89-2.2,2,2,0,1,0,0,4.09Z"
       class="cls-3" />
    <path
       sodipodi:nodetypes="csssccc"
       inkscape:connector-curvature="0"
       id="rect56-3"
       d="m 147.8275,21.079473 c 0,0.01662 -0.0134,0.03 -0.03,0.03 h -1.97 c -0.0166,0 -0.0378,-0.01531 -0.03,-0.03 l 1.00719,-1.931719 c 0.33213,0.648666 0.68112,1.288159 1.023,1.93172 z"
       style="fill:none;stroke:#2ea081;stroke-width:0.25;stroke-linecap:butt;stroke-linejoin:round;stroke-miterlimit:10;stroke-dasharray:none;stroke-opacity:1;paint-order:normal" />
  </g>
  <g
     transform="translate(-2.7989056e-6,-3.4092572e-6)"
     id="gstart"
     inkscape:label="#g1045">
    <path
       inkscape:connector-curvature="0"
       id="path938"
       transform="translate(-2.02,-6.76)"
       d="m 136.62,33.3 a 1.77,1.77 0 0 0 1.94,-1.94 2,2 0 0 0 -2.07,-2.07 1.83,1.83 0 0 0 -2,2 2,2 0 0 0 2.13,2.01 z"
       class="cls-3"
       style="fill:#97999c;stroke:#000000;stroke-width:0.25px;stroke-miterlimit:10" />
  </g>
  <g
     transform="translate(-2.7989056e-6,-3.4092572e-6)"
     id="gback"
     inkscape:label="#g1057">
    <path
       inkscape:connector-curvature="0"
       id="path940"
       transform="translate(-2.02,-6.76)"
       d="m 120,33.3 a 1.77,1.77 0 0 0 1.94,-1.94 2,2 0 0 0 -2.06,-2.06 1.83,1.83 0 0 0 -2,2 2,2 0 0 0 2.12,2 z"
       class="cls-3"
       style="fill:#97999c;stroke:#000000;stroke-width:0.25px;stroke-miterlimit:10" />
  </g>
  <circle
     class="cls-15"
     id="circle46-6"
     style="fill:#434345;stroke:#231f20;stroke-width:0.21725224;stroke-linejoin:round;stroke-miterlimit:10;stroke-dasharray:none"
     cy="18.368385"
     cx="108.20173"
     r="4.4164505" />
  <g
     transform="matrix(0.67005593,0,0,0.67005593,41.019038,-29.729716)"
     id="gdown"
     inkscape:label="#g1750">
    <path
       sodipodi:nodetypes="aassssssa"
       inkscape:connector-curvature="0"
       id="rect1681"
       d="m 99.391012,73.22925 c 0.586938,-0.284456 1.318958,-0.284456 1.905898,0 0.2256,0.109342 0.51802,0.270326 0.51802,0.60611 v 2.691364 c 0,0.335784 -0.23104,0.606109 -0.51802,0.606109 h -1.905898 c -0.286977,0 -0.518009,-0.270325 -0.518009,-0.606109 V 73.83536 c 0,-0.335784 0.292396,-0.496769 0.518009,-0.60611 z"
       style="opacity:1;vector-effect:none;fill:#7c7f85;fill-opacity:1;stroke:#231f20;stroke-width:0.15368482;stroke-linecap:round;stroke-linejoin:round;stroke-miterlimit:4;stroke-dasharray:none;stroke-dashoffset:0;stroke-opacity:1" />
    <path
       inkscape:transform-center-x="3.0478432e-06"
       transform="matrix(1.0448826,0,0,0.89752665,-2.008018,15.041616)"
       inkscape:transform-center-y="0.19136499"
       d="m 97.942856,68.683159 -0.369296,-0.639639 -0.369295,-0.639639 0.738591,0 0.738591,0 -0.369296,0.639639 z"
       inkscape:randomized="0"
       inkscape:rounded="0"
       inkscape:flatsided="false"
       sodipodi:arg2="2.6179939"
       sodipodi:arg1="1.5707963"
       sodipodi:r2="0.42642584"
       sodipodi:r1="0.85285169"
       sodipodi:cy="67.830307"
       sodipodi:cx="97.942856"
       sodipodi:sides="3"
       id="path1699"
       style="opacity:1;vector-effect:none;fill:#000000;fill-opacity:1;stroke:#231f20;stroke-width:0.2;stroke-linecap:round;stroke-linejoin:round;stroke-miterlimit:4;stroke-dasharray:none;stroke-dashoffset:0;stroke-opacity:1"
       sodipodi:type="star" />
  </g>
  <g
     transform="matrix(0.67005593,0,0,0.67005593,41.019038,-29.729716)"
     id="gup"
     inkscape:label="#g1742">
    <path
       sodipodi:nodetypes="ssssaasss"
       inkscape:connector-curvature="0"
       id="rect1677"
       d="m 99.390239,66.430414 h 1.907431 c 0.28723,0 0.51846,0.261853 0.51846,0.587116 v 2.607027 c 0,0.325262 -0.29267,0.481202 -0.51846,0.587116 -0.5874,0.275545 -1.32001,0.275545 -1.907431,0 -0.225788,-0.105914 -0.518436,-0.261854 -0.518436,-0.587116 V 67.01753 c 0,-0.325263 0.231228,-0.587116 0.518436,-0.587116 z"
       style="opacity:1;vector-effect:none;fill:#7c7f85;fill-opacity:1;stroke:#231f20;stroke-width:0.15131891;stroke-linecap:round;stroke-linejoin:round;stroke-miterlimit:4;stroke-dasharray:none;stroke-dashoffset:0;stroke-opacity:1" />
    <path
       inkscape:transform-center-x="-0.09093761"
       transform="matrix(1.0448826,0,0,-0.89752665,-1.9693481,128.53949)"
       inkscape:transform-center-y="-1.3963164"
       d="m 97.942856,68.683159 -0.369296,-0.639639 -0.369295,-0.639639 0.738591,0 0.738591,0 -0.369296,0.639639 z"
       inkscape:randomized="0"
       inkscape:rounded="0"
       inkscape:flatsided="false"
       sodipodi:arg2="2.6179939"
       sodipodi:arg1="1.5707963"
       sodipodi:r2="0.42642584"
       sodipodi:r1="0.85285169"
       sodipodi:cy="67.830307"
       sodipodi:cx="97.942856"
       sodipodi:sides="3"
       id="path1699-0"
       style="opacity:1;vector-effect:none;fill:#000000;fill-opacity:1;stroke:#231f20;stroke-width:0.2;stroke-linecap:round;stroke-linejoin:round;stroke-miterlimit:4;stroke-dasharray:none;stroke-dashoffset:0;stroke-opacity:1"
       sodipodi:type="star" />
  </g>
  <g
     transform="matrix(0.67005593,0,0,0.67005593,41.019038,-29.729716)"
     id="gright"
     inkscape:label="#g1746">
    <path
       sodipodi:nodetypes="ssssssaas"
       inkscape:connector-curvature="0"
       id="rect1683"
       d="m 102.4259,70.230958 h 2.59991 c 0.32674,0 0.58978,0.233329 0.58978,0.523158 v 1.924778 c 0,0.28983 -0.26304,0.523159 -0.58978,0.523159 h -2.59991 c -0.32674,0 -0.48338,-0.295311 -0.58977,-0.523159 -0.2768,-0.592754 -0.2768,-1.332024 0,-1.924778 0.10639,-0.227848 0.26303,-0.523158 0.58977,-0.523158 z"
       style="opacity:1;vector-effect:none;fill:#7c7f85;fill-opacity:1;stroke:#231f20;stroke-width:0.15235025;stroke-linecap:round;stroke-linejoin:round;stroke-miterlimit:4;stroke-dasharray:none;stroke-dashoffset:0;stroke-opacity:1" />
    <path
       inkscape:transform-center-y="7.6501651e-06"
       inkscape:transform-center-x="-0.19136459"
       transform="matrix(0,-1.0448826,0.89752665,0,43.554273,174.09343)"
       d="m 97.942856,68.683159 -0.369296,-0.639639 -0.369295,-0.639639 0.738591,0 0.738591,0 -0.369296,0.639639 z"
       inkscape:randomized="0"
       inkscape:rounded="0"
       inkscape:flatsided="false"
       sodipodi:arg2="2.6179939"
       sodipodi:arg1="1.5707963"
       sodipodi:r2="0.42642584"
       sodipodi:r1="0.85285169"
       sodipodi:cy="67.830307"
       sodipodi:cx="97.942856"
       sodipodi:sides="3"
       id="path1699-6"
       style="opacity:1;vector-effect:none;fill:#050506;fill-opacity:1;stroke:#231f20;stroke-width:0.2;stroke-linecap:round;stroke-linejoin:round;stroke-miterlimit:4;stroke-dasharray:none;stroke-dashoffset:0;stroke-opacity:1"
       sodipodi:type="star" />
  </g>
  <g
     transform="matrix(0.67005593,0,0,0.67005593,41.019038,-29.729716)"
     id="gleft"
     inkscape:label="#g1754">
    <path
       sodipodi:nodetypes="ssaasssss"
       inkscape:connector-curvature="0"
       id="rect1679"
       d="m 95.52193,70.245664 h 2.700312 c 0.336915,0 0.49843,0.292388 0.608127,0.51798 0.285411,0.586885 0.285411,1.318837 0,1.905722 -0.109697,0.225592 -0.271212,0.51798 -0.608127,0.51798 H 95.52193 c -0.336906,0 -0.608134,-0.231018 -0.608134,-0.51798 v -1.905722 c 0,-0.286961 0.271228,-0.51798 0.608134,-0.51798 z"
       style="opacity:1;vector-effect:none;fill:#7c7f85;fill-opacity:1;stroke:#231f20;stroke-width:0.15393382;stroke-linecap:round;stroke-linejoin:round;stroke-miterlimit:4;stroke-dasharray:none;stroke-dashoffset:0;stroke-opacity:1" />
    <path
       inkscape:transform-center-x="1.3963129"
       transform="matrix(0,-1.0448826,-0.89752665,0,157.05215,174.07133)"
       inkscape:transform-center-y="-0.090931534"
       d="m 97.942856,68.683159 -0.369296,-0.639639 -0.369295,-0.639639 0.738591,0 0.738591,0 -0.369296,0.639639 z"
       inkscape:randomized="0"
       inkscape:rounded="0"
       inkscape:flatsided="false"
       sodipodi:arg2="2.6179939"
       sodipodi:arg1="1.5707963"
       sodipodi:r2="0.42642584"
       sodipodi:r1="0.85285169"
       sodipodi:cy="67.830307"
       sodipodi:cx="97.942856"
       sodipodi:sides="3"
       id="path1699-0-1"
       style="opacity:1;vector-effect:none;fill:#000000;fill-opacity:1;stroke:#231f20;stroke-width:0.2;stroke-linecap:round;stroke-linejoin:round;stroke-miterlimit:4;stroke-dasharray:none;stroke-dashoffset:0;stroke-opacity:1"
       sodipodi:type="star" />
  </g>
  <circle
     class="cls-13"
     cx="108.299"
     cy="29.312099"
     r="4.5300002"
     id="gljoy"
     style="fill:#999999;fill-opacity:1;stroke:#231f20;stroke-width:0.1px;stroke-miterlimit:10"
     inkscape:label="#circle68" />
</svg>
