<svg id="PS3DrumGH" xmlns="http://www.w3.org/2000/svg" viewBox="0 0 261.11 153.14"><defs><style>.cls-1{fill:#97999c;}.cls-1,.cls-2,.cls-3,.cls-4,.cls-5,.cls-6,.cls-7,.cls-8{stroke:#000;}.cls-1,.cls-10,.cls-11,.cls-12,.cls-13,.cls-14,.cls-2,.cls-3,.cls-4,.cls-5,.cls-6,.cls-7,.cls-8,.cls-9{stroke-miterlimit:10;}.cls-1,.cls-10,.cls-11,.cls-12,.cls-13,.cls-2,.cls-3,.cls-4,.cls-5,.cls-6,.cls-9{stroke-width:0.25px;}.cls-2{fill:#302e2f;}.cls-3{fill:#565759;}.cls-4{fill:#cc493a;}.cls-5{fill:#496fb6;}.cls-6{fill:#46a07c;}.cls-7{fill:#db6f4b;}.cls-7,.cls-8{stroke-width:0.75px;}.cls-8{fill:#ffe17f;}.cls-10,.cls-11,.cls-12,.cls-9{fill:none;}.cls-9{stroke:#717a8d;}.cls-10{stroke:#9f5553;}.cls-11{stroke:#2ea081;}.cls-12{stroke:#b09fc1;}.cls-13{fill:#86888a;}.cls-13,.cls-14{stroke:#231f20;}.cls-14{fill:#464547;stroke-width:0.1px;}</style></defs><path class="cls-1" d="M125.52,29.43a2.84,2.84,0,0,0,2.92,2.92,2.51,2.51,0,0,0,2.73-2.73s.52-2.83-2.83-2.83C125.24,26.79,125.52,29.43,125.52,29.43Z" transform="translate(-2.18 -5.04)"/><path class="cls-1" d="M136.78,31.57a1.77,1.77,0,0,0,1.94-1.94,2,2,0,0,0-2.07-2.06,1.82,1.82,0,0,0-2,2A2,2,0,0,0,136.78,31.57Z" transform="translate(-2.18 -5.04)"/><path class="cls-1" d="M120.15,31.57a1.77,1.77,0,0,0,1.94-1.94A2,2,0,0,0,120,27.57a1.83,1.83,0,0,0-2,2A2,2,0,0,0,120.15,31.57Z" transform="translate(-2.18 -5.04)"/><path class="cls-2" d="M106.16,29.57a3.68,3.68,0,1,0,7.33,0,3.4,3.4,0,0,0-3.69-3.74C107.79,25.83,106.16,26.66,106.16,29.57Z" transform="translate(-2.18 -5.04)"/><path class="cls-1" d="M110.62,33.42l0-2.47.6-.6h2.19a3.51,3.51,0,0,0,.06-.78,3.42,3.42,0,0,0-.06-.84h-2.22l-.68-.68V25.93s-.08-.1-.64-.1-.78.1-.78.1V28l-.71.71h-2.11s-.13.11-.13.84.13.81.13.81h2.1l.61.6,0,2.44a2.82,2.82,0,0,0,.88.1A2.32,2.32,0,0,0,110.62,33.42Z" transform="translate(-2.18 -5.04)"/><path class="cls-3" d="M38.13,78.82s-23.15,10.09-21,35.1c1.86,20.51,23,28.12,31.38,27.5,7.29-.54,20.24-1.9,29.21-20.26a31,31,0,0,0,.07-27.53,31.81,31.81,0,0,0-8.93-11.09C60.34,76.17,45.43,75.4,38.13,78.82Z" transform="translate(-2.18 -5.04)"/><path class="cls-4" d="M81,91.72A34.52,34.52,0,0,0,71.2,79.59c-9.35-7-25.67-7.82-33.66-4.08,0,0-25.33,11-22.95,38.42,2,22.44,25.16,30.77,34.34,30.09,8-.59,22.16-2.08,32-22.17A33.89,33.89,0,0,0,81,91.72Zm-3.23,29.59c-9,18.35-21.92,19.72-29.21,20.26-8.39.62-29.52-7-31.38-27.5C15,89.06,38.13,79,38.13,79c7.3-3.41,22.21-2.64,30.76,3.73a31.81,31.81,0,0,1,8.93,11.09A31,31,0,0,1,77.75,121.31Z" transform="translate(-2.18 -5.04)"/><path class="cls-5" d="M130,49.77c-26.11,0-34.14,22.59-34.14,37.6,0,14.26,14.6,32.17,34.14,32.17s35.2-15.29,35.2-33.73S152.68,49.77,130,49.77Zm.05,66.88c-17.93,0-31.31-16.43-31.31-29.52,0-13.77,7.36-34.49,31.31-34.49,20.83,0,32.3,16.15,32.3,33.07S148,116.65,130,116.65Z" transform="translate(-2.18 -5.04)"/><path class="cls-3" d="M130,116.65c-17.93,0-31.31-16.43-31.31-29.52,0-13.77,7.36-34.49,31.31-34.49,20.83,0,32.3,16.15,32.3,33.07S148,116.65,130,116.65Z" transform="translate(-2.18 -5.04)"/><path class="cls-6" d="M211,73.55c-26,0-35.83,18.36-35.83,31.62,0,22.07,16.06,38.9,38.51,38.9s33.91-19.13,33.91-33.92S237,73.55,211,73.55Zm3.3,67.41c-20.46,0-35.11-15.35-35.11-35.47,0-12.09,8.95-28.83,32.67-28.83S245.19,96.54,245.19,110,234.72,141,214.26,141Z" transform="translate(-2.18 -5.04)"/><path class="cls-3" d="M214.26,141c-20.46,0-35.11-15.35-35.11-35.47,0-12.09,8.95-28.83,32.67-28.83S245.19,96.54,245.19,110,234.72,141,214.26,141Z" transform="translate(-2.18 -5.04)"/><path class="cls-3" d="M43,24.46l-1-9S41.49,8,50.93,6s12.75,8.16,12.75,8.16l.77,9.44,42.08,16.7s3.06.64,1.91,3.19S96.71,72.15,62.79,76.1,5.54,51.24,2.6,46.9c-1.91-2.29,6.12-5.81,6.12-5.81Z" transform="translate(-2.18 -5.04)"/><path class="cls-3" d="M220,23.14l41.18,19.2s3,.84,1.69,3.31-16.1,30.77-50.21,32.4-55.42-28.72-58-33.24c-1.75-2.42,6.5-5.38,6.5-5.38L196,24l.43-6.48S196.1,5.16,210.19,5.16c7.21,0,10.24,8.55,10.39,10.5A67.22,67.22,0,0,1,220,23.14Z" transform="translate(-2.18 -5.04)"/><path class="cls-7" d="M46.4,9.22S40.6,13,44.81,21s12.94,4.84,14.92,3.06,4.91-7.27.89-12.18S52,6.61,49.78,7.31A8.43,8.43,0,0,0,46.4,9.22Z" transform="translate(-2.18 -5.04)"/><path class="cls-8" d="M199.55,15.53s-1,10,9.2,10,10.24-8.16,10.18-9.69a10.23,10.23,0,0,0-10.18-9.18C200.37,6.42,199.55,15.53,199.55,15.53Z" transform="translate(-2.18 -5.04)"/><path class="cls-1" d="M146.93,33.32a1.72,1.72,0,0,0,1.8,1.89,2,2,0,0,0,2-1.89,1.91,1.91,0,0,0-3.82,0Z" transform="translate(-2.18 -5.04)"/><path class="cls-1" d="M152.81,31.26a1.84,1.84,0,0,0,1.92-1.91,1.88,1.88,0,0,0-1.94-1.94,1.75,1.75,0,0,0-2,2C150.81,31.26,152.81,31.26,152.81,31.26Z" transform="translate(-2.18 -5.04)"/><path class="cls-1" d="M149,27.4a1.78,1.78,0,0,0,1.89-1.89,2.06,2.06,0,0,0-1.89-2.2,2,2,0,1,0,0,4.09Z" transform="translate(-2.18 -5.04)"/><path class="cls-1" d="M145,31.41s1.95.28,1.95-2a1.79,1.79,0,0,0-2-2,2,2,0,1,0,.05,4Z" transform="translate(-2.18 -5.04)"/><polyline class="cls-9" points="145.86 29.07 146.7 28.26 145.86 27.41"/><polyline class="cls-9" points="147.45 27.41 146.7 28.26 147.45 29.07"/><path class="cls-10" d="M151.64,29.18a1.23,1.23,0,0,0,1.29,1.29c.26,0,1-.14,1-1.29a1,1,0,0,0-1.16-1.06C152.75,28.12,151.64,28.17,151.64,29.18Z" transform="translate(-2.18 -5.04)"/><path class="cls-11" d="M148.84,24.27l-1,1.82s0,.06,0,.06h2.09a0,0,0,0,0,0-.06l-1.06-1.82A0,0,0,0,0,148.84,24.27Z" transform="translate(-2.18 -5.04)"/><rect class="cls-12" x="141.74" y="23.41" width="2.03" height="1.98" rx="0.03"/><g id="Layer_14" data-name="Layer 14"><path class="cls-13" d="M104.78,128.18v4.56s2.9.15,3.89.15.76,1.05.76,1.05L109,145.87a1,1,0,0,1-1.08,1h-3.27s-.71-.14-.71,1V151s-.14.59,1.38.59,17.49.9,25.21,2.22S157.13,158,157.13,158a1,1,0,0,0,.93-.18,55.62,55.62,0,0,1,9.33-3.86c3.69-1.08,8.36-2.25,8.36-2.25s.71,0,1-.91,2.37-7.07,2.37-8.19-1.38-8.3-1.38-8.3-.06-.59-1.11-.82a39.79,39.79,0,0,1-8.63-2.92C164.55,128.82,160,126,160,126a6.13,6.13,0,0,0-1.58.15c-1.46.2-24.33,2.1-34.47,2.1S104.78,128.18,104.78,128.18Z" transform="translate(-2.18 -5.04)"/></g><path class="cls-14" d="M128.83,28.8v1a.5.5,0,0,0,.78-.4.94.94,0,0,0-.62-1.12c-.27-.11-1.15-.34-1.15-.34v3.11l.71.22V28.72s0-.25.16-.18S128.83,28.8,128.83,28.8Z" transform="translate(-2.18 -5.04)"/><path class="cls-14" d="M130.52,30.34c-.14-.23-.86-.31-1.05-.3a2.62,2.62,0,0,0-.79.13v.43l.74-.26a.74.74,0,0,1,.47,0c.1.05,0,.11-.13.16l-1.08.38v.41l1.53-.56S130.66,30.57,130.52,30.34Z" transform="translate(-2.18 -5.04)"/><path class="cls-14" d="M126.25,30.48c0,.13,0,.27.5.39a2.43,2.43,0,0,0,1,0v-.37l-.21.08c-.22.09-.52.13-.6.06s.08-.13.08-.13l.73-.26v-.41l-.88.31S126.29,30.35,126.25,30.48Z" transform="translate(-2.18 -5.04)"/></svg>