<?xml version="1.0" encoding="UTF-8" standalone="no"?>
<svg
   xmlns:dc="http://purl.org/dc/elements/1.1/"
   xmlns:cc="http://creativecommons.org/ns#"
   xmlns:rdf="http://www.w3.org/1999/02/22-rdf-syntax-ns#"
   xmlns:svg="http://www.w3.org/2000/svg"
   xmlns="http://www.w3.org/2000/svg"
   xmlns:sodipodi="http://sodipodi.sourceforge.net/DTD/sodipodi-0.dtd"
   xmlns:inkscape="http://www.inkscape.org/namespaces/inkscape"
   id="PS3GHLesPaul"
   viewBox="0 0 245.45 145.67"
   version="1.1"
   sodipodi:docname="Base.svg"
   inkscape:version="0.92.5 (2060ec1f9f, 2020-04-08)">
  <metadata
     id="metadata53">
    <rdf:RDF>
      <cc:Work
         rdf:about="">
        <dc:format>image/svg+xml</dc:format>
        <dc:type
           rdf:resource="http://purl.org/dc/dcmitype/StillImage" />
      </cc:Work>
    </rdf:RDF>
  </metadata>
  <sodipodi:namedview
     pagecolor="#ffffff"
     bordercolor="#666666"
     borderopacity="1"
     objecttolerance="10"
     gridtolerance="10"
     guidetolerance="10"
     inkscape:pageopacity="0"
     inkscape:pageshadow="2"
     inkscape:window-width="2560"
     inkscape:window-height="1555"
     id="namedview51"
     showgrid="false"
     inkscape:zoom="10.918721"
     inkscape:cx="43.448507"
     inkscape:cy="67.475961"
     inkscape:window-x="1080"
     inkscape:window-y="182"
     inkscape:window-maximized="0"
     inkscape:current-layer="PS3GHLesPaul" />
  <defs
     id="defs4">
    <style
       id="style2">.cls-1{fill:#292728;}.cls-1,.cls-10,.cls-2,.cls-3,.cls-4,.cls-6,.cls-7,.cls-8,.cls-9{stroke:#000;}.cls-1,.cls-10,.cls-2,.cls-3,.cls-4,.cls-5,.cls-6,.cls-7,.cls-8,.cls-9{stroke-miterlimit:10;stroke-width:0.25px;}.cls-2{fill:#9d9fa2;}.cls-3,.cls-5{fill:#333132;}.cls-4{fill:#d1d3d4;}.cls-5{stroke:#231f20;}.cls-6{fill:#b34926;}.cls-7{fill:#3a58a7;}.cls-8{fill:#fbef59;}.cls-9{fill:#be1e2d;}.cls-10{fill:#538c43;}</style>
  </defs>
  <g
     transform="translate(0,-2.4673828e-6)"
     id="base"
     inkscape:label="#g1733">
    <path
       inkscape:connector-curvature="0"
       id="path1126"
       transform="translate(-18.9,-7.69)"
       d="m 23.58,124.66 c 0,0 15.51,39.05 46.42,25.85 15.72,-6.7 20.38,-25.7 20.38,-25.7 0,0 1.14,-12 15,-10 13.86,2 18.94,0.86 21.21,-4.79 0.74,-1.59 -9.89,-0.6 -11.68,-7.78 -1.79,-7.18 2.47,-9.84 2.47,-9.84 L 227.07,41.88 a 8.56,8.56 0 0 1 8.21,1.32 c 1.12,0.94 -0.21,-4.16 15,-8.67 12.09,-3.59 13.85,-3.78 13.85,-3.78 0,0 -4.8,-8.59 -2.58,-10.38 l -1.64,-3.84 c 0,0 -3,0.28 -5.18,-4.17 L 252.57,7.9 a 42.31,42.31 0 0 1 -12.13,8.15 85.89,85.89 0 0 1 -16.06,4.57 6.58,6.58 0 0 1 -4.12,8.28 C 214.14,31.51 120,72.66 120,72.66 c 0,0 -4,-11.35 -15.83,-14.52 -7,-2 -13.15,5.75 -17.69,12.07 C 81.94,76.53 76.73,78 63.36,71 49.99,64 25.92,71.64 21.26,89.65 c -4.66,18.01 -1.12,25.28 2.32,35.01 z"
       class="cls-1"
       style="fill:#292728;stroke:#000000;stroke-width:0.25px;stroke-miterlimit:10" />
  </g>
  <g
     transform="translate(0,-2.4673828e-6)"
     id="gstart"
     inkscape:label="#g1764">
    <circle
       id="circle1128"
       r="3.1600001"
       cy="119.89"
       cx="21.190001"
       class="cls-2"
       style="fill:#9d9fa2;stroke:#000000;stroke-width:0.25px;stroke-miterlimit:10" />
  </g>
  <g
     transform="translate(0,-2.4673828e-6)"
     id="gback"
     inkscape:label="#g1761">
    <circle
       id="circle1130"
       r="3.1600001"
       cy="111.96"
       cx="25.690001"
       class="cls-2"
       style="fill:#9d9fa2;stroke:#000000;stroke-width:0.25px;stroke-miterlimit:10" />
  </g>
  <g
     transform="translate(0,-2.4673828e-6)"
     id="gr_x"
     inkscape:label="#g1758">
    <path
       inkscape:connector-curvature="0"
       id="path1132"
       transform="translate(-18.9,-7.69)"
       d="m 48.16,135.21 3,3.48 a 0.83,0.83 0 0 0 1.1,0.08 l 7.67,-6.71 a 0.81,0.81 0 0 0 0.06,-1.21 l -3.42,-3.38 a 0.81,0.81 0 0 0 -1.16,0 l -7.2,6.61 a 0.82,0.82 0 0 0 -0.05,1.13 z"
       class="cls-3"
       style="fill:#333132;stroke:#000000;stroke-width:0.25px;stroke-miterlimit:10" />
    <path
       inkscape:connector-curvature="0"
       id="path1134"
       transform="translate(-18.9,-7.69)"
       d="m 52.1,133.2 20,-8.54 a 1.13,1.13 0 0 1 0.64,1.5 l -20,8.54 a 0.93,0.93 0 0 1 -0.64,-1.5 z"
       class="cls-4"
       style="fill:#d1d3d4;stroke:#000000;stroke-width:0.25px;stroke-miterlimit:10" />
    <path
       inkscape:connector-curvature="0"
       id="path1136"
       transform="translate(-18.9,-7.69)"
       d="m 79,121.19 a 1.89,1.89 0 0 1 1,2.4 l -7.2,2.57 a 1.23,1.23 0 0 0 -0.64,-1.5 z"
       class="cls-2"
       style="fill:#9d9fa2;stroke:#000000;stroke-width:0.25px;stroke-miterlimit:10" />
  </g>
  <g
     transform="translate(0,-2.4673828e-6)"
     id="gstrum"
     inkscape:label="#g1769">
    <path
       inkscape:connector-curvature="0"
       id="path1138"
       transform="translate(-18.9,-7.69)"
       d="m 62.82,104.86 c 0,0 -2.37,1.29 -1.9,2.41 0.47,1.12 3.08,0.35 3.08,0.35 z"
       class="cls-5"
       style="fill:#333132;stroke:#231f20;stroke-width:0.25px;stroke-miterlimit:10" />
    <path
       inkscape:connector-curvature="0"
       id="path1140"
       transform="translate(-18.9,-7.69)"
       d="m 83.37,95.62 1.35,3.16 c 0,0 3.63,-1.45 2.92,-3.11 -0.71,-1.66 -4.27,-0.05 -4.27,-0.05 z"
       class="cls-5"
       style="fill:#333132;stroke:#231f20;stroke-width:0.25px;stroke-miterlimit:10" />
    <path
       inkscape:connector-curvature="0"
       id="path1142"
       transform="translate(-18.9,-7.69)"
       d="m 64,107.62 c 0,0 1,1.07 1.79,0.75 l 18.39,-7.85 c 0,0 0.91,-0.86 0.54,-1.74 l -1.35,-3.16 c 0,0 -0.83,-1.39 -1.75,-1 l -18.52,7.9 c 0,0 -1.08,0.46 -0.28,2.34 z"
       class="cls-2"
       style="fill:#9d9fa2;stroke:#000000;stroke-width:0.25px;stroke-miterlimit:10" />
  </g>
  <g
     transform="translate(0,-2.4673828e-6)"
     id="gLB"
     inkscape:label="#g1753">
    <path
       inkscape:connector-curvature="0"
       id="path1148"
       transform="translate(-18.9,-7.69)"
       d="m 178.2,48.77 3.33,7.8 c 0,0 1.33,2.13 4.35,0.84 3.02,-1.29 2.4,-3.72 2.4,-3.72 L 185,45.89 Z m 9.15,4.65 c 0,0 0.49,1.93 -1.91,2.95 -2.4,1.02 -3.46,-0.66 -3.46,-0.66 l -2.64,-6.2 5.37,-2.29 z"
       class="cls-6"
       style="fill:#b34926;stroke:#000000;stroke-width:0.25px;stroke-miterlimit:10" />
    <path
       inkscape:connector-curvature="0"
       id="path1158"
       transform="translate(-18.9,-7.69)"
       d="m 179.34,49.51 5.37,-2.29 2.64,6.2 c 0,0 0.49,1.93 -1.91,2.95 -2.4,1.02 -3.46,-0.66 -3.46,-0.66 z"
       class="cls-2"
       style="fill:#9d9fa2;stroke:#000000;stroke-width:0.25px;stroke-miterlimit:10" />
  </g>
  <g
     transform="translate(0,-2.4673828e-6)"
     id="gx"
     inkscape:label="#g1749">
    <path
       inkscape:connector-curvature="0"
       id="path1150"
       transform="translate(-18.9,-7.69)"
       d="m 186.54,45.22 3.32,7.78 c 0,0 1.34,2.13 4.36,0.84 3.02,-1.29 2.4,-3.72 2.4,-3.72 l -3.32,-7.8 z m 9.15,4.64 c 0,0 0.49,1.94 -1.91,3 -2.4,1.06 -3.46,-0.67 -3.46,-0.67 l -2.64,-6.19 5.37,-2.29 z"
       class="cls-7"
       style="fill:#3a58a7;stroke:#000000;stroke-width:0.25px;stroke-miterlimit:10" />
    <path
       inkscape:connector-curvature="0"
       id="path1160"
       transform="translate(-18.9,-7.69)"
       d="m 187.68,46 5.37,-2.29 2.64,6.2 c 0,0 0.49,1.94 -1.91,3 -2.4,1.06 -3.46,-0.67 -3.46,-0.67 z"
       class="cls-2"
       style="fill:#9d9fa2;stroke:#000000;stroke-width:0.25px;stroke-miterlimit:10" />
  </g>
  <g
     transform="translate(0,-2.4673828e-6)"
     id="gy"
     inkscape:label="#g1745">
    <path
       inkscape:connector-curvature="0"
       id="path1152"
       transform="translate(-18.9,-7.69)"
       d="m 194.57,41.79 3.32,7.8 c 0,0 1.33,2.13 4.35,0.84 3.02,-1.29 2.41,-3.72 2.41,-3.72 l -3.32,-7.8 z m 9.15,4.65 c 0,0 0.48,1.93 -1.92,3 -2.4,1.07 -3.46,-0.67 -3.46,-0.67 l -2.64,-6.2 5.37,-2.29 z"
       class="cls-8"
       style="fill:#fbef59;stroke:#000000;stroke-width:0.25px;stroke-miterlimit:10" />
    <path
       inkscape:connector-curvature="0"
       id="path1162"
       transform="translate(-18.9,-7.69)"
       d="m 195.7,42.53 5.37,-2.29 2.65,6.2 c 0,0 0.48,1.93 -1.92,3 -2.4,1.07 -3.46,-0.67 -3.46,-0.67 z"
       class="cls-2"
       style="fill:#9d9fa2;stroke:#000000;stroke-width:0.25px;stroke-miterlimit:10" />
  </g>
  <g
     transform="translate(0,-2.4673828e-6)"
     id="gb"
     inkscape:label="#g1741">
    <path
       inkscape:connector-curvature="0"
       id="path1154"
       transform="translate(-18.9,-7.69)"
       d="M 203.08,38.16 206.4,46 c 0,0 1.34,2.13 4.36,0.84 3.02,-1.29 2.4,-3.72 2.4,-3.72 l -3.32,-7.8 z m 9.15,4.65 c 0,0 0.48,1.93 -1.92,3 -2.4,1.07 -3.45,-0.67 -3.45,-0.67 l -2.65,-6.2 5.38,-2.29 z"
       class="cls-9"
       style="fill:#be1e2d;stroke:#000000;stroke-width:0.25px;stroke-miterlimit:10" />
    <path
       inkscape:connector-curvature="0"
       id="path1164"
       transform="translate(-18.9,-7.69)"
       d="m 204.21,38.9 5.38,-2.29 2.64,6.2 c 0,0 0.48,1.93 -1.92,3 -2.4,1.07 -3.45,-0.67 -3.45,-0.67 z"
       class="cls-2"
       style="fill:#9d9fa2;stroke:#000000;stroke-width:0.25px;stroke-miterlimit:10" />
  </g>
  <g
     transform="translate(0,-2.4673828e-6)"
     id="ga"
     inkscape:label="#g1737">
    <path
       inkscape:connector-curvature="0"
       id="path1156"
       transform="translate(-18.9,-7.69)"
       d="m 211.24,34.69 3.32,7.79 c 0,0 1.33,2.13 4.35,0.84 3.02,-1.29 2.41,-3.72 2.41,-3.72 L 218,31.81 Z m 9,4.2 c 0,0 0.48,1.94 -1.92,3 -2.4,1.06 -3.45,-0.67 -3.45,-0.67 l -2.69,-6.22 5.38,-2.29 z"
       class="cls-10"
       style="fill:#538c43;stroke:#000000;stroke-width:0.25px;stroke-miterlimit:10" />
    <path
       inkscape:connector-curvature="0"
       id="path1166"
       transform="translate(-18.9,-7.69)"
       d="m 212.18,35 5.38,-2.29 2.64,6.2 c 0,0 0.48,1.94 -1.92,3 -2.4,1.06 -3.45,-0.67 -3.45,-0.67 z"
       class="cls-2"
       style="fill:#9d9fa2;stroke:#000000;stroke-width:0.25px;stroke-miterlimit:10" />
  </g>
  <circle
     class="cls-15"
     id="circle46-6"
     style="fill:#434345;stroke:#231f20;stroke-width:0.21725224;stroke-linejoin:round;stroke-miterlimit:10;stroke-dasharray:none"
     cy="100.41677"
     cx="16.022736"
     r="4.4164505"
     transform="rotate(-45.350614)" />
  <g
     transform="matrix(0.47089288,-0.47669156,0.47669156,0.47089288,1.2670627,73.164037)"
     id="gdown"
     inkscape:label="#g1750">
    <path
       sodipodi:nodetypes="aassssssa"
       inkscape:connector-curvature="0"
       id="rect1681"
       d="m 99.391012,73.22925 c 0.586938,-0.284456 1.318958,-0.284456 1.905898,0 0.2256,0.109342 0.51802,0.270326 0.51802,0.60611 v 2.691364 c 0,0.335784 -0.23104,0.606109 -0.51802,0.606109 h -1.905898 c -0.286977,0 -0.518009,-0.270325 -0.518009,-0.606109 V 73.83536 c 0,-0.335784 0.292396,-0.496769 0.518009,-0.60611 z"
       style="opacity:1;vector-effect:none;fill:#7c7f85;fill-opacity:1;stroke:#231f20;stroke-width:0.15368482;stroke-linecap:round;stroke-linejoin:round;stroke-miterlimit:4;stroke-dasharray:none;stroke-dashoffset:0;stroke-opacity:1" />
    <path
       inkscape:transform-center-x="3.0478432e-06"
       transform="matrix(1.0448826,0,0,0.89752665,-2.008018,15.041616)"
       inkscape:transform-center-y="0.19136499"
       d="m 97.942856,68.683159 -0.369296,-0.639639 -0.369295,-0.639639 0.738591,0 0.738591,0 -0.369296,0.639639 z"
       inkscape:randomized="0"
       inkscape:rounded="0"
       inkscape:flatsided="false"
       sodipodi:arg2="2.6179939"
       sodipodi:arg1="1.5707963"
       sodipodi:r2="0.42642584"
       sodipodi:r1="0.85285169"
       sodipodi:cy="67.830307"
       sodipodi:cx="97.942856"
       sodipodi:sides="3"
       id="path1699"
       style="opacity:1;vector-effect:none;fill:#000000;fill-opacity:1;stroke:#231f20;stroke-width:0.2;stroke-linecap:round;stroke-linejoin:round;stroke-miterlimit:4;stroke-dasharray:none;stroke-dashoffset:0;stroke-opacity:1"
       sodipodi:type="star" />
  </g>
  <g
     transform="matrix(0.47089288,-0.47669156,0.47669156,0.47089288,1.2670627,73.164037)"
     id="gup"
     inkscape:label="#g1742">
    <path
       sodipodi:nodetypes="ssssaasss"
       inkscape:connector-curvature="0"
       id="rect1677"
       d="m 99.390239,66.430414 h 1.907431 c 0.28723,0 0.51846,0.261853 0.51846,0.587116 v 2.607027 c 0,0.325262 -0.29267,0.481202 -0.51846,0.587116 -0.5874,0.275545 -1.32001,0.275545 -1.907431,0 -0.225788,-0.105914 -0.518436,-0.261854 -0.518436,-0.587116 V 67.01753 c 0,-0.325263 0.231228,-0.587116 0.518436,-0.587116 z"
       style="opacity:1;vector-effect:none;fill:#7c7f85;fill-opacity:1;stroke:#231f20;stroke-width:0.15131891;stroke-linecap:round;stroke-linejoin:round;stroke-miterlimit:4;stroke-dasharray:none;stroke-dashoffset:0;stroke-opacity:1" />
    <path
       inkscape:transform-center-x="-0.09093761"
       transform="matrix(1.0448826,0,0,-0.89752665,-1.9693481,128.53949)"
       inkscape:transform-center-y="-1.3963164"
       d="m 97.942856,68.683159 -0.369296,-0.639639 -0.369295,-0.639639 0.738591,0 0.738591,0 -0.369296,0.639639 z"
       inkscape:randomized="0"
       inkscape:rounded="0"
       inkscape:flatsided="false"
       sodipodi:arg2="2.6179939"
       sodipodi:arg1="1.5707963"
       sodipodi:r2="0.42642584"
       sodipodi:r1="0.85285169"
       sodipodi:cy="67.830307"
       sodipodi:cx="97.942856"
       sodipodi:sides="3"
       id="path1699-0"
       style="opacity:1;vector-effect:none;fill:#000000;fill-opacity:1;stroke:#231f20;stroke-width:0.2;stroke-linecap:round;stroke-linejoin:round;stroke-miterlimit:4;stroke-dasharray:none;stroke-dashoffset:0;stroke-opacity:1"
       sodipodi:type="star" />
  </g>
  <g
     transform="matrix(0.47089288,-0.47669156,0.47669156,0.47089288,1.2670627,73.164037)"
     id="gright"
     inkscape:label="#g1746">
    <path
       sodipodi:nodetypes="ssssssaas"
       inkscape:connector-curvature="0"
       id="rect1683"
       d="m 102.4259,70.230958 h 2.59991 c 0.32674,0 0.58978,0.233329 0.58978,0.523158 v 1.924778 c 0,0.28983 -0.26304,0.523159 -0.58978,0.523159 h -2.59991 c -0.32674,0 -0.48338,-0.295311 -0.58977,-0.523159 -0.2768,-0.592754 -0.2768,-1.332024 0,-1.924778 0.10639,-0.227848 0.26303,-0.523158 0.58977,-0.523158 z"
       style="opacity:1;vector-effect:none;fill:#7c7f85;fill-opacity:1;stroke:#231f20;stroke-width:0.15235025;stroke-linecap:round;stroke-linejoin:round;stroke-miterlimit:4;stroke-dasharray:none;stroke-dashoffset:0;stroke-opacity:1" />
    <path
       inkscape:transform-center-y="7.6501651e-06"
       inkscape:transform-center-x="-0.19136459"
       transform="matrix(0,-1.0448826,0.89752665,0,43.554273,174.09343)"
       d="m 97.942856,68.683159 -0.369296,-0.639639 -0.369295,-0.639639 0.738591,0 0.738591,0 -0.369296,0.639639 z"
       inkscape:randomized="0"
       inkscape:rounded="0"
       inkscape:flatsided="false"
       sodipodi:arg2="2.6179939"
       sodipodi:arg1="1.5707963"
       sodipodi:r2="0.42642584"
       sodipodi:r1="0.85285169"
       sodipodi:cy="67.830307"
       sodipodi:cx="97.942856"
       sodipodi:sides="3"
       id="path1699-6"
       style="opacity:1;vector-effect:none;fill:#050506;fill-opacity:1;stroke:#231f20;stroke-width:0.2;stroke-linecap:round;stroke-linejoin:round;stroke-miterlimit:4;stroke-dasharray:none;stroke-dashoffset:0;stroke-opacity:1"
       sodipodi:type="star" />
  </g>
  <g
     transform="matrix(0.47089288,-0.47669156,0.47669156,0.47089288,1.2670627,73.164037)"
     id="gleft"
     inkscape:label="#g1754">
    <path
       sodipodi:nodetypes="ssaasssss"
       inkscape:connector-curvature="0"
       id="rect1679"
       d="m 95.52193,70.245664 h 2.700312 c 0.336915,0 0.49843,0.292388 0.608127,0.51798 0.285411,0.586885 0.285411,1.318837 0,1.905722 -0.109697,0.225592 -0.271212,0.51798 -0.608127,0.51798 H 95.52193 c -0.336906,0 -0.608134,-0.231018 -0.608134,-0.51798 v -1.905722 c 0,-0.286961 0.271228,-0.51798 0.608134,-0.51798 z"
       style="opacity:1;vector-effect:none;fill:#7c7f85;fill-opacity:1;stroke:#231f20;stroke-width:0.15393382;stroke-linecap:round;stroke-linejoin:round;stroke-miterlimit:4;stroke-dasharray:none;stroke-dashoffset:0;stroke-opacity:1" />
    <path
       inkscape:transform-center-x="1.3963129"
       transform="matrix(0,-1.0448826,-0.89752665,0,157.05215,174.07133)"
       inkscape:transform-center-y="-0.090931534"
       d="m 97.942856,68.683159 -0.369296,-0.639639 -0.369295,-0.639639 0.738591,0 0.738591,0 -0.369296,0.639639 z"
       inkscape:randomized="0"
       inkscape:rounded="0"
       inkscape:flatsided="false"
       sodipodi:arg2="2.6179939"
       sodipodi:arg1="1.5707963"
       sodipodi:r2="0.42642584"
       sodipodi:r1="0.85285169"
       sodipodi:cy="67.830307"
       sodipodi:cx="97.942856"
       sodipodi:sides="3"
       id="path1699-0-1"
       style="opacity:1;vector-effect:none;fill:#000000;fill-opacity:1;stroke:#231f20;stroke-width:0.2;stroke-linecap:round;stroke-linejoin:round;stroke-miterlimit:4;stroke-dasharray:none;stroke-dashoffset:0;stroke-opacity:1"
       sodipodi:type="star" />
  </g>
  <g
     id="ghome"
     inkscape:label="#g1020">
    <circle
       class="cls-18"
       cx="74.825615"
       cy="66.906197"
       r="3.95"
       id="circle60"
       style="fill:#999999;stroke:#000000;stroke-width:0.25px;stroke-miterlimit:10" />
    <circle
       class="cls-19"
       cx="74.725616"
       cy="66.846199"
       r="2.54"
       id="circle62"
       style="fill:#8f9194;stroke:#231f20;stroke-width:0.1px;stroke-miterlimit:10" />
    <g
       data-name="Layer 28"
       id="Layer_28"
       transform="translate(25.115616,-79.123807)">
      <path
         id="path71"
         transform="translate(-30.24,-2.88)"
         d="m 80.19,148 v 0.87 a 0.42,0.42 0 0 0 0.65,-0.33 0.8,0.8 0 0 0 -0.52,-0.95 c -0.22,-0.09 -1,-0.28 -1,-0.28 v 2.61 l 0.59,0.19 v -2.18 c 0,0 0,-0.21 0.14,-0.15 0.14,0.06 0.14,0.22 0.14,0.22 z"
         class="cls-21"
         inkscape:connector-curvature="0" />
      <path
         id="path73"
         transform="translate(-30.24,-2.88)"
         d="m 81.61,149.29 c -0.11,-0.19 -0.72,-0.26 -0.88,-0.25 a 2.26,2.26 0 0 0 -0.66,0.11 v 0.36 l 0.63,-0.22 a 0.61,0.61 0 0 1 0.39,0 c 0.08,0 0,0.09 -0.11,0.13 l -0.91,0.32 v 0.34 l 1.29,-0.46 c 0,0 0.37,-0.14 0.25,-0.33 z"
         class="cls-21"
         inkscape:connector-curvature="0" />
      <path
         id="path75"
         transform="translate(-30.24,-2.88)"
         d="m 78,149.41 c 0,0.11 0,0.23 0.43,0.33 a 2.1,2.1 0 0 0 0.81,0 v -0.31 l -0.18,0.07 c -0.18,0.06 -0.43,0.1 -0.5,0 -0.07,-0.1 0.06,-0.11 0.06,-0.11 l 0.62,-0.22 v -0.34 l -0.74,0.26 c 0,0 -0.45,0.21 -0.5,0.32 z"
         class="cls-21"
         inkscape:connector-curvature="0" />
    </g>
  </g>
  <circle
     class="cls-13"
     cx="88.074898"
     cy="67.827332"
     r="4.5300002"
     id="gljoy"
     style="fill:#999999;fill-opacity:1;stroke:#231f20;stroke-width:0.1px;stroke-miterlimit:10"
     inkscape:label="#circle68" />
</svg>
