<svg id="PS3GHLesPaul" xmlns="http://www.w3.org/2000/svg" viewBox="0 0 245.45 145.67"><defs><style>.cls-1{fill:#292728;}.cls-1,.cls-10,.cls-2,.cls-3,.cls-4,.cls-6,.cls-7,.cls-8,.cls-9{stroke:#000;}.cls-1,.cls-10,.cls-2,.cls-3,.cls-4,.cls-5,.cls-6,.cls-7,.cls-8,.cls-9{stroke-miterlimit:10;stroke-width:0.25px;}.cls-2{fill:#9d9fa2;}.cls-3,.cls-5{fill:#333132;}.cls-4{fill:#d1d3d4;}.cls-5{stroke:#231f20;}.cls-6{fill:#b34926;}.cls-7{fill:#3a58a7;}.cls-8{fill:#fbef59;}.cls-9{fill:#be1e2d;}.cls-10{fill:#538c43;}</style></defs><path class="cls-1" d="M16.83,124.83s15.51,39.05,46.47,25.85C79,144,83.67,125,83.67,125s1.14-12,15-10,19,.86,21.22-4.79c.74-1.59-9.9-.6-11.69-7.78s2.47-9.84,2.47-9.84L220.32,42.06a8.56,8.56,0,0,1,8.22,1.31c1.11,1-.22-4.16,15-8.67,12.08-3.59,13.84-3.77,13.84-3.77s-4.79-8.59-2.58-10.39l-1.64-3.84s-3,.29-5.18-4.17l-2.18-4.46a42.31,42.31,0,0,1-12.13,8.15,85.45,85.45,0,0,1-16.05,4.58,6.59,6.59,0,0,1-4.13,8.28C207.39,31.69,113.2,72.83,113.2,72.83s-4-11.34-15.83-14.52c-7-2-13.15,5.75-17.68,12.08s-9.71,7.82-23.08.76S19.17,71.8,14.52,89.8,13.39,115.1,16.83,124.83Z" transform="translate(-12.15 -7.86)"/><circle class="cls-2" cx="21.19" cy="119.89" r="3.16"/><circle class="cls-2" cx="25.69" cy="111.96" r="3.16"/><path class="cls-3" d="M41.41,135.39l3,3.47a.8.8,0,0,0,1.09.08l7.67-6.7a.81.81,0,0,0,.06-1.21l-3.42-3.39a.8.8,0,0,0-1.15,0l-7.21,6.61A.83.83,0,0,0,41.41,135.39Z" transform="translate(-12.15 -7.86)"/><path class="cls-4" d="M45.35,133.37l20-8.54a1.13,1.13,0,0,1,.64,1.5l-20,8.54A.93.93,0,0,1,45.35,133.37Z" transform="translate(-12.15 -7.86)"/><path class="cls-2" d="M72.21,121.36a1.89,1.89,0,0,1,1,2.4L66,126.33a1.23,1.23,0,0,0-.64-1.5Z" transform="translate(-12.15 -7.86)"/><path class="cls-5" d="M56.08,105s-2.38,1.3-1.9,2.42,3.07.34,3.07.34Z" transform="translate(-12.15 -7.86)"/><path class="cls-5" d="M76.62,95.8,78,99s3.63-1.46,2.93-3.12S76.62,95.8,76.62,95.8Z" transform="translate(-12.15 -7.86)"/><path class="cls-2" d="M57.25,107.79s1,1.08,1.79.75l18.4-7.84s.91-.86.53-1.74L76.62,95.8s-.83-1.4-1.75-1l-18.52,7.89s-1.08.46-.27,2.34Z" transform="translate(-12.15 -7.86)"/><circle class="cls-2" cx="74.24" cy="66.79" r="3.33"/><circle class="cls-3" cx="84.57" cy="61.87" r="5.49"/><path class="cls-6" d="M171.45,48.94l3.33,7.8s1.33,2.13,4.35.84,2.41-3.72,2.41-3.72l-3.33-7.8Zm9.15,4.65s.49,1.93-1.91,3-3.46-.67-3.46-.67l-2.64-6.2L178,47.39Z" transform="translate(-12.15 -7.86)"/><path class="cls-7" d="M179.79,45.39l3.33,7.8s1.33,2.12,4.35.84,2.41-3.73,2.41-3.73l-3.33-7.79ZM188.94,50s.49,1.94-1.91,3-3.46-.67-3.46-.67l-2.64-6.19,5.37-2.29Z" transform="translate(-12.15 -7.86)"/><path class="cls-8" d="M187.82,42l3.32,7.79s1.34,2.13,4.36.84,2.4-3.72,2.4-3.72l-3.32-7.79ZM197,46.61s.48,1.94-1.92,3-3.45-.67-3.45-.67L189,42.71l5.38-2.29Z" transform="translate(-12.15 -7.86)"/><path class="cls-9" d="M196.33,38.34l3.33,7.79S201,48.26,204,47s2.4-3.73,2.4-3.73l-3.32-7.79ZM205.48,43s.49,1.94-1.91,3-3.46-.67-3.46-.67l-2.64-6.19,5.37-2.29Z" transform="translate(-12.15 -7.86)"/><path class="cls-10" d="M204.49,34.86l3.32,7.8s1.34,2.13,4.36.84,2.4-3.72,2.4-3.72L211.25,32Zm9,4.2s.49,1.94-1.91,3-3.46-.67-3.46-.67l-2.64-6.19,5.37-2.29Z" transform="translate(-12.15 -7.86)"/><path class="cls-2" d="M172.59,49.68,178,47.39l2.64,6.2s.49,1.93-1.91,3-3.46-.67-3.46-.67Z" transform="translate(-12.15 -7.86)"/><path class="cls-2" d="M180.93,46.13l5.37-2.29L188.94,50s.49,1.94-1.91,3-3.46-.67-3.46-.67Z" transform="translate(-12.15 -7.86)"/><path class="cls-2" d="M189,42.71l5.38-2.29L197,46.61s.48,1.94-1.92,3-3.45-.67-3.45-.67Z" transform="translate(-12.15 -7.86)"/><path class="cls-2" d="M197.47,39.08l5.37-2.29L205.48,43s.49,1.94-1.91,3-3.46-.67-3.46-.67Z" transform="translate(-12.15 -7.86)"/><path class="cls-2" d="M205.44,35.16l5.37-2.29,2.64,6.19s.49,1.94-1.91,3-3.46-.67-3.46-.67Z" transform="translate(-12.15 -7.86)"/><path class="cls-2" d="M91.46,71.32s4.82-1,2.53-6.36l1.1-.48s1.12,4.89,6.45,2.61l.59,1.33s-4.54,1.57-2.63,6L98.36,75s-1.81-4.56-6.44-2.59Z" transform="translate(-12.15 -7.86)"/></svg>