<svg id="PS3GHLesPaul" xmlns="http://www.w3.org/2000/svg" viewBox="0 0 184.69 107.43"><defs><style>.cls-1{fill:#9d9fa2;}.cls-1,.cls-2,.cls-3,.cls-5,.cls-6,.cls-7,.cls-8,.cls-9{stroke:#000;}.cls-1,.cls-2,.cls-3,.cls-4,.cls-5,.cls-6,.cls-7,.cls-8,.cls-9{stroke-miterlimit:10;stroke-width:0.25px;}.cls-2,.cls-4{fill:#333132;}.cls-3{fill:#d1d3d4;}.cls-4{stroke:#231f20;}.cls-5{fill:#b34926;}.cls-6{fill:#3a58a7;}.cls-7{fill:#fbef59;}.cls-8{fill:#be1e2d;}.cls-9{fill:#538c43;}</style></defs><circle class="cls-1" cx="3.29" cy="95.93" r="3.16"/><circle class="cls-1" cx="7.78" cy="88" r="3.16"/><path class="cls-2" d="M41.41,135.39l3,3.47a.8.8,0,0,0,1.09.08l7.67-6.7a.81.81,0,0,0,.06-1.21l-3.42-3.39a.8.8,0,0,0-1.15,0l-7.21,6.61A.83.83,0,0,0,41.41,135.39Z" transform="translate(-30.06 -31.81)"/><path class="cls-3" d="M45.35,133.37l20-8.54a1.13,1.13,0,0,1,.64,1.5l-20,8.54A.93.93,0,0,1,45.35,133.37Z" transform="translate(-30.06 -31.81)"/><path class="cls-1" d="M72.21,121.36a1.89,1.89,0,0,1,1,2.4L66,126.33a1.23,1.23,0,0,0-.64-1.5Z" transform="translate(-30.06 -31.81)"/><path class="cls-4" d="M56.08,105s-2.38,1.3-1.9,2.42,3.07.34,3.07.34Z" transform="translate(-30.06 -31.81)"/><path class="cls-4" d="M76.62,95.8,78,99s3.63-1.46,2.93-3.12S76.62,95.8,76.62,95.8Z" transform="translate(-30.06 -31.81)"/><path class="cls-1" d="M57.25,107.79s1,1.08,1.79.75l18.4-7.84s.91-.86.53-1.74L76.62,95.8s-.83-1.4-1.75-1l-18.52,7.89s-1.08.46-.27,2.34Z" transform="translate(-30.06 -31.81)"/><circle class="cls-1" cx="56.34" cy="42.84" r="3.33"/><circle class="cls-2" cx="66.66" cy="37.91" r="5.49"/><path class="cls-5" d="M171.45,48.94l3.33,7.8s1.33,2.13,4.35.84,2.41-3.72,2.41-3.72l-3.33-7.8Zm9.15,4.65s.49,1.93-1.91,3-3.46-.67-3.46-.67l-2.64-6.2L178,47.39Z" transform="translate(-30.06 -31.81)"/><path class="cls-6" d="M179.79,45.39l3.33,7.8s1.33,2.12,4.35.84,2.41-3.73,2.41-3.73l-3.33-7.79ZM188.94,50s.49,1.94-1.91,3-3.46-.67-3.46-.67l-2.64-6.19,5.37-2.29Z" transform="translate(-30.06 -31.81)"/><path class="cls-7" d="M187.82,42l3.32,7.79s1.34,2.13,4.36.84,2.4-3.72,2.4-3.72l-3.32-7.79ZM197,46.61s.48,1.94-1.92,3-3.45-.67-3.45-.67L189,42.71l5.38-2.29Z" transform="translate(-30.06 -31.81)"/><path class="cls-8" d="M196.33,38.34l3.33,7.79S201,48.26,204,47s2.4-3.73,2.4-3.73l-3.32-7.79ZM205.48,43s.49,1.94-1.91,3-3.46-.67-3.46-.67l-2.64-6.19,5.37-2.29Z" transform="translate(-30.06 -31.81)"/><path class="cls-9" d="M204.49,34.86l3.32,7.8s1.34,2.13,4.36.84,2.4-3.72,2.4-3.72L211.25,32Zm9,4.2s.49,1.94-1.91,3-3.46-.67-3.46-.67l-2.64-6.19,5.37-2.29Z" transform="translate(-30.06 -31.81)"/><path class="cls-1" d="M172.59,49.68,178,47.39l2.64,6.2s.49,1.93-1.91,3-3.46-.67-3.46-.67Z" transform="translate(-30.06 -31.81)"/><path class="cls-1" d="M180.93,46.13l5.37-2.29L188.94,50s.49,1.94-1.91,3-3.46-.67-3.46-.67Z" transform="translate(-30.06 -31.81)"/><path class="cls-1" d="M189,42.71l5.38-2.29L197,46.61s.48,1.94-1.92,3-3.45-.67-3.45-.67Z" transform="translate(-30.06 -31.81)"/><path class="cls-1" d="M197.47,39.08l5.37-2.29L205.48,43s.49,1.94-1.91,3-3.46-.67-3.46-.67Z" transform="translate(-30.06 -31.81)"/><path class="cls-1" d="M205.44,35.16l5.37-2.29,2.64,6.19s.49,1.94-1.91,3-3.46-.67-3.46-.67Z" transform="translate(-30.06 -31.81)"/><path class="cls-1" d="M91.46,71.32s4.82-1,2.53-6.36l1.1-.48s1.12,4.89,6.45,2.61l.59,1.33s-4.54,1.57-2.63,6L98.36,75s-1.81-4.56-6.44-2.59Z" transform="translate(-30.06 -31.81)"/></svg>