<svg id="_360LesPaul" data-name="360LesPaul" xmlns="http://www.w3.org/2000/svg" viewBox="0 0 245.45 145.67"><defs><style>.cls-1{fill:#292728;}.cls-1,.cls-10,.cls-2,.cls-3,.cls-4,.cls-6,.cls-7,.cls-8,.cls-9{stroke:#000;}.cls-1,.cls-10,.cls-11,.cls-12,.cls-13,.cls-2,.cls-3,.cls-4,.cls-5,.cls-6,.cls-7,.cls-8,.cls-9{stroke-miterlimit:10;}.cls-1,.cls-10,.cls-2,.cls-3,.cls-4,.cls-5,.cls-6,.cls-7,.cls-8,.cls-9{stroke-width:0.25px;}.cls-2{fill:#9d9fa2;}.cls-3,.cls-5{fill:#333132;}.cls-13,.cls-4{fill:#d1d3d4;}.cls-11,.cls-12,.cls-13,.cls-5{stroke:#231f20;}.cls-6{fill:#b34926;}.cls-7{fill:#3a58a7;}.cls-8{fill:#fbef59;}.cls-9{fill:#be1e2d;}.cls-10{fill:#538c43;}.cls-11{fill:none;}.cls-11,.cls-12,.cls-13{stroke-width:0.05px;}.cls-12{fill:#8dc63f;}</style></defs><path class="cls-1" d="M23.58,124.66S39.09,163.71,70,150.51c15.72-6.7,20.38-25.7,20.38-25.7s1.14-12,15-10,18.94.86,21.21-4.79c.74-1.59-9.89-.6-11.68-7.78s2.47-9.84,2.47-9.84L227.07,41.88a8.56,8.56,0,0,1,8.21,1.32c1.12.94-.21-4.16,15-8.67,12.09-3.59,13.85-3.78,13.85-3.78s-4.8-8.59-2.58-10.38l-1.64-3.84s-3,.28-5.18-4.17L252.57,7.9a42.31,42.31,0,0,1-12.13,8.15,85.89,85.89,0,0,1-16.06,4.57,6.58,6.58,0,0,1-4.12,8.28C214.14,31.51,120,72.66,120,72.66s-4-11.35-15.83-14.52c-7-2-13.15,5.75-17.69,12.07S76.73,78,63.36,71s-37.44.64-42.1,18.65S20.14,114.93,23.58,124.66Z" transform="translate(-18.9 -7.69)"/><circle class="cls-2" cx="21.19" cy="119.89" r="3.16"/><circle class="cls-2" cx="25.69" cy="111.96" r="3.16"/><path class="cls-3" d="M48.16,135.21l3,3.48a.83.83,0,0,0,1.1.08l7.67-6.71a.81.81,0,0,0,.06-1.21l-3.42-3.38a.81.81,0,0,0-1.16,0l-7.2,6.61A.82.82,0,0,0,48.16,135.21Z" transform="translate(-18.9 -7.69)"/><path class="cls-4" d="M52.1,133.2l20-8.54a1.13,1.13,0,0,1,.64,1.5l-20,8.54A.93.93,0,0,1,52.1,133.2Z" transform="translate(-18.9 -7.69)"/><path class="cls-2" d="M79,121.19a1.89,1.89,0,0,1,1,2.4l-7.2,2.57a1.23,1.23,0,0,0-.64-1.5Z" transform="translate(-18.9 -7.69)"/><path class="cls-5" d="M62.82,104.86s-2.37,1.29-1.9,2.41,3.08.35,3.08.35Z" transform="translate(-18.9 -7.69)"/><path class="cls-5" d="M83.37,95.62l1.35,3.16s3.63-1.45,2.92-3.11S83.37,95.62,83.37,95.62Z" transform="translate(-18.9 -7.69)"/><path class="cls-2" d="M64,107.62s1,1.07,1.79.75l18.39-7.85s.91-.86.54-1.74l-1.35-3.16s-.83-1.39-1.75-1l-18.52,7.9s-1.08.46-.28,2.34Z" transform="translate(-18.9 -7.69)"/><circle class="cls-2" cx="74.24" cy="66.79" r="3.33"/><circle class="cls-3" cx="84.57" cy="61.87" r="5.49"/><path class="cls-6" d="M178.2,48.77l3.33,7.8s1.33,2.13,4.35.84,2.4-3.72,2.4-3.72L185,45.89Zm9.15,4.65s.49,1.93-1.91,2.95-3.46-.66-3.46-.66l-2.64-6.2,5.37-2.29Z" transform="translate(-18.9 -7.69)"/><path class="cls-7" d="M186.54,45.22,189.86,53s1.34,2.13,4.36.84,2.4-3.72,2.4-3.72l-3.32-7.8Zm9.15,4.64s.49,1.94-1.91,3-3.46-.67-3.46-.67L187.68,46l5.37-2.29Z" transform="translate(-18.9 -7.69)"/><path class="cls-8" d="M194.57,41.79l3.32,7.8s1.33,2.13,4.35.84,2.41-3.72,2.41-3.72l-3.32-7.8Zm9.15,4.65s.48,1.93-1.92,3-3.46-.67-3.46-.67l-2.64-6.2,5.37-2.29Z" transform="translate(-18.9 -7.69)"/><path class="cls-9" d="M203.08,38.16,206.4,46s1.34,2.13,4.36.84,2.4-3.72,2.4-3.72l-3.32-7.8Zm9.15,4.65s.48,1.93-1.92,3-3.45-.67-3.45-.67l-2.65-6.2,5.38-2.29Z" transform="translate(-18.9 -7.69)"/><path class="cls-10" d="M211.24,34.69l3.32,7.79s1.33,2.13,4.35.84,2.41-3.72,2.41-3.72L218,31.81Zm9,4.2s.48,1.94-1.92,3-3.45-.67-3.45-.67L212.18,35l5.38-2.29Z" transform="translate(-18.9 -7.69)"/><path class="cls-2" d="M179.34,49.51l5.37-2.29,2.64,6.2s.49,1.93-1.91,2.95-3.46-.66-3.46-.66Z" transform="translate(-18.9 -7.69)"/><path class="cls-2" d="M187.68,46l5.37-2.29,2.64,6.2s.49,1.94-1.91,3-3.46-.67-3.46-.67Z" transform="translate(-18.9 -7.69)"/><path class="cls-2" d="M195.7,42.53l5.37-2.29,2.65,6.2s.48,1.93-1.92,3-3.46-.67-3.46-.67Z" transform="translate(-18.9 -7.69)"/><path class="cls-2" d="M204.21,38.9l5.38-2.29,2.64,6.2s.48,1.93-1.92,3-3.45-.67-3.45-.67Z" transform="translate(-18.9 -7.69)"/><path class="cls-2" d="M212.18,35l5.38-2.29,2.64,6.2s.48,1.94-1.92,3-3.45-.67-3.45-.67Z" transform="translate(-18.9 -7.69)"/><path class="cls-2" d="M98.21,71.15s4.82-1,2.52-6.37l1.11-.48s1.12,4.89,6.45,2.62l.59,1.33s-4.54,1.56-2.63,6l-1.14.53s-1.81-4.56-6.44-2.59Z" transform="translate(-18.9 -7.69)"/><ellipse class="cls-11" cx="74.19" cy="66.85" rx="2.55" ry="2.48"/><path class="cls-12" d="M92,72.71a3.16,3.16,0,0,0-.64,0h0a4.71,4.71,0,0,1,1.29.64A6.93,6.93,0,0,0,91.05,76h0a8,8,0,0,1,2.1-2.3,3.37,3.37,0,0,1,1,.81A4.32,4.32,0,0,1,95,76.12h0a4.11,4.11,0,0,0-1.5-2.77,3.79,3.79,0,0,1,1.24-.7h0a2.46,2.46,0,0,0-.47,0" transform="translate(-18.9 -7.69)"/><path class="cls-12" d="M92,72.71a1.91,1.91,0,0,1,1.16.43,2.41,2.41,0,0,1,1.18-.48" transform="translate(-18.9 -7.69)"/><path class="cls-13" d="M91.33,72.75a2.35,2.35,0,0,0-.78,1.79,2.5,2.5,0,0,0,.5,1.48,7.16,7.16,0,0,1,1.57-2.63A5.2,5.2,0,0,0,91.33,72.75Z" transform="translate(-18.9 -7.69)"/><path class="cls-13" d="M93.15,73.72a7.81,7.81,0,0,0-2.1,2.3,2.59,2.59,0,0,0,4,.13,4.26,4.26,0,0,0-.93-1.63A3.31,3.31,0,0,0,93.15,73.72Z" transform="translate(-18.9 -7.69)"/><path class="cls-13" d="M94.78,72.67a3.72,3.72,0,0,0-1.24.71A4,4,0,0,1,95,76.15a2.41,2.41,0,0,0,.61-1.71A2.32,2.32,0,0,0,94.78,72.67Z" transform="translate(-18.9 -7.69)"/><path class="cls-13" d="M93.13,73.17a2.4,2.4,0,0,1,1.65-.5,2.47,2.47,0,0,0-1.69-.61,2.64,2.64,0,0,0-1.76.69A2.49,2.49,0,0,1,93.13,73.17Z" transform="translate(-18.9 -7.69)"/></svg>