<?xml version="1.0" encoding="UTF-8" standalone="no"?>
<svg
   xmlns:dc="http://purl.org/dc/elements/1.1/"
   xmlns:cc="http://creativecommons.org/ns#"
   xmlns:rdf="http://www.w3.org/1999/02/22-rdf-syntax-ns#"
   xmlns:svg="http://www.w3.org/2000/svg"
   xmlns="http://www.w3.org/2000/svg"
   version="1.1"
   viewBox="0 0 261.11 153.14"
   data-name="360GHDrum"
   id="_360GHDrum">
  <metadata
     id="metadata1005">
    <rdf:RDF>
      <cc:Work
         rdf:about="">
        <dc:format>image/svg+xml</dc:format>
        <dc:type
           rdf:resource="http://purl.org/dc/dcmitype/StillImage" />
      </cc:Work>
    </rdf:RDF>
  </metadata>
  <defs
     id="defs932">
    <style
       id="style930">.cls-1{fill:#333132;}.cls-1,.cls-2,.cls-3,.cls-4,.cls-5,.cls-6,.cls-7,.cls-8,.cls-9{stroke:#000;}.cls-1,.cls-10,.cls-11,.cls-12,.cls-13,.cls-14,.cls-15,.cls-16,.cls-17,.cls-18,.cls-19,.cls-2,.cls-20,.cls-21,.cls-22,.cls-23,.cls-3,.cls-4,.cls-5,.cls-6,.cls-7,.cls-8,.cls-9{stroke-miterlimit:10;}.cls-1,.cls-8,.cls-9{stroke-width:0.75px;}.cls-2{fill:#393839;}.cls-10,.cls-11,.cls-12,.cls-2,.cls-3,.cls-4,.cls-5,.cls-6,.cls-7{stroke-width:0.25px;}.cls-3{fill:#565759;}.cls-4{fill:#302e2f;}.cls-5{fill:#cc493a;}.cls-6{fill:#496fb6;}.cls-7{fill:#46a07c;}.cls-8{fill:#db6f4b;}.cls-9{fill:#ffe17f;}.cls-10{fill:#2d2a2b;}.cls-10,.cls-11,.cls-12,.cls-13,.cls-14,.cls-15,.cls-16,.cls-17,.cls-18,.cls-19,.cls-20,.cls-21,.cls-22,.cls-23{stroke:#231f20;}.cls-11{fill:#464547;}.cls-12{fill:#86888a;}.cls-13{fill:#6ca63c;}.cls-13,.cls-14,.cls-15,.cls-16,.cls-17,.cls-18,.cls-19,.cls-20{stroke-width:0.1px;}.cls-14{fill:#0058a3;}.cls-15{fill:#f6bd17;}.cls-16{fill:#aa1e23;}.cls-17{fill:#1687c9;}.cls-18{fill:#febf38;}.cls-19{fill:#99ca3c;}.cls-20{fill:#dd1f26;}.cls-21{fill:none;}.cls-21,.cls-22,.cls-23{stroke-width:0.15px;}.cls-22{fill:#8dc63f;}.cls-23{fill:#d1d3d4;}</style>
  </defs>
  <g
     id="ga">
    <path
       style="fill:#46a07c;stroke:#000000;stroke-width:0.25px;stroke-miterlimit:10"
       class="cls-7"
       d="m 208.78,68.52 c -26,0 -35.83,18.36 -35.83,31.62 0,22.07 16.06,38.89 38.51,38.89 22.45,0 33.91,-19.12 33.91,-33.92 0,-14.8 -10.58,-36.59 -36.59,-36.59 z m 3.3,67.4 c -20.46,0 -35.11,-15.34 -35.11,-35.46 0,-12.09 8.95,-28.83 32.67,-28.83 23.72,0 33.34,19.88 33.34,33.37 0,13.49 -10.44,30.92 -30.9,30.92 z"
       id="path954" />
    <path
       style="fill:#565759;stroke:#000000;stroke-width:0.25px;stroke-miterlimit:10"
       class="cls-3"
       d="m 212.08,135.92 c -20.46,0 -35.11,-15.34 -35.11,-35.46 0,-12.09 8.95,-28.83 32.67,-28.83 23.72,0 33.34,19.88 33.34,33.37 0,13.49 -10.44,30.92 -30.9,30.92 z"
       id="path956" />
    <g
       id="ga2">
      <circle
         id="circle972"
         r="2.05"
         cy="28.73"
         cx="146.61"
         class="cls-13" />
      <path
         id="path984"
         transform="translate(-2.02 -6.76)"
         d="M148.93,34.2h-.69l-.81,2.15H148l.26-.58h.61l.25.58h.49Zm-.52,1.07.14-.49h.06l.15.49Z"
         class="cls-19" />
    </g>
  </g>
</svg>
