<?xml version="1.0" encoding="UTF-8" standalone="no"?>
<svg
   xmlns:dc="http://purl.org/dc/elements/1.1/"
   xmlns:cc="http://creativecommons.org/ns#"
   xmlns:rdf="http://www.w3.org/1999/02/22-rdf-syntax-ns#"
   xmlns:svg="http://www.w3.org/2000/svg"
   xmlns="http://www.w3.org/2000/svg"
   version="1.1"
   viewBox="0 0 261.11 153.14"
   data-name="360GHDrum"
   id="_360GHDrum">
  <metadata
     id="metadata1005">
    <rdf:RDF>
      <cc:Work
         rdf:about="">
        <dc:format>image/svg+xml</dc:format>
        <dc:type
           rdf:resource="http://purl.org/dc/dcmitype/StillImage" />
      </cc:Work>
    </rdf:RDF>
  </metadata>
  <defs
     id="defs932">
    <style
       id="style930">.cls-1{fill:#333132;}.cls-1,.cls-2,.cls-3,.cls-4,.cls-5,.cls-6,.cls-7,.cls-8,.cls-9{stroke:#000;}.cls-1,.cls-10,.cls-11,.cls-12,.cls-13,.cls-14,.cls-15,.cls-16,.cls-17,.cls-18,.cls-19,.cls-2,.cls-20,.cls-21,.cls-22,.cls-23,.cls-3,.cls-4,.cls-5,.cls-6,.cls-7,.cls-8,.cls-9{stroke-miterlimit:10;}.cls-1,.cls-8,.cls-9{stroke-width:0.75px;}.cls-2{fill:#393839;}.cls-10,.cls-11,.cls-12,.cls-2,.cls-3,.cls-4,.cls-5,.cls-6,.cls-7{stroke-width:0.25px;}.cls-3{fill:#565759;}.cls-4{fill:#302e2f;}.cls-5{fill:#cc493a;}.cls-6{fill:#496fb6;}.cls-7{fill:#46a07c;}.cls-8{fill:#db6f4b;}.cls-9{fill:#ffe17f;}.cls-10{fill:#2d2a2b;}.cls-10,.cls-11,.cls-12,.cls-13,.cls-14,.cls-15,.cls-16,.cls-17,.cls-18,.cls-19,.cls-20,.cls-21,.cls-22,.cls-23{stroke:#231f20;}.cls-11{fill:#464547;}.cls-12{fill:#86888a;}.cls-13{fill:#6ca63c;}.cls-13,.cls-14,.cls-15,.cls-16,.cls-17,.cls-18,.cls-19,.cls-20{stroke-width:0.1px;}.cls-14{fill:#0058a3;}.cls-15{fill:#f6bd17;}.cls-16{fill:#aa1e23;}.cls-17{fill:#1687c9;}.cls-18{fill:#febf38;}.cls-19{fill:#99ca3c;}.cls-20{fill:#dd1f26;}.cls-21{fill:none;}.cls-21,.cls-22,.cls-23{stroke-width:0.15px;}.cls-22{fill:#8dc63f;}.cls-23{fill:#d1d3d4;}</style>
  </defs>
  <g
     id="gx">
    <path
       style="fill:#496fb6;stroke:#000000;stroke-width:0.25px;stroke-miterlimit:10"
       class="cls-6"
       d="m 127.8,44.74 c -26.11,0 -34.14,22.58 -34.14,37.59 0,14.27 14.6,32.18 34.14,32.18 19.54,0 35.18,-15.27 35.18,-33.73 0,-18.46 -12.48,-36.04 -35.18,-36.04 z m 0.05,66.88 c -17.93,0 -31.31,-16.43 -31.31,-29.52 0,-13.77 7.36,-34.49 31.31,-34.49 20.83,0 32.3,16.15 32.3,33.06 0,16.91 -14.37,30.95 -32.3,30.95 z"
       id="path950" />
    <path
       style="fill:#565759;stroke:#000000;stroke-width:0.25px;stroke-miterlimit:10"
       class="cls-3"
       d="m 127.84,111.62 c -17.93,0 -31.31,-16.43 -31.31,-29.52 0,-13.77 7.36,-34.49 31.31,-34.49 20.83,0 32.3,16.15 32.3,33.06 0,16.91 -14.37,30.95 -32.3,30.95 z"
       id="path952" />
    <circle
       style="fill:#0058a3;stroke:#231f20;stroke-width:0.1px;stroke-miterlimit:10"
       class="cls-14"
       cx="142.21001"
       cy="24.780001"
       r="2.05"
       id="circle974" />
    <polygon
       style="fill:#1687c9;stroke:#231f20;stroke-width:0.1px;stroke-miterlimit:10"
       class="cls-17"
       points="142.13,24.31 142.57,23.62 143.16,23.62 142.54,24.64 143.35,25.87 142.63,25.87 142.13,24.96 141.66,25.84 141.07,25.84 141.74,24.62 141.07,23.62 141.73,23.62 "
       id="polygon980" />
  </g>
</svg>
