<?xml version="1.0" encoding="UTF-8" standalone="no"?>
<svg
   xmlns:dc="http://purl.org/dc/elements/1.1/"
   xmlns:cc="http://creativecommons.org/ns#"
   xmlns:rdf="http://www.w3.org/1999/02/22-rdf-syntax-ns#"
   xmlns:svg="http://www.w3.org/2000/svg"
   xmlns="http://www.w3.org/2000/svg"
   version="1.1"
   viewBox="0 0 247.56 153.76"
   data-name="Layer 25"
   id="Layer_25">
  <metadata
     id="metadata61">
    <rdf:RDF>
      <cc:Work
         rdf:about="">
        <dc:format>image/svg+xml</dc:format>
        <dc:type
           rdf:resource="http://purl.org/dc/dcmitype/StillImage" />
      </cc:Work>
    </rdf:RDF>
  </metadata>
  <defs
     id="defs4">
    <style
       id="style2">.cls-1{fill:#363436;}.cls-1,.cls-10,.cls-11,.cls-12,.cls-13,.cls-14,.cls-15,.cls-16,.cls-17,.cls-2,.cls-3,.cls-4,.cls-5,.cls-6,.cls-7,.cls-8,.cls-9{stroke:#231f20;stroke-miterlimit:10;}.cls-1,.cls-15,.cls-16,.cls-17{stroke-width:0.5px;}.cls-2{fill:#6ca63c;}.cls-2,.cls-3,.cls-4,.cls-5,.cls-6,.cls-7,.cls-8,.cls-9{stroke-width:0.1px;}.cls-3{fill:#0058a3;}.cls-4{fill:#f6bd17;}.cls-5{fill:#aa1e23;}.cls-6{fill:#1687c9;}.cls-7{fill:#febf38;}.cls-8{fill:#99ca3c;}.cls-9{fill:#dd1f26;}.cls-10{fill:none;}.cls-10,.cls-11,.cls-12,.cls-13,.cls-14{stroke-width:0.05px;}.cls-11{fill:#8dc63f;}.cls-12{fill:#d1d3d4;}.cls-13,.cls-16{fill:#b1b3b6;}.cls-14{fill:#9d9fa2;}.cls-15{fill:#434345;}.cls-17{fill:#333132;}</style>
  </defs>
  <g
     id="ghome">
    <ellipse
       class="cls-10"
       cx="127.46"
       cy="80.029999"
       rx="4.0100002"
       ry="3.9100001"
       id="ellipse24"
       style="fill:none;stroke:#231f20;stroke-width:0.05px;stroke-miterlimit:10" />
    <path
       class="cls-11"
       d="m 129.62,83.86 a 5.46,5.46 0 0 0 -1,0 v 0 a 7.71,7.71 0 0 1 2,1 11,11 0 0 0 -2.46,4.14 v 0 a 12.43,12.43 0 0 1 3.3,-3.61 5.13,5.13 0 0 1 1.5,1.27 6.78,6.78 0 0 1 1.46,2.55 v 0 a 6.47,6.47 0 0 0 -2.35,-4.36 5.69,5.69 0 0 1 1.93,-1.07 v 0 a 3.23,3.23 0 0 0 -0.73,0"
       transform="translate(-3.92,-6.71)"
       id="path26"
       style="fill:#8dc63f;stroke:#231f20;stroke-width:0.05px;stroke-miterlimit:10" />
    <path
       class="cls-11"
       d="m 129.62,83.86 a 3,3 0 0 1 1.82,0.68 3.78,3.78 0 0 1 1.86,-0.76"
       transform="translate(-3.92,-6.71)"
       id="path28"
       style="fill:#8dc63f;stroke:#231f20;stroke-width:0.05px;stroke-miterlimit:10" />
    <path
       class="cls-12"
       d="m 128.61,83.92 a 3.71,3.71 0 0 0 -1.23,2.82 3.89,3.89 0 0 0 0.78,2.32 11.28,11.28 0 0 1 2.47,-4.13 7.88,7.88 0 0 0 -2.02,-1.01 z"
       transform="translate(-3.92,-6.71)"
       id="path30"
       style="fill:#d1d3d4;stroke:#231f20;stroke-width:0.05px;stroke-miterlimit:10" />
    <path
       class="cls-12"
       d="m 131.47,85.45 a 12.41,12.41 0 0 0 -3.31,3.61 4.05,4.05 0 0 0 3.31,1.59 4.1,4.1 0 0 0 3,-1.38 6.88,6.88 0 0 0 -1.47,-2.55 5.31,5.31 0 0 0 -1.53,-1.27 z"
       transform="translate(-3.92,-6.71)"
       id="path32"
       style="fill:#d1d3d4;stroke:#231f20;stroke-width:0.05px;stroke-miterlimit:10" />
    <path
       class="cls-12"
       d="m 134,83.81 a 5.74,5.74 0 0 0 -1.94,1.1 6.47,6.47 0 0 1 2.35,4.36 3.78,3.78 0 0 0 0.95,-2.68 3.64,3.64 0 0 0 -1.36,-2.78 z"
       transform="translate(-3.92,-6.71)"
       id="path34"
       style="fill:#d1d3d4;stroke:#231f20;stroke-width:0.05px;stroke-miterlimit:10" />
    <path
       class="cls-12"
       d="m 131.43,84.58 a 3.78,3.78 0 0 1 2.6,-0.77 3.83,3.83 0 0 0 -2.65,-1 4.15,4.15 0 0 0 -2.77,1.09 3.88,3.88 0 0 1 2.82,0.68 z"
       transform="translate(-3.92,-6.71)"
       id="path36"
       style="fill:#d1d3d4;stroke:#231f20;stroke-width:0.05px;stroke-miterlimit:10" />
  </g>
</svg>
