<?xml version="1.0" encoding="UTF-8" standalone="no"?>
<svg
   xmlns:dc="http://purl.org/dc/elements/1.1/"
   xmlns:cc="http://creativecommons.org/ns#"
   xmlns:rdf="http://www.w3.org/1999/02/22-rdf-syntax-ns#"
   xmlns:svg="http://www.w3.org/2000/svg"
   xmlns="http://www.w3.org/2000/svg"
   version="1.1"
   viewBox="0 0 245.45 145.67"
   data-name="360LesPaul"
   id="_360LesPaul">
  <metadata
     id="metadata1187">
    <rdf:RDF>
      <cc:Work
         rdf:about="">
        <dc:format>image/svg+xml</dc:format>
        <dc:type
           rdf:resource="http://purl.org/dc/dcmitype/StillImage" />
      </cc:Work>
    </rdf:RDF>
  </metadata>
  <defs
     id="defs1124">
    <style
       id="style1122">.cls-1{fill:#292728;}.cls-1,.cls-10,.cls-2,.cls-3,.cls-4,.cls-6,.cls-7,.cls-8,.cls-9{stroke:#000;}.cls-1,.cls-10,.cls-11,.cls-12,.cls-13,.cls-2,.cls-3,.cls-4,.cls-5,.cls-6,.cls-7,.cls-8,.cls-9{stroke-miterlimit:10;}.cls-1,.cls-10,.cls-2,.cls-3,.cls-4,.cls-5,.cls-6,.cls-7,.cls-8,.cls-9{stroke-width:0.25px;}.cls-2{fill:#9d9fa2;}.cls-3,.cls-5{fill:#333132;}.cls-13,.cls-4{fill:#d1d3d4;}.cls-11,.cls-12,.cls-13,.cls-5{stroke:#231f20;}.cls-6{fill:#b34926;}.cls-7{fill:#3a58a7;}.cls-8{fill:#fbef59;}.cls-9{fill:#be1e2d;}.cls-10{fill:#538c43;}.cls-11{fill:none;}.cls-11,.cls-12,.cls-13{stroke-width:0.05px;}.cls-12{fill:#8dc63f;}</style>
  </defs>
  <g
     id="gr_x">
    <path
       class="cls-3"
       d="M48.16,135.21l3,3.48a.83.83,0,0,0,1.1.08l7.67-6.71a.81.81,0,0,0,.06-1.21l-3.42-3.38a.81.81,0,0,0-1.16,0l-7.2,6.61A.82.82,0,0,0,48.16,135.21Z"
       transform="translate(-18.9 -7.69)"
       id="path1132" />
    <path
       class="cls-4"
       d="M52.1,133.2l20-8.54a1.13,1.13,0,0,1,.64,1.5l-20,8.54A.93.93,0,0,1,52.1,133.2Z"
       transform="translate(-18.9 -7.69)"
       id="path1134" />
    <path
       class="cls-2"
       d="M79,121.19a1.89,1.89,0,0,1,1,2.4l-7.2,2.57a1.23,1.23,0,0,0-.64-1.5Z"
       transform="translate(-18.9 -7.69)"
       id="path1136" />
  </g>
</svg>
