<?xml version="1.0" encoding="UTF-8" standalone="no"?>
<svg
   xmlns:dc="http://purl.org/dc/elements/1.1/"
   xmlns:cc="http://creativecommons.org/ns#"
   xmlns:rdf="http://www.w3.org/1999/02/22-rdf-syntax-ns#"
   xmlns:svg="http://www.w3.org/2000/svg"
   xmlns="http://www.w3.org/2000/svg"
   version="1.1"
   viewBox="0 0 227.95 158.41"
   data-name="360GHGuitarWT"
   id="_360GHGuitarWT">
  <metadata
     id="metadata87">
    <rdf:RDF>
      <cc:Work
         rdf:about="">
        <dc:format>image/svg+xml</dc:format>
        <dc:type
           rdf:resource="http://purl.org/dc/dcmitype/StillImage" />
      </cc:Work>
    </rdf:RDF>
  </metadata>
  <defs
     id="defs4">
    <style
       id="style2">.cls-1{fill:#393839;}.cls-1,.cls-15,.cls-16,.cls-17,.cls-18,.cls-2,.cls-3,.cls-4,.cls-5,.cls-6,.cls-7{stroke:#000;}.cls-1,.cls-10,.cls-11,.cls-12,.cls-13,.cls-14,.cls-15,.cls-16,.cls-17,.cls-18,.cls-19,.cls-2,.cls-20,.cls-21,.cls-22,.cls-23,.cls-3,.cls-4,.cls-5,.cls-6,.cls-7,.cls-8,.cls-9{stroke-miterlimit:10;}.cls-1,.cls-10,.cls-11,.cls-12,.cls-13,.cls-14,.cls-15,.cls-16,.cls-17,.cls-18,.cls-2,.cls-20,.cls-3,.cls-4,.cls-5,.cls-6,.cls-7,.cls-8,.cls-9{stroke-width:0.25px;}.cls-2{fill:#ba4125;}.cls-10,.cls-11,.cls-12,.cls-3,.cls-8,.cls-9{fill:#77787b;}.cls-4{fill:#4d70b3;}.cls-5{fill:#f6d854;}.cls-6{fill:#a92129;}.cls-7{fill:#5cbb59;}.cls-8{stroke:#a0410d;}.cls-9{stroke:#0054a6;}.cls-10{stroke:#ffe073;}.cls-11{stroke:#a3062a;}.cls-12{stroke:#007a4b;}.cls-13{fill:#888a8c;}.cls-13,.cls-14,.cls-19,.cls-20,.cls-21,.cls-22,.cls-23{stroke:#231f20;}.cls-14,.cls-15{fill:#2d2a2b;}.cls-16{fill:#c4c6c8;}.cls-17{fill:#6f7173;}.cls-18{fill:#999;}.cls-19{fill:#8f9194;stroke-width:0.1px;}.cls-20{fill:#bcbec0;}.cls-21{fill:none;}.cls-21,.cls-22,.cls-23{stroke-width:0.05px;}.cls-22{fill:#8dc63f;}.cls-23{fill:#d1d3d4;}</style>
  </defs>
  <g
     transform="matrix(-0.61781966,0.61781966,-0.61781966,-0.61781966,172.47297,204.43287)"
     id="ghome">
    <circle
       style="fill:#8f9194;stroke:#231f20;stroke-width:0.1px;stroke-miterlimit:10"
       class="cls-19"
       cx="49.610001"
       cy="145.97"
       r="2.54"
       id="circle62" />
    <ellipse
       style="fill:none;stroke:#231f20;stroke-width:0.05px;stroke-miterlimit:10"
       class="cls-21"
       cx="49.639999"
       cy="146.03"
       rx="2.1300001"
       ry="2.0699999"
       id="ellipse70" />
    <path
       style="fill:#8dc63f;stroke:#231f20;stroke-width:0.05px;stroke-miterlimit:10"
       class="cls-22"
       d="m 74.39,145.72 a 3,3 0 0 0 -0.53,0 v 0 a 4.3,4.3 0 0 1 1.07,0.54 5.77,5.77 0 0 0 -1.31,2.19 v 0 a 6.63,6.63 0 0 1 1.75,-1.92 2.85,2.85 0 0 1 0.8,0.68 3.54,3.54 0 0 1 0.78,1.35 v 0 a 3.4,3.4 0 0 0 -1.25,-2.31 3.13,3.13 0 0 1 1,-0.59 v 0 a 1.7,1.7 0 0 0 -0.39,0"
       transform="translate(-25.69,-1.22)"
       id="path72" />
    <path
       style="fill:#8dc63f;stroke:#231f20;stroke-width:0.05px;stroke-miterlimit:10"
       class="cls-22"
       d="m 74.39,145.72 a 1.57,1.57 0 0 1 1,0.36 1.92,1.92 0 0 1 1,-0.4"
       transform="translate(-25.69,-1.22)"
       id="path74" />
    <path
       style="fill:#d1d3d4;stroke:#231f20;stroke-width:0.05px;stroke-miterlimit:10"
       class="cls-23"
       d="m 73.85,145.75 a 2,2 0 0 0 -0.65,1.5 2,2 0 0 0 0.42,1.23 6,6 0 0 1 1.31,-2.19 4.32,4.32 0 0 0 -1.08,-0.54 z"
       transform="translate(-25.69,-1.22)"
       id="path76" />
    <path
       style="fill:#d1d3d4;stroke:#231f20;stroke-width:0.05px;stroke-miterlimit:10"
       class="cls-23"
       d="m 75.37,146.56 a 6.63,6.63 0 0 0 -1.75,1.92 2.16,2.16 0 0 0 3.33,0.11 3.7,3.7 0 0 0 -0.78,-1.35 2.85,2.85 0 0 0 -0.8,-0.68 z"
       transform="translate(-25.69,-1.22)"
       id="path78" />
    <path
       style="fill:#d1d3d4;stroke:#231f20;stroke-width:0.05px;stroke-miterlimit:10"
       class="cls-23"
       d="m 76.73,145.69 a 3.15,3.15 0 0 0 -1,0.59 3.44,3.44 0 0 1 1.27,2.31 2,2 0 0 0 0.51,-1.42 1.94,1.94 0 0 0 -0.78,-1.48 z"
       transform="translate(-25.69,-1.22)"
       id="path80" />
    <path
       style="fill:#d1d3d4;stroke:#231f20;stroke-width:0.05px;stroke-miterlimit:10"
       class="cls-23"
       d="m 75.36,146.1 a 2,2 0 0 1 1.37,-0.41 2,2 0 0 0 -1.4,-0.52 2.22,2.22 0 0 0 -1.48,0.58 2.11,2.11 0 0 1 1.51,0.35 z"
       transform="translate(-25.69,-1.22)"
       id="path82" />
  </g>
</svg>
