<?xml version="1.0" encoding="UTF-8" standalone="no"?>
<svg
   xmlns:dc="http://purl.org/dc/elements/1.1/"
   xmlns:cc="http://creativecommons.org/ns#"
   xmlns:rdf="http://www.w3.org/1999/02/22-rdf-syntax-ns#"
   xmlns:svg="http://www.w3.org/2000/svg"
   xmlns="http://www.w3.org/2000/svg"
   xmlns:sodipodi="http://sodipodi.sourceforge.net/DTD/sodipodi-0.dtd"
   xmlns:inkscape="http://www.inkscape.org/namespaces/inkscape"
   id="_360GHDrum"
   data-name="360GHDrum"
   viewBox="0 0 261.11 153.14"
   version="1.1"
   sodipodi:docname="Base.svg"
   inkscape:version="0.92.5 (2060ec1f9f, 2020-04-08)">
  <metadata
     id="metadata1005">
    <rdf:RDF>
      <cc:Work
         rdf:about="">
        <dc:format>image/svg+xml</dc:format>
        <dc:type
           rdf:resource="http://purl.org/dc/dcmitype/StillImage" />
      </cc:Work>
    </rdf:RDF>
  </metadata>
  <sodipodi:namedview
     pagecolor="#ffffff"
     bordercolor="#666666"
     borderopacity="1"
     objecttolerance="10"
     gridtolerance="10"
     guidetolerance="10"
     inkscape:pageopacity="0"
     inkscape:pageshadow="2"
     inkscape:window-width="2560"
     inkscape:window-height="1555"
     id="namedview1003"
     showgrid="false"
     inkscape:zoom="3.5061853"
     inkscape:cx="199.10023"
     inkscape:cy="163.04206"
     inkscape:window-x="1080"
     inkscape:window-y="182"
     inkscape:window-maximized="0"
     inkscape:current-layer="_360GHDrum" />
  <defs
     id="defs932">
    <style
       id="style930">.cls-1{fill:#333132;}.cls-1,.cls-2,.cls-3,.cls-4,.cls-5,.cls-6,.cls-7,.cls-8,.cls-9{stroke:#000;}.cls-1,.cls-10,.cls-11,.cls-12,.cls-13,.cls-14,.cls-15,.cls-16,.cls-17,.cls-18,.cls-19,.cls-2,.cls-20,.cls-21,.cls-22,.cls-23,.cls-3,.cls-4,.cls-5,.cls-6,.cls-7,.cls-8,.cls-9{stroke-miterlimit:10;}.cls-1,.cls-8,.cls-9{stroke-width:0.75px;}.cls-2{fill:#393839;}.cls-10,.cls-11,.cls-12,.cls-2,.cls-3,.cls-4,.cls-5,.cls-6,.cls-7{stroke-width:0.25px;}.cls-3{fill:#565759;}.cls-4{fill:#302e2f;}.cls-5{fill:#cc493a;}.cls-6{fill:#496fb6;}.cls-7{fill:#46a07c;}.cls-8{fill:#db6f4b;}.cls-9{fill:#ffe17f;}.cls-10{fill:#2d2a2b;}.cls-10,.cls-11,.cls-12,.cls-13,.cls-14,.cls-15,.cls-16,.cls-17,.cls-18,.cls-19,.cls-20,.cls-21,.cls-22,.cls-23{stroke:#231f20;}.cls-11{fill:#464547;}.cls-12{fill:#86888a;}.cls-13{fill:#6ca63c;}.cls-13,.cls-14,.cls-15,.cls-16,.cls-17,.cls-18,.cls-19,.cls-20{stroke-width:0.1px;}.cls-14{fill:#0058a3;}.cls-15{fill:#f6bd17;}.cls-16{fill:#aa1e23;}.cls-17{fill:#1687c9;}.cls-18{fill:#febf38;}.cls-19{fill:#99ca3c;}.cls-20{fill:#dd1f26;}.cls-21{fill:none;}.cls-21,.cls-22,.cls-23{stroke-width:0.15px;}.cls-22{fill:#8dc63f;}.cls-23{fill:#d1d3d4;}</style>
  </defs>
  <g
     id="gbase"
     inkscape:label="#g1098">
    <path
       id="path934"
       transform="translate(-2.02 -6.76)"
       d="M81.5,32.94l.81-.27,16.53-5.59a50.21,50.21,0,0,1,2.23-8.74c1.09-2.55,4.08-2,4.08-2L156,16s2.42-.45,3.38,2.48,2.36,8.35,2.36,8.35l14.54,4.79s1.65.12,2.16,2.61-.57,7.52,6.95,11.09,19.38,3.83,23,16.58c2.8,10.46,3.06,11.48,3.06,11.48s15.42,1.4,24,11.09S248,103,246.63,117.1s-14.41,28.44-31.88,28.44-27.8-5.61-38.51-21.68c-3.57-4.85-1.58-8.22-12-11.86-4.41-1.21-9.51.07-14,3.19s-10.26,6.5-21.29,6.5-21.17-8-21.17-8-7-4.21-14.16-.7a18.07,18.07,0,0,0-9,10.45s-4.27,12.44-19.89,19-30.54,3.57-41-7.2a34,34,0,0,1-6.56-37.87C22.59,85.61,30.75,78.91,41.4,76A65.7,65.7,0,0,1,53,75l2.55-11s1.36-17.34,15.31-17.51S81.5,32.94,81.5,32.94Z"
       class="cls-1" />
  </g>
  <path
     class="cls-2"
     d="M97.44,41.11c-.18,3.56,5.48,3.12,5.48,3.12l55.47,0s5.16.94,4.91-4.87-3.06-18.74-3.83-21-1.4-2.3-4.9-2.3H104.64s-2.67-.44-3.76,3.32A94,94,0,0,0,97.44,41.11Z"
     id="path936"
     transform="translate(-2.02 -6.76)" />
  <g
     id="gstart"
     inkscape:label="#g1045">
    <path
       id="path938"
       transform="translate(-2.02 -6.76)"
       d="M136.62,33.3a1.77,1.77,0,0,0,1.94-1.94,2,2,0,0,0-2.07-2.07,1.83,1.83,0,0,0-2,2A2,2,0,0,0,136.62,33.3Z"
       class="cls-3" />
  </g>
  <g
     id="gback"
     inkscape:label="#g1057">
    <path
       id="path940"
       transform="translate(-2.02 -6.76)"
       d="M120,33.3a1.77,1.77,0,0,0,1.94-1.94,2,2,0,0,0-2.06-2.06,1.83,1.83,0,0,0-2,2A2,2,0,0,0,120,33.3Z"
       class="cls-3" />
  </g>
  <g
     id="gdpad"
     inkscape:label="#g1069">
    <path
       id="path942"
       transform="translate(-2.02 -6.76)"
       d="M106,31.3a3.68,3.68,0,1,0,7.33,0,3.4,3.4,0,0,0-3.69-3.74C107.63,27.56,106,28.38,106,31.3Z"
       class="cls-4" />
    <path
       id="path944"
       transform="translate(-2.02 -6.76)"
       d="M110.46,35.14l0-2.46.6-.61h2.19a3.46,3.46,0,0,0,.06-.77,3.32,3.32,0,0,0-.06-.84h-2.22l-.68-.68V27.65s-.08-.09-.64-.09a1.74,1.74,0,0,0-.78.09v2.1l-.71.71h-2.11s-.13.11-.13.84.13.81.13.81h2.1l.61.6,0,2.43a2.58,2.58,0,0,0,.88.11A2.12,2.12,0,0,0,110.46,35.14Z"
       class="cls-3" />
  </g>
  <g
     id="gLB"
     inkscape:label="#g916">
    <path
       id="path958"
       d="m 40.85,19.43 -1,-9.06 c 0,0 -0.51,-7.39 8.93,-9.43 9.44,-2.04 12.75,8.16 12.75,8.16 l 0.77,9.43 42.05,16.71 c 0,0 3.06,0.64 1.91,3.19 C 105.11,40.98 94.53,67.12 60.61,71.07 26.69,75.02 3.36,46.24 0.42,41.87 -1.49,39.57 6.54,36.05 6.54,36.05 Z"
       class="cls-3"
       inkscape:connector-curvature="0"
       style="fill:#565759;stroke:#000000;stroke-width:0.25px;stroke-miterlimit:10" />
    <path
       id="path962"
       d="m 44.22,4.24 c 0,0 -5.8,3.76 -1.59,11.79 4.21,8.03 12.94,4.85 14.92,3.06 C 59.53,17.3 62.46,11.83 58.44,6.92 54.42,2.01 49.83,1.57 47.6,2.24 a 8.43,8.43 0 0 0 -3.38,2 z"
       class="cls-8"
       inkscape:connector-curvature="0"
       style="fill:#db6f4b;stroke:#000000;stroke-width:0.75px;stroke-miterlimit:10" />
  </g>
  <g
     id="gRB"
     inkscape:label="#g1010">
    <path
       id="path966"
       transform="translate(-2.02 -6.76)"
       d="M86.15,128.2a22.4,22.4,0,0,0-2.65,6.16c-.47,2.65-.63,10.06-.63,10.06a19.22,19.22,0,0,0,1.64,7.33c1.72,3.9,7.49,2.81,7.49,2.81s14.47-.2,25.89.78,8.79.43,27.82,3.08a7,7,0,0,0,2.51-.06s8.89-2.52,8.43-17.78c0-11.64-8.25-12.38-8.25-12.38s-7.78.74-26.44.74A237.12,237.12,0,0,1,92,126.78S88.12,125.82,86.15,128.2Z"
       class="cls-10" />
    <path
       id="path968"
       transform="translate(-2.02 -6.76)"
       d="M99,129.23a54.39,54.39,0,0,1-7.2-.76c-2.1-.52-3-.29-4.09,2.11a31.13,31.13,0,0,0-1.64,4.33l-.58,10s.82,4.73,1.75,6.49.94,2,6,1.81,9-.23,9-.23.88.47.88-.88,0-3.27,0-3.27-.08-.77,1.08-.77,3.68.12,3.68.12.5.08.5-.82c0-1.14.43-12,.43-12s.21-.49-.49-.49-4.36-.15-4.36-.15L104,130s.11-.44-.65-.47S99,129.23,99,129.23Z"
       class="cls-11" />
    <path
       id="path970"
       transform="translate(-2.02 -6.76)"
       d="M104.62,129.9v4.57s2.9.14,3.89.14.76,1.06.76,1.06l-.47,11.93a1,1,0,0,1-1.08,1h-3.27s-.71-.14-.71,1v3.08s-.14.59,1.38.59,17.49.9,25.21,2.21S157,159.73,157,159.73a1,1,0,0,0,.93-.17,55.62,55.62,0,0,1,9.33-3.86c3.69-1.08,8.36-2.25,8.36-2.25a1.15,1.15,0,0,0,1-.91c.32-.94,2.37-7.08,2.37-8.19s-1.38-8.3-1.38-8.3-.06-.59-1.11-.82a40,40,0,0,1-8.63-2.93c-3.48-1.75-8.07-4.53-8.07-4.53a6.13,6.13,0,0,0-1.58.15c-1.46.2-24.33,2.1-34.47,2.1S104.62,129.9,104.62,129.9Z"
       class="cls-12" />
  </g>
  <g
     id="gx"
     inkscape:label="#g906">
    <path
       id="path950"
       d="m 127.8,44.74 c -26.11,0 -34.14,22.58 -34.14,37.59 0,14.27 14.6,32.18 34.14,32.18 19.54,0 35.18,-15.27 35.18,-33.73 0,-18.46 -12.48,-36.04 -35.18,-36.04 z m 0.05,66.88 c -17.93,0 -31.31,-16.43 -31.31,-29.52 0,-13.77 7.36,-34.49 31.31,-34.49 20.83,0 32.3,16.15 32.3,33.06 0,16.91 -14.37,30.95 -32.3,30.95 z"
       class="cls-6"
       inkscape:connector-curvature="0"
       style="fill:#496fb6;stroke:#000000;stroke-width:0.25px;stroke-miterlimit:10" />
    <g
       id="g899">
      <path
         style="fill:#565759;stroke:#000000;stroke-width:0.25px;stroke-miterlimit:10"
         inkscape:connector-curvature="0"
         class="cls-3"
         d="m 127.84,111.62 c -17.93,0 -31.31,-16.43 -31.31,-29.52 0,-13.77 7.36,-34.49 31.31,-34.49 20.83,0 32.3,16.15 32.3,33.06 0,16.91 -14.37,30.95 -32.3,30.95 z"
         id="path952" />
    </g>
    <circle
       id="circle974"
       r="2.05"
       cy="24.780001"
       cx="142.21001"
       class="cls-14"
       style="fill:#0058a3;stroke:#231f20;stroke-width:0.1px;stroke-miterlimit:10" />
    <polygon
       id="polygon980"
       points="142.13,24.31 142.57,23.62 143.16,23.62 142.54,24.64 143.35,25.87 142.63,25.87 142.13,24.96 141.66,25.84 141.07,25.84 141.74,24.62 141.07,23.62 141.73,23.62 "
       class="cls-17"
       style="fill:#1687c9;stroke:#231f20;stroke-width:0.1px;stroke-miterlimit:10" />
  </g>
  <g
     id="gy"
     inkscape:label="#g912">
    <path
       id="path960"
       d="m 217.79,18.11 41.19,19.2 c 0,0 3,0.84 1.69,3.31 -1.31,2.47 -16.1,30.77 -50.21,32.4 -34.11,1.63 -55.42,-28.72 -58.05,-33.24 -1.75,-2.42 6.5,-5.39 6.5,-5.39 l 34.87,-15.41 0.43,-6.48 c 0,0 -0.29,-12.37 13.77,-12.37 7.21,0 10.24,8.54 10.4,10.5 a 69.38,69.38 0 0 1 -0.59,7.48 z"
       class="cls-3"
       inkscape:connector-curvature="0"
       style="fill:#565759;stroke:#000000;stroke-width:0.25px;stroke-miterlimit:10" />
    <path
       id="path964"
       d="m 197.37,10.5 c 0,0 -1,10 9.2,10 10.2,0 10.24,-8.16 10.18,-9.69 A 10.22,10.22 0 0 0 206.57,1.64 c -8.38,-0.26 -9.2,8.86 -9.2,8.86 z"
       class="cls-9"
       inkscape:connector-curvature="0"
       style="fill:#ffe17f;stroke:#000000;stroke-width:0.75px;stroke-miterlimit:10" />
    <circle
       id="circle976"
       r="2.05"
       cy="20.549999"
       cx="146.71001"
       class="cls-15"
       style="fill:#f6bd17;stroke:#231f20;stroke-width:0.1px;stroke-miterlimit:10" />
    <polygon
       id="polygon982"
       points="146.45,21.49 146.98,21.49 146.98,20.55 147.6,19.61 147.02,19.61 146.71,20.1 146.4,19.61 145.82,19.61 146.45,20.54 "
       class="cls-18"
       style="fill:#febf38;stroke:#231f20;stroke-width:0.1px;stroke-miterlimit:10" />
  </g>
  <g
     id="ga"
     inkscape:label="#g876">
    <path
       id="path954"
       d="m 208.78,68.52 c -26,0 -35.83,18.36 -35.83,31.62 0,22.07 16.06,38.89 38.51,38.89 22.45,0 33.91,-19.12 33.91,-33.92 0,-14.8 -10.58,-36.59 -36.59,-36.59 z m 3.3,67.4 c -20.46,0 -35.11,-15.34 -35.11,-35.46 0,-12.09 8.95,-28.83 32.67,-28.83 23.72,0 33.34,19.88 33.34,33.37 0,13.49 -10.44,30.92 -30.9,30.92 z"
       class="cls-7"
       inkscape:connector-curvature="0"
       style="fill:#46a07c;stroke:#000000;stroke-width:0.25px;stroke-miterlimit:10" />
    <path
       id="path956"
       d="m 212.08,135.92 c -20.46,0 -35.11,-15.34 -35.11,-35.46 0,-12.09 8.95,-28.83 32.67,-28.83 23.72,0 33.34,19.88 33.34,33.37 0,13.49 -10.44,30.92 -30.9,30.92 z"
       class="cls-3"
       inkscape:connector-curvature="0"
       style="fill:#565759;stroke:#000000;stroke-width:0.25px;stroke-miterlimit:10" />
    <g
       inkscape:label="#g1030"
       id="ga2">
      <circle
         class="cls-13"
         cx="146.61"
         cy="28.73"
         r="2.05"
         id="circle972" />
      <path
         class="cls-19"
         d="M148.93,34.2h-.69l-.81,2.15H148l.26-.58h.61l.25.58h.49Zm-.52,1.07.14-.49h.06l.15.49Z"
         transform="translate(-2.02 -6.76)"
         id="path984" />
    </g>
  </g>
  <g
     id="gb"
     inkscape:label="#g896">
    <path
       id="path946"
       d="m 35.98,73.78 c 0,0 -23.15,10.1 -21,35.11 1.86,20.51 23,28.12 31.38,27.5 7.3,-0.54 20.24,-1.91 29.21,-20.26 A 31,31 0 0 0 75.64,88.6 31.72,31.72 0 0 0 66.71,77.51 C 58.16,71.14 43.25,70.37 35.98,73.78 Z"
       class="cls-3"
       inkscape:connector-curvature="0"
       style="fill:#565759;stroke:#000000;stroke-width:0.25px;stroke-miterlimit:10" />
    <path
       id="path948"
       d="M 78.8,86.69 A 34.73,34.73 0 0 0 69.03,74.55 c -9.36,-7 -25.68,-7.82 -33.67,-4.08 0,0 -25.33,11 -23,38.43 2,22.44 25.16,30.77 34.34,30.09 8,-0.59 22.16,-2.08 32,-22.17 a 33.89,33.89 0 0 0 0.1,-30.13 z m -3.23,29.55 c -9,18.35 -21.91,19.71 -29.21,20.25 -8.39,0.63 -29.52,-7 -31.38,-27.49 -2.18,-25 21,-35.11 21,-35.11 7.3,-3.42 22.21,-2.64 30.76,3.73 a 31.78,31.78 0 0 1 8.9,11.12 31,31 0 0 1 -0.07,27.5 z"
       class="cls-5"
       inkscape:connector-curvature="0"
       style="fill:#cc493a;stroke:#000000;stroke-width:0.25px;stroke-miterlimit:10" />
    <circle
       id="circle978"
       r="2.05"
       cy="24.6"
       cx="151.06"
       class="cls-16"
       style="fill:#aa1e23;stroke:#231f20;stroke-width:0.1px;stroke-miterlimit:10" />
    <path
       id="path986"
       d="m 151.42,24.6 a 0.51,0.51 0 0 0 0.5,-0.53 c 0,-0.52 -0.89,-0.48 -0.89,-0.48 h -0.74 v 2 h 1.16 a 0.54,0.54 0 0 0 0.52,-0.53 c 0.01,-0.46 -0.55,-0.46 -0.55,-0.46 z m -0.2,0.64 h -0.52 v -0.42 h 0.55 c 0,0 0.15,0 0.15,0.21 a 0.19,0.19 0 0 1 -0.18,0.21 z m 0,-0.88 h -0.48 v -0.43 h 0.48 a 0.19,0.19 0 0 1 0.22,0.21 0.19,0.19 0 0 1 -0.26,0.22 z"
       class="cls-20"
       inkscape:connector-curvature="0"
       style="fill:#dd1f26;stroke:#231f20;stroke-width:0.1px;stroke-miterlimit:10" />
  </g>
  <g
     id="ghome"
     inkscape:label="#g1054">
    <ellipse
       id="ellipse988"
       ry="2.93"
       rx="3"
       cy="24.74"
       cx="126.2"
       class="cls-21" />
    <path
       id="path990"
       transform="translate(-2.02 -6.76)"
       d="M126.91,29.35a3.84,3.84,0,0,0-.76,0h0a5.85,5.85,0,0,1,1.51.76,8.28,8.28,0,0,0-1.85,3.09h0a9.21,9.21,0,0,1,2.47-2.71,3.85,3.85,0,0,1,1.13.95,5.17,5.17,0,0,1,1.09,1.91h0a4.77,4.77,0,0,0-1.76-3.26,4.33,4.33,0,0,1,1.46-.82h0a2.37,2.37,0,0,0-.55,0"
       class="cls-22" />
    <path
       id="path992"
       transform="translate(-2.02 -6.76)"
       d="M126.91,29.35a2.32,2.32,0,0,1,1.36.51,2.83,2.83,0,0,1,1.39-.57"
       class="cls-22" />
    <path
       id="path994"
       transform="translate(-2.02 -6.76)"
       d="M126.15,29.4a2.74,2.74,0,0,0-.93,2.11,2.91,2.91,0,0,0,.59,1.74,8.52,8.52,0,0,1,1.85-3.1A6.07,6.07,0,0,0,126.15,29.4Z"
       class="cls-23" />
    <path
       id="path996"
       transform="translate(-2.02 -6.76)"
       d="M128.29,30.54a9.34,9.34,0,0,0-2.48,2.71,3.05,3.05,0,0,0,4.7.15,5.09,5.09,0,0,0-1.09-1.91A4,4,0,0,0,128.29,30.54Z"
       class="cls-23" />
    <path
       id="path998"
       transform="translate(-2.02 -6.76)"
       d="M130.21,29.31a4.48,4.48,0,0,0-1.46.83,4.81,4.81,0,0,1,1.76,3.26,2.79,2.79,0,0,0,.72-2A2.73,2.73,0,0,0,130.21,29.31Z"
       class="cls-23" />
    <path
       id="path1000"
       transform="translate(-2.02 -6.76)"
       d="M128.26,29.89a2.86,2.86,0,0,1,2-.58,2.89,2.89,0,0,0-2-.73,3.1,3.1,0,0,0-2.08.82A2.87,2.87,0,0,1,128.26,29.89Z"
       class="cls-23" />
  </g>
</svg>
