<svg id="_360GHDrum" data-name="360GHDrum" xmlns="http://www.w3.org/2000/svg" viewBox="0 0 261.11 153.14"><defs><style>.cls-1{fill:#565759;}.cls-1,.cls-2,.cls-3,.cls-4,.cls-5,.cls-6,.cls-7{stroke:#000;}.cls-1,.cls-10,.cls-11,.cls-12,.cls-13,.cls-14,.cls-15,.cls-16,.cls-17,.cls-18,.cls-19,.cls-2,.cls-3,.cls-4,.cls-5,.cls-6,.cls-7,.cls-8,.cls-9{stroke-miterlimit:10;}.cls-1,.cls-2,.cls-3,.cls-4,.cls-5,.cls-8{stroke-width:0.25px;}.cls-2{fill:#302e2f;}.cls-3{fill:#cc493a;}.cls-4{fill:#496fb6;}.cls-5{fill:#46a07c;}.cls-6{fill:#db6f4b;}.cls-6,.cls-7{stroke-width:0.75px;}.cls-7{fill:#ffe17f;}.cls-8{fill:#86888a;}.cls-10,.cls-11,.cls-12,.cls-13,.cls-14,.cls-15,.cls-16,.cls-17,.cls-18,.cls-19,.cls-8,.cls-9{stroke:#231f20;}.cls-9{fill:#6ca63c;}.cls-10,.cls-11,.cls-12,.cls-13,.cls-14,.cls-15,.cls-16,.cls-9{stroke-width:0.1px;}.cls-10{fill:#0058a3;}.cls-11{fill:#f6bd17;}.cls-12{fill:#aa1e23;}.cls-13{fill:#1687c9;}.cls-14{fill:#febf38;}.cls-15{fill:#99ca3c;}.cls-16{fill:#dd1f26;}.cls-17{fill:none;}.cls-17,.cls-18,.cls-19{stroke-width:0.15px;}.cls-18{fill:#8dc63f;}.cls-19{fill:#d1d3d4;}</style></defs><path class="cls-1" d="M136.62,33.3a1.77,1.77,0,0,0,1.94-1.94,2,2,0,0,0-2.07-2.07,1.83,1.83,0,0,0-2,2A2,2,0,0,0,136.62,33.3Z" transform="translate(-2.02 -6.76)"/><path class="cls-1" d="M120,33.3a1.77,1.77,0,0,0,1.94-1.94,2,2,0,0,0-2.06-2.06,1.83,1.83,0,0,0-2,2A2,2,0,0,0,120,33.3Z" transform="translate(-2.02 -6.76)"/><path class="cls-2" d="M106,31.3a3.68,3.68,0,1,0,7.33,0,3.4,3.4,0,0,0-3.69-3.74C107.63,27.56,106,28.38,106,31.3Z" transform="translate(-2.02 -6.76)"/><path class="cls-1" d="M110.46,35.14l0-2.46.6-.61h2.19a3.46,3.46,0,0,0,.06-.77,3.32,3.32,0,0,0-.06-.84h-2.22l-.68-.68V27.65s-.08-.09-.64-.09a1.74,1.74,0,0,0-.78.09v2.1l-.71.71h-2.11s-.13.11-.13.84.13.81.13.81h2.1l.61.6,0,2.43a2.58,2.58,0,0,0,.88.11A2.12,2.12,0,0,0,110.46,35.14Z" transform="translate(-2.02 -6.76)"/><path class="cls-1" d="M38,80.54s-23.15,10.1-21,35.11c1.86,20.51,23,28.12,31.38,27.5,7.3-.54,20.24-1.91,29.21-20.26a31,31,0,0,0,.07-27.53,31.72,31.72,0,0,0-8.93-11.09C60.18,77.9,45.27,77.13,38,80.54Z" transform="translate(-2.02 -6.76)"/><path class="cls-3" d="M80.82,93.45a34.73,34.73,0,0,0-9.77-12.14c-9.36-7-25.68-7.82-33.67-4.08,0,0-25.33,11-23,38.43,2,22.44,25.16,30.77,34.34,30.09,8-.59,22.16-2.08,32-22.17A33.89,33.89,0,0,0,80.82,93.45ZM77.59,123c-9,18.35-21.91,19.71-29.21,20.25-8.39.63-29.52-7-31.38-27.49-2.18-25,21-35.11,21-35.11,7.3-3.42,22.21-2.64,30.76,3.73A31.78,31.78,0,0,1,77.66,95.5,31,31,0,0,1,77.59,123Z" transform="translate(-2.02 -6.76)"/><path class="cls-4" d="M129.82,51.5c-26.11,0-34.14,22.58-34.14,37.59,0,14.27,14.6,32.18,34.14,32.18S165,106,165,87.54,152.52,51.5,129.82,51.5Zm.05,66.88c-17.93,0-31.31-16.43-31.31-29.52,0-13.77,7.36-34.49,31.31-34.49,20.83,0,32.3,16.15,32.3,33.06S147.8,118.38,129.87,118.38Z" transform="translate(-2.02 -6.76)"/><path class="cls-1" d="M129.86,118.38c-17.93,0-31.31-16.43-31.31-29.52,0-13.77,7.36-34.49,31.31-34.49,20.83,0,32.3,16.15,32.3,33.06S147.79,118.38,129.86,118.38Z" transform="translate(-2.02 -6.76)"/><path class="cls-5" d="M210.8,75.28c-26,0-35.83,18.36-35.83,31.62,0,22.07,16.06,38.89,38.51,38.89s33.91-19.12,33.91-33.92S236.81,75.28,210.8,75.28Zm3.3,67.4c-20.46,0-35.11-15.34-35.11-35.46,0-12.09,8.95-28.83,32.67-28.83S245,98.27,245,111.76,234.56,142.68,214.1,142.68Z" transform="translate(-2.02 -6.76)"/><path class="cls-1" d="M214.1,142.68c-20.46,0-35.11-15.34-35.11-35.46,0-12.09,8.95-28.83,32.67-28.83S245,98.27,245,111.76,234.56,142.68,214.1,142.68Z" transform="translate(-2.02 -6.76)"/><path class="cls-1" d="M42.87,26.19l-1-9.06s-.51-7.39,8.93-9.43,12.75,8.16,12.75,8.16l.77,9.43L106.37,42s3.06.64,1.91,3.19S96.55,73.88,62.63,77.83,5.38,53,2.44,48.63c-1.91-2.3,6.12-5.82,6.12-5.82Z" transform="translate(-2.02 -6.76)"/><path class="cls-1" d="M219.81,24.87,261,44.07s3,.84,1.69,3.31-16.1,30.77-50.21,32.4-55.42-28.72-58.05-33.24c-1.75-2.42,6.5-5.39,6.5-5.39l34.87-15.41.43-6.48S195.94,6.89,210,6.89c7.21,0,10.24,8.54,10.4,10.5A69.38,69.38,0,0,1,219.81,24.87Z" transform="translate(-2.02 -6.76)"/><path class="cls-6" d="M46.24,11s-5.8,3.76-1.59,11.79,12.94,4.85,14.92,3.06,4.91-7.26.89-12.17S51.85,8.33,49.62,9A8.43,8.43,0,0,0,46.24,11Z" transform="translate(-2.02 -6.76)"/><path class="cls-7" d="M199.39,17.26s-1,10,9.2,10,10.24-8.16,10.18-9.69A10.22,10.22,0,0,0,208.59,8.4C200.21,8.14,199.39,17.26,199.39,17.26Z" transform="translate(-2.02 -6.76)"/><path class="cls-8" d="M104.62,129.9v4.57s2.9.14,3.89.14.76,1.06.76,1.06l-.47,11.93a1,1,0,0,1-1.08,1h-3.27s-.71-.14-.71,1v3.08s-.14.59,1.38.59,17.49.9,25.21,2.21S157,159.73,157,159.73a1,1,0,0,0,.93-.17,55.62,55.62,0,0,1,9.33-3.86c3.69-1.08,8.36-2.25,8.36-2.25a1.15,1.15,0,0,0,1-.91c.32-.94,2.37-7.08,2.37-8.19s-1.38-8.3-1.38-8.3-.06-.59-1.11-.82a40,40,0,0,1-8.63-2.93c-3.48-1.75-8.07-4.53-8.07-4.53a6.13,6.13,0,0,0-1.58.15c-1.46.2-24.33,2.1-34.47,2.1S104.62,129.9,104.62,129.9Z" transform="translate(-2.02 -6.76)"/><circle class="cls-9" cx="146.61" cy="28.73" r="2.05"/><circle class="cls-10" cx="142.21" cy="24.78" r="2.05"/><circle class="cls-11" cx="146.71" cy="20.55" r="2.05"/><circle class="cls-12" cx="151.06" cy="24.6" r="2.05"/><polygon class="cls-13" points="141.07 23.62 141.73 23.62 142.13 24.31 142.57 23.62 143.16 23.62 142.54 24.64 143.35 25.87 142.63 25.87 142.13 24.96 141.66 25.84 141.07 25.84 141.74 24.62 141.07 23.62"/><polygon class="cls-14" points="145.82 19.61 146.45 20.54 146.45 21.49 146.98 21.49 146.98 20.55 147.6 19.61 147.02 19.61 146.71 20.1 146.4 19.61 145.82 19.61"/><path class="cls-15" d="M148.93,34.2h-.69l-.81,2.15H148l.26-.58h.61l.25.58h.49Zm-.52,1.07.14-.49h.06l.15.49Z" transform="translate(-2.02 -6.76)"/><path class="cls-16" d="M153.44,31.36a.51.51,0,0,0,.5-.53c0-.52-.89-.48-.89-.48h-.74v2h1.16a.54.54,0,0,0,.52-.53C154,31.36,153.44,31.36,153.44,31.36Zm-.2.64h-.52v-.42h.55s.15,0,.15.21A.19.19,0,0,1,153.24,32Zm0-.88h-.48v-.43h.48a.19.19,0,0,1,.22.21A.19.19,0,0,1,153.2,31.12Z" transform="translate(-2.02 -6.76)"/><ellipse class="cls-17" cx="126.2" cy="24.74" rx="3" ry="2.93"/><path class="cls-18" d="M126.91,29.35a3.84,3.84,0,0,0-.76,0h0a5.85,5.85,0,0,1,1.51.76,8.28,8.28,0,0,0-1.85,3.09h0a9.21,9.21,0,0,1,2.47-2.71,3.85,3.85,0,0,1,1.13.95,5.17,5.17,0,0,1,1.09,1.91h0a4.77,4.77,0,0,0-1.76-3.26,4.33,4.33,0,0,1,1.46-.82h0a2.37,2.37,0,0,0-.55,0" transform="translate(-2.02 -6.76)"/><path class="cls-18" d="M126.91,29.35a2.32,2.32,0,0,1,1.36.51,2.83,2.83,0,0,1,1.39-.57" transform="translate(-2.02 -6.76)"/><path class="cls-19" d="M126.15,29.4a2.74,2.74,0,0,0-.93,2.11,2.91,2.91,0,0,0,.59,1.74,8.52,8.52,0,0,1,1.85-3.1A6.07,6.07,0,0,0,126.15,29.4Z" transform="translate(-2.02 -6.76)"/><path class="cls-19" d="M128.29,30.54a9.34,9.34,0,0,0-2.48,2.71,3.05,3.05,0,0,0,4.7.15,5.09,5.09,0,0,0-1.09-1.91A4,4,0,0,0,128.29,30.54Z" transform="translate(-2.02 -6.76)"/><path class="cls-19" d="M130.21,29.31a4.48,4.48,0,0,0-1.46.83,4.81,4.81,0,0,1,1.76,3.26,2.79,2.79,0,0,0,.72-2A2.73,2.73,0,0,0,130.21,29.31Z" transform="translate(-2.02 -6.76)"/><path class="cls-19" d="M128.26,29.89a2.86,2.86,0,0,1,2-.58,2.89,2.89,0,0,0-2-.73,3.1,3.1,0,0,0-2.08.82A2.87,2.87,0,0,1,128.26,29.89Z" transform="translate(-2.02 -6.76)"/></svg>