<?xml version="1.0" encoding="UTF-8" standalone="no"?>
<svg
   xmlns:dc="http://purl.org/dc/elements/1.1/"
   xmlns:cc="http://creativecommons.org/ns#"
   xmlns:rdf="http://www.w3.org/1999/02/22-rdf-syntax-ns#"
   xmlns:svg="http://www.w3.org/2000/svg"
   xmlns="http://www.w3.org/2000/svg"
   id="svg107"
   version="1.1"
   viewBox="0 0 225.44 155.98">
  <metadata
     id="metadata111">
    <rdf:RDF>
      <cc:Work
         rdf:about="">
        <dc:format>image/svg+xml</dc:format>
        <dc:type
           rdf:resource="http://purl.org/dc/dcmitype/StillImage" />
      </cc:Work>
    </rdf:RDF>
  </metadata>
  <defs
     id="defs4">
    <style
       id="style2">.cls-1{fill:#393839;}.cls-1,.cls-10,.cls-11,.cls-12,.cls-13,.cls-2,.cls-3,.cls-4,.cls-5,.cls-6,.cls-7,.cls-8,.cls-9{stroke:#000;}.cls-1,.cls-10,.cls-11,.cls-12,.cls-13,.cls-14,.cls-15,.cls-16,.cls-17,.cls-18,.cls-2,.cls-25,.cls-26,.cls-27,.cls-3,.cls-4,.cls-5,.cls-6,.cls-7,.cls-8,.cls-9{stroke-miterlimit:10;}.cls-1,.cls-10,.cls-11,.cls-12,.cls-13,.cls-14,.cls-15,.cls-16,.cls-17,.cls-2,.cls-3,.cls-4,.cls-5,.cls-6,.cls-7,.cls-8,.cls-9{stroke-width:0.25px;}.cls-2{fill:#464547;}.cls-3{fill:#d75d5e;}.cls-4{fill:#919396;}.cls-5{fill:#fff682;}.cls-6{fill:#4d7aae;}.cls-7{fill:#009d6f;}.cls-8{fill:#fff462;}.cls-9{fill:#5aa2d8;}.cls-10{fill:#2cb67a;}.cls-11{fill:#3e3e3f;}.cls-12,.cls-18{fill:#b1b3b6;}.cls-13{fill:#848689;}.cls-14,.cls-15,.cls-16,.cls-17,.cls-25{fill:none;}.cls-14{stroke:#7baac0;}.cls-15{stroke:#c53648;}.cls-16{stroke:#7e7794;}.cls-17{stroke:#1d998b;}.cls-18,.cls-25,.cls-26,.cls-27{stroke:#231f20;}.cls-18{stroke-width:0.1px;}.cls-19{font-size:1.44px;letter-spacing:0em;}.cls-19,.cls-22{fill:#d1d3d4;font-family:MyriadPro-Regular, Myriad Pro;}.cls-20{letter-spacing:0.02em;}.cls-21{letter-spacing:0em;}.cls-22{font-size:1.48px;}.cls-23{letter-spacing:0.01em;}.cls-24{letter-spacing:0.01em;}.cls-26{fill:#fff;stroke-width:0.05px;}.cls-27{fill:#9fa1a4;stroke-width:0.03px;}</style>
  </defs>
  <g
     id="gb"
     transform="translate(0,4.6107699e-6)">
    <path
       class="cls-3"
       d="m 59.54,114.56 c -4.26,-7.22 -13.3,-17 -30.6,-10.78 -17.3,6.22 -18.18,22.95 -18.27,26.95 0,0 1.13,23.31 27.13,20.7 21.31,-3.13 27.74,-26.96 21.74,-36.87 z m -17.39,33.91 c -6.87,3.57 -33.21,-0.26 -29.13,-22.34 4.08,-22.08 24,-22 24,-22 7.14,-1.34 21.83,3.19 22.78,18.76 0.95,15.57 -10.78,22.02 -17.65,25.58 z"
       id="path14"
       style="fill:#d75d5e;stroke:#000000;stroke-width:0.25px;stroke-miterlimit:10" />
    <path
       class="cls-4"
       d="m 42.1,148.4 c -6.87,3.56 -33.21,-0.26 -29.13,-22.35 4.08,-22.09 24,-22 24,-22 7.15,-1.33 21.83,3.2 22.79,18.76 0.96,15.56 -10.79,22.02 -17.66,25.59 z"
       id="path16"
       style="fill:#919396;stroke:#000000;stroke-width:0.25px;stroke-miterlimit:10" />
    <circle
       id="circle36"
       r="1.1345737"
       cy="115.18621"
       cx="119.91788"
       class="cls-4"
       style="fill:#b1b3b6;fill-opacity:1;stroke:#000000;stroke-width:0.07944465;stroke-miterlimit:10;stroke-dasharray:none" />
    <path
       id="path38-3"
       d="m 119.77106,114.72868 v 0.69984 h 0.29363 c 0,0 0.15821,0 0.15821,-0.20097 0,-0.14967 -0.22663,-0.15679 -0.22663,-0.15679 0,0 0.2252,-0.0328 0.2252,-0.17389 0,-0.14111 -0.20952,-0.16962 -0.20952,-0.16962 z"
       class="cls-5"
       style="fill:#b1b3b6;fill-opacity:1;stroke:#000000;stroke-width:0.07944465;stroke-miterlimit:10;stroke-dasharray:none" />
    <line
       id="line40"
       y2="115.07076"
       x2="119.9977"
       y1="115.06506"
       x1="119.77249"
       class="cls-5"
       style="fill:#b1b3b6;fill-opacity:1;stroke:#000000;stroke-width:0.07944465;stroke-miterlimit:10;stroke-dasharray:none" />
  </g>
</svg>
