<?xml version="1.0" encoding="UTF-8" standalone="no"?>
<svg
   xmlns:dc="http://purl.org/dc/elements/1.1/"
   xmlns:cc="http://creativecommons.org/ns#"
   xmlns:rdf="http://www.w3.org/1999/02/22-rdf-syntax-ns#"
   xmlns:svg="http://www.w3.org/2000/svg"
   xmlns="http://www.w3.org/2000/svg"
   id="svg107"
   version="1.1"
   viewBox="0 0 225.44 155.98">
  <metadata
     id="metadata111">
    <rdf:RDF>
      <cc:Work
         rdf:about="">
        <dc:format>image/svg+xml</dc:format>
        <dc:type
           rdf:resource="http://purl.org/dc/dcmitype/StillImage" />
      </cc:Work>
    </rdf:RDF>
  </metadata>
  <defs
     id="defs4">
    <style
       id="style2">.cls-1{fill:#393839;}.cls-1,.cls-10,.cls-11,.cls-12,.cls-13,.cls-2,.cls-3,.cls-4,.cls-5,.cls-6,.cls-7,.cls-8,.cls-9{stroke:#000;}.cls-1,.cls-10,.cls-11,.cls-12,.cls-13,.cls-14,.cls-15,.cls-16,.cls-17,.cls-18,.cls-2,.cls-25,.cls-26,.cls-27,.cls-3,.cls-4,.cls-5,.cls-6,.cls-7,.cls-8,.cls-9{stroke-miterlimit:10;}.cls-1,.cls-10,.cls-11,.cls-12,.cls-13,.cls-14,.cls-15,.cls-16,.cls-17,.cls-2,.cls-3,.cls-4,.cls-5,.cls-6,.cls-7,.cls-8,.cls-9{stroke-width:0.25px;}.cls-2{fill:#464547;}.cls-3{fill:#d75d5e;}.cls-4{fill:#919396;}.cls-5{fill:#fff682;}.cls-6{fill:#4d7aae;}.cls-7{fill:#009d6f;}.cls-8{fill:#fff462;}.cls-9{fill:#5aa2d8;}.cls-10{fill:#2cb67a;}.cls-11{fill:#3e3e3f;}.cls-12,.cls-18{fill:#b1b3b6;}.cls-13{fill:#848689;}.cls-14,.cls-15,.cls-16,.cls-17,.cls-25{fill:none;}.cls-14{stroke:#7baac0;}.cls-15{stroke:#c53648;}.cls-16{stroke:#7e7794;}.cls-17{stroke:#1d998b;}.cls-18,.cls-25,.cls-26,.cls-27{stroke:#231f20;}.cls-18{stroke-width:0.1px;}.cls-19{font-size:1.44px;letter-spacing:0em;}.cls-19,.cls-22{fill:#d1d3d4;font-family:MyriadPro-Regular, Myriad Pro;}.cls-20{letter-spacing:0.02em;}.cls-21{letter-spacing:0em;}.cls-22{font-size:1.48px;}.cls-23{letter-spacing:0.01em;}.cls-24{letter-spacing:0.01em;}.cls-26{fill:#fff;stroke-width:0.05px;}.cls-27{fill:#9fa1a4;stroke-width:0.03px;}</style>
  </defs>
  <g
     id="gx"
     transform="translate(0,4.6107699e-6)">
    <path
       class="cls-6"
       d="m 164.44,77.73 c -4.31,-8.41 -14.81,-17.47 -29.55,-13.82 -14.74,3.65 -20.77,17.1 -19.3,23.8 0,0 0.85,22 25.3,22 21.91,-0.02 29.28,-20.46 23.55,-31.98 z M 142,108.06 c -23.35,0 -24.33,-20.8 -24.33,-20.8 0,0 0,-10.1 5.68,-14.74 16.26,-13.24 27.58,-7.46 36.39,0.71 10.89,10.11 2.28,34.83 -17.74,34.83 z"
       id="path22"
       style="fill:#4d7aae;stroke:#000000;stroke-width:0.25px;stroke-miterlimit:10" />
    <path
       class="cls-4"
       d="m 142,108.08 c -23.35,0 -24.33,-20.83 -24.33,-20.83 0,0 0,-10.1 5.68,-14.73 16.26,-13.24 27.58,-7.46 36.39,0.71 10.89,10.13 2.28,34.85 -17.74,34.85 z"
       id="path24"
       style="fill:#919396;stroke:#000000;stroke-width:0.25px;stroke-miterlimit:10" />
    <circle
       id="circle30"
       r="1.0669557"
       cy="113.14479"
       cx="117.65594"
       class="cls-4"
       style="fill:#b1b3b6;fill-opacity:1;stroke:#000000;stroke-width:0.07634032;stroke-miterlimit:10;stroke-dasharray:none" />
    <polyline
       transform="matrix(0.13696479,0,0,0.13696479,94.799256,107.44432)"
       id="polyline32"
       points="165.05 38.41 167.03 41.34 169.01 38.41"
       class="cls-5"
       style="fill:#b1b3b6;fill-opacity:1;stroke:#000000;stroke-width:0.55737185;stroke-miterlimit:10;stroke-dasharray:none" />
    <line
       id="line34"
       y2="113.10645"
       x2="117.67648"
       y1="113.43105"
       x1="117.67648"
       class="cls-5"
       style="fill:#b1b3b6;fill-opacity:1;stroke:#000000;stroke-width:0.07634032;stroke-miterlimit:10;stroke-dasharray:none" />
  </g>
</svg>
