<?xml version="1.0" encoding="UTF-8" standalone="no"?>
<svg
   xmlns:dc="http://purl.org/dc/elements/1.1/"
   xmlns:cc="http://creativecommons.org/ns#"
   xmlns:rdf="http://www.w3.org/1999/02/22-rdf-syntax-ns#"
   xmlns:svg="http://www.w3.org/2000/svg"
   xmlns="http://www.w3.org/2000/svg"
   xmlns:sodipodi="http://sodipodi.sourceforge.net/DTD/sodipodi-0.dtd"
   xmlns:inkscape="http://www.inkscape.org/namespaces/inkscape"
   id="_360ArcadePad"
   data-name="360ArcadePad"
   viewBox="0 0 260.52 152.63"
   version="1.1"
   sodipodi:docname="Base.svg"
   inkscape:version="0.92.5 (2060ec1f9f, 2020-04-08)">
  <metadata
     id="metadata117">
    <rdf:RDF>
      <cc:Work
         rdf:about="">
        <dc:format>image/svg+xml</dc:format>
        <dc:type
           rdf:resource="http://purl.org/dc/dcmitype/StillImage" />
      </cc:Work>
    </rdf:RDF>
  </metadata>
  <sodipodi:namedview
     pagecolor="#ffffff"
     bordercolor="#666666"
     borderopacity="1"
     objecttolerance="10"
     gridtolerance="10"
     guidetolerance="10"
     inkscape:pageopacity="0"
     inkscape:pageshadow="2"
     inkscape:window-width="2560"
     inkscape:window-height="1555"
     id="namedview115"
     showgrid="false"
     inkscape:zoom="10.287118"
     inkscape:cx="122.64899"
     inkscape:cy="83.309127"
     inkscape:window-x="1080"
     inkscape:window-y="182"
     inkscape:window-maximized="0"
     inkscape:current-layer="_360ArcadePad" />
  <defs
     id="defs4">
    <style
       id="style2">.cls-1{fill:#363436;}.cls-1,.cls-10,.cls-11,.cls-12,.cls-13,.cls-14,.cls-15,.cls-16,.cls-17,.cls-2,.cls-3,.cls-4,.cls-5,.cls-6,.cls-7,.cls-8,.cls-9{stroke:#231f20;stroke-miterlimit:10;}.cls-1,.cls-10,.cls-11,.cls-2,.cls-3,.cls-4,.cls-5,.cls-6,.cls-7,.cls-8,.cls-9{stroke-width:0.5px;}.cls-2{fill:#0058a3;}.cls-3{fill:#1687c9;}.cls-4{fill:#f6bd17;}.cls-5{fill:#febf38;}.cls-6{fill:#6ca63c;}.cls-7{fill:#99ca3c;}.cls-8{fill:#aa1e23;}.cls-9{fill:#dd1f26;}.cls-10,.cls-16,.cls-17{fill:#a7a9ac;}.cls-11{fill:#939598;}.cls-12{fill:#8a8c8e;}.cls-12,.cls-17{stroke-width:0.25px;}.cls-13{fill:none;}.cls-13,.cls-14,.cls-15,.cls-16{stroke-width:0.05px;}.cls-14{fill:#8dc63f;}.cls-15{fill:#d1d3d4;}.cls-18{font-size:4.95px;fill:#231f20;font-family:MyriadPro-Regular, Myriad Pro;}.cls-19{letter-spacing:0.01em;}.cls-20{letter-spacing:-0.09em;}</style>
  </defs>
  <path
     class="cls-11"
     d="M 72.34,62.270001 H 88.6 c 0,0 0.89,-1.62 0.89,-5.62 0.07849,-2.198404 -0.222582,-4.393886 -0.89,-6.49 H 72.09"
     id="path34-62"
     inkscape:connector-curvature="0"
     style="fill:#939598;stroke:#231f20;stroke-width:0.5px;stroke-miterlimit:10"
     sodipodi:nodetypes="ccccc" />
  <path
     inkscape:connector-curvature="0"
     class="cls-11"
     d="m 60.71,62.440002 v 16.4 c 2.03869,0.377677 4.106676,0.575106 6.18,0.59 1.832456,-0.0027 3.659417,-0.200496 5.45,-0.59 v -16.57"
     id="path34-3"
     style="fill:#939598;stroke:#231f20;stroke-width:0.5px;stroke-miterlimit:10"
     sodipodi:nodetypes="ccccc" />
  <path
     class="cls-1"
     d="M12.28,124.17s-1.83,34.13,24,30.8c35.45-3.5,31.29-12.15,54.93-18s17.31-6.66,47.11-6.66,38.46,7.82,55.6,14.65,43.62,19,54.77.33-1.49-77.91-10.82-94.05-20.14-32.13-68.08-35S56.07,10,33.59,40.44C15.11,65.57,12.28,124.17,12.28,124.17Z"
     transform="translate(-1.96 -2.84)"
     id="path6" />
  <g
     id="gx"
     inkscape:label="#g895">
    <circle
       id="circle8"
       r="9.22"
       cy="53.76"
       cx="157.81"
       class="cls-2" />
    <polygon
       id="polygon10"
       points="152.68 48.5 155.65 48.5 157.43 51.65 159.44 48.5 162.08 48.5 159.33 53.11 162.94 58.66 159.72 58.66 157.43 54.58 155.36 58.51 152.68 58.51 155.68 53.01 152.68 48.5"
       class="cls-3" />
  </g>
  <g
     id="gy"
     inkscape:label="#g899">
    <circle
       id="circle12"
       r="8.65"
       cy="43.2"
       cx="178.67"
       class="cls-4" />
    <polygon
       id="polygon14"
       points="174.91 39.23 177.56 43.15 177.56 47.18 179.81 47.18 179.81 43.2 182.43 39.23 179.98 39.23 178.67 41.31 177.36 39.23 174.91 39.23"
       class="cls-5" />
  </g>
  <g
     id="ga"
     inkscape:label="#g903">
    <circle
       id="circle16"
       r="9.37"
       cy="74.18"
       cx="170.02"
       class="cls-6" />
    <path
       id="path18"
       transform="translate(-1.96 -2.84)"
       d="M173.35,71.1h-3.17L166.47,81h2.66l1.16-2.65h2.8L174.26,81h2.25ZM171,76l.64-2.28h.27l.69,2.28Z"
       class="cls-7" />
  </g>
  <g
     id="gb"
     inkscape:label="#g907">
    <circle
       id="circle20"
       r="9.13"
       cy="62.97"
       cx="190.79"
       class="cls-8" />
    <path
       id="path22"
       transform="translate(-1.96 -2.84)"
       d="M194.33,65.81a2.28,2.28,0,0,0,2.23-2.38c0-2.34-4-2.13-4-2.13h-3.28v9h5.14s2.34-.14,2.34-2.34S194.33,65.81,194.33,65.81Zm-.91,2.83h-2.29V66.78h2.44s.64,0,.64.93A.82.82,0,0,1,193.42,68.64Zm-.17-3.92h-2.12V62.81h2.13s1-.14,1,.95A.85.85,0,0,1,193.25,64.72Z"
       class="cls-9" />
  </g>
  <circle
     class="cls-10"
     cx="146.95"
     cy="96.89"
     r="4.62"
     id="circle24" />
  <path
     class="cls-11"
     d="M147.17,97.81v4.38a.05.05,0,0,0,.08,0l4.2-2.19a.07.07,0,0,0,0-.1l-4.2-2.19A.05.05,0,0,0,147.17,97.81Z"
     transform="translate(-1.96 -2.84)"
     id="path26" />
  <circle
     class="cls-10"
     cx="114.29"
     cy="97.16"
     r="4.62"
     id="circle28" />
  <path
     class="cls-11"
     d="M118,101.92V97.54s0-.07-.07-.05l-4.2,2.19a.06.06,0,0,0,0,.1l4.2,2.19S118,102,118,101.92Z"
     transform="translate(-1.96 -2.84)"
     id="path30" />
  <path
     inkscape:connector-curvature="0"
     class="cls-11"
     d="M 60.71,50.030002 H 43.88 c 0,0 -1.3,1.7 -1.3,6.62 0,4.92 1.3,5.79 1.3,5.79 h 16.83"
     id="path34-6"
     style="fill:#939598;stroke:#231f20;stroke-width:0.5px;stroke-miterlimit:10"
     sodipodi:nodetypes="ccscc" />
  <circle
     class="cls-10"
     cx="66.03"
     cy="55.97"
     r="23.46"
     id="circle32" />
  <path
     class="cls-11"
     d="M62.67,36.12V52.87H45.84s-1.3,1.7-1.3,6.62,1.3,5.79,1.3,5.79H62.67v16.4a35.32,35.32,0,0,0,6.18.59,25.82,25.82,0,0,0,5.45-.59V65.11H90.56s.89-1.62.89-5.62A19.14,19.14,0,0,0,90.56,53H74.05V36.12a15,15,0,0,0-5.2-.76A19.39,19.39,0,0,0,62.67,36.12Z"
     id="path34"
     style="font-variant-east_asian:normal;opacity:1;vector-effect:none;fill:#939598;fill-opacity:1;stroke:#231f20;stroke-width:0.5px;stroke-linecap:butt;stroke-linejoin:miter;stroke-miterlimit:10;stroke-dasharray:none;stroke-dashoffset:0;stroke-opacity:1"
     transform="translate(-1.96 -2.84)" />
  <path
     inkscape:connector-curvature="0"
     class="cls-11"
     d="m 72.09,50.160002 v -16.88 c -1.675105,-0.557362 -3.435449,-0.814643 -5.2,-0.76 -2.08749,-0.08124 -4.174392,0.175405 -6.18,0.76 v 16.75"
     id="path34-7"
     style="fill:#939598;stroke:#231f20;stroke-width:0.5px;stroke-miterlimit:10;font-variant-east_asian:normal;opacity:1;vector-effect:none;fill-opacity:1;stroke-linecap:butt;stroke-linejoin:miter;stroke-dasharray:none;stroke-dashoffset:0;stroke-opacity:1"
     sodipodi:nodetypes="ccccc" />
  <g
     id="gup"
     inkscape:label="#g1073">
    <path
       sodipodi:nodetypes="ccccc"
       style="opacity:1;vector-effect:none;fill:#939598;fill-opacity:1;stroke:#231f20;stroke-width:0.5px;stroke-linecap:butt;stroke-linejoin:miter;stroke-miterlimit:10;stroke-dasharray:none;stroke-dashoffset:0;stroke-opacity:1"
       id="path34-9"
       d="m 72.09,50.160001 v -16.88 c -1.675105,-0.557362 -3.435449,-0.814643 -5.2,-0.76 -2.08749,-0.08124 -4.174392,0.175405 -6.18,0.76 v 16.75"
       class="cls-11"
       inkscape:connector-curvature="0" />
    <polygon
       id="polygon36"
       points="64.21 38.45 66.39 36.57 68.98 38.45 64.21 38.45"
       class="cls-12" />
  </g>
  <g
     id="gright"
     inkscape:label="#g1077">
    <path
       sodipodi:nodetypes="ccccc"
       style="opacity:1;vector-effect:none;fill:#939598;fill-opacity:1;stroke:#231f20;stroke-width:0.5px;stroke-linecap:butt;stroke-linejoin:miter;stroke-miterlimit:10;stroke-dasharray:none;stroke-dashoffset:0;stroke-opacity:1"
       id="path34-36"
       d="M 72.34,62.270001 H 88.6 c 0,0 0.89,-1.62 0.89,-5.62 0.07849,-2.198404 -0.222582,-4.393886 -0.89,-6.49 H 72.09"
       class="cls-11"
       inkscape:connector-curvature="0" />
    <polygon
       id="polygon38"
       points="86.33 55.63 84.46 53.44 84.46 58.22 86.33 55.63"
       class="cls-12" />
  </g>
  <g
     id="gdown"
     inkscape:label="#g1081">
    <path
       sodipodi:nodetypes="ccccc"
       style="opacity:1;vector-effect:none;fill:#939598;fill-opacity:1;stroke:#231f20;stroke-width:0.5px;stroke-linecap:butt;stroke-linejoin:miter;stroke-miterlimit:10;stroke-dasharray:none;stroke-dashoffset:0;stroke-opacity:1"
       id="path34-0"
       d="m 60.71,62.440001 v 16.4 c 2.03869,0.377677 4.106676,0.575106 6.18,0.59 1.832456,-0.0027 3.659417,-0.200496 5.45,-0.59 v -16.57"
       class="cls-11"
       inkscape:connector-curvature="0" />
    <polygon
       id="polygon40"
       points="66.8 75.73 68.98 73.86 64.21 73.86 66.8 75.73"
       class="cls-12" />
  </g>
  <g
     id="gleft"
     inkscape:label="#g1085">
    <path
       sodipodi:nodetypes="ccscc"
       style="opacity:1;vector-effect:none;fill:#939598;fill-opacity:1;stroke:#231f20;stroke-width:0.5px;stroke-linecap:butt;stroke-linejoin:miter;stroke-miterlimit:10;stroke-dasharray:none;stroke-dashoffset:0;stroke-opacity:1"
       id="path34-626"
       d="M 60.71,50.030001 H 43.88 c 0,0 -1.3,1.7 -1.3,6.62 0,4.92 1.3,5.79 1.3,5.79 h 16.83"
       class="cls-11"
       inkscape:connector-curvature="0" />
    <polygon
       id="polygon42"
       points="46.78 56.77 48.66 58.95 48.66 54.18 46.78 56.77"
       class="cls-12" />
  </g>
  <polygon
     class="cls-12"
     points="52.69 70.33 55.56 70.55 52.18 67.18 52.69 70.33"
     id="polygon44" />
  <polygon
     class="cls-12"
     points="80.3 70.05 80.52 67.18 77.14 70.55 80.3 70.05"
     id="polygon46" />
  <polygon
     class="cls-12"
     points="80.01 42.34 77.14 42.12 80.52 45.49 80.01 42.34"
     id="polygon48" />
  <polygon
     class="cls-12"
     points="53.68 42.62 53.45 45.49 56.83 42.12 53.68 42.62"
     id="polygon50" />
  <ellipse
     class="cls-13"
     cx="130.07"
     cy="96.39"
     rx="6.36"
     ry="6.2"
     id="ellipse64" />
  <path
     class="cls-14"
     d="M129.24,94.67a9.31,9.31,0,0,0-1.61,0h0a12.48,12.48,0,0,1,3.22,1.6,17.63,17.63,0,0,0-3.93,6.55h0c1.24-2.77,5.24-5.74,5.24-5.74a8.44,8.44,0,0,1,2.39,2,10.7,10.7,0,0,1,2.31,4h0c-.17-4.17-3.73-6.91-3.73-6.91a9.15,9.15,0,0,1,3.09-1.75h0a5.81,5.81,0,0,0-1.16,0"
     transform="translate(-1.96 -2.84)"
     id="path66" />
  <path
     class="cls-14"
     d="M129.24,94.67a4.81,4.81,0,0,1,2.88,1.08,5.88,5.88,0,0,1,3-1.2"
     transform="translate(-1.96 -2.84)"
     id="path68" />
  <path
     class="cls-15"
     d="M127.63,94.77a5.87,5.87,0,0,0-1.95,4.47,6.15,6.15,0,0,0,1.25,3.68,17.68,17.68,0,0,1,3.91-6.55A12.47,12.47,0,0,0,127.63,94.77Z"
     transform="translate(-1.96 -2.84)"
     id="path70" />
  <path
     class="cls-15"
     d="M132.16,97.18s-4,3-5.23,5.74a6.41,6.41,0,0,0,5.23,2.51,6.51,6.51,0,0,0,4.72-2.18,10.91,10.91,0,0,0-2.33-4A8.27,8.27,0,0,0,132.16,97.18Z"
     transform="translate(-1.96 -2.84)"
     id="path72" />
  <path
     class="cls-15"
     d="M136.23,94.58a9.31,9.31,0,0,0-3.08,1.76s3.56,2.74,3.73,6.91A6,6,0,0,0,138.39,99,5.78,5.78,0,0,0,136.23,94.58Z"
     transform="translate(-1.96 -2.84)"
     id="path74" />
  <path
     class="cls-15"
     d="M132.11,95.81a6,6,0,0,1,4.12-1.23A6.13,6.13,0,0,0,132,93a6.6,6.6,0,0,0-4.4,1.73S130.55,94.34,132.11,95.81Z"
     transform="translate(-1.96 -2.84)"
     id="path76" />
  <circle
     class="cls-16"
     cx="99.79"
     cy="97"
     r="3.68"
     id="gleft_stick"
     inkscape:label="#circle78" />
  <circle
     class="cls-16"
     cx="161.49"
     cy="96.72"
     r="3.68"
     id="gright_stick" />
  <path
     class="cls-17"
     d="M2.09,14.61s-.2,2.57,6.13,3.07,21.38,1.31,28,1C39.87,18.69,39,15,39,15l.05-9s-.15-3.37-5.93-3S8.38,4.75,8.38,4.75s-5.54.46-5.89,4.33S2.09,14.61,2.09,14.61Z"
     transform="translate(-1.96 -2.84)"
     id="gLB"
     inkscape:label="#path88" />
  <text
     class="cls-18"
     transform="translate(14.51,9.22)"
     id="text96"
     style="font-size:4.94999981px;font-family:MyriadPro-Regular, 'Myriad Pro';fill:#231f20">LB</text>
  <path
     class="cls-17"
     d="M262.35,15.62s.21,2.57-6.13,3.07-21.38,1.31-28,1c-3.63.05-2.77-3.63-2.77-3.63l-.05-9s.15-3.37,5.93-3,24.76,1.76,24.76,1.76,5.53.45,5.88,4.33S262.35,15.62,262.35,15.62Z"
     transform="translate(-1.96 -2.84)"
     id="gRB"
     inkscape:label="#path104" />
  <g
     id="grt"
     inkscape:label="#g891">
    <circle
       id="circle52"
       r="9.13"
       cy="57.18"
       cx="213.97"
       class="cls-10" />
    <polygon
       id="polygon54"
       points="214.34 53.82 214.34 55.55 216.15 55.55 216.1 60.53 217.41 60.53 217.46 55.51 219.18 55.51 219.18 53.82 214.34 53.82"
       class="cls-11" />
    <path
       id="path56"
       transform="translate(-1.96 -2.84)"
       d="M214,60.3s1.38,0,1.38-2c0-1.82-1.48-1.59-1.48-1.59h-3.51v6.67H212V60.52h.43l1.81,2.84h1.72Zm-.86-1.25h-1.38V57.64h1.46a.68.68,0,0,1,.76.71C214,59.05,213.14,59.05,213.14,59.05Z"
       class="cls-11" />
    <path
       id="path98"
       transform="translate(-1.96 -2.84)"
       d="M260,21.41s-.53,19.72-7.38,21.19-14.08,3.16-19.05-2.21c-.46-.47-.46-16.7-.46-16.7A158.07,158.07,0,0,0,260,21.41Z"
       class="cls-17" />
    <path
       id="path100"
       transform="translate(-1.96 -2.84)"
       d="M233.08,23.69l-1.25-1s-1.17,16.4,1.58,18.41,2.15,2.86,9.19,3a12,12,0,0,1-9.06-3.68C233.38,40.25,233.08,35.06,233.08,23.69Z"
       class="cls-17" />
    <path
       id="path102"
       transform="translate(-1.96 -2.84)"
       d="M259.86,21.23l-.32-.29L232,22.54l1.12,1.15A172.74,172.74,0,0,0,259.86,21.23Z"
       class="cls-17" />
    <text
       style="font-size:4.94999981px;font-family:MyriadPro-Regular, 'Myriad Pro';fill:#231f20"
       id="text110"
       transform="translate(241.72,32.55)"
       class="cls-18">
      <tspan
         style="letter-spacing:-0.09em"
         id="tspan106"
         class="cls-20">RT</tspan>
    </text>
  </g>
  <text
     class="cls-18"
     transform="translate(240.47,10.37)"
     id="text112"
     style="font-size:4.94999981px;font-family:MyriadPro-Regular, 'Myriad Pro';fill:#231f20">RB</text>
  <g
     id="glt"
     inkscape:label="#g881">
    <path
       id="path82"
       transform="translate(-1.96 -2.84)"
       d="M4.47,20.4S5,40.12,11.85,41.59s14.08,3.16,19-2.21c.47-.47.47-16.7.47-16.7A158.15,158.15,0,0,1,4.47,20.4Z"
       class="cls-17" />
    <path
       id="path84"
       transform="translate(-1.96 -2.84)"
       d="M31.37,22.68l1.24-1S33.78,38,31,40.05s-2.15,2.86-9.19,3a12,12,0,0,0,9.06-3.68C31.06,39.24,31.37,34.05,31.37,22.68Z"
       class="cls-17" />
    <path
       id="path86"
       transform="translate(-1.96 -2.84)"
       d="M4.58,20.22l.32-.29,27.58,1.6-1.12,1.15A172.74,172.74,0,0,1,4.58,20.22Z"
       class="cls-17" />
    <text
       style="font-size:4.94999981px;font-family:MyriadPro-Regular, 'Myriad Pro';fill:#231f20"
       id="text94"
       transform="translate(13.82,31.1)"
       class="cls-18">
      <tspan
         style="letter-spacing:0.01em"
         id="tspan90"
         class="cls-19">L</tspan>
      <tspan
         id="tspan92"
         y="0"
         x="2.71">T</tspan>
    </text>
    <circle
       style="fill:#a7a9ac;fill-opacity:1;stroke:#231f20;stroke-width:0.5px;stroke-miterlimit:10"
       id="circle6"
       r="9.1300001"
       cy="38.962414"
       cx="200.17627"
       class="cls-1" />
    <polygon
       style="fill:#939598;fill-opacity:1;stroke:#231f20;stroke-width:0.5px;stroke-miterlimit:10"
       id="polygon8"
       points="15.34,8 15.34,5.92 9.37,5.92 9.37,8.06 11.61,8.06 11.55,14.21 13.17,14.21 13.22,8 "
       class="cls-2"
       transform="translate(190.79628,29.582414)" />
    <polygon
       style="fill:#939598;fill-opacity:1;stroke:#231f20;stroke-width:0.5px;stroke-miterlimit:10"
       id="polygon10-6"
       points="4.28,5.79 4.3,14.12 9.03,14.12 9.01,12.32 6.53,12.32 6.48,5.79 "
       class="cls-2"
       transform="translate(190.79628,29.582414)" />
  </g>
</svg>
