<svg id="_360ArcadePad" data-name="360ArcadePad" xmlns="http://www.w3.org/2000/svg" viewBox="0 0 260.52 102.62"><defs><style>.cls-1{fill:#0058a3;}.cls-1,.cls-10,.cls-11,.cls-12,.cls-13,.cls-14,.cls-15,.cls-16,.cls-2,.cls-3,.cls-4,.cls-5,.cls-6,.cls-7,.cls-8,.cls-9{stroke:#231f20;stroke-miterlimit:10;}.cls-1,.cls-10,.cls-2,.cls-3,.cls-4,.cls-5,.cls-6,.cls-7,.cls-8,.cls-9{stroke-width:0.5px;}.cls-2{fill:#1687c9;}.cls-3{fill:#f6bd17;}.cls-4{fill:#febf38;}.cls-5{fill:#6ca63c;}.cls-6{fill:#99ca3c;}.cls-7{fill:#aa1e23;}.cls-8{fill:#dd1f26;}.cls-15,.cls-16,.cls-9{fill:#a7a9ac;}.cls-10{fill:#939598;}.cls-11{fill:#8a8c8e;}.cls-11,.cls-16{stroke-width:0.25px;}.cls-12{fill:none;}.cls-12,.cls-13,.cls-14,.cls-15{stroke-width:0.05px;}.cls-13{fill:#8dc63f;}.cls-14{fill:#d1d3d4;}.cls-17{font-size:4.95px;fill:#231f20;font-family:MyriadPro-Regular, Myriad Pro;}.cls-18{letter-spacing:0.01em;}.cls-19{letter-spacing:-0.09em;}</style></defs><circle class="cls-1" cx="157.81" cy="53.76" r="9.22"/><polygon class="cls-2" points="152.68 48.5 155.65 48.5 157.43 51.65 159.44 48.5 162.08 48.5 159.33 53.11 162.94 58.66 159.72 58.66 157.43 54.58 155.36 58.51 152.68 58.51 155.68 53.01 152.68 48.5"/><circle class="cls-3" cx="178.67" cy="43.2" r="8.65"/><polygon class="cls-4" points="174.91 39.23 177.56 43.15 177.56 47.18 179.81 47.18 179.81 43.2 182.43 39.23 179.98 39.23 178.67 41.31 177.36 39.23 174.91 39.23"/><circle class="cls-5" cx="170.02" cy="74.18" r="9.37"/><path class="cls-6" d="M173.35,71.1h-3.17L166.47,81h2.66l1.16-2.65h2.8L174.26,81h2.25ZM171,76l.64-2.28h.27l.69,2.28Z" transform="translate(-1.96 -2.84)"/><circle class="cls-7" cx="190.79" cy="62.97" r="9.13"/><path class="cls-8" d="M194.33,65.81a2.28,2.28,0,0,0,2.23-2.38c0-2.34-4-2.13-4-2.13h-3.28v9h5.14s2.34-.14,2.34-2.34S194.33,65.81,194.33,65.81Zm-.91,2.83h-2.29V66.78h2.44s.64,0,.64.93A.82.82,0,0,1,193.42,68.64Zm-.17-3.92h-2.12V62.81h2.13s1-.14,1,.95A.85.85,0,0,1,193.25,64.72Z" transform="translate(-1.96 -2.84)"/><circle class="cls-9" cx="146.95" cy="96.89" r="4.62"/><path class="cls-10" d="M147.17,97.81v4.38a.05.05,0,0,0,.08,0l4.2-2.19a.07.07,0,0,0,0-.1l-4.2-2.19A.05.05,0,0,0,147.17,97.81Z" transform="translate(-1.96 -2.84)"/><circle class="cls-9" cx="114.29" cy="97.16" r="4.62"/><path class="cls-10" d="M118,101.92V97.54s0-.07-.07-.05l-4.2,2.19a.06.06,0,0,0,0,.1l4.2,2.19S118,102,118,101.92Z" transform="translate(-1.96 -2.84)"/><circle class="cls-9" cx="66.03" cy="55.97" r="23.46"/><path class="cls-10" d="M62.67,36.12V52.87H45.84s-1.3,1.7-1.3,6.62,1.3,5.79,1.3,5.79H62.67v16.4a35.32,35.32,0,0,0,6.18.59,25.82,25.82,0,0,0,5.45-.59V65.11H90.56s.89-1.62.89-5.62A19.14,19.14,0,0,0,90.56,53H74.05V36.12a15,15,0,0,0-5.2-.76A19.39,19.39,0,0,0,62.67,36.12Z" transform="translate(-1.96 -2.84)"/><polygon class="cls-11" points="64.21 38.45 66.39 36.57 68.98 38.45 64.21 38.45"/><polygon class="cls-11" points="86.33 55.63 84.46 53.44 84.46 58.22 86.33 55.63"/><polygon class="cls-11" points="66.8 75.73 68.98 73.86 64.21 73.86 66.8 75.73"/><polygon class="cls-11" points="46.78 56.77 48.66 58.95 48.66 54.18 46.78 56.77"/><polygon class="cls-11" points="52.69 70.33 55.56 70.55 52.18 67.18 52.69 70.33"/><polygon class="cls-11" points="80.3 70.05 80.52 67.18 77.14 70.55 80.3 70.05"/><polygon class="cls-11" points="80.01 42.34 77.14 42.12 80.52 45.49 80.01 42.34"/><polygon class="cls-11" points="53.68 42.62 53.45 45.49 56.83 42.12 53.68 42.62"/><circle class="cls-9" cx="213.97" cy="57.18" r="9.13"/><polygon class="cls-10" points="214.34 53.82 214.34 55.55 216.15 55.55 216.1 60.53 217.41 60.53 217.46 55.51 219.18 55.51 219.18 53.82 214.34 53.82"/><path class="cls-10" d="M214,60.3s1.38,0,1.38-2c0-1.82-1.48-1.59-1.48-1.59h-3.51v6.67H212V60.52h.43l1.81,2.84h1.72Zm-.86-1.25h-1.38V57.64h1.46a.68.68,0,0,1,.76.71C214,59.05,213.14,59.05,213.14,59.05Z" transform="translate(-1.96 -2.84)"/><circle class="cls-9" cx="201.62" cy="36.54" r="9.13"/><path class="cls-10" d="M202.44,39.66s1.39,0,1.39-2c0-1.81-1.48-1.59-1.48-1.59h-3.51v6.67h1.57V39.88h.44l1.81,2.84h1.72Zm-.85-1.24h-1.38V37h1.45a.67.67,0,0,1,.77.7C202.43,38.42,201.59,38.42,201.59,38.42Z" transform="translate(-1.96 -2.84)"/><path class="cls-10" d="M209.08,39.38a1.68,1.68,0,0,0,1.65-1.76c0-1.73-2.94-1.57-2.94-1.57h-2.43v6.67h3.8s1.73-.1,1.73-1.72S209.08,39.38,209.08,39.38Zm-.67,2.1h-1.69V40.1h1.8s.48,0,.48.69A.61.61,0,0,1,208.41,41.48Zm-.12-2.9h-1.57V37.17h1.58s.7-.1.7.71A.62.62,0,0,1,208.29,38.58Z" transform="translate(-1.96 -2.84)"/><ellipse class="cls-12" cx="130.07" cy="96.39" rx="6.36" ry="6.2"/><path class="cls-13" d="M129.24,94.67a9.31,9.31,0,0,0-1.61,0h0a12.48,12.48,0,0,1,3.22,1.6,17.63,17.63,0,0,0-3.93,6.55h0c1.24-2.77,5.24-5.74,5.24-5.74a8.44,8.44,0,0,1,2.39,2,10.7,10.7,0,0,1,2.31,4h0c-.17-4.17-3.73-6.91-3.73-6.91a9.15,9.15,0,0,1,3.09-1.75h0a5.81,5.81,0,0,0-1.16,0" transform="translate(-1.96 -2.84)"/><path class="cls-13" d="M129.24,94.67a4.81,4.81,0,0,1,2.88,1.08,5.88,5.88,0,0,1,3-1.2" transform="translate(-1.96 -2.84)"/><path class="cls-14" d="M127.63,94.77a5.87,5.87,0,0,0-1.95,4.47,6.15,6.15,0,0,0,1.25,3.68,17.68,17.68,0,0,1,3.91-6.55A12.47,12.47,0,0,0,127.63,94.77Z" transform="translate(-1.96 -2.84)"/><path class="cls-14" d="M132.16,97.18s-4,3-5.23,5.74a6.41,6.41,0,0,0,5.23,2.51,6.51,6.51,0,0,0,4.72-2.18,10.91,10.91,0,0,0-2.33-4A8.27,8.27,0,0,0,132.16,97.18Z" transform="translate(-1.96 -2.84)"/><path class="cls-14" d="M136.23,94.58a9.31,9.31,0,0,0-3.08,1.76s3.56,2.74,3.73,6.91A6,6,0,0,0,138.39,99,5.78,5.78,0,0,0,136.23,94.58Z" transform="translate(-1.96 -2.84)"/><path class="cls-14" d="M132.11,95.81a6,6,0,0,1,4.12-1.23A6.13,6.13,0,0,0,132,93a6.6,6.6,0,0,0-4.4,1.73S130.55,94.34,132.11,95.81Z" transform="translate(-1.96 -2.84)"/><circle class="cls-15" cx="99.79" cy="97" r="3.68"/><circle class="cls-15" cx="161.49" cy="96.72" r="3.68"/><path class="cls-16" d="M4.47,20.4S5,40.12,11.85,41.59s14.08,3.16,19-2.21c.47-.47.47-16.7.47-16.7A158.15,158.15,0,0,1,4.47,20.4Z" transform="translate(-1.96 -2.84)"/><path class="cls-16" d="M31.37,22.68l1.24-1S33.78,38,31,40.05s-2.15,2.86-9.19,3a12,12,0,0,0,9.06-3.68C31.06,39.24,31.37,34.05,31.37,22.68Z" transform="translate(-1.96 -2.84)"/><path class="cls-16" d="M4.58,20.22l.32-.29,27.58,1.6-1.12,1.15A172.74,172.74,0,0,1,4.58,20.22Z" transform="translate(-1.96 -2.84)"/><path class="cls-16" d="M2.09,14.61s-.2,2.57,6.13,3.07,21.38,1.31,28,1C39.87,18.69,39,15,39,15l.05-9s-.15-3.37-5.93-3S8.38,4.75,8.38,4.75s-5.54.46-5.89,4.33S2.09,14.61,2.09,14.61Z" transform="translate(-1.96 -2.84)"/><text class="cls-17" transform="translate(13.82 31.1)"><tspan class="cls-18">R</tspan><tspan x="2.71" y="0">T</tspan></text><text class="cls-17" transform="translate(14.51 9.22)">RB</text><path class="cls-16" d="M260,21.41s-.53,19.72-7.38,21.19-14.08,3.16-19.05-2.21c-.46-.47-.46-16.7-.46-16.7A158.07,158.07,0,0,0,260,21.41Z" transform="translate(-1.96 -2.84)"/><path class="cls-16" d="M233.08,23.69l-1.25-1s-1.17,16.4,1.58,18.41,2.15,2.86,9.19,3a12,12,0,0,1-9.06-3.68C233.38,40.25,233.08,35.06,233.08,23.69Z" transform="translate(-1.96 -2.84)"/><path class="cls-16" d="M259.86,21.23l-.32-.29L232,22.54l1.12,1.15A172.74,172.74,0,0,0,259.86,21.23Z" transform="translate(-1.96 -2.84)"/><path class="cls-16" d="M262.35,15.62s.21,2.57-6.13,3.07-21.38,1.31-28,1c-3.63.05-2.77-3.63-2.77-3.63l-.05-9s.15-3.37,5.93-3,24.76,1.76,24.76,1.76,5.53.45,5.88,4.33S262.35,15.62,262.35,15.62Z" transform="translate(-1.96 -2.84)"/><text class="cls-17" transform="translate(241.72 32.55)"><tspan class="cls-19">L</tspan><tspan x="1.9" y="0">T</tspan></text><text class="cls-17" transform="translate(240.47 10.37)">LB</text></svg>