<?xml version="1.0" encoding="UTF-8" standalone="no"?>
<svg
   xmlns:dc="http://purl.org/dc/elements/1.1/"
   xmlns:cc="http://creativecommons.org/ns#"
   xmlns:rdf="http://www.w3.org/1999/02/22-rdf-syntax-ns#"
   xmlns:svg="http://www.w3.org/2000/svg"
   xmlns="http://www.w3.org/2000/svg"
   version="1.1"
   viewBox="0 0 252.57 155.05"
   id="Controllers">
  <metadata
     id="metadata91">
    <rdf:RDF>
      <cc:Work
         rdf:about="">
        <dc:format>image/svg+xml</dc:format>
        <dc:type
           rdf:resource="http://purl.org/dc/dcmitype/StillImage" />
      </cc:Work>
    </rdf:RDF>
  </metadata>
  <defs
     id="defs4">
    <style
       id="style2">.cls-1{fill:#636466;}.cls-1,.cls-10,.cls-13,.cls-14,.cls-15,.cls-16,.cls-17,.cls-2,.cls-3,.cls-4,.cls-5,.cls-6,.cls-7,.cls-8{stroke:#231f20;}.cls-1,.cls-10,.cls-11,.cls-12,.cls-13,.cls-14,.cls-15,.cls-16,.cls-17,.cls-18,.cls-2,.cls-3,.cls-4,.cls-5,.cls-6,.cls-7,.cls-8,.cls-9{stroke-miterlimit:10;}.cls-1,.cls-10,.cls-11,.cls-12,.cls-17,.cls-2,.cls-3,.cls-4,.cls-5,.cls-6,.cls-7,.cls-8{stroke-width:0.5px;}.cls-2{fill:#060505;}.cls-12,.cls-18,.cls-3{fill:#bcbec0;}.cls-4{fill:#6ca63c;}.cls-5{fill:#0058a3;}.cls-6{fill:#f6bd17;}.cls-7{fill:#aa1e23;}.cls-8{fill:none;}.cls-9{fill:#8dc63f;stroke-width:0.05px;}.cls-11,.cls-12,.cls-18,.cls-9{stroke:#000;}.cls-10{fill:#d1d3d4;}.cls-11{fill:#67686b;}.cls-13{fill:#1687c9;}.cls-13,.cls-14,.cls-15,.cls-16{stroke-width:0.25px;}.cls-14{fill:#febf38;}.cls-15{fill:#99ca3c;}.cls-16{fill:#dd1f26;}.cls-17{fill:#363436;}.cls-18{stroke-width:0.75px;}.cls-19{font-size:3.41px;fill:#231f20;font-family:MyriadPro-Regular, Myriad Pro;}.cls-20{letter-spacing:-0.09em;}.cls-21{letter-spacing:0.01em;}</style>
  </defs>
  <g
     id="X360Ctrl">
    <g
       id="ghome">
      <ellipse
         style="fill:none;stroke:#231f20;stroke-width:0.5px;stroke-miterlimit:10"
         id="ellipse23"
         ry="10.44"
         rx="10.71"
         cy="55.860001"
         cx="126.45"
         class="cls-8" />
      <path
         style="fill:#8dc63f;stroke:#000000;stroke-width:0.05px;stroke-miterlimit:10"
         id="path29"
         d="m 121.74,48.18 a 14.06,14.06 0 0 0 -2.7,0 v 0 c 0,0 4,1.38 5.42,2.7 a 29.56,29.56 0 0 0 -6.61,11 v 0 c 2.08,-4.67 8.82,-9.66 8.82,-9.66 0,0 1.2,0.43 4,3.4 a 18.22,18.22 0 0 1 3.96,6.91 v 0 c -0.28,-7 -6.28,-11.65 -6.28,-11.65 a 15.4,15.4 0 0 1 5.2,-2.94 v 0 a 9.34,9.34 0 0 0 -2,0"
         class="cls-9" />
      <path
         style="fill:#8dc63f;stroke:#000000;stroke-width:0.05px;stroke-miterlimit:10"
         id="path31"
         d="m 121.74,48.18 a 8,8 0 0 1 4.89,1.81 9.86,9.86 0 0 1 5,-2"
         class="cls-9" />
      <path
         style="fill:#d1d3d4;stroke:#231f20;stroke-width:0.5px;stroke-miterlimit:10"
         id="path33"
         d="m 119.03,48.34 a 9.88,9.88 0 0 0 -3.29,7.53 10.41,10.41 0 0 0 2.1,6.21 29.84,29.84 0 0 1 6.6,-11 c -1.4,-1.34 -5.41,-2.74 -5.41,-2.74 z"
         class="cls-10" />
      <path
         style="fill:#d1d3d4;stroke:#231f20;stroke-width:0.5px;stroke-miterlimit:10"
         id="path35"
         d="m 126.63,52.41 c 0,0 -6.75,5 -8.83,9.67 a 10.89,10.89 0 0 0 16.78,0.55 18.37,18.37 0 0 0 -3.92,-6.82 c -2.79,-2.97 -4.03,-3.4 -4.03,-3.4 z"
         class="cls-10" />
      <path
         style="fill:#d1d3d4;stroke:#231f20;stroke-width:0.5px;stroke-miterlimit:10"
         id="path37"
         d="m 133.53,48.02 a 15.81,15.81 0 0 0 -5.2,3 c 0,0 6,4.62 6.29,11.65 a 10.05,10.05 0 0 0 2.55,-7.16 9.75,9.75 0 0 0 -3.64,-7.49 z"
         class="cls-10" />
      <path
         style="fill:#d1d3d4;stroke:#231f20;stroke-width:0.5px;stroke-miterlimit:10"
         id="path39"
         d="m 126.63,50.1 a 10.09,10.09 0 0 1 6.94,-2.08 10.33,10.33 0 0 0 -7.08,-2.6 11.13,11.13 0 0 0 -7.42,2.92 c 0,0 4.89,-0.73 7.56,1.76 z"
         class="cls-10" />
    </g>
  </g>
</svg>
