<?xml version="1.0" encoding="UTF-8" standalone="no"?>
<svg
   xmlns:dc="http://purl.org/dc/elements/1.1/"
   xmlns:cc="http://creativecommons.org/ns#"
   xmlns:rdf="http://www.w3.org/1999/02/22-rdf-syntax-ns#"
   xmlns:svg="http://www.w3.org/2000/svg"
   xmlns="http://www.w3.org/2000/svg"
   version="1.1"
   viewBox="0 0 227.95 158.41"
   data-name="360GHGuitarWT"
   id="_360GHGuitarWT">
  <metadata
     id="metadata87">
    <rdf:RDF>
      <cc:Work
         rdf:about="">
        <dc:format>image/svg+xml</dc:format>
        <dc:type
           rdf:resource="http://purl.org/dc/dcmitype/StillImage" />
      </cc:Work>
    </rdf:RDF>
  </metadata>
  <defs
     id="defs4">
    <style
       id="style2">.cls-1{fill:#393839;}.cls-1,.cls-15,.cls-16,.cls-17,.cls-18,.cls-2,.cls-3,.cls-4,.cls-5,.cls-6,.cls-7{stroke:#000;}.cls-1,.cls-10,.cls-11,.cls-12,.cls-13,.cls-14,.cls-15,.cls-16,.cls-17,.cls-18,.cls-19,.cls-2,.cls-20,.cls-21,.cls-22,.cls-23,.cls-3,.cls-4,.cls-5,.cls-6,.cls-7,.cls-8,.cls-9{stroke-miterlimit:10;}.cls-1,.cls-10,.cls-11,.cls-12,.cls-13,.cls-14,.cls-15,.cls-16,.cls-17,.cls-18,.cls-2,.cls-20,.cls-3,.cls-4,.cls-5,.cls-6,.cls-7,.cls-8,.cls-9{stroke-width:0.25px;}.cls-2{fill:#ba4125;}.cls-10,.cls-11,.cls-12,.cls-3,.cls-8,.cls-9{fill:#77787b;}.cls-4{fill:#4d70b3;}.cls-5{fill:#f6d854;}.cls-6{fill:#a92129;}.cls-7{fill:#5cbb59;}.cls-8{stroke:#a0410d;}.cls-9{stroke:#0054a6;}.cls-10{stroke:#ffe073;}.cls-11{stroke:#a3062a;}.cls-12{stroke:#007a4b;}.cls-13{fill:#888a8c;}.cls-13,.cls-14,.cls-19,.cls-20,.cls-21,.cls-22,.cls-23{stroke:#231f20;}.cls-14,.cls-15{fill:#2d2a2b;}.cls-16{fill:#c4c6c8;}.cls-17{fill:#6f7173;}.cls-18{fill:#999;}.cls-19{fill:#8f9194;stroke-width:0.1px;}.cls-20{fill:#bcbec0;}.cls-21{fill:none;}.cls-21,.cls-22,.cls-23{stroke-width:0.05px;}.cls-22{fill:#8dc63f;}.cls-23{fill:#d1d3d4;}</style>
  </defs>
  <g
     id="gr_x">
    <path
       class="cls-15"
       d="M65.75,132.86l-6.69,7.22a1.63,1.63,0,0,0,0,2.55c1.41,1.34,3,3,3,3s1,.88,2.52-.65,6.2-6.88,6.2-6.88a1.46,1.46,0,0,0,0-2.39l-3.1-2.82A1.62,1.62,0,0,0,65.75,132.86Z"
       transform="translate(-25.69 -1.22)"
       id="path54" />
    <path
       class="cls-16"
       d="M63.71,138.18s-.89.85-.21,1.53c.52.52,1.62-.19,1.62-.19l27.76-20.47a.71.71,0,0,0-.15-.87c-.42-.45-.73-.4-.73-.4Z"
       transform="translate(-25.69 -1.22)"
       id="path56" />
    <path
       class="cls-17"
       d="M91.87,117.52a3.6,3.6,0,0,1,.86.66,4.75,4.75,0,0,1,.35,1l13.32-10a.82.82,0,0,0-.2-1.17c-.66-.64-1.11-.46-1.11-.46Z"
       transform="translate(-25.69 -1.22)"
       id="path58" />
  </g>
</svg>
