<?xml version="1.0" encoding="UTF-8" standalone="no"?>
<svg
   xmlns:dc="http://purl.org/dc/elements/1.1/"
   xmlns:cc="http://creativecommons.org/ns#"
   xmlns:rdf="http://www.w3.org/1999/02/22-rdf-syntax-ns#"
   xmlns:svg="http://www.w3.org/2000/svg"
   xmlns="http://www.w3.org/2000/svg"
   version="1.1"
   viewBox="0 0 227.95 158.41"
   data-name="360GHGuitarWT"
   id="_360GHGuitarWT">
  <metadata
     id="metadata87">
    <rdf:RDF>
      <cc:Work
         rdf:about="">
        <dc:format>image/svg+xml</dc:format>
        <dc:type
           rdf:resource="http://purl.org/dc/dcmitype/StillImage" />
      </cc:Work>
    </rdf:RDF>
  </metadata>
  <defs
     id="defs4">
    <style
       id="style2">.cls-1{fill:#393839;}.cls-1,.cls-15,.cls-16,.cls-17,.cls-18,.cls-2,.cls-3,.cls-4,.cls-5,.cls-6,.cls-7{stroke:#000;}.cls-1,.cls-10,.cls-11,.cls-12,.cls-13,.cls-14,.cls-15,.cls-16,.cls-17,.cls-18,.cls-19,.cls-2,.cls-20,.cls-21,.cls-22,.cls-23,.cls-3,.cls-4,.cls-5,.cls-6,.cls-7,.cls-8,.cls-9{stroke-miterlimit:10;}.cls-1,.cls-10,.cls-11,.cls-12,.cls-13,.cls-14,.cls-15,.cls-16,.cls-17,.cls-18,.cls-2,.cls-20,.cls-3,.cls-4,.cls-5,.cls-6,.cls-7,.cls-8,.cls-9{stroke-width:0.25px;}.cls-2{fill:#ba4125;}.cls-10,.cls-11,.cls-12,.cls-3,.cls-8,.cls-9{fill:#77787b;}.cls-4{fill:#4d70b3;}.cls-5{fill:#f6d854;}.cls-6{fill:#a92129;}.cls-7{fill:#5cbb59;}.cls-8{stroke:#a0410d;}.cls-9{stroke:#0054a6;}.cls-10{stroke:#ffe073;}.cls-11{stroke:#a3062a;}.cls-12{stroke:#007a4b;}.cls-13{fill:#888a8c;}.cls-13,.cls-14,.cls-19,.cls-20,.cls-21,.cls-22,.cls-23{stroke:#231f20;}.cls-14,.cls-15{fill:#2d2a2b;}.cls-16{fill:#c4c6c8;}.cls-17{fill:#6f7173;}.cls-18{fill:#999;}.cls-19{fill:#8f9194;stroke-width:0.1px;}.cls-20{fill:#bcbec0;}.cls-21{fill:none;}.cls-21,.cls-22,.cls-23{stroke-width:0.05px;}.cls-22{fill:#8dc63f;}.cls-23{fill:#d1d3d4;}</style>
  </defs>
  <g
     id="gy">
    <path
       class="cls-5"
       d="M198.89,32.77l-3.71-5-5,3.26,4.24,5.33a3.1,3.1,0,0,0,3.75,0A2.91,2.91,0,0,0,198.89,32.77Zm-1.67,2.48a2.27,2.27,0,0,1-2.74,0l-3.1-3.89L195,29l2.72,3.65A2.12,2.12,0,0,1,197.22,35.25Z"
       transform="translate(-25.69 -1.22)"
       id="path16" />
    <path
       class="cls-3"
       d="M197.22,35.25a2.27,2.27,0,0,1-2.74,0l-3.1-3.89L195,29l2.72,3.65A2.12,2.12,0,0,1,197.22,35.25Z"
       transform="translate(-25.69 -1.22)"
       id="path18" />
  </g>
</svg>
