<?xml version="1.0" encoding="UTF-8" standalone="no"?>
<svg
   xmlns:dc="http://purl.org/dc/elements/1.1/"
   xmlns:cc="http://creativecommons.org/ns#"
   xmlns:rdf="http://www.w3.org/1999/02/22-rdf-syntax-ns#"
   xmlns:svg="http://www.w3.org/2000/svg"
   xmlns="http://www.w3.org/2000/svg"
   id="svg78"
   version="1.1"
   viewBox="0 0 227.95 158.41">
  <metadata
     id="metadata82">
    <rdf:RDF>
      <cc:Work
         rdf:about="">
        <dc:format>image/svg+xml</dc:format>
        <dc:type
           rdf:resource="http://purl.org/dc/dcmitype/StillImage" />
      </cc:Work>
    </rdf:RDF>
  </metadata>
  <defs
     id="defs4">
    <style
       id="style2">.cls-1{fill:#393839;}.cls-1,.cls-15,.cls-16,.cls-17,.cls-18,.cls-2,.cls-3,.cls-4,.cls-5,.cls-6,.cls-7{stroke:#000;}.cls-1,.cls-10,.cls-11,.cls-12,.cls-13,.cls-14,.cls-15,.cls-16,.cls-17,.cls-18,.cls-19,.cls-2,.cls-20,.cls-21,.cls-3,.cls-4,.cls-5,.cls-6,.cls-7,.cls-8,.cls-9{stroke-miterlimit:10;}.cls-1,.cls-10,.cls-11,.cls-12,.cls-13,.cls-14,.cls-15,.cls-16,.cls-17,.cls-18,.cls-2,.cls-20,.cls-3,.cls-4,.cls-5,.cls-6,.cls-7,.cls-8,.cls-9{stroke-width:0.25px;}.cls-2{fill:#ba4125;}.cls-10,.cls-11,.cls-12,.cls-3,.cls-8,.cls-9{fill:#77787b;}.cls-4{fill:#4d70b3;}.cls-5{fill:#f6d854;}.cls-6{fill:#a92129;}.cls-7{fill:#5cbb59;}.cls-8{stroke:#a0410d;}.cls-9{stroke:#0054a6;}.cls-10{stroke:#ffe073;}.cls-11{stroke:#a3062a;}.cls-12{stroke:#007a4b;}.cls-13{fill:#888a8c;}.cls-13,.cls-14,.cls-19,.cls-20,.cls-21{stroke:#231f20;}.cls-14,.cls-15{fill:#2d2a2b;}.cls-16{fill:#c4c6c8;}.cls-17{fill:#6f7173;}.cls-18{fill:#999;}.cls-19{fill:#8f9194;}.cls-19,.cls-21{stroke-width:0.1px;}.cls-20{fill:#bcbec0;}.cls-21{fill:#464547;}</style>
  </defs>
  <g
     id="gr_x"
     transform="translate(3.2900505e-8,2.9755464e-6)">
    <path
       style="fill:#2d2a2b;stroke:#000000;stroke-width:0.25px;stroke-miterlimit:10"
       class="cls-15"
       d="m 65.75,132.86 -6.69,7.22 a 1.63,1.63 0 0 0 0,2.55 c 1.41,1.34 3,3 3,3 0,0 1,0.88 2.52,-0.65 1.52,-1.53 6.2,-6.88 6.2,-6.88 a 1.46,1.46 0 0 0 0,-2.39 l -3.1,-2.82 a 1.62,1.62 0 0 0 -1.93,-0.03 z"
       transform="translate(-25.69,-1.22)"
       id="path54" />
    <path
       style="fill:#c4c6c8;stroke:#000000;stroke-width:0.25px;stroke-miterlimit:10"
       class="cls-16"
       d="m 63.71,138.18 c 0,0 -0.89,0.85 -0.21,1.53 0.52,0.52 1.62,-0.19 1.62,-0.19 l 27.76,-20.47 a 0.71,0.71 0 0 0 -0.15,-0.87 C 92.31,117.73 92,117.78 92,117.78 Z"
       transform="translate(-25.69,-1.22)"
       id="path56" />
    <path
       style="fill:#6f7173;stroke:#000000;stroke-width:0.25px;stroke-miterlimit:10"
       class="cls-17"
       d="m 91.87,117.52 a 3.6,3.6 0 0 1 0.86,0.66 4.75,4.75 0 0 1 0.35,1 l 13.32,-10 a 0.82,0.82 0 0 0 -0.2,-1.17 c -0.66,-0.64 -1.11,-0.46 -1.11,-0.46 z"
       transform="translate(-25.69,-1.22)"
       id="path58" />
  </g>
</svg>
