<?xml version="1.0" encoding="UTF-8" standalone="no"?>
<svg
   xmlns:dc="http://purl.org/dc/elements/1.1/"
   xmlns:cc="http://creativecommons.org/ns#"
   xmlns:rdf="http://www.w3.org/1999/02/22-rdf-syntax-ns#"
   xmlns:svg="http://www.w3.org/2000/svg"
   xmlns="http://www.w3.org/2000/svg"
   version="1.1"
   viewBox="0 0 261.21 108.38"
   id="PS3RBGuitar">
  <metadata
     id="metadata87">
    <rdf:RDF>
      <cc:Work
         rdf:about="">
        <dc:format>image/svg+xml</dc:format>
        <dc:type
           rdf:resource="http://purl.org/dc/dcmitype/StillImage" />
      </cc:Work>
    </rdf:RDF>
  </metadata>
  <defs
     id="defs4">
    <style
       id="style2">.cls-1{fill:#171717;}.cls-1,.cls-13,.cls-2,.cls-3,.cls-4,.cls-5,.cls-6,.cls-7{stroke:#000;stroke-width:0.25px;}.cls-1,.cls-10,.cls-11,.cls-12,.cls-13,.cls-16,.cls-17,.cls-2,.cls-3,.cls-4,.cls-5,.cls-6,.cls-7,.cls-8,.cls-9{stroke-miterlimit:10;}.cls-2{fill:#393839;}.cls-3{fill:#939598;}.cls-4{fill:#a7a9ac;}.cls-5{fill:#414042;}.cls-6{fill:#121212;}.cls-7{fill:#f1f2f2;}.cls-10,.cls-11,.cls-12,.cls-8,.cls-9{fill:none;}.cls-8{stroke:#f15a29;}.cls-9{stroke:#1c75bc;}.cls-10{stroke:#f9ed32;}.cls-11{stroke:#be1e2d;}.cls-12{stroke:#009444;}.cls-13{fill:#4d4d4d;}.cls-14{fill:#292728;}.cls-15,.cls-17{fill:#b1b3b6;}.cls-16{fill:#464547;}.cls-16,.cls-17{stroke:#231f20;stroke-width:0.1px;}</style>
  </defs>
  <g
     id="ghome">
    <path
       class="cls-4"
       d="M33.08,104.72s0,3.72,3.65,3.72a3.55,3.55,0,0,0,3.38-2.1,3.88,3.88,0,0,0,0-3.57A3.38,3.38,0,0,0,36.89,101,3.61,3.61,0,0,0,33.08,104.72Z"
       transform="translate(-1.36 -21.92)"
       id="path74" />
    <path
       class="cls-16"
       d="M37.48,103.42v1.32a.64.64,0,0,0,1-.51,1.18,1.18,0,0,0-.79-1.43c-.33-.14-1.46-.44-1.46-.44v4l.91.28v-3.31s0-.31.2-.23S37.48,103.42,37.48,103.42Z"
       transform="translate(-1.36 -21.92)"
       id="path76" />
    <path
       class="cls-16"
       d="M39.64,105.38c-.17-.29-1.1-.4-1.34-.39a3.13,3.13,0,0,0-1,.18v.54l1-.34a.94.94,0,0,1,.6,0c.12.06,0,.14-.18.19l-1.37.49v.52l2-.7S39.82,105.67,39.64,105.38Z"
       transform="translate(-1.36 -21.92)"
       id="path78" />
    <path
       class="cls-16"
       d="M34.18,105.56c0,.17,0,.34.65.5a3.19,3.19,0,0,0,1.22,0v-.48l-.27.11c-.27.1-.65.15-.76.06s.1-.16.1-.16l.93-.33v-.52l-1.12.39S34.24,105.39,34.18,105.56Z"
       transform="translate(-1.36 -21.92)"
       id="path80" />
  </g>
</svg>
