<?xml version="1.0" encoding="UTF-8" standalone="no"?>
<svg
   xmlns:dc="http://purl.org/dc/elements/1.1/"
   xmlns:cc="http://creativecommons.org/ns#"
   xmlns:rdf="http://www.w3.org/1999/02/22-rdf-syntax-ns#"
   xmlns:svg="http://www.w3.org/2000/svg"
   xmlns="http://www.w3.org/2000/svg"
   version="1.1"
   viewBox="0 0 261.21 108.38"
   id="PS3RBGuitar">
  <metadata
     id="metadata87">
    <rdf:RDF>
      <cc:Work
         rdf:about="">
        <dc:format>image/svg+xml</dc:format>
        <dc:type
           rdf:resource="http://purl.org/dc/dcmitype/StillImage" />
      </cc:Work>
    </rdf:RDF>
  </metadata>
  <defs
     id="defs4">
    <style
       id="style2">.cls-1{fill:#171717;}.cls-1,.cls-13,.cls-2,.cls-3,.cls-4,.cls-5,.cls-6,.cls-7{stroke:#000;stroke-width:0.25px;}.cls-1,.cls-10,.cls-11,.cls-12,.cls-13,.cls-16,.cls-17,.cls-2,.cls-3,.cls-4,.cls-5,.cls-6,.cls-7,.cls-8,.cls-9{stroke-miterlimit:10;}.cls-2{fill:#393839;}.cls-3{fill:#939598;}.cls-4{fill:#a7a9ac;}.cls-5{fill:#414042;}.cls-6{fill:#121212;}.cls-7{fill:#f1f2f2;}.cls-10,.cls-11,.cls-12,.cls-8,.cls-9{fill:none;}.cls-8{stroke:#f15a29;}.cls-9{stroke:#1c75bc;}.cls-10{stroke:#f9ed32;}.cls-11{stroke:#be1e2d;}.cls-12{stroke:#009444;}.cls-13{fill:#4d4d4d;}.cls-14{fill:#292728;}.cls-15,.cls-17{fill:#b1b3b6;}.cls-16{fill:#464547;}.cls-16,.cls-17{stroke:#231f20;stroke-width:0.1px;}</style>
  </defs>
  <g
     id="gr_x"
     transform="translate(-1.1339757e-8,-3.4265275e-6)">
    <path
       style="fill:#121212;stroke:#000000;stroke-width:0.25px;stroke-miterlimit:10"
       class="cls-6"
       d="m 27.33,107.87 0.42,1.42 a 1.51,1.51 0 0 0 1.87,1 l 5.87,-1.75 a 1.5,1.5 0 0 0 0.94,-2.08 l -0.76,-1.62 A 1.51,1.51 0 0 0 33.8,104.06 L 28.28,106 a 1.53,1.53 0 0 0 -0.95,1.87 z"
       transform="translate(-1.49,-34.44)"
       id="path42" />
    <path
       style="fill:#939598;stroke:#000000;stroke-width:0.25px;stroke-miterlimit:10"
       class="cls-3"
       d="m 66.92,98.34 -30.55,5.14 c 0,0 -2.32,0.08 -3.2,3.13 -0.22,0.9 1.36,0.66 1.9,-0.18 0.54,-0.84 0,-1.07 4.1,-1.8 4.1,-0.73 28.33,-4.76 28.33,-4.76 l -0.29,-1.54 z"
       transform="translate(-1.49,-34.44)"
       id="path44" />
    <path
       style="fill:#f1f2f2;stroke:#000000;stroke-width:0.25px;stroke-miterlimit:10"
       class="cls-7"
       d="m 67.21,98.33 0.29,1.54 c 0.62,0.53 10.54,-1.36 11.88,-1.61 1.34,-0.25 0.68,-2.42 0.68,-2.42 0,0 0,-0.53 -1.22,-0.35 -1.22,0.18 -11.01,1.89 -11.63,2.84 z"
       transform="translate(-1.49,-34.44)"
       id="path46" />
  </g>
</svg>
