<svg id="PS3RBGuitar" xmlns="http://www.w3.org/2000/svg" viewBox="0 0 180.66 91.12"><defs><style>.cls-1{fill:#939598;}.cls-1,.cls-10,.cls-2,.cls-3,.cls-4{stroke:#000;stroke-width:0.25px;}.cls-1,.cls-10,.cls-13,.cls-14,.cls-2,.cls-3,.cls-4,.cls-5,.cls-6,.cls-7,.cls-8,.cls-9{stroke-miterlimit:10;}.cls-2{fill:#a7a9ac;}.cls-3{fill:#414042;}.cls-4{fill:#f1f2f2;}.cls-5,.cls-6,.cls-7,.cls-8,.cls-9{fill:none;}.cls-5{stroke:#f15a29;}.cls-6{stroke:#1c75bc;}.cls-7{stroke:#f9ed32;}.cls-8{stroke:#be1e2d;}.cls-9{stroke:#009444;}.cls-10{fill:#4d4d4d;}.cls-11{fill:#292728;}.cls-12,.cls-14{fill:#b1b3b6;}.cls-13{fill:#464547;}.cls-13,.cls-14{stroke:#231f20;stroke-width:0.1px;}</style></defs><polygon class="cls-1" points="26.32 47.57 44.97 41.77 47.39 47.18 28.41 52.47 26.32 47.57"/><polygon class="cls-2" points="140.73 10.34 145.01 22.8 152.2 20.57 147.46 8.41 140.73 10.34"/><polygon class="cls-2" points="159.13 18.39 154.54 6.37 147.46 8.41 152.2 20.57 159.13 18.39"/><polygon class="cls-2" points="166.61 16.03 161.84 4.27 154.54 6.37 159.13 18.39 166.61 16.03"/><polygon class="cls-2" points="173.78 13.83 169.13 2.17 161.84 4.27 166.61 16.03 173.78 13.83"/><polygon class="cls-2" points="180.5 11.96 176.16 0.15 169.13 2.17 173.78 13.83 180.5 11.96"/><polyline class="cls-2" points="76.86 28.71 81.58 42.88 76.19 44.27 71.15 30.4 76.86 28.71"/><polygon class="cls-2" points="82.06 27.22 87.02 41.36 81.58 42.88 76.86 28.71 82.06 27.22"/><polygon class="cls-2" points="87.8 25.57 92.41 39.62 87.02 41.36 82.06 27.22 87.8 25.57"/><polygon class="cls-2" points="93.73 23.86 98 37.68 92.41 39.62 87.8 25.57 93.73 23.86"/><polygon class="cls-2" points="98.81 22.4 103.35 35.87 98 37.68 93.73 23.86 98.81 22.4"/><path class="cls-2" d="M50.78,106.27s0,3.72,3.64,3.72a3.55,3.55,0,0,0,3.39-2.1,3.88,3.88,0,0,0,0-3.57,3.38,3.38,0,0,0-3.19-1.78A3.61,3.61,0,0,0,50.78,106.27Z" transform="translate(-32.9 -29.77)"/><path class="cls-2" d="M53.69,96.49s0,3.73,3.64,3.73a3.55,3.55,0,0,0,3.39-2.1,3.88,3.88,0,0,0,0-3.57,3.38,3.38,0,0,0-3.19-1.78A3.61,3.61,0,0,0,53.69,96.49Z" transform="translate(-32.9 -29.77)"/><circle class="cls-3" cx="21.73" cy="76.47" r="0.76"/><circle class="cls-3" cx="24.52" cy="66.72" r="0.79"/><path class="cls-1" d="M66.79,85.82,36.24,91S33.92,91,33,94.09c-.22.9,1.36.66,1.9-.18s0-1.07,4.1-1.8,28.33-4.76,28.33-4.76l-.29-1.54Z" transform="translate(-32.9 -29.77)"/><path class="cls-4" d="M67.08,85.81l.29,1.54c.62.53,10.54-1.36,11.88-1.61s.68-2.42.68-2.42,0-.53-1.22-.35S67.7,84.86,67.08,85.81Z" transform="translate(-32.9 -29.77)"/><line class="cls-5" x1="76.15" y1="43.49" x2="80.99" y2="41.99"/><line class="cls-6" x1="81.58" y1="41.88" x2="86.21" y2="40.38"/><line class="cls-7" x1="87.02" y1="40.2" x2="91.71" y2="38.73"/><line class="cls-8" x1="92.41" y1="38.53" x2="97.43" y2="36.97"/><line class="cls-9" x1="98.26" y1="36.64" x2="102.69" y2="35.18"/><line class="cls-5" x1="145.4" y1="21.84" x2="151.23" y2="19.94"/><line class="cls-6" x1="152.36" y1="19.48" x2="158.09" y2="17.61"/><line class="cls-7" x1="159.33" y1="17.08" x2="165.49" y2="15.03"/><line class="cls-8" x1="166.63" y1="14.72" x2="172.73" y2="12.75"/><line class="cls-9" x1="173.78" y1="12.56" x2="179.39" y2="10.66"/><circle class="cls-10" cx="18.59" cy="86.46" r="4.53"/><polygon class="cls-11" points="32.36 64.79 28.75 80.66 29.8 80.7 33.45 64.83 32.36 64.79"/><circle class="cls-12" cx="31.16" cy="72.26" r="0.67"/><path class="cls-2" d="M33.08,104.72s0,3.72,3.65,3.72a3.55,3.55,0,0,0,3.38-2.1,3.88,3.88,0,0,0,0-3.57A3.38,3.38,0,0,0,36.89,101,3.61,3.61,0,0,0,33.08,104.72Z" transform="translate(-32.9 -29.77)"/><path class="cls-13" d="M37.48,103.42v1.32a.64.64,0,0,0,1-.51,1.18,1.18,0,0,0-.79-1.43c-.33-.14-1.46-.44-1.46-.44v4l.91.28v-3.31s0-.31.2-.23S37.48,103.42,37.48,103.42Z" transform="translate(-32.9 -29.77)"/><path class="cls-13" d="M39.64,105.38c-.17-.29-1.1-.4-1.34-.39a3.13,3.13,0,0,0-1,.18v.54l1-.34a.94.94,0,0,1,.6,0c.12.06,0,.14-.18.19l-1.37.49v.52l2-.7S39.82,105.67,39.64,105.38Z" transform="translate(-32.9 -29.77)"/><path class="cls-13" d="M34.18,105.56c0,.17,0,.34.65.5a3.19,3.19,0,0,0,1.22,0v-.48l-.27.11c-.27.1-.65.15-.76.06s.1-.16.1-.16l.93-.33v-.52l-1.12.39S34.24,105.39,34.18,105.56Z" transform="translate(-32.9 -29.77)"/><path class="cls-14" d="M47.13,115s3.12,2,1.77,5l1.75.75a3.33,3.33,0,0,1,4.74-2.31l.48-1.35a4.09,4.09,0,0,1-1.65-4.39l-1.79-.78a3.19,3.19,0,0,1-4.26,1.26Z" transform="translate(-32.9 -29.77)"/></svg>