<?xml version="1.0" encoding="UTF-8" standalone="no"?>
<svg
   xmlns:dc="http://purl.org/dc/elements/1.1/"
   xmlns:cc="http://creativecommons.org/ns#"
   xmlns:rdf="http://www.w3.org/1999/02/22-rdf-syntax-ns#"
   xmlns:svg="http://www.w3.org/2000/svg"
   xmlns="http://www.w3.org/2000/svg"
   id="svg107"
   version="1.1"
   viewBox="0 0 225.44 155.98">
  <metadata
     id="metadata111">
    <rdf:RDF>
      <cc:Work
         rdf:about="">
        <dc:format>image/svg+xml</dc:format>
        <dc:type
           rdf:resource="http://purl.org/dc/dcmitype/StillImage" />
      </cc:Work>
    </rdf:RDF>
  </metadata>
  <defs
     id="defs4">
    <style
       id="style2">.cls-1{fill:#393839;}.cls-1,.cls-10,.cls-11,.cls-12,.cls-13,.cls-2,.cls-3,.cls-4,.cls-5,.cls-6,.cls-7,.cls-8,.cls-9{stroke:#000;}.cls-1,.cls-10,.cls-11,.cls-12,.cls-13,.cls-14,.cls-15,.cls-16,.cls-17,.cls-18,.cls-2,.cls-25,.cls-26,.cls-27,.cls-3,.cls-4,.cls-5,.cls-6,.cls-7,.cls-8,.cls-9{stroke-miterlimit:10;}.cls-1,.cls-10,.cls-11,.cls-12,.cls-13,.cls-14,.cls-15,.cls-16,.cls-17,.cls-2,.cls-3,.cls-4,.cls-5,.cls-6,.cls-7,.cls-8,.cls-9{stroke-width:0.25px;}.cls-2{fill:#464547;}.cls-3{fill:#d75d5e;}.cls-4{fill:#919396;}.cls-5{fill:#fff682;}.cls-6{fill:#4d7aae;}.cls-7{fill:#009d6f;}.cls-8{fill:#fff462;}.cls-9{fill:#5aa2d8;}.cls-10{fill:#2cb67a;}.cls-11{fill:#3e3e3f;}.cls-12,.cls-18{fill:#b1b3b6;}.cls-13{fill:#848689;}.cls-14,.cls-15,.cls-16,.cls-17,.cls-25{fill:none;}.cls-14{stroke:#7baac0;}.cls-15{stroke:#c53648;}.cls-16{stroke:#7e7794;}.cls-17{stroke:#1d998b;}.cls-18,.cls-25,.cls-26,.cls-27{stroke:#231f20;}.cls-18{stroke-width:0.1px;}.cls-19{font-size:1.44px;letter-spacing:0em;}.cls-19,.cls-22{fill:#d1d3d4;font-family:MyriadPro-Regular, Myriad Pro;}.cls-20{letter-spacing:0.02em;}.cls-21{letter-spacing:0em;}.cls-22{font-size:1.48px;}.cls-23{letter-spacing:0.01em;}.cls-24{letter-spacing:0.01em;}.cls-26{fill:#fff;stroke-width:0.05px;}.cls-27{fill:#9fa1a4;stroke-width:0.03px;}</style>
  </defs>
  <g
     id="ghome">
    <path
       style="letter-spacing:0.01em;fill:#d1d3d4;stroke:#231f20;stroke-width:0.05px;stroke-miterlimit:10"
       id="path80"
       d="m 112.64,105.44 a 1.18,1.18 0 0 1 0.82,-0.24 1.22,1.22 0 0 0 -0.84,-0.31 1.33,1.33 0 0 0 -0.88,0.34 1.27,1.27 0 0 1 0.9,0.21 z"
       class="cls-23" />
    <path
       style="font-size:1.48000002px;font-family:MyriadPro-Regular, 'Myriad Pro';fill:#8dc63f;stroke:#231f20;stroke-width:0.05px;stroke-miterlimit:10"
       id="path72"
       d="m 112.06,105.25 a 1,1 0 0 1 0.58,0.22 1.19,1.19 0 0 1 0.59,-0.24"
       class="cls-22" />
    <circle
       class="cls-24"
       cx="111.48673"
       cy="105.63074"
       r="0.18417409"
       id="gback-2"
       style="letter-spacing:0.01em;fill:#9d9fa2;stroke:#231f20;stroke-width:0.02423343px;stroke-miterlimit:10" />
    <circle
       class="cls-26"
       cx="112.49"
       cy="105.18"
       r="1.3231455"
       id="circle92"
       style="fill:#ffffff;stroke:#231f20;stroke-width:0.02423343px;stroke-miterlimit:10" />
    <rect
       class="cls-27"
       x="111.56913"
       y="104.70987"
       width="0.70276958"
       height="0.033926807"
       id="rect94"
       style="fill:#9fa1a4;stroke:#231f20;stroke-width:0.01454006px;stroke-miterlimit:10" />
    <rect
       class="cls-27"
       x="112.68871"
       y="104.71472"
       width="0.70276958"
       height="0.029080119"
       id="rect96"
       style="fill:#9fa1a4;stroke:#231f20;stroke-width:0.01454006px;stroke-miterlimit:10" />
    <path
       class="cls-27"
       d="m 112.48031,103.99256 a 1.1971316,1.1971316 0 1 0 1.19713,1.19713 1.1971316,1.1971316 0 0 0 -1.19713,-1.19713 z m -1.05658,1.22137 a 1.0614244,1.0614244 0 0 1 1.05658,-1.06143 1.2601385,1.2601385 0 0 1 0.27141,0.0339 1.2262117,1.2262117 0 0 0 -0.19871,0 0.44104848,0.44104848 0 0 0 -0.28596,0.15509 0.15024728,0.15024728 0 0 0 0.0436,0.23749 0.48466866,0.48466866 0 0 0 0.3005,0.0485 v 0.22294 a 0.55252227,0.55252227 0 0 0 -0.12602,0 0.89179033,0.89179033 0 0 0 -0.19871,0.0242 v -0.0872 h -0.7367 v 0.48467 h 0.24718 v 0.0291 h -0.23264 v 0.0339 h 0.23264 a 0.73669636,0.73669636 0 0 0 -0.0533,0.27626 0.74638974,0.74638974 0 0 0 0.20841,0.52345 1.0565777,1.0565777 0 0 1 -0.52829,-0.92087 z m 1.26014,1.03719 a 0.90633039,0.90633039 0 0 1 -0.20356,0 1.1195846,1.1195846 0 0 1 -0.17933,0 0.66884275,0.66884275 0 1 1 0.38289,0 z m 0.35381,-0.13571 a 0.75123642,0.75123642 0 0 0 0.20356,-0.51375 0.69307618,0.69307618 0 0 0 -0.0582,-0.28111 h 0.2084 v -0.0242 h -0.2181 v -0.0388 h 0.25688 v -0.48467 h -0.76093 v 0.0824 h -0.0388 v -0.23264 a 0.45074185,0.45074185 0 0 0 0.27142,-0.12601 0.15509397,0.15509397 0 0 0 0.0242,-0.24718 v 0 a 1.0565777,1.0565777 0 0 1 0.10663,1.86112 z"
       id="path98"
       style="fill:#9fa1a4;stroke:#231f20;stroke-width:0.01454006px;stroke-miterlimit:10" />
    <ellipse
       class="cls-27"
       cx="75.867699"
       cy="133.42213"
       rx="0.038773492"
       ry="0.024233432"
       transform="rotate(-17.56)"
       id="ellipse100"
       style="fill:#9fa1a4;stroke:#231f20;stroke-width:0.01454006px;stroke-miterlimit:10" />
    <path
       class="cls-27"
       d="m 112.57724,104.24459 c 0,0 -0.0339,0.0291 -0.0242,0.0339 0.01,0.005 0.0242,0 0.0242,0 v 0 0 c 0,0 0.0339,0 0,0 -0.0339,0 0.005,-0.0339 0,-0.0339 z"
       id="path102"
       style="fill:#9fa1a4;stroke:#231f20;stroke-width:0.01454006px;stroke-miterlimit:10" />
  </g>
</svg>
