<?xml version="1.0" encoding="UTF-8" standalone="no"?>
<svg
   xmlns:dc="http://purl.org/dc/elements/1.1/"
   xmlns:cc="http://creativecommons.org/ns#"
   xmlns:rdf="http://www.w3.org/1999/02/22-rdf-syntax-ns#"
   xmlns:svg="http://www.w3.org/2000/svg"
   xmlns="http://www.w3.org/2000/svg"
   id="svg107"
   version="1.1"
   viewBox="0 0 225.44 155.98">
  <metadata
     id="metadata111">
    <rdf:RDF>
      <cc:Work
         rdf:about="">
        <dc:format>image/svg+xml</dc:format>
        <dc:type
           rdf:resource="http://purl.org/dc/dcmitype/StillImage" />
      </cc:Work>
    </rdf:RDF>
  </metadata>
  <defs
     id="defs4">
    <style
       id="style2">.cls-1{fill:#393839;}.cls-1,.cls-10,.cls-11,.cls-12,.cls-13,.cls-2,.cls-3,.cls-4,.cls-5,.cls-6,.cls-7,.cls-8,.cls-9{stroke:#000;}.cls-1,.cls-10,.cls-11,.cls-12,.cls-13,.cls-14,.cls-15,.cls-16,.cls-17,.cls-18,.cls-2,.cls-25,.cls-26,.cls-27,.cls-3,.cls-4,.cls-5,.cls-6,.cls-7,.cls-8,.cls-9{stroke-miterlimit:10;}.cls-1,.cls-10,.cls-11,.cls-12,.cls-13,.cls-14,.cls-15,.cls-16,.cls-17,.cls-2,.cls-3,.cls-4,.cls-5,.cls-6,.cls-7,.cls-8,.cls-9{stroke-width:0.25px;}.cls-2{fill:#464547;}.cls-3{fill:#d75d5e;}.cls-4{fill:#919396;}.cls-5{fill:#fff682;}.cls-6{fill:#4d7aae;}.cls-7{fill:#009d6f;}.cls-8{fill:#fff462;}.cls-9{fill:#5aa2d8;}.cls-10{fill:#2cb67a;}.cls-11{fill:#3e3e3f;}.cls-12,.cls-18{fill:#b1b3b6;}.cls-13{fill:#848689;}.cls-14,.cls-15,.cls-16,.cls-17,.cls-25{fill:none;}.cls-14{stroke:#7baac0;}.cls-15{stroke:#c53648;}.cls-16{stroke:#7e7794;}.cls-17{stroke:#1d998b;}.cls-18,.cls-25,.cls-26,.cls-27{stroke:#231f20;}.cls-18{stroke-width:0.1px;}.cls-19{font-size:1.44px;letter-spacing:0em;}.cls-19,.cls-22{fill:#d1d3d4;font-family:MyriadPro-Regular, Myriad Pro;}.cls-20{letter-spacing:0.02em;}.cls-21{letter-spacing:0em;}.cls-22{font-size:1.48px;}.cls-23{letter-spacing:0.01em;}.cls-24{letter-spacing:0.01em;}.cls-26{fill:#fff;stroke-width:0.05px;}.cls-27{fill:#9fa1a4;stroke-width:0.03px;}</style>
  </defs>
  <g
     id="gy"
     transform="translate(0,4.6107699e-6)">
    <path
       class="cls-5"
       d="m 99.02,70.82 c -5.24,-3.32 -18.91,-9.91 -32.87,2.22 -13.96,12.13 -7.17,27.32 -2.28,32 0,0 10.11,12.19 28.7,5.15 18.59,-7.04 18,-32.06 6.45,-39.37 z m -15.26,39.72 c -17.56,1.25 -23.09,-14 -23.09,-14 -2.93,-7.3 -0.13,-25 18.4,-28.3 18.53,-3.3 26.11,12.3 26.47,18.13 0.58,9.25 -5.34,22.99 -21.78,24.17 z"
       id="path18"
       style="fill:#fff682;stroke:#000000;stroke-width:0.25px;stroke-miterlimit:10" />
    <path
       class="cls-4"
       d="m 83.76,110.54 c -17.56,1.25 -23.09,-14 -23.09,-14 -2.93,-7.3 -0.13,-25 18.4,-28.3 18.53,-3.3 26.11,12.3 26.47,18.13 0.58,9.25 -5.34,22.99 -21.78,24.17 z"
       id="path20"
       style="fill:#919396;stroke:#000000;stroke-width:0.25px;stroke-miterlimit:10" />
    <circle
       id="circle44"
       r="1.1238989"
       cy="110.91717"
       cx="120.05719"
       class="cls-4"
       style="fill:#b1b3b6;fill-opacity:1;stroke:#000000;stroke-width:0.07869718;stroke-miterlimit:10;stroke-dasharray:none" />
    <polyline
       transform="matrix(0.14119332,0,0,0.14119332,94.11292,107.02729)"
       id="polyline50"
       points="182.17 24.14 184.05 26.69 186.02 24.14"
       class="cls-5"
       style="fill:#b1b3b6;fill-opacity:1;stroke:#000000;stroke-width:0.55737185;stroke-miterlimit:10;stroke-dasharray:none" />
    <polyline
       transform="matrix(0.14119332,0,0,0.14119332,94.11292,107.02729)"
       id="polyline52"
       points="182.17 29.38 184.05 26.69 186.02 29.38"
       class="cls-5"
       style="fill:#b1b3b6;fill-opacity:1;stroke:#000000;stroke-width:0.55737185;stroke-miterlimit:10;stroke-dasharray:none" />
  </g>
</svg>
