<?xml version="1.0" encoding="UTF-8" standalone="no"?>
<svg
   xmlns:dc="http://purl.org/dc/elements/1.1/"
   xmlns:cc="http://creativecommons.org/ns#"
   xmlns:rdf="http://www.w3.org/1999/02/22-rdf-syntax-ns#"
   xmlns:svg="http://www.w3.org/2000/svg"
   xmlns="http://www.w3.org/2000/svg"
   version="1.1"
   viewBox="0 0 254.38 153.9"
   data-name="Layer 17"
   id="Layer_17">
  <metadata
     id="metadata101">
    <rdf:RDF>
      <cc:Work
         rdf:about="">
        <dc:format>image/svg+xml</dc:format>
        <dc:type
           rdf:resource="http://purl.org/dc/dcmitype/StillImage" />
      </cc:Work>
    </rdf:RDF>
  </metadata>
  <defs
     id="defs4">
    <style
       id="style2">.cls-1{fill:#333132;}.cls-1,.cls-2,.cls-3,.cls-6,.cls-7{stroke:#000;}.cls-1,.cls-2,.cls-3,.cls-4,.cls-5,.cls-6,.cls-7,.cls-8{stroke-miterlimit:10;}.cls-1,.cls-2,.cls-3,.cls-4,.cls-6,.cls-7,.cls-8{stroke-width:0.25px;}.cls-2{fill:#858585;}.cls-3{fill:#474747;}.cls-4{fill:#757575;}.cls-4,.cls-8{stroke:#231f20;}.cls-5{fill:none;stroke:#e6e7e8;}.cls-6{fill:#97999c;}.cls-7{fill:#dbdbdb;}.cls-8{fill:#878787;}.cls-9{font-size:9.57px;}.cls-10,.cls-11,.cls-12,.cls-9{fill:#231f20;font-family:MyriadPro-Regular, Myriad Pro;}.cls-10{font-size:8.8px;}.cls-11{font-size:10.56px;}.cls-12{font-size:10.61px;}</style>
  </defs>
  <g
     id="gRB">
    <path
       class="cls-8"
       d="M256.39,24a9.08,9.08,0,0,0,.58-6.41c-1.07-3.28-3.12-4.84-8.46-4.93s-20.13,0-20.13,0L227.23,24C227.2,24.3,227.29,25.63,256.39,24Z"
       transform="translate(-3.08 -5.12)"
       id="path78" />
    <polygon
       class="cls-8"
       points="214.13 5.06 225.31 7.56 224.26 19.09 213.56 16.27 214.13 5.06"
       id="polygon80" />
    <path
       class="cls-8"
       d="M256.29,16c-3.28-6.71-11.07-5.84-11.07-5.84h-28l11.17,2.5,18.57,0S254.42,12.05,256.29,16Z"
       transform="translate(-3.08 -5.12)"
       id="path82" />
    <text
       class="cls-11"
       transform="translate(236.01 16.65)"
       id="text94">R</text>
  </g>
</svg>
