<?xml version="1.0" encoding="UTF-8" standalone="no"?>
<svg
   xmlns:dc="http://purl.org/dc/elements/1.1/"
   xmlns:cc="http://creativecommons.org/ns#"
   xmlns:rdf="http://www.w3.org/1999/02/22-rdf-syntax-ns#"
   xmlns:svg="http://www.w3.org/2000/svg"
   xmlns="http://www.w3.org/2000/svg"
   version="1.1"
   viewBox="0 0 142.68 156.97"
   data-name="360DancePad"
   id="_360DancePad">
  <metadata
     id="metadata51">
    <rdf:RDF>
      <cc:Work
         rdf:about="">
        <dc:format>image/svg+xml</dc:format>
        <dc:type
           rdf:resource="http://purl.org/dc/dcmitype/StillImage" />
      </cc:Work>
    </rdf:RDF>
  </metadata>
  <defs
     id="defs4">
    <style
       id="style2">.cls-1{fill:#333132;}.cls-1,.cls-12,.cls-13,.cls-2,.cls-3,.cls-4,.cls-5,.cls-6,.cls-7{stroke:#231f20;stroke-miterlimit:10;}.cls-1,.cls-13,.cls-2,.cls-3,.cls-4,.cls-5,.cls-6,.cls-7{stroke-width:0.25px;}.cls-2{fill:#414042;}.cls-3{fill:#d97629;}.cls-4{fill:#5bba47;}.cls-5{fill:#da7729;}.cls-6{fill:#e87825;}.cls-7{fill:#67bd45;}.cls-8,.cls-9{font-size:4px;fill:#231f20;font-family:MyriadPro-Regular, Myriad Pro;}.cls-9{letter-spacing:0em;}.cls-10{letter-spacing:0em;}.cls-11{letter-spacing:0.02em;}.cls-12,.cls-13{fill:#babcbe;}.cls-12{stroke-width:0.5px;}</style>
  </defs>
  <g
     id="gb">
    <circle
       class="cls-5"
       cx="26.8"
       cy="41.21"
       r="13.76"
       id="circle18" />
    <path
       class="cls-13"
       d="M85.72,45.46c.88,0,2.63-.37,2.63-4a3.64,3.64,0,0,0-3.83-3.82l-7.65-.13V53.17h7.39a3.67,3.67,0,0,0,3.89-3.89C88.15,45.85,86.57,45.49,85.72,45.46Zm-7-6.6,4.92,0a2.29,2.29,0,0,1,2.55,2.29c0,3.43-2.73,3.39-2.73,3.39H78.67Zm4.86,12.82h-4.9v-5.6l5.09.05s2.61,0,2.61,3.21C86.33,51.84,83.53,51.68,83.53,51.68Z"
       transform="translate(-54.01 -4.11)"
       id="path46" />
  </g>
</svg>
