<?xml version="1.0" encoding="UTF-8" standalone="no"?>
<svg
   xmlns:dc="http://purl.org/dc/elements/1.1/"
   xmlns:cc="http://creativecommons.org/ns#"
   xmlns:rdf="http://www.w3.org/1999/02/22-rdf-syntax-ns#"
   xmlns:svg="http://www.w3.org/2000/svg"
   xmlns="http://www.w3.org/2000/svg"
   version="1.1"
   viewBox="0 0 245.45 145.67"
   id="PS3GHLesPaul">
  <metadata
     id="metadata53">
    <rdf:RDF>
      <cc:Work
         rdf:about="">
        <dc:format>image/svg+xml</dc:format>
        <dc:type
           rdf:resource="http://purl.org/dc/dcmitype/StillImage" />
      </cc:Work>
    </rdf:RDF>
  </metadata>
  <defs
     id="defs4">
    <style
       id="style2">.cls-1{fill:#292728;}.cls-1,.cls-10,.cls-2,.cls-3,.cls-4,.cls-6,.cls-7,.cls-8,.cls-9{stroke:#000;}.cls-1,.cls-10,.cls-2,.cls-3,.cls-4,.cls-5,.cls-6,.cls-7,.cls-8,.cls-9{stroke-miterlimit:10;stroke-width:0.25px;}.cls-2{fill:#9d9fa2;}.cls-3,.cls-5{fill:#333132;}.cls-4{fill:#d1d3d4;}.cls-5{stroke:#231f20;}.cls-6{fill:#b34926;}.cls-7{fill:#3a58a7;}.cls-8{fill:#fbef59;}.cls-9{fill:#be1e2d;}.cls-10{fill:#538c43;}</style>
  </defs>
  <g
     id="gstrum"
     transform="translate(0,-2.4673828e-6)">
    <path
       style="fill:#333132;stroke:#231f20;stroke-width:0.25px;stroke-miterlimit:10"
       class="cls-5"
       d="m 62.82,104.86 c 0,0 -2.37,1.29 -1.9,2.41 0.47,1.12 3.08,0.35 3.08,0.35 z"
       transform="translate(-18.9,-7.69)"
       id="path1138" />
    <path
       style="fill:#333132;stroke:#231f20;stroke-width:0.25px;stroke-miterlimit:10"
       class="cls-5"
       d="m 83.37,95.62 1.35,3.16 c 0,0 3.63,-1.45 2.92,-3.11 -0.71,-1.66 -4.27,-0.05 -4.27,-0.05 z"
       transform="translate(-18.9,-7.69)"
       id="path1140" />
    <path
       style="fill:#9d9fa2;stroke:#000000;stroke-width:0.25px;stroke-miterlimit:10"
       class="cls-2"
       d="m 64,107.62 c 0,0 1,1.07 1.79,0.75 l 18.39,-7.85 c 0,0 0.91,-0.86 0.54,-1.74 l -1.35,-3.16 c 0,0 -0.83,-1.39 -1.75,-1 l -18.52,7.9 c 0,0 -1.08,0.46 -0.28,2.34 z"
       transform="translate(-18.9,-7.69)"
       id="path1142" />
  </g>
</svg>
