<?xml version="1.0" encoding="UTF-8" standalone="no"?>
<svg
   xmlns:dc="http://purl.org/dc/elements/1.1/"
   xmlns:cc="http://creativecommons.org/ns#"
   xmlns:rdf="http://www.w3.org/1999/02/22-rdf-syntax-ns#"
   xmlns:svg="http://www.w3.org/2000/svg"
   xmlns="http://www.w3.org/2000/svg"
   version="1.1"
   viewBox="0 0 245.45 145.67"
   id="PS3GHLesPaul">
  <metadata
     id="metadata53">
    <rdf:RDF>
      <cc:Work
         rdf:about="">
        <dc:format>image/svg+xml</dc:format>
        <dc:type
           rdf:resource="http://purl.org/dc/dcmitype/StillImage" />
      </cc:Work>
    </rdf:RDF>
  </metadata>
  <defs
     id="defs4">
    <style
       id="style2">.cls-1{fill:#292728;}.cls-1,.cls-10,.cls-2,.cls-3,.cls-4,.cls-6,.cls-7,.cls-8,.cls-9{stroke:#000;}.cls-1,.cls-10,.cls-2,.cls-3,.cls-4,.cls-5,.cls-6,.cls-7,.cls-8,.cls-9{stroke-miterlimit:10;stroke-width:0.25px;}.cls-2{fill:#9d9fa2;}.cls-3,.cls-5{fill:#333132;}.cls-4{fill:#d1d3d4;}.cls-5{stroke:#231f20;}.cls-6{fill:#b34926;}.cls-7{fill:#3a58a7;}.cls-8{fill:#fbef59;}.cls-9{fill:#be1e2d;}.cls-10{fill:#538c43;}</style>
  </defs>
  <g
     id="gy"
     transform="translate(0,-2.4673828e-6)">
    <path
       style="fill:#fbef59;stroke:#000000;stroke-width:0.25px;stroke-miterlimit:10"
       class="cls-8"
       d="m 194.57,41.79 3.32,7.8 c 0,0 1.33,2.13 4.35,0.84 3.02,-1.29 2.41,-3.72 2.41,-3.72 l -3.32,-7.8 z m 9.15,4.65 c 0,0 0.48,1.93 -1.92,3 -2.4,1.07 -3.46,-0.67 -3.46,-0.67 l -2.64,-6.2 5.37,-2.29 z"
       transform="translate(-18.9,-7.69)"
       id="path1152" />
    <path
       style="fill:#9d9fa2;stroke:#000000;stroke-width:0.25px;stroke-miterlimit:10"
       class="cls-2"
       d="m 195.7,42.53 5.37,-2.29 2.65,6.2 c 0,0 0.48,1.93 -1.92,3 -2.4,1.07 -3.46,-0.67 -3.46,-0.67 z"
       transform="translate(-18.9,-7.69)"
       id="path1162" />
  </g>
</svg>
