<svg xmlns="http://www.w3.org/2000/svg" viewBox="0 0 225.44 155.98"><defs><style>.cls-1{fill:#393839;}.cls-1,.cls-10,.cls-11,.cls-12,.cls-2,.cls-3,.cls-4,.cls-5,.cls-6,.cls-7,.cls-8,.cls-9{stroke:#000;stroke-width:0.25px;}.cls-1,.cls-10,.cls-11,.cls-12,.cls-13,.cls-14,.cls-15,.cls-16,.cls-17,.cls-18,.cls-19,.cls-2,.cls-20,.cls-21,.cls-22,.cls-23,.cls-24,.cls-3,.cls-4,.cls-5,.cls-6,.cls-7,.cls-8,.cls-9{stroke-miterlimit:10;}.cls-2{fill:#464547;}.cls-3{fill:#d75d5e;}.cls-4{fill:#919396;}.cls-5{fill:#fff682;}.cls-6{fill:#4d7aae;}.cls-7{fill:#009d6f;}.cls-8{fill:#fff462;}.cls-9{fill:#5aa2d8;}.cls-10{fill:#2cb67a;}.cls-11{fill:#3e3e3f;}.cls-12{fill:#848689;}.cls-13{fill:#6ca63c;}.cls-13,.cls-14,.cls-15,.cls-16,.cls-17,.cls-18,.cls-19,.cls-20,.cls-21,.cls-22,.cls-23,.cls-24{stroke:#231f20;}.cls-13,.cls-14,.cls-15,.cls-16,.cls-17,.cls-18,.cls-19,.cls-20{stroke-width:0.1px;}.cls-14{fill:#0058a3;}.cls-15{fill:#f6bd17;}.cls-16{fill:#aa1e23;}.cls-17{fill:#1687c9;}.cls-18{fill:#febf38;}.cls-19{fill:#99ca3c;}.cls-20{fill:#dd1f26;}.cls-21{fill:none;}.cls-21,.cls-22,.cls-23,.cls-24{stroke-width:0.05px;}.cls-22{fill:#8dc63f;}.cls-23{fill:#d1d3d4;}.cls-24{fill:#9d9fa2;}</style></defs><g id="RB"><g id="_360RBDrum" data-name="360RBDrum"><path class="cls-1" d="M152.55,117c-.25,1-1.25,4.32-3.59,5.55a66.55,66.55,0,0,1-15,2,76,76,0,0,1-13.5-1.18,27,27,0,0,1-4.44-5.22,28.17,28.17,0,0,1-17.41,1.7c-6.72-1.37-7.31-2.87-7.31-2.87l-3.71,3.33s3.32,10.24,0,18.45-10.24,17.55-23.74,19.57-30.07-5.81-33.13-19a30.65,30.65,0,0,1,18.45-34.86c14.68-5.81,24.07.72,27.07,2.48l3.33-2.68s-6.46-9.91.71-23,22.44-16.11,31.89-13.89S128,75.07,131,84.46h4.24s2.54-12.13,13-17.15,22.43-3.87,28.3-.67,14,11.17,14.22,21c0,8.81-1.89,12.13-1.89,12.13l3.46,2.09s8.15-7.56,21.65-6.33,21.19,8.48,25.69,17a27.28,27.28,0,0,1-3.19,30.13c-7.89,9.52-26.81,13.18-35.94,8.68s-16.43-10.11-19.24-22.18c-.26-1-.52-10.17,1.31-14.41l-3.33-2.35a22.31,22.31,0,0,1-16.63,6.07c-7.47-.38-9.39-1-9.88-1.4Z" transform="translate(-21.63 -2.75)"/><path class="cls-2" d="M68.16,103.11,62,85.31s5.39-1.13,6.87-2.09l7.33,23.68A29.61,29.61,0,0,0,68.16,103.11Z" transform="translate(-21.63 -2.75)"/><path class="cls-2" d="M88.91,42.53,93.62,69.2a26.83,26.83,0,0,1,6.62-2L96,41.48A19,19,0,0,1,88.91,42.53Z" transform="translate(-21.63 -2.75)"/><path class="cls-2" d="M206.39,78.27l-3.2,18.08s-5.65,1.64-8.26,3.55l3.9-22.33S200,78.09,206.39,78.27Z" transform="translate(-21.63 -2.75)"/><path class="cls-3" d="M81.17,117.31c-4.26-7.22-13.3-17-30.6-10.78S32.39,129.48,32.3,133.48c0,0,1.13,23.31,27.13,20.7C80.74,151.05,87.17,127.22,81.17,117.31ZM63.78,151.22c-6.87,3.57-33.21-.26-29.13-22.34s24-22,24-22c7.14-1.34,21.83,3.19,22.78,18.76S70.65,147.66,63.78,151.22Z" transform="translate(-21.63 -2.75)"/><path class="cls-4" d="M63.73,151.15c-6.87,3.56-33.21-.26-29.13-22.35s24-22,24-22c7.15-1.33,21.83,3.2,22.79,18.76S70.6,147.58,63.73,151.15Z" transform="translate(-21.63 -2.75)"/><path class="cls-5" d="M120.65,73.57c-5.24-3.32-18.91-9.91-32.87,2.22s-7.17,27.32-2.28,32c0,0,10.11,12.19,28.7,5.15S132.2,80.88,120.65,73.57Zm-15.26,39.72c-17.56,1.25-23.09-14-23.09-14-2.93-7.3-.13-25,18.4-28.3s26.11,12.3,26.47,18.13C127.75,98.37,121.83,112.11,105.39,113.29Z" transform="translate(-21.63 -2.75)"/><path class="cls-4" d="M105.39,113.29c-17.56,1.25-23.09-14-23.09-14-2.93-7.3-.13-25,18.4-28.3s26.11,12.3,26.47,18.13C127.75,98.37,121.83,112.11,105.39,113.29Z" transform="translate(-21.63 -2.75)"/><path class="cls-6" d="M186.07,80.48c-4.31-8.41-14.81-17.47-29.55-13.82s-20.77,17.1-19.3,23.8c0,0,.85,22,25.3,22C184.43,112.44,191.8,92,186.07,80.48Zm-22.44,30.33c-23.35,0-24.33-20.8-24.33-20.8s0-10.1,5.68-14.74c16.26-13.24,27.58-7.46,36.39.71C192.26,86.09,183.65,110.81,163.63,110.81Z" transform="translate(-21.63 -2.75)"/><path class="cls-4" d="M163.63,110.83C140.28,110.83,139.3,90,139.3,90s0-10.1,5.68-14.73c16.26-13.24,27.58-7.46,36.39.71C192.26,86.11,183.65,110.83,163.63,110.83Z" transform="translate(-21.63 -2.75)"/><path class="cls-7" d="M239.26,119.25c-2.18-8-10.63-21.29-28.48-21.29-17.36,0-22.8,12.22-24.49,19.13a18.61,18.61,0,0,0,0,8.9c1.88,7.63,8.22,22.78,28.91,22.78,21.1-1.11,24.25-15.63,24.56-24.9A15.62,15.62,0,0,0,239.26,119.25ZM214.5,146.68c-18.44,0-24.62-14.72-26.48-21.41a14.75,14.75,0,0,1-.28-6.83C189,112,193.82,99.9,210.52,99.9c21.24,0,26.22,17.69,26.94,20.89S238.37,146.68,214.5,146.68Z" transform="translate(-21.63 -2.75)"/><path class="cls-4" d="M214.5,146.75c-18.44,0-24.62-14.71-26.48-21.4a14.79,14.79,0,0,1-.28-6.84c1.29-6.4,6.08-18.53,22.78-18.53,21.24,0,26.22,17.69,26.94,20.88S238.37,146.75,214.5,146.75Z" transform="translate(-21.63 -2.75)"/><path class="cls-4" d="M21.78,67.66S20,81.66,44.22,85.92,97.7,72.35,93.43,54.18,58,38.35,48.74,41.83,21.43,53.4,21.78,67.66Z" transform="translate(-21.63 -2.75)"/><path class="cls-4" d="M53,28.27s4.24,13.47,29.56,14.3a55.24,55.24,0,0,0,23.34-4.06c8.36-3.52,17.6-10,17.36-21.55C123.27,2.83,94.58,2,84,3.31,79.35,4,51.17,8.18,53,28.27Z" transform="translate(-21.63 -2.75)"/><path class="cls-4" d="M169.87,52.18s-4.16,20.07,32.68,25.91c28.19,4.79,52-17.82,42.1-32C237,35.31,220.74,26.35,193.78,32.27,171.87,37.75,169.87,52.18,169.87,52.18Z" transform="translate(-21.63 -2.75)"/><path class="cls-8" d="M58.19,51a9.2,9.2,0,0,0-6.61,2.37c-1,.94-1.73,2.07-.71,3,2.22,2,6.93.59,6.93.59s6.5-2.09,3.83-4.69A5.44,5.44,0,0,0,58.19,51Z" transform="translate(-21.63 -2.75)"/><path class="cls-9" d="M90.59,11.2a9.59,9.59,0,0,0-6.26-.11c-2.64,1-5.68,2.89-1.9,4.24,5.48,2,11.94-1,10-2.93A5.57,5.57,0,0,0,90.59,11.2Z" transform="translate(-21.63 -2.75)"/><path class="cls-10" d="M211.47,42.59a9.77,9.77,0,0,0-5.91-.34c-1.92.46-4.18,1.37-3.82,3.1.61,3,6.39,3,6.39,3s6.74.17,6.09-3A4.09,4.09,0,0,0,211.47,42.59Z" transform="translate(-21.63 -2.75)"/><path class="cls-11" d="M135.05,152.63l38.52,5.06,6.54-5.06a64.35,64.35,0,0,0,1-12.35c0-7.77-1.23-8.89-1.23-8.89l-7-5.06-37.16,9.39s-15.06,0-23.83-2.1c0,0-7.16-.5-11.61,1.48s-8.88,3.83-8.88,3.83-2.84.61-2.84,5.43v3.45s-1.36,5.27,4.07,6.65,12.72,4.22,22,1.63A124.32,124.32,0,0,1,135.05,152.63Z" transform="translate(-21.63 -2.75)"/><path class="cls-4" d="M154.65,150.47s2.41.37,2.59-1.85,0-11.11,0-11.11.65-2.23-2.59-1.95-20,1.67-30.28.56-16.31-3-24.91,0-10.65,3.42-10.46,9-1.2,7.5,6.76,9.44,10.18,3.15,19.54.84A150.62,150.62,0,0,1,154.65,150.47Z" transform="translate(-21.63 -2.75)"/><path class="cls-11" d="M115.74,115.66s2.17,4.35,4.56,5,6.94.7,14.43.7a57.3,57.3,0,0,0,14.4-2.05l3.13-3.91-.74-1.69s-5.52,1.65-12.78-8.83h-9.57S124.22,115.75,115.74,115.66Z" transform="translate(-21.63 -2.75)"/><path class="cls-11" d="M124.35,115.51s-.16,3,3.44,3,3.56-3.09,3.56-3.09.34-3.26-3.41-3.26A3.23,3.23,0,0,0,124.35,115.51Z" transform="translate(-21.63 -2.75)"/><path class="cls-12" d="M124.4,115h1.52s1.28.07,1.28-1.12v-1.61l1.15,0v1.63s.08,1.18,1.1,1.18h1.8v.86s-1.22,0-1.77,0-1.12.14-1.12.9,0,1.67,0,1.67h-1.16l0-1.75s0-.79-1.15-.79H124.4Z" transform="translate(-21.63 -2.75)"/><circle class="cls-13" cx="119.96" cy="115.2" r="1.06"/><circle class="cls-14" cx="117.68" cy="113.15" r="1.06"/><circle class="cls-15" cx="120.01" cy="110.96" r="1.06"/><circle class="cls-16" cx="122.27" cy="113.06" r="1.06"/><polygon class="cls-17" points="117.08 112.54 117.43 112.54 117.63 112.91 117.86 112.54 118.17 112.54 117.85 113.08 118.27 113.71 117.9 113.71 117.63 113.25 117.39 113.7 117.08 113.7 117.43 113.06 117.08 112.54"/><polygon class="cls-18" points="119.55 110.47 119.88 110.95 119.88 111.44 120.15 111.44 120.15 110.95 120.47 110.47 120.17 110.47 120.01 110.72 119.85 110.47 119.55 110.47"/><path class="cls-19" d="M141.74,117.27h-.36l-.42,1.12h.3l.13-.3h.32l.13.3h.26Zm-.27.56.07-.26h0l.08.26Z" transform="translate(-21.63 -2.75)"/><path class="cls-20" d="M144.08,115.8a.26.26,0,0,0,.26-.27c0-.28-.46-.25-.46-.25h-.39v1h.6s.28,0,.28-.27S144.08,115.8,144.08,115.8Zm-.1.33h-.27v-.21H144s.08,0,.08.1S144,116.13,144,116.13Zm0-.45h-.25v-.23H144a.1.1,0,0,1,.11.11C144.07,115.69,144,115.68,144,115.68Z" transform="translate(-21.63 -2.75)"/><ellipse class="cls-21" cx="112.63" cy="106.13" rx="1.27" ry="1.24"/><path class="cls-22" d="M133.69,108a1.8,1.8,0,0,0-.32,0h0a2.61,2.61,0,0,1,.64.32,3.54,3.54,0,0,0-.78,1.31h0a4,4,0,0,1,1.05-1.15,2,2,0,0,1,.48.41,2.2,2.2,0,0,1,.46.81h0a2,2,0,0,0-.74-1.38,1.8,1.8,0,0,1,.61-.35h0a1,1,0,0,0-.23,0" transform="translate(-21.63 -2.75)"/><path class="cls-22" d="M133.69,108a1,1,0,0,1,.58.22,1.19,1.19,0,0,1,.59-.24" transform="translate(-21.63 -2.75)"/><path class="cls-23" d="M133.37,108a1.19,1.19,0,0,0-.39.9,1.25,1.25,0,0,0,.25.74,3.52,3.52,0,0,1,.78-1.32A2.61,2.61,0,0,0,133.37,108Z" transform="translate(-21.63 -2.75)"/><path class="cls-23" d="M134.28,108.47a3.9,3.9,0,0,0-1.05,1.15,1.29,1.29,0,0,0,2,.06,2.2,2.2,0,0,0-.46-.81A1.7,1.7,0,0,0,134.28,108.47Z" transform="translate(-21.63 -2.75)"/><path class="cls-23" d="M135.09,108a1.88,1.88,0,0,0-.62.35,2,2,0,0,1,.75,1.38,1.19,1.19,0,0,0,.3-.85A1.14,1.14,0,0,0,135.09,108Z" transform="translate(-21.63 -2.75)"/><path class="cls-23" d="M134.27,108.19a1.18,1.18,0,0,1,.82-.24,1.22,1.22,0,0,0-.84-.31,1.33,1.33,0,0,0-.88.34A1.27,1.27,0,0,1,134.27,108.19Z" transform="translate(-21.63 -2.75)"/><circle class="cls-24" cx="110.42" cy="106.11" r="0.38"/><circle class="cls-24" cx="114.7" cy="106.17" r="0.38"/></g></g></svg>