<?xml version="1.0" encoding="UTF-8" standalone="no"?>
<svg
   xmlns:dc="http://purl.org/dc/elements/1.1/"
   xmlns:cc="http://creativecommons.org/ns#"
   xmlns:rdf="http://www.w3.org/1999/02/22-rdf-syntax-ns#"
   xmlns:svg="http://www.w3.org/2000/svg"
   xmlns="http://www.w3.org/2000/svg"
   version="1.1"
   viewBox="0 0 254.38 153.9"
   data-name="Layer 17"
   id="Layer_17">
  <metadata
     id="metadata101">
    <rdf:RDF>
      <cc:Work
         rdf:about="">
        <dc:format>image/svg+xml</dc:format>
        <dc:type
           rdf:resource="http://purl.org/dc/dcmitype/StillImage" />
      </cc:Work>
    </rdf:RDF>
  </metadata>
  <defs
     id="defs4">
    <style
       id="style2">.cls-1{fill:#333132;}.cls-1,.cls-2,.cls-3,.cls-6,.cls-7{stroke:#000;}.cls-1,.cls-2,.cls-3,.cls-4,.cls-5,.cls-6,.cls-7,.cls-8{stroke-miterlimit:10;}.cls-1,.cls-2,.cls-3,.cls-4,.cls-6,.cls-7,.cls-8{stroke-width:0.25px;}.cls-2{fill:#858585;}.cls-3{fill:#474747;}.cls-4{fill:#757575;}.cls-4,.cls-8{stroke:#231f20;}.cls-5{fill:none;stroke:#e6e7e8;}.cls-6{fill:#97999c;}.cls-7{fill:#dbdbdb;}.cls-8{fill:#878787;}.cls-9{font-size:9.57px;}.cls-10,.cls-11,.cls-12,.cls-9{fill:#231f20;font-family:MyriadPro-Regular, Myriad Pro;}.cls-10{font-size:8.8px;}.cls-11{font-size:10.56px;}.cls-12{font-size:10.61px;}</style>
  </defs>
  <g
     id="glt">
    <path
       class="cls-8"
       d="M5.13,30.9S5,32.22,14,32.78s12.59.66,12.59.66l2.59-.91Z"
       transform="translate(-3.08 -5.12)"
       id="path72" />
    <path
       class="cls-8"
       d="M26.61,33.44s1.27,8.43-2.39,13.3-6.14,7.42-10.3,4.47S5.29,36.89,5.13,30.9C5.13,30.9,9.55,32.31,26.61,33.44Z"
       transform="translate(-3.08 -5.12)"
       id="path74" />
    <path
       class="cls-8"
       d="M29.2,32.53s2.21,0,2.28,7.11-3.08,14.08-8.41,14S16,52.27,16,52.27s3.53-.36,7.54-4.6c4.61-4.88,3.09-14.23,3.09-14.23Z"
       transform="translate(-3.08 -5.12)"
       id="path76" />
    <text
       class="cls-10"
       transform="translate(8.62 37.95)"
       id="text92">ZL</text>
  </g>
</svg>
