<?xml version="1.0" encoding="UTF-8" standalone="no"?>
<svg
   xmlns:dc="http://purl.org/dc/elements/1.1/"
   xmlns:cc="http://creativecommons.org/ns#"
   xmlns:rdf="http://www.w3.org/1999/02/22-rdf-syntax-ns#"
   xmlns:svg="http://www.w3.org/2000/svg"
   xmlns="http://www.w3.org/2000/svg"
   version="1.1"
   viewBox="0 0 254.38 153.9"
   data-name="Layer 17"
   id="Layer_17">
  <metadata
     id="metadata101">
    <rdf:RDF>
      <cc:Work
         rdf:about="">
        <dc:format>image/svg+xml</dc:format>
        <dc:type
           rdf:resource="http://purl.org/dc/dcmitype/StillImage" />
      </cc:Work>
    </rdf:RDF>
  </metadata>
  <defs
     id="defs4">
    <style
       id="style2">.cls-1{fill:#333132;}.cls-1,.cls-2,.cls-3,.cls-6,.cls-7{stroke:#000;}.cls-1,.cls-2,.cls-3,.cls-4,.cls-5,.cls-6,.cls-7,.cls-8{stroke-miterlimit:10;}.cls-1,.cls-2,.cls-3,.cls-4,.cls-6,.cls-7,.cls-8{stroke-width:0.25px;}.cls-2{fill:#858585;}.cls-3{fill:#474747;}.cls-4{fill:#757575;}.cls-4,.cls-8{stroke:#231f20;}.cls-5{fill:none;stroke:#e6e7e8;}.cls-6{fill:#97999c;}.cls-7{fill:#dbdbdb;}.cls-8{fill:#878787;}.cls-9{font-size:9.57px;}.cls-10,.cls-11,.cls-12,.cls-9{fill:#231f20;font-family:MyriadPro-Regular, Myriad Pro;}.cls-10{font-size:8.8px;}.cls-11{font-size:10.56px;}.cls-12{font-size:10.61px;}</style>
  </defs>
  <g
     id="grt">
    <path
       class="cls-8"
       d="M256.48,27.45s.16,1.42-9.59,2-13.58.71-13.58.71l-2.79-1Z"
       transform="translate(-3.08 -5.12)"
       id="path84" />
    <path
       class="cls-8"
       d="M233.31,30.18s-1.37,9.09,2.58,14.35,6.62,8,11.11,4.82,9.31-15.44,9.48-21.9C256.48,27.45,251.71,29,233.31,30.18Z"
       transform="translate(-3.08 -5.12)"
       id="path86" />
    <path
       class="cls-8"
       d="M230.52,29.2s-2.38,0-2.47,7.66,3.33,15.2,9.08,15.08,7.65-1.44,7.65-1.44-3.81-.39-8.14-5c-5-5.26-3.33-15.35-3.33-15.35Z"
       transform="translate(-3.08 -5.12)"
       id="path88" />
    <text
       class="cls-12"
       transform="translate(236.02 37.2)"
       id="text96">ZR</text>
  </g>
</svg>
