<svg id="_360RBGuitar" data-name="360RBGuitar" xmlns="http://www.w3.org/2000/svg" viewBox="0 0 180.66 91.12"><defs><style>.cls-1{fill:#939598;}.cls-1,.cls-10,.cls-2,.cls-3,.cls-4{stroke:#000;stroke-width:0.25px;}.cls-1,.cls-10,.cls-13,.cls-14,.cls-15,.cls-2,.cls-3,.cls-4,.cls-5,.cls-6,.cls-7,.cls-8,.cls-9{stroke-miterlimit:10;}.cls-2{fill:#a7a9ac;}.cls-3{fill:#414042;}.cls-4{fill:#f1f2f2;}.cls-13,.cls-5,.cls-6,.cls-7,.cls-8,.cls-9{fill:none;}.cls-5{stroke:#f15a29;}.cls-6{stroke:#1c75bc;}.cls-7{stroke:#f9ed32;}.cls-8{stroke:#be1e2d;}.cls-9{stroke:#009444;}.cls-10{fill:#8c8c8c;}.cls-11{fill:#292728;}.cls-12{fill:#b1b3b6;}.cls-13,.cls-14,.cls-15{stroke:#231f20;stroke-width:0.05px;}.cls-14{fill:#8dc63f;}.cls-15{fill:#d1d3d4;}</style></defs><polygon class="cls-1" points="26.32 47.57 44.97 41.77 47.39 47.18 28.41 52.47 26.32 47.57"/><polygon class="cls-2" points="140.73 10.34 145.01 22.8 152.2 20.57 147.46 8.41 140.73 10.34"/><polygon class="cls-2" points="159.13 18.39 154.54 6.37 147.46 8.41 152.2 20.57 159.13 18.39"/><polygon class="cls-2" points="166.61 16.03 161.84 4.27 154.54 6.37 159.13 18.39 166.61 16.03"/><polygon class="cls-2" points="173.78 13.83 169.13 2.17 161.84 4.27 166.61 16.03 173.78 13.83"/><polygon class="cls-2" points="180.5 11.96 176.16 0.15 169.13 2.17 173.78 13.83 180.5 11.96"/><polyline class="cls-2" points="76.86 28.71 81.58 42.88 76.19 44.27 71.15 30.4 76.86 28.71"/><polygon class="cls-2" points="82.06 27.22 87.02 41.36 81.58 42.88 76.86 28.71 82.06 27.22"/><polygon class="cls-2" points="87.8 25.57 92.41 39.62 87.02 41.36 82.06 27.22 87.8 25.57"/><polygon class="cls-2" points="93.73 23.86 98 37.68 92.41 39.62 87.8 25.57 93.73 23.86"/><polygon class="cls-2" points="98.81 22.4 103.35 35.87 98 37.68 93.73 23.86 98.81 22.4"/><path class="cls-2" d="M50.91,118.79s0,3.72,3.64,3.72a3.55,3.55,0,0,0,3.39-2.1,3.88,3.88,0,0,0,0-3.57,3.38,3.38,0,0,0-3.19-1.78A3.61,3.61,0,0,0,50.91,118.79Z" transform="translate(-33.03 -42.29)"/><path class="cls-2" d="M53.82,109s0,3.73,3.65,3.73a3.55,3.55,0,0,0,3.38-2.1,3.9,3.9,0,0,0,0-3.58,3.4,3.4,0,0,0-3.19-1.77A3.61,3.61,0,0,0,53.82,109Z" transform="translate(-33.03 -42.29)"/><circle class="cls-3" cx="21.73" cy="76.47" r="0.76"/><circle class="cls-3" cx="24.52" cy="66.72" r="0.79"/><path class="cls-1" d="M66.92,98.34l-30.55,5.14s-2.32.08-3.2,3.13c-.22.9,1.36.66,1.9-.18s0-1.07,4.1-1.8S67.5,99.87,67.5,99.87l-.29-1.54Z" transform="translate(-33.03 -42.29)"/><path class="cls-4" d="M67.21,98.33l.29,1.54c.62.53,10.54-1.36,11.88-1.61s.68-2.42.68-2.42,0-.53-1.22-.35S67.83,97.38,67.21,98.33Z" transform="translate(-33.03 -42.29)"/><line class="cls-5" x1="76.15" y1="43.49" x2="80.99" y2="41.99"/><line class="cls-6" x1="81.58" y1="41.88" x2="86.21" y2="40.38"/><line class="cls-7" x1="87.02" y1="40.2" x2="91.71" y2="38.73"/><line class="cls-8" x1="92.41" y1="38.53" x2="97.43" y2="36.97"/><line class="cls-9" x1="98.26" y1="36.64" x2="102.69" y2="35.18"/><line class="cls-5" x1="145.4" y1="21.84" x2="151.23" y2="19.94"/><line class="cls-6" x1="152.36" y1="19.48" x2="158.09" y2="17.61"/><line class="cls-7" x1="159.33" y1="17.08" x2="165.49" y2="15.03"/><line class="cls-8" x1="166.63" y1="14.72" x2="172.73" y2="12.75"/><line class="cls-9" x1="173.78" y1="12.56" x2="179.39" y2="10.66"/><circle class="cls-10" cx="18.59" cy="86.46" r="4.53"/><polygon class="cls-11" points="32.36 64.79 28.75 80.66 29.8 80.7 33.45 64.83 32.36 64.79"/><circle class="cls-12" cx="31.16" cy="72.26" r="0.67"/><path class="cls-2" d="M33.22,117.24s0,3.72,3.64,3.72a3.55,3.55,0,0,0,3.38-2.1,3.91,3.91,0,0,0,0-3.57,3.41,3.41,0,0,0-3.2-1.78A3.6,3.6,0,0,0,33.22,117.24Z" transform="translate(-33.03 -42.29)"/><ellipse class="cls-13" cx="3.95" cy="74.87" rx="2.88" ry="2.8"/><path class="cls-14" d="M35.71,115.1a4,4,0,0,0-.72,0h0a5.76,5.76,0,0,1,1.45.72,8,8,0,0,0-1.78,3h0A8.9,8.9,0,0,1,37,116.21a3.65,3.65,0,0,1,1.08.91,4.82,4.82,0,0,1,1,1.83h0a4.64,4.64,0,0,0-1.69-3.13,4.16,4.16,0,0,1,1.4-.78h0a2.2,2.2,0,0,0-.53,0" transform="translate(-33.03 -42.29)"/><path class="cls-14" d="M35.71,115.1a2.08,2.08,0,0,1,1.3.49,2.76,2.76,0,0,1,1.34-.55" transform="translate(-33.03 -42.29)"/><path class="cls-15" d="M35,115.14a2.66,2.66,0,0,0-.88,2,2.78,2.78,0,0,0,.57,1.67,7.93,7.93,0,0,1,1.77-3A5.56,5.56,0,0,0,35,115.14Z" transform="translate(-33.03 -42.29)"/><path class="cls-15" d="M37,116.23a8.84,8.84,0,0,0-2.37,2.6A2.9,2.9,0,0,0,37,120a2.93,2.93,0,0,0,2.13-1,4.85,4.85,0,0,0-1.05-1.83A3.88,3.88,0,0,0,37,116.23Z" transform="translate(-33.03 -42.29)"/><path class="cls-15" d="M38.88,115.06a4.31,4.31,0,0,0-1.4.79A4.64,4.64,0,0,1,39.17,119a2.73,2.73,0,0,0,.68-1.93A2.61,2.61,0,0,0,38.88,115.06Z" transform="translate(-33.03 -42.29)"/><path class="cls-15" d="M37,115.61a2.72,2.72,0,0,1,1.87-.55,2.77,2.77,0,0,0-1.9-.7,3,3,0,0,0-2,.78A2.82,2.82,0,0,1,37,115.61Z" transform="translate(-33.03 -42.29)"/></svg>