<svg id="Layer_17" data-name="Layer 17" xmlns="http://www.w3.org/2000/svg" viewBox="0 0 254.38 153.9"><defs><style>.cls-1{fill:#333132;}.cls-1,.cls-2,.cls-3,.cls-6,.cls-7{stroke:#000;}.cls-1,.cls-2,.cls-3,.cls-4,.cls-5,.cls-6,.cls-7,.cls-8{stroke-miterlimit:10;}.cls-1,.cls-2,.cls-3,.cls-4,.cls-6,.cls-7,.cls-8{stroke-width:0.25px;}.cls-2{fill:#858585;}.cls-3{fill:#474747;}.cls-4{fill:#757575;}.cls-4,.cls-8{stroke:#231f20;}.cls-5{fill:none;stroke:#e6e7e8;}.cls-6{fill:#97999c;}.cls-7{fill:#dbdbdb;}.cls-8{fill:#878787;}.cls-9{font-size:9.57px;}.cls-10,.cls-11,.cls-12,.cls-9{fill:#231f20;font-family:MyriadPro-Regular, Myriad Pro;}.cls-10{font-size:8.8px;}.cls-11{font-size:10.56px;}.cls-12{font-size:10.61px;}</style></defs><path class="cls-1" d="M33.09,55.13S23.52,93.74,22,126.43c-1.22,21.74,6.78,26.79,13.56,30.09s11,4,19.65-5S70.65,119,73.09,116.09s1.39-4.35,8.87-4.52,94.52,0,94.52,0,4.87-.61,6.52,2.86,11.39,27.48,17.48,35,11.74,11,17,8.69,15.66-3.39,17.74-21.74-8.34-70.65-10.95-81.3-6.79-25.91-11.31-30.52C205.52,16.52,190.74,10.35,162,9.39s-66.87,0-66.87,0S57,9.3,44.3,24.7c-1.73,2.26-3.3,3-5.13,8.6S33.09,55.13,33.09,55.13Z" transform="translate(-3.08 -5.12)"/><path class="cls-2" d="M77.41,72.52v8.22s-.19,1.43,1.11,1.43H87a1.14,1.14,0,0,1,1.3,1.18v8.48s0,1,.85,1H97.5s1.43.27,1.43-1.56v-8s-.32-1.37,1.24-1.37h8.68s1.3.06,1.3-1.11V72.52a1.18,1.18,0,0,0-1.3-1.3h-8.61A1.09,1.09,0,0,1,99,70V62.15s.39-1.64-1.64-1.64H90.33s-1.61-.4-1.61,1.6V70.5a1.32,1.32,0,0,1-1.35,1.35H78.59S77.41,71.61,77.41,72.52Z" transform="translate(-3.08 -5.12)"/><path class="cls-2" d="M56,35.49a14,14,0,0,0-.8,16.08c1.84,2.78,5,5.26,10.33,5.26,6.8,0,10.29-4.27,12-8a13.72,13.72,0,0,0-.08-12.1c-1.65-3.2-4.86-6.41-11-6.41A12.57,12.57,0,0,0,56,35.49Z" transform="translate(-3.08 -5.12)"/><path class="cls-2" d="M147,67.61a14.27,14.27,0,0,0,0,13.28,12.19,12.19,0,0,0,11.51,6.89c7.06,0,10.54-4.38,12.22-8.2s1.11-7.94-.74-11.75c-1.1-2.16-5.81-7-10.88-7C152.32,60.86,148.81,64.24,147,67.61Z" transform="translate(-3.08 -5.12)"/><rect class="cls-2" x="104.96" y="37.37" width="9.07" height="8.74" rx="1.63"/><circle class="cls-3" cx="109.49" cy="41.74" r="3.24"/><circle class="cls-2" cx="141.16" cy="41.62" r="4.49"/><path class="cls-3" d="M144.2,43.67l-3,2.48h1.14V49h4V46.15h1ZM145.43,48h-2.29V46.18h2.29Z" transform="translate(-3.08 -5.12)"/><circle class="cls-2" cx="98.26" cy="25.53" r="4.65"/><rect class="cls-3" x="95.73" y="24.75" width="4.99" height="0.91"/><circle class="cls-2" cx="152.82" cy="25.65" r="4.65"/><polygon class="cls-3" points="150.21 25.62 152.31 25.62 152.31 27.55 153.23 27.55 153.23 25.62 155.23 25.62 155.23 24.84 153.25 24.84 153.25 22.77 152.29 22.77 152.29 24.81 150.21 24.81 150.21 25.62"/><circle class="cls-4" cx="166.88" cy="41.62" r="7.79"/><polyline class="cls-5" points="165.05 38.41 167.03 41.34 169.01 38.41"/><line class="cls-5" x1="167.03" y1="43.71" x2="167.03" y2="41.34"/><circle class="cls-4" cx="184.37" cy="56.69" r="7.96"/><path class="cls-5" d="M186.42,58.6v4.91h2.06s1.11,0,1.11-1.41C189.59,61.05,188,61,188,61s1.58-.23,1.58-1.22-1.47-1.19-1.47-1.19Z" transform="translate(-3.08 -5.12)"/><line class="cls-5" x1="183.35" y1="55.84" x2="184.93" y2="55.88"/><circle class="cls-4" cx="201.4" cy="42.53" r="7.96"/><circle class="cls-4" cx="183.75" cy="27.55" r="7.96"/><polyline class="cls-5" points="199.59 44.51 201.62 39.55 203.9 44.51"/><line class="cls-5" x1="200.34" y1="42.68" x2="203.06" y2="42.68"/><polyline class="cls-5" points="182.17 24.14 184.05 26.69 186.02 24.14"/><polyline class="cls-5" points="182.17 29.38 184.05 26.69 186.02 29.38"/><path class="cls-6" d="M162,9.39,169.65,6s2.69-1.3,10.57,0c8.95,1.61,19.82,3.82,28.3,12.78a21.65,21.65,0,0,1,4.39,5.87,35.76,35.76,0,0,0-13.66-8.91C190.52,12.48,181.09,10,162,9.39Z" transform="translate(-3.08 -5.12)"/><path class="cls-6" d="M95.08,9.26,87.47,5.82s-2.68-1.29-10.56,0c-9,1.61-19.83,3.83-28.3,12.79a21.69,21.69,0,0,0-4.4,5.87,35.84,35.84,0,0,1,13.66-8.92C66.61,12.35,76,9.91,95.08,9.26Z" transform="translate(-3.08 -5.12)"/><path class="cls-7" d="M93.86,63.67,92.4,66a.06.06,0,0,0,0,.09h2.8a.06.06,0,0,0,0-.09L94,63.67A.06.06,0,0,0,93.86,63.67Z" transform="translate(-3.08 -5.12)"/><path class="cls-7" d="M81.85,76.05l2.34,1.46a.06.06,0,0,0,.09-.05v-2.8a.06.06,0,0,0-.09,0L81.86,76A.06.06,0,0,0,81.85,76.05Z" transform="translate(-3.08 -5.12)"/><path class="cls-7" d="M93.64,88.77l1.46-2.34a.06.06,0,0,0,0-.09H92.26a.06.06,0,0,0-.06.09l1.34,2.34A.06.06,0,0,0,93.64,88.77Z" transform="translate(-3.08 -5.12)"/><path class="cls-7" d="M105.74,76.36l-2.33-1.45a.06.06,0,0,0-.09,0v2.79a.05.05,0,0,0,.08,0l2.34-1.34A.06.06,0,0,0,105.74,76.36Z" transform="translate(-3.08 -5.12)"/><path class="cls-8" d="M4.07,26.69a8.45,8.45,0,0,1-.53-5.94c1-3.05,2.89-4.5,7.84-4.57s18.66,0,18.66,0L31.1,26.69C31.13,26.94,31.05,28.17,4.07,26.69Z" transform="translate(-3.08 -5.12)"/><polygon class="cls-8" points="37.32 8.73 26.96 11.05 27.93 21.74 37.85 19.13 37.32 8.73"/><path class="cls-8" d="M4.16,19.27c3.05-6.22,10.27-5.42,10.27-5.42h26L30,16.18l-17.21,0S5.9,15.59,4.16,19.27Z" transform="translate(-3.08 -5.12)"/><path class="cls-8" d="M5.13,30.9S5,32.22,14,32.78s12.59.66,12.59.66l2.59-.91Z" transform="translate(-3.08 -5.12)"/><path class="cls-8" d="M26.61,33.44s1.27,8.43-2.39,13.3-6.14,7.42-10.3,4.47S5.29,36.89,5.13,30.9C5.13,30.9,9.55,32.31,26.61,33.44Z" transform="translate(-3.08 -5.12)"/><path class="cls-8" d="M29.2,32.53s2.21,0,2.28,7.11-3.08,14.08-8.41,14S16,52.27,16,52.27s3.53-.36,7.54-4.6c4.61-4.88,3.09-14.23,3.09-14.23Z" transform="translate(-3.08 -5.12)"/><path class="cls-8" d="M256.39,24a9.08,9.08,0,0,0,.58-6.41c-1.07-3.28-3.12-4.84-8.46-4.93s-20.13,0-20.13,0L227.23,24C227.2,24.3,227.29,25.63,256.39,24Z" transform="translate(-3.08 -5.12)"/><polygon class="cls-8" points="214.13 5.06 225.31 7.56 224.26 19.09 213.56 16.27 214.13 5.06"/><path class="cls-8" d="M256.29,16c-3.28-6.71-11.07-5.84-11.07-5.84h-28l11.17,2.5,18.57,0S254.42,12.05,256.29,16Z" transform="translate(-3.08 -5.12)"/><path class="cls-8" d="M256.48,27.45s.16,1.42-9.59,2-13.58.71-13.58.71l-2.79-1Z" transform="translate(-3.08 -5.12)"/><path class="cls-8" d="M233.31,30.18s-1.37,9.09,2.58,14.35,6.62,8,11.11,4.82,9.31-15.44,9.48-21.9C256.48,27.45,251.71,29,233.31,30.18Z" transform="translate(-3.08 -5.12)"/><path class="cls-8" d="M230.52,29.2s-2.38,0-2.47,7.66,3.33,15.2,9.08,15.08,7.65-1.44,7.65-1.44-3.81-.39-8.14-5c-5-5.26-3.33-15.35-3.33-15.35Z" transform="translate(-3.08 -5.12)"/><text class="cls-9" transform="translate(11.14 19.89)">L</text><text class="cls-10" transform="translate(8.62 37.95)">ZL</text><text class="cls-11" transform="translate(236.01 16.65)">R</text><text class="cls-12" transform="translate(236.02 37.2)">ZR</text></svg>