<svg id="Layer_17" data-name="Layer 17" xmlns="http://www.w3.org/2000/svg" viewBox="0 0 254.38 82.93"><defs><style>.cls-1{fill:#858585;}.cls-1,.cls-2,.cls-5{stroke:#000;}.cls-1,.cls-2,.cls-3,.cls-4,.cls-5,.cls-6{stroke-miterlimit:10;}.cls-1,.cls-2,.cls-3,.cls-5,.cls-6{stroke-width:0.25px;}.cls-2{fill:#474747;}.cls-3{fill:#757575;}.cls-3,.cls-6{stroke:#231f20;}.cls-4{fill:none;stroke:#e6e7e8;}.cls-5{fill:#dbdbdb;}.cls-6{fill:#878787;}.cls-7{font-size:9.57px;}.cls-10,.cls-7,.cls-8,.cls-9{fill:#231f20;font-family:MyriadPro-Regular, Myriad Pro;}.cls-8{font-size:8.8px;}.cls-9{font-size:10.56px;}.cls-10{font-size:10.61px;}</style></defs><path class="cls-1" d="M77.41,72.52v8.22s-.19,1.43,1.11,1.43H87a1.14,1.14,0,0,1,1.3,1.18v8.48s0,1,.85,1H97.5s1.43.27,1.43-1.56v-8s-.32-1.37,1.24-1.37h8.68s1.3.06,1.3-1.11V72.52a1.18,1.18,0,0,0-1.3-1.3h-8.61A1.09,1.09,0,0,1,99,70V62.15s.39-1.64-1.64-1.64H90.33s-1.61-.4-1.61,1.6V70.5a1.32,1.32,0,0,1-1.35,1.35H78.59S77.41,71.61,77.41,72.52Z" transform="translate(-3.08 -10.02)"/><path class="cls-1" d="M56,35.49a14,14,0,0,0-.8,16.08c1.84,2.78,5,5.26,10.33,5.26,6.8,0,10.29-4.27,12-8a13.72,13.72,0,0,0-.08-12.1c-1.65-3.2-4.86-6.41-11-6.41A12.57,12.57,0,0,0,56,35.49Z" transform="translate(-3.08 -10.02)"/><path class="cls-1" d="M147,67.61a14.27,14.27,0,0,0,0,13.28,12.19,12.19,0,0,0,11.51,6.89c7.06,0,10.54-4.38,12.22-8.2s1.11-7.94-.74-11.75c-1.1-2.16-5.81-7-10.88-7C152.32,60.86,148.81,64.24,147,67.61Z" transform="translate(-3.08 -10.02)"/><rect class="cls-1" x="104.96" y="32.47" width="9.07" height="8.74" rx="1.63"/><circle class="cls-2" cx="109.49" cy="36.84" r="3.24"/><circle class="cls-1" cx="141.16" cy="36.73" r="4.49"/><path class="cls-2" d="M144.2,43.67l-3,2.48h1.14V49h4V46.15h1ZM145.43,48h-2.29V46.18h2.29Z" transform="translate(-3.08 -10.02)"/><circle class="cls-1" cx="98.26" cy="20.64" r="4.65"/><rect class="cls-2" x="95.73" y="19.85" width="4.99" height="0.91"/><circle class="cls-1" cx="152.82" cy="20.76" r="4.65"/><polygon class="cls-2" points="150.21 20.72 152.31 20.72 152.31 22.66 153.23 22.66 153.23 20.72 155.23 20.72 155.23 19.94 153.25 19.94 153.25 17.88 152.29 17.88 152.29 19.92 150.21 19.92 150.21 20.72"/><circle class="cls-3" cx="166.88" cy="36.73" r="7.79"/><polyline class="cls-4" points="165.05 33.51 167.03 36.45 169.01 33.51"/><line class="cls-4" x1="167.03" y1="38.82" x2="167.03" y2="36.45"/><circle class="cls-3" cx="184.37" cy="51.8" r="7.96"/><path class="cls-4" d="M186.42,58.6v4.91h2.06s1.11,0,1.11-1.41C189.59,61.05,188,61,188,61s1.58-.23,1.58-1.22-1.47-1.19-1.47-1.19Z" transform="translate(-3.08 -10.02)"/><line class="cls-4" x1="183.35" y1="50.95" x2="184.93" y2="50.99"/><circle class="cls-3" cx="201.4" cy="37.63" r="7.96"/><circle class="cls-3" cx="183.75" cy="22.66" r="7.96"/><polyline class="cls-4" points="199.59 39.61 201.62 34.65 203.9 39.61"/><line class="cls-4" x1="200.34" y1="37.78" x2="203.06" y2="37.78"/><polyline class="cls-4" points="182.17 19.25 184.05 21.79 186.02 19.25"/><polyline class="cls-4" points="182.17 24.48 184.05 21.79 186.02 24.48"/><path class="cls-5" d="M93.86,63.67,92.4,66a.06.06,0,0,0,0,.09h2.8a.06.06,0,0,0,0-.09L94,63.67A.06.06,0,0,0,93.86,63.67Z" transform="translate(-3.08 -10.02)"/><path class="cls-5" d="M81.85,76.05l2.34,1.46a.06.06,0,0,0,.09-.05v-2.8a.06.06,0,0,0-.09,0L81.86,76A.06.06,0,0,0,81.85,76.05Z" transform="translate(-3.08 -10.02)"/><path class="cls-5" d="M93.64,88.77l1.46-2.34a.06.06,0,0,0,0-.09H92.26a.06.06,0,0,0-.06.09l1.34,2.34A.06.06,0,0,0,93.64,88.77Z" transform="translate(-3.08 -10.02)"/><path class="cls-5" d="M105.74,76.36l-2.33-1.45a.06.06,0,0,0-.09,0v2.79a.05.05,0,0,0,.08,0l2.34-1.34A.06.06,0,0,0,105.74,76.36Z" transform="translate(-3.08 -10.02)"/><path class="cls-6" d="M4.07,26.69a8.45,8.45,0,0,1-.53-5.94c1-3.05,2.89-4.5,7.84-4.57s18.66,0,18.66,0L31.1,26.69C31.13,26.94,31.05,28.17,4.07,26.69Z" transform="translate(-3.08 -10.02)"/><polygon class="cls-6" points="37.32 3.84 26.96 6.16 27.93 16.85 37.85 14.23 37.32 3.84"/><path class="cls-6" d="M4.16,19.27c3.05-6.22,10.27-5.42,10.27-5.42h26L30,16.18l-17.21,0S5.9,15.59,4.16,19.27Z" transform="translate(-3.08 -10.02)"/><path class="cls-6" d="M5.13,30.9S5,32.22,14,32.78s12.59.66,12.59.66l2.59-.91Z" transform="translate(-3.08 -10.02)"/><path class="cls-6" d="M26.61,33.44s1.27,8.43-2.39,13.3-6.14,7.42-10.3,4.47S5.29,36.89,5.13,30.9C5.13,30.9,9.55,32.31,26.61,33.44Z" transform="translate(-3.08 -10.02)"/><path class="cls-6" d="M29.2,32.53s2.21,0,2.28,7.11-3.08,14.08-8.41,14S16,52.27,16,52.27s3.53-.36,7.54-4.6c4.61-4.88,3.09-14.23,3.09-14.23Z" transform="translate(-3.08 -10.02)"/><path class="cls-6" d="M256.39,24a9.08,9.08,0,0,0,.58-6.41c-1.07-3.28-3.12-4.84-8.46-4.93s-20.13,0-20.13,0L227.23,24C227.2,24.3,227.29,25.63,256.39,24Z" transform="translate(-3.08 -10.02)"/><polygon class="cls-6" points="214.13 0.16 225.31 2.67 224.26 14.2 213.56 11.37 214.13 0.16"/><path class="cls-6" d="M256.29,16c-3.28-6.71-11.07-5.84-11.07-5.84h-28l11.17,2.5,18.57,0S254.42,12.05,256.29,16Z" transform="translate(-3.08 -10.02)"/><path class="cls-6" d="M256.48,27.45s.16,1.42-9.59,2-13.58.71-13.58.71l-2.79-1Z" transform="translate(-3.08 -10.02)"/><path class="cls-6" d="M233.31,30.18s-1.37,9.09,2.58,14.35,6.62,8,11.11,4.82,9.31-15.44,9.48-21.9C256.48,27.45,251.71,29,233.31,30.18Z" transform="translate(-3.08 -10.02)"/><path class="cls-6" d="M230.52,29.2s-2.38,0-2.47,7.66,3.33,15.2,9.08,15.08,7.65-1.44,7.65-1.44-3.81-.39-8.14-5c-5-5.26-3.33-15.35-3.33-15.35Z" transform="translate(-3.08 -10.02)"/><text class="cls-7" transform="translate(11.14 15)">L</text><text class="cls-8" transform="translate(8.62 33.05)">ZL</text><text class="cls-9" transform="translate(236.01 11.76)">R</text><text class="cls-10" transform="translate(236.02 32.31)">ZR</text></svg>