<svg id="PS3RBGuitar" xmlns="http://www.w3.org/2000/svg" viewBox="0 0 261.21 108.38"><defs><style>.cls-1{fill:#171717;}.cls-1,.cls-13,.cls-2,.cls-3,.cls-4,.cls-5,.cls-6,.cls-7{stroke:#000;stroke-width:0.25px;}.cls-1,.cls-10,.cls-11,.cls-12,.cls-13,.cls-16,.cls-2,.cls-3,.cls-4,.cls-5,.cls-6,.cls-7,.cls-8,.cls-9{stroke-miterlimit:10;}.cls-2{fill:#393839;}.cls-3{fill:#939598;}.cls-4{fill:#a7a9ac;}.cls-5{fill:#414042;}.cls-6{fill:#121212;}.cls-7{fill:#f1f2f2;}.cls-10,.cls-11,.cls-12,.cls-8,.cls-9{fill:none;}.cls-8{stroke:#f15a29;}.cls-9{stroke:#1c75bc;}.cls-10{stroke:#f9ed32;}.cls-11{stroke:#be1e2d;}.cls-12{stroke:#009444;}.cls-13{fill:#999;}.cls-14{fill:#292728;}.cls-15{fill:#b1b3b6;}.cls-16{fill:#464547;stroke:#231f20;stroke-width:0.1px;}</style></defs><path class="cls-1" d="M12.65,112.17s9.13,23.74,34.83,16.7C66.78,123.65,63,108,88.17,105.65c18.66-2.08,20.74,5.35,29.35-9.26,0,0,2.22-6-12.91-4.3-3.39.39-18.59-9.88-4.11-14.32,2.28-.7,6.59-3,8.76-3.73,11.63-3.94,21.93-7.36,61-19.13,46.3-13.95,52.43-18.39,55.95-10,.92,2.09,7.18-.13,16.31-8.09,2.35-2.08,3.78-3.78,7.43,0s12.26-.65,12.52-6.91S255.65,22,255.65,22l-38.74,1.31s-1.69-.52-3.13,5.22L104,60.17s-10.13.09-5-11.78c2.09-4.3,18-5.48,15.39-12.39S93.52,28.17,75,44c-15,13.3-45.13.78-58.43,6.91S-.26,69.65,2.22,83,12.65,112.17,12.65,112.17Z" transform="translate(-1.36 -21.92)"/><path class="cls-2" d="M59.22,77.35s-3.13,1-1.7,3.78c1.11,2,3.78,1.11,3.78,1.11Z" transform="translate(-1.36 -21.92)"/><path class="cls-2" d="M77.87,71.54,80.28,77A3.24,3.24,0,0,0,82,72.59C81.26,70.11,77.87,71.54,77.87,71.54Z" transform="translate(-1.36 -21.92)"/><polygon class="cls-3" points="57.86 55.43 76.51 49.63 78.93 55.04 59.95 60.32 57.86 55.43"/><polygon class="cls-4" points="172.27 18.2 176.55 30.66 183.74 28.43 179 16.26 172.27 18.2"/><polygon class="cls-4" points="190.67 26.25 186.08 14.23 179 16.26 183.74 28.43 190.67 26.25"/><polygon class="cls-4" points="198.15 23.89 193.38 12.13 186.08 14.23 190.67 26.25 198.15 23.89"/><polygon class="cls-4" points="205.32 21.68 200.68 10.03 193.38 12.13 198.15 23.89 205.32 21.68"/><polygon class="cls-4" points="212.04 19.81 207.7 8.01 200.68 10.03 205.32 21.68 212.04 19.81"/><polyline class="cls-4" points="108.4 36.57 113.12 50.73 107.73 52.13 102.69 38.26 108.4 36.57"/><polygon class="cls-4" points="113.6 35.07 118.56 49.21 113.12 50.73 108.4 36.57 113.6 35.07"/><polygon class="cls-4" points="119.34 33.42 123.95 47.48 118.56 49.21 113.6 35.07 119.34 33.42"/><polygon class="cls-4" points="125.27 31.71 129.54 45.54 123.95 47.48 119.34 33.42 125.27 31.71"/><polygon class="cls-4" points="130.35 30.25 134.89 43.72 129.54 45.54 125.27 31.71 130.35 30.25"/><path class="cls-4" d="M50.78,106.27s0,3.72,3.64,3.72a3.55,3.55,0,0,0,3.39-2.1,3.88,3.88,0,0,0,0-3.57,3.38,3.38,0,0,0-3.19-1.78A3.61,3.61,0,0,0,50.78,106.27Z" transform="translate(-1.36 -21.92)"/><path class="cls-4" d="M53.69,96.49s0,3.73,3.64,3.73a3.55,3.55,0,0,0,3.39-2.1,3.88,3.88,0,0,0,0-3.57,3.38,3.38,0,0,0-3.19-1.78A3.61,3.61,0,0,0,53.69,96.49Z" transform="translate(-1.36 -21.92)"/><circle class="cls-5" cx="53.28" cy="84.32" r="0.76"/><circle class="cls-5" cx="56.06" cy="74.58" r="0.79"/><path class="cls-6" d="M27.2,95.35l.42,1.42a1.51,1.51,0,0,0,1.87,1L35.36,96A1.5,1.5,0,0,0,36.3,94l-.76-1.62a1.51,1.51,0,0,0-1.87-.78L28.15,93.5A1.53,1.53,0,0,0,27.2,95.35Z" transform="translate(-1.36 -21.92)"/><path class="cls-3" d="M66.79,85.82,36.24,91S33.92,91,33,94.09c-.22.9,1.36.66,1.9-.18s0-1.07,4.1-1.8,28.33-4.76,28.33-4.76l-.29-1.54Z" transform="translate(-1.36 -21.92)"/><path class="cls-7" d="M67.08,85.81l.29,1.54c.62.53,10.54-1.36,11.88-1.61s.68-2.42.68-2.42,0-.53-1.22-.35S67.7,84.86,67.08,85.81Z" transform="translate(-1.36 -21.92)"/><line class="cls-8" x1="107.69" y1="51.34" x2="112.54" y2="49.84"/><line class="cls-9" x1="113.12" y1="49.73" x2="117.75" y2="48.23"/><line class="cls-10" x1="118.56" y1="48.06" x2="123.25" y2="46.58"/><line class="cls-11" x1="123.95" y1="46.39" x2="128.97" y2="44.82"/><line class="cls-12" x1="129.8" y1="44.5" x2="134.23" y2="43.04"/><line class="cls-8" x1="176.94" y1="29.69" x2="182.77" y2="27.79"/><line class="cls-9" x1="183.91" y1="27.34" x2="189.63" y2="25.46"/><line class="cls-10" x1="190.87" y1="24.94" x2="197.04" y2="22.89"/><line class="cls-11" x1="198.17" y1="22.58" x2="204.28" y2="20.6"/><line class="cls-12" x1="205.32" y1="20.41" x2="210.93" y2="18.52"/><circle class="cls-13" cx="50.13" cy="94.32" r="4.53"/><polygon class="cls-14" points="63.91 72.65 60.3 88.52 61.34 88.56 64.99 72.69 63.91 72.65"/><circle class="cls-15" cx="62.7" cy="80.12" r="0.67"/><path class="cls-4" d="M33.08,104.72s0,3.72,3.65,3.72a3.55,3.55,0,0,0,3.38-2.1,3.88,3.88,0,0,0,0-3.57A3.38,3.38,0,0,0,36.89,101,3.61,3.61,0,0,0,33.08,104.72Z" transform="translate(-1.36 -21.92)"/><path class="cls-16" d="M37.48,103.42v1.32a.64.64,0,0,0,1-.51,1.18,1.18,0,0,0-.79-1.43c-.33-.14-1.46-.44-1.46-.44v4l.91.28v-3.31s0-.31.2-.23S37.48,103.42,37.48,103.42Z" transform="translate(-1.36 -21.92)"/><path class="cls-16" d="M39.64,105.38c-.17-.29-1.1-.4-1.34-.39a3.13,3.13,0,0,0-1,.18v.54l1-.34a.94.94,0,0,1,.6,0c.12.06,0,.14-.18.19l-1.37.49v.52l2-.7S39.82,105.67,39.64,105.38Z" transform="translate(-1.36 -21.92)"/><path class="cls-16" d="M34.18,105.56c0,.17,0,.34.65.5a3.19,3.19,0,0,0,1.22,0v-.48l-.27.11c-.27.1-.65.15-.76.06s.1-.16.1-.16l.93-.33v-.52l-1.12.39S34.24,105.39,34.18,105.56Z" transform="translate(-1.36 -21.92)"/></svg>