<svg xmlns="http://www.w3.org/2000/svg" viewBox="0 0 261.21 108.38"><defs><style>.cls-1{fill:#171717;}.cls-1,.cls-13,.cls-2,.cls-3,.cls-4,.cls-5,.cls-6,.cls-7{stroke:#000;stroke-width:0.25px;}.cls-1,.cls-10,.cls-11,.cls-12,.cls-13,.cls-16,.cls-17,.cls-2,.cls-3,.cls-4,.cls-5,.cls-6,.cls-7,.cls-8,.cls-9{stroke-miterlimit:10;}.cls-2{fill:#393839;}.cls-3{fill:#939598;}.cls-4{fill:#a7a9ac;}.cls-5{fill:#414042;}.cls-6{fill:#121212;}.cls-7{fill:#f1f2f2;}.cls-10,.cls-11,.cls-12,.cls-8,.cls-9{fill:none;}.cls-8{stroke:#f15a29;}.cls-9{stroke:#1c75bc;}.cls-10{stroke:#f9ed32;}.cls-11{stroke:#be1e2d;}.cls-12{stroke:#009444;}.cls-13{fill:#a6a6a6;}.cls-14{fill:#292728;}.cls-15,.cls-16{fill:#b1b3b6;}.cls-16,.cls-17{stroke:#231f20;stroke-width:0.1px;}.cls-17{fill:#fff;}</style></defs><g id="RB"><g id="LogoRBGuitar"><path class="cls-1" d="M12.65,112.17s9.13,23.74,34.83,16.7C66.78,123.65,63,108,88.17,105.65c18.66-2.08,20.74,5.35,29.35-9.26,0,0,2.22-6-12.91-4.3-3.39.39-18.59-9.88-4.11-14.32,2.28-.7,6.59-3,8.76-3.73,11.63-3.94,21.93-7.36,61-19.13,46.3-13.95,52.43-18.39,55.95-10,.92,2.09,7.18-.13,16.31-8.09,2.35-2.08,3.78-3.78,7.43,0s12.26-.65,12.52-6.91S255.65,22,255.65,22l-38.74,1.31s-1.69-.52-3.13,5.22L104,60.17s-10.13.09-5-11.78c2.09-4.3,18-5.48,15.39-12.39S93.52,28.17,75,44c-15,13.3-45.13.78-58.43,6.91S-.26,69.65,2.22,83,12.65,112.17,12.65,112.17Z" transform="translate(-1.36 -21.92)"/><path class="cls-2" d="M59.22,77.35s-3.13,1-1.7,3.78c1.11,2,3.78,1.11,3.78,1.11Z" transform="translate(-1.36 -21.92)"/><path class="cls-2" d="M77.87,71.54,80.28,77A3.24,3.24,0,0,0,82,72.59C81.26,70.11,77.87,71.54,77.87,71.54Z" transform="translate(-1.36 -21.92)"/><polygon class="cls-3" points="57.86 55.43 76.51 49.63 78.93 55.04 59.95 60.32 57.86 55.43"/><polygon class="cls-4" points="172.27 18.2 176.55 30.66 183.74 28.43 179 16.26 172.27 18.2"/><polygon class="cls-4" points="190.67 26.25 186.08 14.23 179 16.26 183.74 28.43 190.67 26.25"/><polygon class="cls-4" points="198.15 23.89 193.38 12.13 186.08 14.23 190.67 26.25 198.15 23.89"/><polygon class="cls-4" points="205.32 21.68 200.68 10.03 193.38 12.13 198.15 23.89 205.32 21.68"/><polygon class="cls-4" points="212.04 19.81 207.7 8.01 200.68 10.03 205.32 21.68 212.04 19.81"/><polyline class="cls-4" points="108.4 36.57 113.12 50.73 107.73 52.13 102.69 38.26 108.4 36.57"/><polygon class="cls-4" points="113.6 35.07 118.56 49.21 113.12 50.73 108.4 36.57 113.6 35.07"/><polygon class="cls-4" points="119.34 33.42 123.95 47.48 118.56 49.21 113.6 35.07 119.34 33.42"/><polygon class="cls-4" points="125.27 31.71 129.54 45.54 123.95 47.48 119.34 33.42 125.27 31.71"/><polygon class="cls-4" points="130.35 30.25 134.89 43.72 129.54 45.54 125.27 31.71 130.35 30.25"/><path class="cls-4" d="M50.78,106.27s0,3.72,3.64,3.72a3.55,3.55,0,0,0,3.39-2.1,3.88,3.88,0,0,0,0-3.57,3.38,3.38,0,0,0-3.19-1.78A3.61,3.61,0,0,0,50.78,106.27Z" transform="translate(-1.36 -21.92)"/><path class="cls-4" d="M53.69,96.49s0,3.73,3.64,3.73a3.55,3.55,0,0,0,3.39-2.1,3.88,3.88,0,0,0,0-3.57,3.38,3.38,0,0,0-3.19-1.78A3.61,3.61,0,0,0,53.69,96.49Z" transform="translate(-1.36 -21.92)"/><circle class="cls-5" cx="53.28" cy="84.32" r="0.76"/><circle class="cls-5" cx="56.06" cy="74.58" r="0.79"/><path class="cls-6" d="M27.2,95.35l.42,1.42a1.51,1.51,0,0,0,1.87,1L35.36,96A1.5,1.5,0,0,0,36.3,94l-.76-1.62a1.51,1.51,0,0,0-1.87-.78L28.15,93.5A1.53,1.53,0,0,0,27.2,95.35Z" transform="translate(-1.36 -21.92)"/><path class="cls-3" d="M66.79,85.82,36.24,91S33.92,91,33,94.09c-.22.9,1.36.66,1.9-.18s0-1.07,4.1-1.8,28.33-4.76,28.33-4.76l-.29-1.54Z" transform="translate(-1.36 -21.92)"/><path class="cls-7" d="M67.08,85.81l.29,1.54c.62.53,10.54-1.36,11.88-1.61s.68-2.42.68-2.42,0-.53-1.22-.35S67.7,84.86,67.08,85.81Z" transform="translate(-1.36 -21.92)"/><line class="cls-8" x1="107.69" y1="51.34" x2="112.54" y2="49.84"/><line class="cls-9" x1="113.12" y1="49.73" x2="117.75" y2="48.23"/><line class="cls-10" x1="118.56" y1="48.06" x2="123.25" y2="46.58"/><line class="cls-11" x1="123.95" y1="46.39" x2="128.97" y2="44.82"/><line class="cls-12" x1="129.8" y1="44.5" x2="134.23" y2="43.04"/><line class="cls-8" x1="176.94" y1="29.69" x2="182.77" y2="27.79"/><line class="cls-9" x1="183.91" y1="27.34" x2="189.63" y2="25.46"/><line class="cls-10" x1="190.87" y1="24.94" x2="197.04" y2="22.89"/><line class="cls-11" x1="198.17" y1="22.58" x2="204.28" y2="20.6"/><line class="cls-12" x1="205.32" y1="20.41" x2="210.93" y2="18.52"/><circle class="cls-13" cx="50.13" cy="94.32" r="4.53"/><polygon class="cls-14" points="63.91 72.65 60.3 88.52 61.34 88.56 64.99 72.69 63.91 72.65"/><circle class="cls-15" cx="62.7" cy="80.12" r="0.67"/><path class="cls-4" d="M33.08,104.72s0,3.72,3.65,3.72a3.55,3.55,0,0,0,3.38-2.1,3.88,3.88,0,0,0,0-3.57A3.38,3.38,0,0,0,36.89,101,3.61,3.61,0,0,0,33.08,104.72Z" transform="translate(-1.36 -21.92)"/><path class="cls-16" d="M47.13,115s3.12,2,1.77,5l1.75.75a3.33,3.33,0,0,1,4.74-2.31l.48-1.35a4.09,4.09,0,0,1-1.65-4.39l-1.79-.78a3.19,3.19,0,0,1-4.26,1.26Z" transform="translate(-1.36 -21.92)"/><path class="cls-17" d="M36.8,101.51A3.22,3.22,0,1,0,40,104.73,3.22,3.22,0,0,0,36.8,101.51Zm0,6.08a2.86,2.86,0,0,1-1.92-.75,1.13,1.13,0,0,1,.64-.35c.41-.06.64.25.69.22a5.42,5.42,0,0,0,1.24-1.25c.32-.47.51-.56.77-.51a.88.88,0,0,0,.81-.14.78.78,0,0,0,0-1.17.7.7,0,0,0-.76-.13l-.08-.22s.26-.19.21-.42-.31-.14-.35-.17-.28-.1-.34.06-.09.08-.16.21a.27.27,0,0,0,.08.35.55.55,0,0,0,.35.05l.11.2-.81.35-.11-.22s.23-.17.23-.29-.15-.27-.15-.27H37a.22.22,0,0,0-.28,0c-.15.1-.1.16-.18.23s-.11.18,0,.35.38.1.38.1l.13.2-.84.33-.08-.2a.35.35,0,0,0,.22-.29c0-.2-.09-.24-.23-.26s-.32-.11-.43,0-.06.13-.15.22a.24.24,0,0,0,0,.34.24.24,0,0,0,.27.09.11.11,0,0,1,.13,0l.11.2-.85.35-.09-.22a.52.52,0,0,0,.21-.41c0-.23-.32-.14-.34-.16s-.11-.06-.11-.06a.85.85,0,0,0-.24.1c-.08,0,0,.06-.11.18s-.09.19-.09.19,0,.05.11.18.37.07.37.07l.11.2-.54.27c-.19.11-.07.26,0,.53s-.22.4-.22.4a2.82,2.82,0,1,1,2.52,1.56Zm-2-2.08a.22.22,0,0,1,.43,0,.21.21,0,0,1-.21.21A.21.21,0,0,1,34.8,105.51Zm1-.43a.21.21,0,0,1,.21-.21.21.21,0,1,1,0,.42A.21.21,0,0,1,35.84,105.08Zm1-.42a.21.21,0,1,1,.21.21A.22.22,0,0,1,36.86,104.66Zm1-.41a.2.2,0,0,1,.2-.21.21.21,0,0,1,.21.21.2.2,0,0,1-.21.2A.2.2,0,0,1,37.89,104.25Z" transform="translate(-1.36 -21.92)"/></g></g></svg>