<svg id="Layer_25" data-name="Layer 25" xmlns="http://www.w3.org/2000/svg" viewBox="0 0 247.56 153.76"><defs><style>.cls-1{fill:#363436;}.cls-1,.cls-10,.cls-11,.cls-12,.cls-13,.cls-14,.cls-15,.cls-16,.cls-17,.cls-2,.cls-3,.cls-4,.cls-5,.cls-6,.cls-7,.cls-8,.cls-9{stroke:#231f20;stroke-miterlimit:10;}.cls-1,.cls-15,.cls-16,.cls-17{stroke-width:0.5px;}.cls-2{fill:#6ca63c;}.cls-2,.cls-3,.cls-4,.cls-5,.cls-6,.cls-7,.cls-8,.cls-9{stroke-width:0.1px;}.cls-3{fill:#0058a3;}.cls-4{fill:#f6bd17;}.cls-5{fill:#aa1e23;}.cls-6{fill:#1687c9;}.cls-7{fill:#febf38;}.cls-8{fill:#99ca3c;}.cls-9{fill:#dd1f26;}.cls-10{fill:none;}.cls-10,.cls-11,.cls-12,.cls-13,.cls-14{stroke-width:0.05px;}.cls-11{fill:#8dc63f;}.cls-12{fill:#d1d3d4;}.cls-13,.cls-16{fill:#b1b3b6;}.cls-14{fill:#9d9fa2;}.cls-15{fill:#434345;}.cls-17{fill:#333132;}</style></defs><path class="cls-1" d="M200.91,50.61C186.13,16.87,147.7,7,130.3,7S78,17.74,62.48,49.39s-4.87,56.52-4.87,56.52,9.91,35.83,45.91,49.39,73.05-3.13,88.18-23.47S215.7,84.35,200.91,50.61Zm-79.08,83-4.44,7.17A61.17,61.17,0,0,1,93,128.15c-14.41-12.58-17.87-26.61-17.87-26.61a3.88,3.88,0,0,1,.46-4.17,99.84,99.84,0,0,1,8.67-9.13c4.89-4.5,9.07-3.52,14.48-.13s3.06,2.22,8.74,9.52,12.91,20.74,14.87,27.07C123.91,130.3,121.83,133.63,121.83,133.63Zm8-7.4-2.91-.07A31.37,31.37,0,0,0,123.85,116a.81.81,0,0,1,.94-.72,10.2,10.2,0,0,0,5,1.63ZM103.57,65.8C91.7,65.67,88.89,65,82.63,62.61s-2.87-7.31-1.76-9.33,8.54-7,8.54-7A64,64,0,0,0,99,36.59c3.85-5.09,12.91-8.09,12.91-8.09a68.73,68.73,0,0,1,31.24-2.09c16.5,3,17.09,6.66,24.39,14.61s13.76,7.83,16.05,15.39-12.33,9.13-22.24,9.13-7-1.37-28.5-1.37S115.43,65.93,103.57,65.8Zm32.64,60.36-2.91.07V116.9a10.2,10.2,0,0,0,5-1.63.81.81,0,0,1,.94.72A31.37,31.37,0,0,0,136.21,126.16Zm41.31-5.51c-15.13,18-32,20.31-32,20.31s-.63-1.59-4.48-7.33,3.59-19.7,9-27.59,8.8-16,17.41-19.63,14.94,5.42,17.94,8.29S191.61,103.43,177.52,120.65Z" transform="translate(-3.92 -6.71)"/><circle class="cls-2" cx="156.45" cy="77.96" r="3.21"/><circle class="cls-3" cx="149.86" cy="71.56" r="3.13"/><circle class="cls-4" cx="156.49" cy="64.92" r="3.35"/><circle class="cls-5" cx="163.2" cy="71.45" r="3.2"/><polygon class="cls-6" points="148.12 69.77 149.13 69.77 149.73 70.84 150.41 69.77 151.31 69.77 150.38 71.34 151.6 73.22 150.51 73.22 149.73 71.84 149.03 73.17 148.12 73.17 149.14 71.3 148.12 69.77"/><polygon class="cls-7" points="155.04 63.38 156.06 64.9 156.06 66.46 156.94 66.46 156.94 64.92 157.95 63.38 157 63.38 156.49 64.19 155.99 63.38 155.04 63.38"/><path class="cls-8" d="M160.85,82.64h-1.09L158.49,86h.91l.4-.91h1l.4.91h.77ZM160,84.32l.22-.78h.09l.24.78Z" transform="translate(-3.92 -6.71)"/><path class="cls-9" d="M167.68,78.15a.79.79,0,0,0,.78-.83c0-.82-1.4-.75-1.4-.75h-1.15v3.17h1.8s.82,0,.82-.82S167.68,78.15,167.68,78.15Zm-.32,1h-.8v-.66h.85s.23,0,.23.33A.29.29,0,0,1,167.36,79.15Zm-.06-1.38h-.74V77.1h.74a.29.29,0,0,1,.34.33C167.64,77.82,167.3,77.77,167.3,77.77Z" transform="translate(-3.92 -6.71)"/><ellipse class="cls-10" cx="127.46" cy="80.03" rx="4.01" ry="3.91"/><path class="cls-11" d="M129.62,83.86a5.46,5.46,0,0,0-1,0h0a7.71,7.71,0,0,1,2,1A11,11,0,0,0,128.16,89h0a12.43,12.43,0,0,1,3.3-3.61,5.13,5.13,0,0,1,1.5,1.27,6.78,6.78,0,0,1,1.46,2.55h0a6.47,6.47,0,0,0-2.35-4.36A5.69,5.69,0,0,1,134,83.78h0a3.23,3.23,0,0,0-.73,0" transform="translate(-3.92 -6.71)"/><path class="cls-11" d="M129.62,83.86a3,3,0,0,1,1.82.68,3.78,3.78,0,0,1,1.86-.76" transform="translate(-3.92 -6.71)"/><path class="cls-12" d="M128.61,83.92a3.71,3.71,0,0,0-1.23,2.82,3.89,3.89,0,0,0,.78,2.32,11.28,11.28,0,0,1,2.47-4.13A7.88,7.88,0,0,0,128.61,83.92Z" transform="translate(-3.92 -6.71)"/><path class="cls-12" d="M131.47,85.45a12.41,12.41,0,0,0-3.31,3.61,4.05,4.05,0,0,0,3.31,1.59,4.1,4.1,0,0,0,3-1.38A6.88,6.88,0,0,0,133,86.72,5.31,5.31,0,0,0,131.47,85.45Z" transform="translate(-3.92 -6.71)"/><path class="cls-12" d="M134,83.81a5.74,5.74,0,0,0-1.94,1.1,6.47,6.47,0,0,1,2.35,4.36,3.78,3.78,0,0,0,.95-2.68A3.64,3.64,0,0,0,134,83.81Z" transform="translate(-3.92 -6.71)"/><path class="cls-12" d="M131.43,84.58a3.78,3.78,0,0,1,2.6-.77,3.83,3.83,0,0,0-2.65-1,4.15,4.15,0,0,0-2.77,1.09A3.88,3.88,0,0,1,131.43,84.58Z" transform="translate(-3.92 -6.71)"/><rect class="cls-13" x="133.38" y="78.34" width="5.23" height="3.38" rx="1.69"/><rect class="cls-13" x="116.36" y="78.39" width="5.23" height="3.38" rx="1.69"/><polygon class="cls-14" points="119.47 79.45 119.47 80.72 118.05 80.08 119.47 79.45"/><polygon class="cls-14" points="135.64 80.61 135.64 79.33 137.07 79.97 135.64 80.61"/><circle class="cls-15" cx="98.66" cy="71.95" r="6.78"/><path class="cls-16" d="M96,76.91s4.52.68,4.52-4.71a7.17,7.17,0,0,1,3.52-.13s.63,4.82,5.07,4.82a6.51,6.51,0,0,1,0,3.63s-4.83-1-4.83,4.68a6.1,6.1,0,0,1-1.71.23,9.28,9.28,0,0,1-2.26-.39s1-4.69-4.37-4.69a13.77,13.77,0,0,1-.22-2A3.36,3.36,0,0,1,96,76.91Z" transform="translate(-3.92 -6.71)"/><path class="cls-17" d="M4.17,64.09,4.3,73s-.65,1,2.61,7.82,3.92,8,3.92,8,.78,3.66,7,3.53,20.93,0,20.93,0,4.05-.2,5.74-3.66,5.35-12.06,5.35-12.06A11.14,11.14,0,0,0,50.48,73c.06-2.42-.26-9.79-.26-9.79s-.13-5.8-7.11-5.87-32,0-32,0S4.17,56.72,4.17,64.09Z" transform="translate(-3.92 -6.71)"/><path class="cls-17" d="M220.83,54.78l1.74,29.92s.26,1.56-1.66,5.47S217,98.78,217,98.78s-1.26.44-1.05,6.09-.08,11.87,6.79,12.22,22.78-.31,22.78-.31a5.7,5.7,0,0,0,5.74-5.78c.3-5.87-3-56.74-3.52-58.83s-2.83-4.39-5.18-4.43-16,0-16,0S220.35,47.09,220.83,54.78Z" transform="translate(-3.92 -6.71)"/><path class="cls-16" d="M5.48,63.39l.09,10.39L11.3,87.3s1.18,3.83,6.83,3.83,21.09,0,21.09,0,2.52.17,4.52-2.79S49.13,76,49.13,76a63.24,63.24,0,0,0,.48-9.26c-.18-4.39-1.48-8.48-5.7-8.74S11.7,58,11.7,58,6.43,58.35,5.48,63.39Z" transform="translate(-3.92 -6.71)"/><path class="cls-16" d="M217.39,101.7l.18,9.34s.47,4.09,4.3,4.18,24.22-.39,24.22-.39,4.26-.26,4.34-4S247.35,55,246.74,53.22s-.94-4.52-4.22-4.63-16.22,0-16.22,0-4.34.54-4.26,4,2.55,30.15,1.83,32.76S217.63,99.33,217.39,101.7Z" transform="translate(-3.92 -6.71)"/></svg>