<svg id="Layer_25" data-name="Layer 25" xmlns="http://www.w3.org/2000/svg" viewBox="0 0 245.46 67.18"><defs><style>.cls-1{fill:#6ca63c;}.cls-1,.cls-10,.cls-11,.cls-12,.cls-13,.cls-14,.cls-15,.cls-2,.cls-3,.cls-4,.cls-5,.cls-6,.cls-7,.cls-8,.cls-9{stroke:#231f20;stroke-miterlimit:10;}.cls-1,.cls-2,.cls-3,.cls-4,.cls-5,.cls-6,.cls-7,.cls-8{stroke-width:0.1px;}.cls-2{fill:#0058a3;}.cls-3{fill:#f6bd17;}.cls-4{fill:#aa1e23;}.cls-5{fill:#1687c9;}.cls-6{fill:#febf38;}.cls-7{fill:#99ca3c;}.cls-8{fill:#dd1f26;}.cls-9{fill:none;}.cls-10,.cls-11,.cls-12,.cls-13,.cls-9{stroke-width:0.05px;}.cls-10{fill:#8dc63f;}.cls-11{fill:#d1d3d4;}.cls-12,.cls-15{fill:#b1b3b6;}.cls-13{fill:#9d9fa2;}.cls-14{fill:#434345;}.cls-14,.cls-15{stroke-width:0.5px;}</style></defs><circle class="cls-1" cx="155.15" cy="36.37" r="3.21"/><circle class="cls-2" cx="148.56" cy="29.97" r="3.13"/><circle class="cls-3" cx="155.19" cy="23.33" r="3.35"/><circle class="cls-4" cx="161.9" cy="29.86" r="3.2"/><polygon class="cls-5" points="146.81 28.18 147.82 28.18 148.43 29.25 149.11 28.18 150.01 28.18 149.07 29.75 150.3 31.63 149.21 31.63 148.43 30.25 147.72 31.59 146.81 31.59 147.83 29.71 146.81 28.18"/><polygon class="cls-6" points="153.73 21.79 154.76 23.31 154.76 24.87 155.63 24.87 155.63 23.33 156.65 21.79 155.7 21.79 155.19 22.6 154.68 21.79 153.73 21.79"/><path class="cls-7" d="M160.85,82.64h-1.09L158.49,86h.91l.4-.91h1l.4.91h.77ZM160,84.32l.22-.78h.09l.24.78Z" transform="translate(-5.23 -48.29)"/><path class="cls-8" d="M167.68,78.15a.79.79,0,0,0,.78-.83c0-.82-1.4-.75-1.4-.75h-1.15v3.17h1.8s.82,0,.82-.82S167.68,78.15,167.68,78.15Zm-.32,1h-.8v-.66h.85s.23,0,.23.33A.29.29,0,0,1,167.36,79.15Zm-.06-1.38h-.74V77.1h.74a.29.29,0,0,1,.34.33C167.64,77.82,167.3,77.77,167.3,77.77Z" transform="translate(-5.23 -48.29)"/><ellipse class="cls-9" cx="126.16" cy="38.45" rx="4.01" ry="3.91"/><path class="cls-10" d="M129.62,83.86a5.46,5.46,0,0,0-1,0h0a7.71,7.71,0,0,1,2,1A11,11,0,0,0,128.16,89h0a12.43,12.43,0,0,1,3.3-3.61,5.13,5.13,0,0,1,1.5,1.27,6.78,6.78,0,0,1,1.46,2.55h0a6.47,6.47,0,0,0-2.35-4.36A5.69,5.69,0,0,1,134,83.78h0a3.23,3.23,0,0,0-.73,0" transform="translate(-5.23 -48.29)"/><path class="cls-10" d="M129.62,83.86a3,3,0,0,1,1.82.68,3.78,3.78,0,0,1,1.86-.76" transform="translate(-5.23 -48.29)"/><path class="cls-11" d="M128.61,83.92a3.71,3.71,0,0,0-1.23,2.82,3.89,3.89,0,0,0,.78,2.32,11.28,11.28,0,0,1,2.47-4.13A7.88,7.88,0,0,0,128.61,83.92Z" transform="translate(-5.23 -48.29)"/><path class="cls-11" d="M131.47,85.45a12.41,12.41,0,0,0-3.31,3.61,4.05,4.05,0,0,0,3.31,1.59,4.1,4.1,0,0,0,3-1.38A6.88,6.88,0,0,0,133,86.72,5.31,5.31,0,0,0,131.47,85.45Z" transform="translate(-5.23 -48.29)"/><path class="cls-11" d="M134,83.81a5.74,5.74,0,0,0-1.94,1.1,6.47,6.47,0,0,1,2.35,4.36,3.78,3.78,0,0,0,.95-2.68A3.64,3.64,0,0,0,134,83.81Z" transform="translate(-5.23 -48.29)"/><path class="cls-11" d="M131.43,84.58a3.78,3.78,0,0,1,2.6-.77,3.83,3.83,0,0,0-2.65-1,4.15,4.15,0,0,0-2.77,1.09A3.88,3.88,0,0,1,131.43,84.58Z" transform="translate(-5.23 -48.29)"/><rect class="cls-12" x="132.08" y="36.75" width="5.23" height="3.38" rx="1.69"/><rect class="cls-12" x="115.06" y="36.8" width="5.23" height="3.38" rx="1.69"/><polygon class="cls-13" points="118.17 37.86 118.17 39.13 116.74 38.5 118.17 37.86"/><polygon class="cls-13" points="134.34 39.02 134.34 37.74 135.76 38.38 134.34 39.02"/><circle class="cls-14" cx="97.36" cy="30.36" r="6.78"/><path class="cls-15" d="M96,76.91s4.52.68,4.52-4.71a7.17,7.17,0,0,1,3.52-.13s.63,4.82,5.07,4.82a6.51,6.51,0,0,1,0,3.63s-4.83-1-4.83,4.68a6.1,6.1,0,0,1-1.71.23,9.28,9.28,0,0,1-2.26-.39s1-4.69-4.37-4.69a13.77,13.77,0,0,1-.22-2A3.36,3.36,0,0,1,96,76.91Z" transform="translate(-5.23 -48.29)"/><path class="cls-15" d="M5.48,63.39l.09,10.39L11.3,87.3s1.18,3.83,6.83,3.83,21.09,0,21.09,0,2.52.17,4.52-2.79S49.13,76,49.13,76a63.24,63.24,0,0,0,.48-9.26c-.18-4.39-1.48-8.48-5.7-8.74S11.7,58,11.7,58,6.43,58.35,5.48,63.39Z" transform="translate(-5.23 -48.29)"/><path class="cls-15" d="M217.39,101.7l.18,9.34s.47,4.09,4.3,4.18,24.22-.39,24.22-.39,4.26-.26,4.34-4S247.35,55,246.74,53.22s-.94-4.52-4.22-4.63-16.22,0-16.22,0-4.34.54-4.26,4,2.55,30.15,1.83,32.76S217.63,99.33,217.39,101.7Z" transform="translate(-5.23 -48.29)"/></svg>