<?xml version="1.0" encoding="UTF-8" standalone="no"?>
<svg
   xmlns:dc="http://purl.org/dc/elements/1.1/"
   xmlns:cc="http://creativecommons.org/ns#"
   xmlns:rdf="http://www.w3.org/1999/02/22-rdf-syntax-ns#"
   xmlns:svg="http://www.w3.org/2000/svg"
   xmlns="http://www.w3.org/2000/svg"
   version="1.1"
   viewBox="0 0 261.11 153.14"
   data-name="360GHDrum"
   id="_360GHDrum">
  <metadata
     id="metadata1005">
    <rdf:RDF>
      <cc:Work
         rdf:about="">
        <dc:format>image/svg+xml</dc:format>
        <dc:type
           rdf:resource="http://purl.org/dc/dcmitype/StillImage" />
      </cc:Work>
    </rdf:RDF>
  </metadata>
  <defs
     id="defs932">
    <style
       id="style930">.cls-1{fill:#333132;}.cls-1,.cls-2,.cls-3,.cls-4,.cls-5,.cls-6,.cls-7,.cls-8,.cls-9{stroke:#000;}.cls-1,.cls-10,.cls-11,.cls-12,.cls-13,.cls-14,.cls-15,.cls-16,.cls-17,.cls-18,.cls-19,.cls-2,.cls-20,.cls-21,.cls-22,.cls-23,.cls-3,.cls-4,.cls-5,.cls-6,.cls-7,.cls-8,.cls-9{stroke-miterlimit:10;}.cls-1,.cls-8,.cls-9{stroke-width:0.75px;}.cls-2{fill:#393839;}.cls-10,.cls-11,.cls-12,.cls-2,.cls-3,.cls-4,.cls-5,.cls-6,.cls-7{stroke-width:0.25px;}.cls-3{fill:#565759;}.cls-4{fill:#302e2f;}.cls-5{fill:#cc493a;}.cls-6{fill:#496fb6;}.cls-7{fill:#46a07c;}.cls-8{fill:#db6f4b;}.cls-9{fill:#ffe17f;}.cls-10{fill:#2d2a2b;}.cls-10,.cls-11,.cls-12,.cls-13,.cls-14,.cls-15,.cls-16,.cls-17,.cls-18,.cls-19,.cls-20,.cls-21,.cls-22,.cls-23{stroke:#231f20;}.cls-11{fill:#464547;}.cls-12{fill:#86888a;}.cls-13{fill:#6ca63c;}.cls-13,.cls-14,.cls-15,.cls-16,.cls-17,.cls-18,.cls-19,.cls-20{stroke-width:0.1px;}.cls-14{fill:#0058a3;}.cls-15{fill:#f6bd17;}.cls-16{fill:#aa1e23;}.cls-17{fill:#1687c9;}.cls-18{fill:#febf38;}.cls-19{fill:#99ca3c;}.cls-20{fill:#dd1f26;}.cls-21{fill:none;}.cls-21,.cls-22,.cls-23{stroke-width:0.15px;}.cls-22{fill:#8dc63f;}.cls-23{fill:#d1d3d4;}</style>
  </defs>
  <g
     id="gb">
    <path
       style="fill:#565759;stroke:#000000;stroke-width:0.25px;stroke-miterlimit:10"
       class="cls-3"
       d="m 35.98,73.78 c 0,0 -23.15,10.1 -21,35.11 1.86,20.51 23,28.12 31.38,27.5 7.3,-0.54 20.24,-1.91 29.21,-20.26 A 31,31 0 0 0 75.64,88.6 31.72,31.72 0 0 0 66.71,77.51 C 58.16,71.14 43.25,70.37 35.98,73.78 Z"
       id="path946" />
    <path
       style="fill:#cc493a;stroke:#000000;stroke-width:0.25px;stroke-miterlimit:10"
       class="cls-5"
       d="M 78.8,86.69 A 34.73,34.73 0 0 0 69.03,74.55 c -9.36,-7 -25.68,-7.82 -33.67,-4.08 0,0 -25.33,11 -23,38.43 2,22.44 25.16,30.77 34.34,30.09 8,-0.59 22.16,-2.08 32,-22.17 a 33.89,33.89 0 0 0 0.1,-30.13 z m -3.23,29.55 c -9,18.35 -21.91,19.71 -29.21,20.25 -8.39,0.63 -29.52,-7 -31.38,-27.49 -2.18,-25 21,-35.11 21,-35.11 7.3,-3.42 22.21,-2.64 30.76,3.73 a 31.78,31.78 0 0 1 8.9,11.12 31,31 0 0 1 -0.07,27.5 z"
       id="path948" />
    <circle
       style="fill:#aa1e23;stroke:#231f20;stroke-width:0.1px;stroke-miterlimit:10"
       class="cls-16"
       cx="151.06"
       cy="24.6"
       r="2.05"
       id="circle978" />
    <path
       style="fill:#dd1f26;stroke:#231f20;stroke-width:0.1px;stroke-miterlimit:10"
       class="cls-20"
       d="m 151.42,24.6 a 0.51,0.51 0 0 0 0.5,-0.53 c 0,-0.52 -0.89,-0.48 -0.89,-0.48 h -0.74 v 2 h 1.16 a 0.54,0.54 0 0 0 0.52,-0.53 c 0.01,-0.46 -0.55,-0.46 -0.55,-0.46 z m -0.2,0.64 h -0.52 v -0.42 h 0.55 c 0,0 0.15,0 0.15,0.21 a 0.19,0.19 0 0 1 -0.18,0.21 z m 0,-0.88 h -0.48 v -0.43 h 0.48 a 0.19,0.19 0 0 1 0.22,0.21 0.19,0.19 0 0 1 -0.26,0.22 z"
       id="path986" />
  </g>
</svg>
