<?xml version="1.0" encoding="UTF-8" standalone="no"?>
<svg
   xmlns:dc="http://purl.org/dc/elements/1.1/"
   xmlns:cc="http://creativecommons.org/ns#"
   xmlns:rdf="http://www.w3.org/1999/02/22-rdf-syntax-ns#"
   xmlns:svg="http://www.w3.org/2000/svg"
   xmlns="http://www.w3.org/2000/svg"
   version="1.1"
   viewBox="0 0 261.89 131.21"
   data-name="360ArcadeStick"
   id="_360ArcadeStick">
  <metadata
     id="metadata75">
    <rdf:RDF>
      <cc:Work
         rdf:about="">
        <dc:format>image/svg+xml</dc:format>
        <dc:type
           rdf:resource="http://purl.org/dc/dcmitype/StillImage" />
      </cc:Work>
    </rdf:RDF>
  </metadata>
  <defs
     id="defs4">
    <style
       id="style2">.cls-1{fill:#333132;}.cls-1,.cls-10,.cls-11,.cls-12,.cls-13,.cls-14,.cls-15,.cls-16,.cls-17,.cls-18,.cls-19,.cls-2,.cls-7,.cls-8,.cls-9{stroke:#231f20;stroke-miterlimit:10;}.cls-1,.cls-2{stroke-width:0.25px;}.cls-2,.cls-7{fill:#9d9fa2;}.cls-3{font-size:4px;fill:#231f20;font-family:MyriadPro-Regular, Myriad Pro;}.cls-4{letter-spacing:0.01em;}.cls-5{letter-spacing:-0.09em;}.cls-6,.cls-8{fill:#4f4f51;}.cls-12,.cls-13,.cls-14,.cls-15,.cls-16,.cls-17,.cls-18,.cls-19,.cls-7{stroke-width:0.5px;}.cls-10,.cls-11,.cls-8,.cls-9{stroke-width:0.05px;}.cls-9{fill:none;}.cls-10{fill:#8dc63f;}.cls-11{fill:#d1d3d4;}.cls-12{fill:#0058a3;}.cls-13{fill:#1687c9;}.cls-14{fill:#f6bd17;}.cls-15{fill:#febf38;}.cls-16{fill:#6ca63c;}.cls-17{fill:#99ca3c;}.cls-18{fill:#aa1e23;}.cls-19{fill:#dd1f26;}</style>
  </defs>
  <g
     id="gb">
    <circle
       class="cls-18"
       cx="153.91"
       cy="56.52"
       r="8.45"
       id="circle68" />
    <path
       class="cls-19"
       d="M158.34,79.52a2.12,2.12,0,0,0,2.07-2.21c0-2.16-3.69-2-3.69-2h-3.05V83.7h4.77s2.16-.14,2.16-2.17S158.34,79.52,158.34,79.52Zm-.84,2.62h-2.12V80.41h2.26s.6,0,.6.87A.77.77,0,0,1,157.5,82.14Zm-.15-3.63h-2V76.74h2a.78.78,0,0,1,.89.88A.79.79,0,0,1,157.35,78.51Z"
       transform="translate(-2.97 -23.01)"
       id="path70" />
  </g>
</svg>
