<?xml version="1.0" encoding="UTF-8" standalone="no"?>
<svg
   xmlns:dc="http://purl.org/dc/elements/1.1/"
   xmlns:cc="http://creativecommons.org/ns#"
   xmlns:rdf="http://www.w3.org/1999/02/22-rdf-syntax-ns#"
   xmlns:svg="http://www.w3.org/2000/svg"
   xmlns="http://www.w3.org/2000/svg"
   version="1.1"
   viewBox="0 0 261.89 131.21"
   data-name="360ArcadeStick"
   id="_360ArcadeStick">
  <metadata
     id="metadata75">
    <rdf:RDF>
      <cc:Work
         rdf:about="">
        <dc:format>image/svg+xml</dc:format>
        <dc:type
           rdf:resource="http://purl.org/dc/dcmitype/StillImage" />
      </cc:Work>
    </rdf:RDF>
  </metadata>
  <defs
     id="defs4">
    <style
       id="style2">.cls-1{fill:#333132;}.cls-1,.cls-10,.cls-11,.cls-12,.cls-13,.cls-14,.cls-15,.cls-16,.cls-17,.cls-18,.cls-19,.cls-2,.cls-7,.cls-8,.cls-9{stroke:#231f20;stroke-miterlimit:10;}.cls-1,.cls-2{stroke-width:0.25px;}.cls-2,.cls-7{fill:#9d9fa2;}.cls-3{font-size:4px;fill:#231f20;font-family:MyriadPro-Regular, Myriad Pro;}.cls-4{letter-spacing:0.01em;}.cls-5{letter-spacing:-0.09em;}.cls-6,.cls-8{fill:#4f4f51;}.cls-12,.cls-13,.cls-14,.cls-15,.cls-16,.cls-17,.cls-18,.cls-19,.cls-7{stroke-width:0.5px;}.cls-10,.cls-11,.cls-8,.cls-9{stroke-width:0.05px;}.cls-9{fill:none;}.cls-10{fill:#8dc63f;}.cls-11{fill:#d1d3d4;}.cls-12{fill:#0058a3;}.cls-13{fill:#1687c9;}.cls-14{fill:#f6bd17;}.cls-15{fill:#febf38;}.cls-16{fill:#6ca63c;}.cls-17{fill:#99ca3c;}.cls-18{fill:#aa1e23;}.cls-19{fill:#dd1f26;}</style>
  </defs>
  <g
     id="ghome">
    <ellipse
       class="cls-9"
       cx="104.35"
       cy="16.82"
       rx="2.44"
       ry="2.38"
       id="ellipse42" />
    <path
       class="cls-10"
       d="M106.24,38.07a2.89,2.89,0,0,0-.61,0h0a4.73,4.73,0,0,1,1.23.61,6.8,6.8,0,0,0-1.51,2.51h0a7.51,7.51,0,0,1,2-2.2,3.3,3.3,0,0,1,.92.78,4.18,4.18,0,0,1,.89,1.55h0a3.9,3.9,0,0,0-1.43-2.65,3.34,3.34,0,0,1,1.18-.67h0a2.16,2.16,0,0,0-.44,0"
       transform="translate(-2.97 -23.01)"
       id="path44" />
    <path
       class="cls-10"
       d="M106.24,38.07a1.88,1.88,0,0,1,1.11.41,2.3,2.3,0,0,1,1.14-.46"
       transform="translate(-2.97 -23.01)"
       id="path46" />
    <path
       class="cls-11"
       d="M105.63,38.11a2.24,2.24,0,0,0-.75,1.71,2.38,2.38,0,0,0,.48,1.42,6.83,6.83,0,0,1,1.5-2.52A4.73,4.73,0,0,0,105.63,38.11Z"
       transform="translate(-2.97 -23.01)"
       id="path48" />
    <path
       class="cls-11"
       d="M107.37,39a7.51,7.51,0,0,0-2,2.2,2.48,2.48,0,0,0,3.82.12,4.26,4.26,0,0,0-.89-1.55A3.07,3.07,0,0,0,107.37,39Z"
       transform="translate(-2.97 -23.01)"
       id="path50" />
    <path
       class="cls-11"
       d="M108.93,38a3.55,3.55,0,0,0-1.18.67,3.94,3.94,0,0,1,1.43,2.65,2.26,2.26,0,0,0,.58-1.63A2.21,2.21,0,0,0,108.93,38Z"
       transform="translate(-2.97 -23.01)"
       id="path52" />
    <path
       class="cls-11"
       d="M107.35,38.51a2.29,2.29,0,0,1,1.58-.47,2.32,2.32,0,0,0-1.61-.6,2.52,2.52,0,0,0-1.69.67A2.35,2.35,0,0,1,107.35,38.51Z"
       transform="translate(-2.97 -23.01)"
       id="path54" />
  </g>
</svg>
