<?xml version="1.0" encoding="UTF-8" standalone="no"?>
<svg
   xmlns:dc="http://purl.org/dc/elements/1.1/"
   xmlns:cc="http://creativecommons.org/ns#"
   xmlns:rdf="http://www.w3.org/1999/02/22-rdf-syntax-ns#"
   xmlns:svg="http://www.w3.org/2000/svg"
   xmlns="http://www.w3.org/2000/svg"
   version="1.1"
   viewBox="0 0 261.11 153.14"
   id="PS3DrumGH">
  <metadata
     id="metadata74">
    <rdf:RDF>
      <cc:Work
         rdf:about="">
        <dc:format>image/svg+xml</dc:format>
        <dc:type
           rdf:resource="http://purl.org/dc/dcmitype/StillImage" />
      </cc:Work>
    </rdf:RDF>
  </metadata>
  <defs
     id="defs4">
    <style
       id="style2">.cls-1{fill:#333132;}.cls-1,.cls-10,.cls-2,.cls-3,.cls-4,.cls-5,.cls-6,.cls-7,.cls-8,.cls-9{stroke:#000;}.cls-1,.cls-10,.cls-11,.cls-12,.cls-13,.cls-14,.cls-15,.cls-16,.cls-17,.cls-18,.cls-2,.cls-3,.cls-4,.cls-5,.cls-6,.cls-7,.cls-8,.cls-9{stroke-miterlimit:10;}.cls-1,.cls-10,.cls-9{stroke-width:0.75px;}.cls-2{fill:#393839;}.cls-11,.cls-12,.cls-13,.cls-14,.cls-15,.cls-16,.cls-17,.cls-2,.cls-3,.cls-4,.cls-5,.cls-6,.cls-7,.cls-8{stroke-width:0.25px;}.cls-3{fill:#97999c;}.cls-4{fill:#302e2f;}.cls-5{fill:#565759;}.cls-6{fill:#cc493a;}.cls-7{fill:#496fb6;}.cls-8{fill:#46a07c;}.cls-9{fill:#db6f4b;}.cls-10{fill:#ffe17f;}.cls-11,.cls-12,.cls-13,.cls-14{fill:none;}.cls-11{stroke:#717a8d;}.cls-12{stroke:#9f5553;}.cls-13{stroke:#2ea081;}.cls-14{stroke:#b09fc1;}.cls-15{fill:#2d2a2b;}.cls-15,.cls-16,.cls-17,.cls-18{stroke:#231f20;}.cls-16,.cls-18{fill:#464547;}.cls-17{fill:#86888a;}.cls-18{stroke-width:0.1px;}</style>
  </defs>
  <g
     id="gb">
    <path
       class="cls-5"
       d="M38.13,78.82s-23.15,10.09-21,35.1c1.86,20.51,23,28.12,31.38,27.5,7.29-.54,20.24-1.9,29.21-20.26a31,31,0,0,0,.07-27.53,31.81,31.81,0,0,0-8.93-11.09C60.34,76.17,45.43,75.4,38.13,78.82Z"
       transform="translate(-2.18 -5.04)"
       id="path20" />
    <path
       class="cls-6"
       d="M81,91.72A34.52,34.52,0,0,0,71.2,79.59c-9.35-7-25.67-7.82-33.66-4.08,0,0-25.33,11-22.95,38.42,2,22.44,25.16,30.77,34.34,30.09,8-.59,22.16-2.08,32-22.17A33.89,33.89,0,0,0,81,91.72Zm-3.23,29.59c-9,18.35-21.92,19.72-29.21,20.26-8.39.62-29.52-7-31.38-27.5C15,89.06,38.13,79,38.13,79c7.3-3.41,22.21-2.64,30.76,3.73a31.81,31.81,0,0,1,8.93,11.09A31,31,0,0,1,77.75,121.31Z"
       transform="translate(-2.18 -5.04)"
       id="path22" />
    <path
       class="cls-3"
       d="M152.81,31.26a1.84,1.84,0,0,0,1.92-1.91,1.88,1.88,0,0,0-1.94-1.94,1.75,1.75,0,0,0-2,2C150.81,31.26,152.81,31.26,152.81,31.26Z"
       transform="translate(-2.18 -5.04)"
       id="path42" />
    <path
       class="cls-12"
       d="M151.64,29.18a1.23,1.23,0,0,0,1.29,1.29c.26,0,1-.14,1-1.29a1,1,0,0,0-1.16-1.06C152.75,28.12,151.64,28.17,151.64,29.18Z"
       transform="translate(-2.18 -5.04)"
       id="path52" />
  </g>
</svg>
