<?xml version="1.0" encoding="UTF-8" standalone="no"?>
<svg
   xmlns:dc="http://purl.org/dc/elements/1.1/"
   xmlns:cc="http://creativecommons.org/ns#"
   xmlns:rdf="http://www.w3.org/1999/02/22-rdf-syntax-ns#"
   xmlns:svg="http://www.w3.org/2000/svg"
   xmlns="http://www.w3.org/2000/svg"
   version="1.1"
   viewBox="0 0 261.11 153.14"
   id="PS3DrumGH">
  <metadata
     id="metadata74">
    <rdf:RDF>
      <cc:Work
         rdf:about="">
        <dc:format>image/svg+xml</dc:format>
        <dc:type
           rdf:resource="http://purl.org/dc/dcmitype/StillImage" />
      </cc:Work>
    </rdf:RDF>
  </metadata>
  <defs
     id="defs4">
    <style
       id="style2">.cls-1{fill:#333132;}.cls-1,.cls-10,.cls-2,.cls-3,.cls-4,.cls-5,.cls-6,.cls-7,.cls-8,.cls-9{stroke:#000;}.cls-1,.cls-10,.cls-11,.cls-12,.cls-13,.cls-14,.cls-15,.cls-16,.cls-17,.cls-18,.cls-2,.cls-3,.cls-4,.cls-5,.cls-6,.cls-7,.cls-8,.cls-9{stroke-miterlimit:10;}.cls-1,.cls-10,.cls-9{stroke-width:0.75px;}.cls-2{fill:#393839;}.cls-11,.cls-12,.cls-13,.cls-14,.cls-15,.cls-16,.cls-17,.cls-2,.cls-3,.cls-4,.cls-5,.cls-6,.cls-7,.cls-8{stroke-width:0.25px;}.cls-3{fill:#97999c;}.cls-4{fill:#302e2f;}.cls-5{fill:#565759;}.cls-6{fill:#cc493a;}.cls-7{fill:#496fb6;}.cls-8{fill:#46a07c;}.cls-9{fill:#db6f4b;}.cls-10{fill:#ffe17f;}.cls-11,.cls-12,.cls-13,.cls-14{fill:none;}.cls-11{stroke:#717a8d;}.cls-12{stroke:#9f5553;}.cls-13{stroke:#2ea081;}.cls-14{stroke:#b09fc1;}.cls-15{fill:#2d2a2b;}.cls-15,.cls-16,.cls-17,.cls-18{stroke:#231f20;}.cls-16,.cls-18{fill:#464547;}.cls-17{fill:#86888a;}.cls-18{stroke-width:0.1px;}</style>
  </defs>
  <g
     id="gRB">
    <g
       id="Layer_14"
       data-name="Layer 14">
      <path
         class="cls-15"
         d="M86.31,126.47a22.4,22.4,0,0,0-2.65,6.16c-.47,2.65-.63,10.06-.63,10.06A19.22,19.22,0,0,0,84.67,150c1.72,3.9,7.49,2.81,7.49,2.81s14.47-.19,25.89.78,8.79.43,27.82,3.08a7,7,0,0,0,2.51-.06s8.89-2.51,8.43-17.78c0-11.64-8.25-12.38-8.25-12.38s-7.78.74-26.44.74a237.12,237.12,0,0,1-29.94-2.16S88.28,124.09,86.31,126.47Z"
         transform="translate(-2.18 -5.04)"
         id="path58" />
      <path
         class="cls-16"
         d="M99.14,127.51a54.94,54.94,0,0,1-7.2-.77c-2.1-.52-3-.29-4.09,2.11a31.13,31.13,0,0,0-1.64,4.33l-.58,10s.82,4.74,1.75,6.49.94,2.05,6,1.81,9-.23,9-.23.88.47.88-.88,0-3.27,0-3.27-.08-.76,1.08-.76,3.68.11,3.68.11.5.09.5-.81c0-1.14.43-12,.43-12s.21-.5-.49-.5-4.36-.15-4.36-.15l.09-4.71s.11-.43-.65-.46S99.14,127.51,99.14,127.51Z"
         transform="translate(-2.18 -5.04)"
         id="path60" />
      <path
         class="cls-17"
         d="M104.78,128.18v4.56s2.9.15,3.89.15.76,1.05.76,1.05L109,145.87a1,1,0,0,1-1.08,1h-3.27s-.71-.14-.71,1V151s-.14.59,1.38.59,17.49.9,25.21,2.22S157.13,158,157.13,158a1,1,0,0,0,.93-.18,55.62,55.62,0,0,1,9.33-3.86c3.69-1.08,8.36-2.25,8.36-2.25s.71,0,1-.91,2.37-7.07,2.37-8.19-1.38-8.3-1.38-8.3-.06-.59-1.11-.82a39.79,39.79,0,0,1-8.63-2.92C164.55,128.82,160,126,160,126a6.13,6.13,0,0,0-1.58.15c-1.46.2-24.33,2.1-34.47,2.1S104.78,128.18,104.78,128.18Z"
         transform="translate(-2.18 -5.04)"
         id="path62" />
    </g>
  </g>
</svg>
