<svg xmlns="http://www.w3.org/2000/svg" viewBox="0 0 261.56 137.8"><defs><style>.cls-1{fill:#0f7391;}.cls-1,.cls-2,.cls-3,.cls-5,.cls-7,.cls-8{stroke:#231f20;}.cls-1,.cls-2,.cls-3,.cls-5,.cls-6,.cls-7,.cls-8{stroke-miterlimit:10;}.cls-2{fill:#393839;}.cls-3{fill:#beccd3;}.cls-4{font-size:8.9px;}.cls-4,.cls-9{fill:#fff;font-family:MyriadPro-Regular, Myriad Pro;}.cls-5{fill:#cfd1d2;}.cls-6{fill:#8c8e90;stroke:#edefa0;}.cls-7{fill:none;}.cls-8{fill:#f5f9e6;}.cls-9{font-size:9.97px;}.cls-10{letter-spacing:0em;}.cls-11{letter-spacing:0.02em;}.cls-12{letter-spacing:-0.03em;}.cls-13{letter-spacing:-0.02em;}.cls-14{letter-spacing:-0.05em;}</style></defs><g id="Arduinos"><g id="ProMicro"><polygon class="cls-1" points="0.5 1.02 0.5 137.3 255.33 137.3 254.55 0.5 0.5 1.02"/><polygon class="cls-2" points="71.89 67.38 108.55 30.73 147.28 65.47 110.28 103.51 71.89 67.38"/><circle class="cls-3" cx="12.7" cy="124.7" r="7.82"/><circle class="cls-3" cx="33.03" cy="125.14" r="5.56"/><circle class="cls-3" cx="54" cy="125.14" r="5.56"/><circle class="cls-3" cx="73.02" cy="125.22" r="5.56"/><circle class="cls-3" cx="92.13" cy="125.22" r="5.56"/><circle class="cls-3" cx="110.15" cy="125.35" r="5.56"/><circle class="cls-3" cx="130.13" cy="125.35" r="5.56"/><circle class="cls-3" cx="149.02" cy="125.44" r="5.56"/><circle class="cls-3" cx="168.95" cy="125.44" r="5.56"/><circle class="cls-3" cx="186.93" cy="125.53" r="5.56"/><circle class="cls-3" cx="205.82" cy="125.44" r="5.56"/><circle class="cls-3" cx="224.76" cy="125.61" r="5.56"/><text class="cls-4" transform="translate(160.85 26.94)">GND</text><path class="cls-5" d="M30.29,60.21l.48,38.07A1.77,1.77,0,0,0,32.54,100H55.85a1.77,1.77,0,0,0,1.77-1.78l-.24-38.51A1.76,1.76,0,0,0,55.58,58L32,58.43A1.76,1.76,0,0,0,30.29,60.21Z" transform="translate(-2.15 -11.06)"/><path class="cls-6" d="M32.88,62.89V92.2s-.65,3.59,3.58,3.59h14.4s3.87,1,3.87-3.88v-29a2.28,2.28,0,0,0-2.33-2.33h-17A2.17,2.17,0,0,0,32.88,62.89Z" transform="translate(-2.15 -11.06)"/><path class="cls-3" d="M263.22,48.21v51.94H224.3V91.81H233s.87-4.77-4.78-4.77V62.46s3.56.17,3.56-6.26h-6.94v-8Z" transform="translate(-2.15 -11.06)"/><path class="cls-3" d="M221.79,53.38V97.81h2.6v-6H233s.09-4.77-4.78-4.77V62.46s3.56-.05,3.56-6.26h-6.94V53.38Z" transform="translate(-2.15 -11.06)"/><path class="cls-7" d="M236.45,15.2V28.49s-.35,1.87,1.87,1.87h11a1.93,1.93,0,0,0,2.07-2.07V16.56a2.07,2.07,0,0,0-2.28-2.29H237.69S236.45,14.4,236.45,15.2Z" transform="translate(-2.15 -11.06)"/><rect class="cls-8" x="236.48" y="5.67" width="10.77" height="4.56"/><rect class="cls-8" x="236.44" y="11.97" width="10.77" height="4.56"/><circle class="cls-3" cx="12.86" cy="10.79" r="7.82"/><circle class="cls-3" cx="33.18" cy="11.23" r="5.56"/><circle class="cls-3" cx="54.15" cy="11.23" r="5.56"/><circle class="cls-3" cx="73.18" cy="11.31" r="5.56"/><circle class="cls-3" cx="92.28" cy="11.31" r="5.56"/><circle class="cls-3" cx="110.31" cy="11.44" r="5.56"/><circle class="cls-3" cx="130.28" cy="11.44" r="5.56"/><circle class="cls-3" cx="149.17" cy="11.53" r="5.56"/><circle class="cls-3" cx="169.11" cy="11.53" r="5.56"/><circle class="cls-3" cx="187.08" cy="11.62" r="5.56"/><circle class="cls-3" cx="205.98" cy="11.53" r="5.56"/><circle class="cls-3" cx="224.91" cy="11.71" r="5.56"/><text class="cls-9" transform="translate(237.72 27.01)">J1</text><text class="cls-4" transform="translate(10.32 27.26)">9</text><text class="cls-4" transform="translate(30.44 27.52)">8</text><text class="cls-4" transform="translate(51.82 27.26)">7</text><text class="cls-4" transform="translate(71.08 27.17)">6</text><text class="cls-4" transform="translate(90.18 27.17)">5</text><text class="cls-4" transform="translate(107.91 27.26)">4</text><text class="cls-4" transform="translate(128.72 27.22)">3</text><text class="cls-4" transform="translate(147.37 27.26)">2</text><text class="cls-4" transform="translate(179.03 26.96)">GND</text><text class="cls-4" transform="translate(199.4 26.82)"><tspan class="cls-10">R</tspan><tspan x="4.83" y="0">XI</tspan></text><text class="cls-4" transform="translate(218.69 27)"><tspan class="cls-11">T</tspan><tspan class="cls-12" x="4.62" y="0">X</tspan><tspan x="9.45" y="0">O</tspan></text><text class="cls-4" transform="translate(161.48 115.36)">V<tspan class="cls-13" x="4.97" y="0">C</tspan><tspan x="9.95" y="0">C</tspan></text><text class="cls-4" transform="translate(8.13 115.16)">10</text><text class="cls-4" transform="translate(28.25 115.42)">16</text><text class="cls-4" transform="translate(49.63 115.16)">14</text><text class="cls-4" transform="translate(68.54 115.94)">15</text><text class="cls-4" transform="translate(86.94 116.12)">A0</text><text class="cls-4" transform="translate(104.81 115.86)">A1</text><text class="cls-4" transform="translate(125.36 115.64)">A2</text><text class="cls-4" transform="translate(144.01 115.68)">A3</text><text class="cls-4" transform="translate(180.67 115.38)">RST</text><text class="cls-4" transform="translate(197.04 115.25)">GND</text><text class="cls-4" transform="translate(217.11 115.42)"><tspan class="cls-10">R</tspan><tspan class="cls-14" x="4.83" y="0">A</tspan><tspan x="9.81" y="0">W</tspan></text></g></g></svg>