<?xml version="1.0" encoding="UTF-8" standalone="no"?>
<svg
   xmlns:dc="http://purl.org/dc/elements/1.1/"
   xmlns:cc="http://creativecommons.org/ns#"
   xmlns:rdf="http://www.w3.org/1999/02/22-rdf-syntax-ns#"
   xmlns:svg="http://www.w3.org/2000/svg"
   xmlns="http://www.w3.org/2000/svg"
   xmlns:sodipodi="http://sodipodi.sourceforge.net/DTD/sodipodi-0.dtd"
   xmlns:inkscape="http://www.inkscape.org/namespaces/inkscape"
   id="Layer_17"
   data-name="Layer 17"
   viewBox="0 0 254.38 153.9"
   version="1.1"
   sodipodi:docname="NoController.svg"
   inkscape:version="0.92.5 (2060ec1f9f, 2020-04-08)">
  <metadata
     id="metadata101">
    <rdf:RDF>
      <cc:Work
         rdf:about="">
        <dc:format>image/svg+xml</dc:format>
        <dc:type
           rdf:resource="http://purl.org/dc/dcmitype/StillImage" />
      </cc:Work>
    </rdf:RDF>
  </metadata>
  <sodipodi:namedview
     pagecolor="#ffffff"
     bordercolor="#666666"
     borderopacity="1"
     objecttolerance="10"
     gridtolerance="10"
     guidetolerance="10"
     inkscape:pageopacity="0"
     inkscape:pageshadow="2"
     inkscape:window-width="2560"
     inkscape:window-height="1555"
     id="namedview99"
     showgrid="false"
     inkscape:zoom="5.2677096"
     inkscape:cx="116.17958"
     inkscape:cy="98.364686"
     inkscape:window-x="1080"
     inkscape:window-y="182"
     inkscape:window-maximized="0"
     inkscape:current-layer="Layer_17" />
  <defs
     id="defs4">
    <style
       id="style2">.cls-1{fill:#333132;}.cls-1,.cls-2,.cls-3,.cls-6,.cls-7{stroke:#000;}.cls-1,.cls-2,.cls-3,.cls-4,.cls-5,.cls-6,.cls-7,.cls-8{stroke-miterlimit:10;}.cls-1,.cls-2,.cls-3,.cls-4,.cls-6,.cls-7,.cls-8{stroke-width:0.25px;}.cls-2{fill:#858585;}.cls-3{fill:#474747;}.cls-4{fill:#757575;}.cls-4,.cls-8{stroke:#231f20;}.cls-5{fill:none;stroke:#e6e7e8;}.cls-6{fill:#97999c;}.cls-7{fill:#dbdbdb;}.cls-8{fill:#878787;}.cls-9{font-size:9.57px;}.cls-10,.cls-11,.cls-12,.cls-9{fill:#231f20;font-family:MyriadPro-Regular, Myriad Pro;}.cls-10{font-size:8.8px;}.cls-11{font-size:10.56px;}.cls-12{font-size:10.61px;}</style>
  </defs>
  <path
     class="cls-1"
     d="M33.09,55.13S23.52,93.74,22,126.43c-1.22,21.74,6.78,26.79,13.56,30.09s11,4,19.65-5S70.65,119,73.09,116.09s1.39-4.35,8.87-4.52,94.52,0,94.52,0,4.87-.61,6.52,2.86,11.39,27.48,17.48,35,11.74,11,17,8.69,15.66-3.39,17.74-21.74-8.34-70.65-10.95-81.3-6.79-25.91-11.31-30.52C205.52,16.52,190.74,10.35,162,9.39s-66.87,0-66.87,0S57,9.3,44.3,24.7c-1.73,2.26-3.3,3-5.13,8.6S33.09,55.13,33.09,55.13Z"
     transform="translate(-3.08 -5.12)"
     id="path6" />
  <path
     class="cls-2"
     d="M77.41,72.52v8.22s-.19,1.43,1.11,1.43H87a1.14,1.14,0,0,1,1.3,1.18v8.48s0,1,.85,1H97.5s1.43.27,1.43-1.56v-8s-.32-1.37,1.24-1.37h8.68s1.3.06,1.3-1.11V72.52a1.18,1.18,0,0,0-1.3-1.3h-8.61A1.09,1.09,0,0,1,99,70V62.15s.39-1.64-1.64-1.64H90.33s-1.61-.4-1.61,1.6V70.5a1.32,1.32,0,0,1-1.35,1.35H78.59S77.41,71.61,77.41,72.52Z"
     transform="translate(-3.08 -5.12)"
     id="path8" />
  <path
     class="cls-2"
     d="M56,35.49a14,14,0,0,0-.8,16.08c1.84,2.78,5,5.26,10.33,5.26,6.8,0,10.29-4.27,12-8a13.72,13.72,0,0,0-.08-12.1c-1.65-3.2-4.86-6.41-11-6.41A12.57,12.57,0,0,0,56,35.49Z"
     transform="translate(-3.08 -5.12)"
     id="path10" />
  <path
     class="cls-2"
     d="M147,67.61a14.27,14.27,0,0,0,0,13.28,12.19,12.19,0,0,0,11.51,6.89c7.06,0,10.54-4.38,12.22-8.2s1.11-7.94-.74-11.75c-1.1-2.16-5.81-7-10.88-7C152.32,60.86,148.81,64.24,147,67.61Z"
     transform="translate(-3.08 -5.12)"
     id="path12" />
  <rect
     class="cls-2"
     x="104.96"
     y="37.37"
     width="9.07"
     height="8.74"
     rx="1.63"
     id="rect14" />
  <circle
     class="cls-3"
     cx="109.49"
     cy="41.74"
     r="3.24"
     id="circle16" />
  <circle
     class="cls-2"
     cx="141.16"
     cy="41.62"
     r="4.49"
     id="circle18" />
  <path
     class="cls-3"
     d="M144.2,43.67l-3,2.48h1.14V49h4V46.15h1ZM145.43,48h-2.29V46.18h2.29Z"
     transform="translate(-3.08 -5.12)"
     id="path20" />
  <circle
     class="cls-2"
     cx="98.26"
     cy="25.53"
     r="4.65"
     id="circle22" />
  <rect
     class="cls-3"
     x="95.73"
     y="24.75"
     width="4.99"
     height="0.91"
     id="rect24" />
  <circle
     class="cls-2"
     cx="152.82"
     cy="25.65"
     r="4.65"
     id="circle26" />
  <polygon
     class="cls-3"
     points="150.21 25.62 152.31 25.62 152.31 27.55 153.23 27.55 153.23 25.62 155.23 25.62 155.23 24.84 153.25 24.84 153.25 22.77 152.29 22.77 152.29 24.81 150.21 24.81 150.21 25.62"
     id="polygon28" />
  <circle
     class="cls-4"
     cx="166.88"
     cy="41.62"
     r="7.79"
     id="circle30" />
  <polyline
     class="cls-5"
     points="165.05 38.41 167.03 41.34 169.01 38.41"
     id="polyline32" />
  <line
     class="cls-5"
     x1="167.03"
     y1="43.71"
     x2="167.03"
     y2="41.34"
     id="line34" />
  <circle
     class="cls-4"
     cx="184.37"
     cy="56.69"
     r="7.96"
     id="circle36" />
  <path
     class="cls-5"
     d="M186.42,58.6v4.91h2.06s1.11,0,1.11-1.41C189.59,61.05,188,61,188,61s1.58-.23,1.58-1.22-1.47-1.19-1.47-1.19Z"
     transform="translate(-3.08 -5.12)"
     id="path38" />
  <line
     class="cls-5"
     x1="183.35"
     y1="55.84"
     x2="184.93"
     y2="55.88"
     id="line40" />
  <circle
     class="cls-4"
     cx="201.4"
     cy="42.53"
     r="7.96"
     id="circle42" />
  <circle
     class="cls-4"
     cx="183.75"
     cy="27.55"
     r="7.96"
     id="circle44" />
  <polyline
     class="cls-5"
     points="199.59 44.51 201.62 39.55 203.9 44.51"
     id="polyline46" />
  <line
     class="cls-5"
     x1="200.34"
     y1="42.68"
     x2="203.06"
     y2="42.68"
     id="line48" />
  <polyline
     class="cls-5"
     points="182.17 24.14 184.05 26.69 186.02 24.14"
     id="polyline50" />
  <polyline
     class="cls-5"
     points="182.17 29.38 184.05 26.69 186.02 29.38"
     id="polyline52" />
  <path
     class="cls-6"
     d="M162,9.39,169.65,6s2.69-1.3,10.57,0c8.95,1.61,19.82,3.82,28.3,12.78a21.65,21.65,0,0,1,4.39,5.87,35.76,35.76,0,0,0-13.66-8.91C190.52,12.48,181.09,10,162,9.39Z"
     transform="translate(-3.08 -5.12)"
     id="path54" />
  <path
     class="cls-6"
     d="M95.08,9.26,87.47,5.82s-2.68-1.29-10.56,0c-9,1.61-19.83,3.83-28.3,12.79a21.69,21.69,0,0,0-4.4,5.87,35.84,35.84,0,0,1,13.66-8.92C66.61,12.35,76,9.91,95.08,9.26Z"
     transform="translate(-3.08 -5.12)"
     id="path56" />
  <path
     class="cls-7"
     d="M93.86,63.67,92.4,66a.06.06,0,0,0,0,.09h2.8a.06.06,0,0,0,0-.09L94,63.67A.06.06,0,0,0,93.86,63.67Z"
     transform="translate(-3.08 -5.12)"
     id="path58" />
  <path
     class="cls-7"
     d="M81.85,76.05l2.34,1.46a.06.06,0,0,0,.09-.05v-2.8a.06.06,0,0,0-.09,0L81.86,76A.06.06,0,0,0,81.85,76.05Z"
     transform="translate(-3.08 -5.12)"
     id="path60" />
  <path
     class="cls-7"
     d="M93.64,88.77l1.46-2.34a.06.06,0,0,0,0-.09H92.26a.06.06,0,0,0-.06.09l1.34,2.34A.06.06,0,0,0,93.64,88.77Z"
     transform="translate(-3.08 -5.12)"
     id="path62" />
  <path
     class="cls-7"
     d="M105.74,76.36l-2.33-1.45a.06.06,0,0,0-.09,0v2.79a.05.05,0,0,0,.08,0l2.34-1.34A.06.06,0,0,0,105.74,76.36Z"
     transform="translate(-3.08 -5.12)"
     id="path64" />
</svg>
