<svg id="Controllers" xmlns="http://www.w3.org/2000/svg" viewBox="0 0 252.57 105.54"><defs><style>.cls-1{fill:#060505;}.cls-1,.cls-12,.cls-13,.cls-14,.cls-15,.cls-16,.cls-2,.cls-3,.cls-4,.cls-5,.cls-6,.cls-7,.cls-9{stroke:#231f20;}.cls-1,.cls-10,.cls-11,.cls-12,.cls-13,.cls-14,.cls-15,.cls-16,.cls-17,.cls-2,.cls-3,.cls-4,.cls-5,.cls-6,.cls-7,.cls-8,.cls-9{stroke-miterlimit:10;}.cls-1,.cls-10,.cls-11,.cls-16,.cls-2,.cls-3,.cls-4,.cls-5,.cls-6,.cls-7,.cls-9{stroke-width:0.5px;}.cls-11,.cls-17,.cls-2{fill:#bcbec0;}.cls-3{fill:#6ca63c;}.cls-4{fill:#0058a3;}.cls-5{fill:#f6bd17;}.cls-6{fill:#aa1e23;}.cls-7{fill:none;}.cls-8{fill:#8dc63f;stroke-width:0.05px;}.cls-10,.cls-11,.cls-17,.cls-8{stroke:#000;}.cls-9{fill:#d1d3d4;}.cls-10{fill:#67686b;}.cls-12{fill:#1687c9;}.cls-12,.cls-13,.cls-14,.cls-15{stroke-width:0.25px;}.cls-13{fill:#febf38;}.cls-14{fill:#99ca3c;}.cls-15{fill:#dd1f26;}.cls-16{fill:#636466;}.cls-17{stroke-width:0.75px;}.cls-18{font-size:3.41px;fill:#231f20;font-family:MyriadPro-Regular, Myriad Pro;}.cls-19{letter-spacing:-0.09em;}.cls-20{letter-spacing:0.01em;}</style></defs><g id="X360Ctrl"><g id="Buttons"><circle class="cls-1" cx="93.68" cy="88.05" r="17.24"/><circle class="cls-2" cx="65.75" cy="54.43" r="13.42"/><circle class="cls-2" cx="154.88" cy="86.59" r="13.42"/><circle class="cls-3" cx="186.73" cy="69.29" r="7.36"/><circle class="cls-4" cx="170.89" cy="55.09" r="7.36"/><circle class="cls-5" cx="187.09" cy="39.87" r="7.36"/><circle class="cls-6" cx="202.76" cy="54.43" r="7.36"/><ellipse class="cls-7" cx="126.45" cy="55.86" rx="10.71" ry="10.44"/><path class="cls-2" d="M106.27,58.33s0,4,5.75,4,5.41-4,5.41-4,.87-4.5-5.41-4.5S106.27,58.33,106.27,58.33Z" transform="translate(-7.37 -2.26)"/><path class="cls-2" d="M150.76,58.33s0,4,5.75,4,5.41-4,5.41-4,.87-4.5-5.41-4.5S150.76,58.33,150.76,58.33Z" transform="translate(-7.37 -2.26)"/><path class="cls-8" d="M129.11,50.44a14.06,14.06,0,0,0-2.7,0v0s4,1.38,5.42,2.7a29.56,29.56,0,0,0-6.61,11h0c2.08-4.67,8.82-9.66,8.82-9.66s1.2.43,4,3.4A18.22,18.22,0,0,1,142,64.79h0c-.28-7-6.28-11.65-6.28-11.65a15.4,15.4,0,0,1,5.2-2.94v0a9.34,9.34,0,0,0-2,0" transform="translate(-7.37 -2.26)"/><path class="cls-8" d="M129.11,50.44A8,8,0,0,1,134,52.25a9.86,9.86,0,0,1,5-2" transform="translate(-7.37 -2.26)"/><path class="cls-9" d="M126.4,50.6a9.88,9.88,0,0,0-3.29,7.53,10.41,10.41,0,0,0,2.1,6.21,29.84,29.84,0,0,1,6.6-11C130.41,52,126.4,50.6,126.4,50.6Z" transform="translate(-7.37 -2.26)"/><path class="cls-9" d="M134,54.67s-6.75,5-8.83,9.67a10.89,10.89,0,0,0,16.78.55,18.37,18.37,0,0,0-3.92-6.82C135.24,55.1,134,54.67,134,54.67Z" transform="translate(-7.37 -2.26)"/><path class="cls-9" d="M140.9,50.28a15.81,15.81,0,0,0-5.2,3s6,4.62,6.29,11.65a10.05,10.05,0,0,0,2.55-7.16A9.75,9.75,0,0,0,140.9,50.28Z" transform="translate(-7.37 -2.26)"/><path class="cls-9" d="M134,52.36a10.09,10.09,0,0,1,6.94-2.08,10.33,10.33,0,0,0-7.08-2.6,11.13,11.13,0,0,0-7.42,2.92S131.33,49.87,134,52.36Z" transform="translate(-7.37 -2.26)"/><path class="cls-10" d="M154.64,55.86v4.26a.19.19,0,0,0,.27.15l4.79-2a.15.15,0,0,0,0-.28l-4.79-2.26A.19.19,0,0,0,154.64,55.86Z" transform="translate(-7.37 -2.26)"/><path class="cls-10" d="M113.88,56v4.27a.19.19,0,0,1-.28.14l-4.79-2a.15.15,0,0,1,0-.28l4.79-2.27A.19.19,0,0,1,113.88,56Z" transform="translate(-7.37 -2.26)"/><path class="cls-11" d="M105.07,73.54a16.14,16.14,0,0,0-4-.47,14.71,14.71,0,0,0-4,.51s1,11.79-3.27,11.79H84.53a18.18,18.18,0,0,0-.72,4.94,14.86,14.86,0,0,0,.53,4.27h9.13s3.68-1.06,3.68,7.7v4.82a16.57,16.57,0,0,0,3.9.45,20.33,20.33,0,0,0,4.46-.58V96.83s-.69-3.2,6.68-3.2c3.54,0,5.77.07,5.77.07s.33-.41.33-3.72a11.6,11.6,0,0,0-.8-4.88l-8.61.13s-3.6.46-3.6-6.45a37.47,37.47,0,0,0-.21-5.24" transform="translate(-7.37 -2.26)"/><polygon class="cls-12" points="166.79 50.89 169.16 50.89 170.59 53.41 172.19 50.89 174.31 50.89 172.11 54.58 174.99 59 172.42 59 170.59 55.75 168.94 58.89 166.79 58.89 169.19 54.49 166.79 50.89"/><polygon class="cls-13" points="183.89 36.49 186.15 39.83 186.15 43.26 188.06 43.26 188.06 39.87 190.29 36.49 188.21 36.49 187.09 38.26 185.98 36.49 183.89 36.49"/><path class="cls-14" d="M195.17,66.9h-2.48l-2.92,7.74h2.09l.91-2.09H195l.92,2.09h1.77Zm-1.87,3.87.5-1.8H194l.54,1.8Z" transform="translate(-7.37 -2.26)"/><path class="cls-15" d="M211.4,56.7a1.84,1.84,0,0,0,1.8-1.93c0-1.88-3.22-1.71-3.22-1.71h-2.65v7.28h4.15s1.89-.11,1.89-1.88S211.4,56.7,211.4,56.7ZM210.66,59h-1.84v-1.5h2s.53,0,.53.75A.67.67,0,0,1,210.66,59Zm-.13-3.16h-1.71V54.28h1.71a.68.68,0,0,1,.78.77A.69.69,0,0,1,210.53,55.82Z" transform="translate(-7.37 -2.26)"/><path class="cls-16" d="M57.21,31.36" transform="translate(-7.37 -2.26)"/></g><g id="Front"><path class="cls-17" d="M211.62,2.7,209.1,25.13s25,1.19,37.1-1.4c7.4-1.86,8.79-2.89,8.79-2.89a6.75,6.75,0,0,0,3.39-4.16c.69-2.89,1.17-5.78,1.17-5.78l-1.78-2.28s-.39-3.48-13.2-4.37S219.1,3.88,211.62,2.7Z" transform="translate(-7.37 -2.26)"/><path class="cls-17" d="M237.07,33.66a.88.88,0,0,0-.85.66L229,62.61s-1,1.56,1.55,3,4.59,6.67,13.33,5.63,7.11-4.15,7.26-7.48-.22-11.4,1.78-19.84,3.48-10.3-1.12-10.22C247.89,33.72,239.5,33.68,237.07,33.66Z" transform="translate(-7.37 -2.26)"/><text class="cls-18" transform="translate(222.54 12.99)">LB</text><text class="cls-18" transform="translate(234.43 51.2)"><tspan class="cls-19">L</tspan><tspan x="1.31" y="0">T</tspan></text><path class="cls-17" d="M57.24,3.77s5.22,19.43,1.89,22.65c0,0-28.21,2.23-41.09-1.88l-7.17-2.7s-2.92-3.49-3-6.69a20.38,20.38,0,0,0-.1-2.44l1.17-1.5a8,8,0,0,1,6.22-4.56C19.89,6,20.7,5.54,32.55,5S57.24,3.77,57.24,3.77Z" transform="translate(-7.37 -2.26)"/><path class="cls-17" d="M9.37,35.22H24.81s4.44.45,5.66,14.44,5.22,17.78-.55,22.22-5.89,5-13.33,4.77c-5.22,0-4.75-3.85-4.89-7s2-12.44-.92-24C9.37,40.67,5.81,36,9.37,35.22Z" transform="translate(-7.37 -2.26)"/><text class="cls-18" transform="translate(23.69 14.79)">RB</text><text class="cls-18" transform="translate(11.4 55.14)"><tspan class="cls-20">R</tspan><tspan x="1.86" y="0">T</tspan></text></g></g></svg>