<svg id="X360Ctrl" xmlns="http://www.w3.org/2000/svg" viewBox="0 0 263.61 106.6"><defs><style>.cls-1{fill:#939598;}.cls-1,.cls-2{stroke:#000;stroke-miterlimit:10;stroke-width:0.75px;}.cls-2{fill:#414042;}.cls-3{font-size:4px;fill:#231f20;font-family:MyriadPro-Regular, Myriad Pro;}.cls-4{letter-spacing:-0.09em;}.cls-5{letter-spacing:0.01em;}</style></defs><g id="Front"><path class="cls-1" d="M35.35,124s.87,5.39,15.48,5.39,16.69-11.48,16.69-11.48l3.65-15.3s.7-8,15.48-13.57c3.83-1.21,5.44-1.78,6.22,2.53S95.22,110,95.22,110,94.43,112.43,98,112s16-.65,16-.65,1.39.26,1.47-1S117,105.13,122,105s21.22-.44,21.22-.44,6.7-.78,7.83,5.83c0,.87,5.11.72,5.11.72l11.93.19s2.09.65,2.87-3.06S173,90,173,90s1.5-4.24,5.61-2.22,12.39,3.59,14.08,10.5,4.57,26.48,17.55,28.37,17.54.13,25.5-15.39,22.5-41.09,22.5-41.09,2.73-.71,3.84-4.43a46.49,46.49,0,0,0,1.5-7.24l-2.08-2.67s.45-6.66-4.11-10.31S252.59,41.8,247,34.24s-6.26-7.57-10-7.83-42.45-.58-42.45-.58L193,27.39s-5.21,1.44-23.34,1.44-25.7-2-25.7-2l-2.35,3.91A24.54,24.54,0,0,0,132.58,29c-5,0-10.88,2.74-10.88,2.74l-5.87-5.87s-5.09.65-18.79.65S79.7,25.17,79.7,25.17a6.85,6.85,0,0,0-3.79,3.4,30.54,30.54,0,0,0-7-.79,17.53,17.53,0,0,0-7.44,1.83S59.48,28,54,28a19.83,19.83,0,0,0-9.26,2.22,47.78,47.78,0,0,0-9.26.26l-3.65.65a18.44,18.44,0,0,0-11.09,1c-6,2.48-6.78,4-6.78,4l.26,3.65A26.44,26.44,0,0,0,2.09,55a5,5,0,0,0,0,3.66L.72,60.46a23,23,0,0,0,.78,6.45,10,10,0,0,0,2.87,4.27Z" transform="translate(-0.33 -24.78)"/><path class="cls-2" d="M58.83,50S65,72.78,61,76.57c0,0-33.13,2.6-48.26-2.22L4.37,71.18S.94,67.08.83,63.33a25.47,25.47,0,0,0-.11-2.87L2.09,58.7a9.32,9.32,0,0,1,7.3-5.35C15,52.52,15.91,52,29.83,51.43S58.83,50,58.83,50Z" transform="translate(-0.33 -24.78)"/><path class="cls-2" d="M29.87,82.3H48s5.22.53,6.65,17,6.13,20.87-.65,26.09-6.91,5.87-15.65,5.61c-6.13,0-5.58-4.53-5.74-8.22s2.28-14.61-1.08-28.17C29.87,88.7,25.7,83.22,29.87,82.3Z" transform="translate(-0.33 -24.78)"/><path class="cls-2" d="M207.26,48.87l-3,26.35s29.4,1.39,43.57-1.65c8.7-2.18,10.33-3.4,10.33-3.4a7.87,7.87,0,0,0,4-4.88c.82-3.4,1.37-6.79,1.37-6.79l-2.08-2.67S261,51.74,246,50.7,216,50.26,207.26,48.87Z" transform="translate(-0.33 -24.78)"/><path class="cls-2" d="M216.31,83.4a1,1,0,0,0-1,.76l-8.49,33.23s-1.22,1.83,1.82,3.48,5.39,7.83,15.65,6.61,8.35-4.87,8.53-8.78-.26-13.4,2.08-23.31,4.09-12.09-1.3-12C229,83.47,219.17,83.41,216.31,83.4Z" transform="translate(-0.33 -24.78)"/><text class="cls-3" transform="translate(228.41 38.84)">LB</text><text class="cls-3" transform="translate(27.75 40.79)">RB</text><text class="cls-3" transform="translate(221.55 81.88)"><tspan class="cls-4">L</tspan><tspan x="1.54" y="0">T</tspan></text><text class="cls-3" transform="translate(40.59 83.57)"><tspan class="cls-5">R</tspan><tspan x="2.19" y="0">T</tspan></text></g></svg>