<svg id="X360Ctrl" xmlns="http://www.w3.org/2000/svg" viewBox="0 0 263.61 82.94"><defs><style>.cls-1{fill:#414042;stroke:#000;stroke-miterlimit:10;stroke-width:0.75px;}.cls-2{font-size:4px;fill:#231f20;font-family:MyriadPro-Regular, Myriad Pro;}.cls-3{letter-spacing:-0.09em;}.cls-4{letter-spacing:0.01em;}</style></defs><g id="Front"><path class="cls-1" d="M58.83,50S65,72.78,61,76.57c0,0-33.13,2.6-48.26-2.22L4.37,71.18S.94,67.08.83,63.33a25.47,25.47,0,0,0-.11-2.87L2.09,58.7a9.32,9.32,0,0,1,7.3-5.35C15,52.52,15.91,52,29.83,51.43S58.83,50,58.83,50Z" transform="translate(-0.33 -48.44)"/><path class="cls-1" d="M29.87,82.3H48s5.22.53,6.65,17,6.13,20.87-.65,26.09-6.91,5.87-15.65,5.61c-6.13,0-5.58-4.53-5.74-8.22s2.28-14.61-1.08-28.17C29.87,88.7,25.7,83.22,29.87,82.3Z" transform="translate(-0.33 -48.44)"/><path class="cls-1" d="M207.26,48.87l-3,26.35s29.4,1.39,43.57-1.65c8.7-2.18,10.33-3.4,10.33-3.4a7.87,7.87,0,0,0,4-4.88c.82-3.4,1.37-6.79,1.37-6.79l-2.08-2.67S261,51.74,246,50.7,216,50.26,207.26,48.87Z" transform="translate(-0.33 -48.44)"/><path class="cls-1" d="M216.31,83.4a1,1,0,0,0-1,.76l-8.49,33.23s-1.22,1.83,1.82,3.48,5.39,7.83,15.65,6.61,8.35-4.87,8.53-8.78-.26-13.4,2.08-23.31,4.09-12.09-1.3-12C229,83.47,219.17,83.41,216.31,83.4Z" transform="translate(-0.33 -48.44)"/><text class="cls-2" transform="translate(228.41 15.18)">LB</text><text class="cls-2" transform="translate(27.75 17.13)">RB</text><text class="cls-2" transform="translate(221.55 58.22)"><tspan class="cls-3">L</tspan><tspan x="1.54" y="0">T</tspan></text><text class="cls-2" transform="translate(40.59 59.91)"><tspan class="cls-4">R</tspan><tspan x="2.19" y="0">T</tspan></text></g></svg>