<svg id="_360ArcadeStick" data-name="360ArcadeStick" xmlns="http://www.w3.org/2000/svg" viewBox="0 0 113.59 54.2"><defs><style>.cls-1,.cls-6{fill:#9d9fa2;}.cls-1,.cls-10,.cls-11,.cls-12,.cls-13,.cls-14,.cls-15,.cls-16,.cls-17,.cls-6,.cls-7,.cls-8,.cls-9{stroke:#231f20;stroke-miterlimit:10;}.cls-1{stroke-width:0.25px;}.cls-2{font-size:4px;fill:#231f20;font-family:MyriadPro-Regular, Myriad Pro;}.cls-3{letter-spacing:0.01em;}.cls-4{letter-spacing:-0.09em;}.cls-5{fill:#4f4f51;}.cls-10,.cls-11,.cls-12,.cls-13,.cls-14,.cls-15,.cls-16,.cls-17,.cls-6{stroke-width:0.5px;}.cls-7{fill:none;}.cls-7,.cls-8,.cls-9{stroke-width:0.05px;}.cls-8{fill:#8dc63f;}.cls-9{fill:#d1d3d4;}.cls-10{fill:#0058a3;}.cls-11{fill:#1687c9;}.cls-12{fill:#f6bd17;}.cls-13{fill:#febf38;}.cls-14{fill:#6ca63c;}.cls-15{fill:#99ca3c;}.cls-16{fill:#aa1e23;}.cls-17{fill:#dd1f26;}</style></defs><circle class="cls-1" cx="83.3" cy="40.34" r="8.51"/><circle class="cls-1" cx="103.82" cy="40.91" r="8.51"/><circle class="cls-1" cx="105.69" cy="22.86" r="7.78"/><circle class="cls-1" cx="85.82" cy="21.56" r="7.78"/><text class="cls-2" transform="translate(81.29 42.1)"><tspan class="cls-3">R</tspan><tspan x="2.19" y="0">T</tspan></text><text class="cls-2" transform="translate(102.58 42.1)"><tspan class="cls-4">L</tspan><tspan x="1.54" y="0">T</tspan></text><text class="cls-2" transform="translate(84.04 22.86)">RB</text><text class="cls-2" transform="translate(103.82 23.55)">LB</text><circle class="cls-5" cx="11.6" cy="34.28" r="10.04"/><circle class="cls-6" cx="10.29" cy="20.59" r="10.04"/><path class="cls-6" d="M103.5,71.61,102.78,68a8.56,8.56,0,0,0,2.22-.15l.68,3.85a2.37,2.37,0,0,1-1,.16A1.79,1.79,0,0,1,103.5,71.61Z" transform="translate(-92.88 -37.42)"/><ellipse class="cls-7" cx="14.44" cy="2.41" rx="2.44" ry="2.38"/><path class="cls-8" d="M106.24,38.07a2.89,2.89,0,0,0-.61,0h0a4.73,4.73,0,0,1,1.23.61,6.8,6.8,0,0,0-1.51,2.51h0a7.51,7.51,0,0,1,2-2.2,3.3,3.3,0,0,1,.92.78,4.18,4.18,0,0,1,.89,1.55h0a3.9,3.9,0,0,0-1.43-2.65,3.34,3.34,0,0,1,1.18-.67h0a2.16,2.16,0,0,0-.44,0" transform="translate(-92.88 -37.42)"/><path class="cls-8" d="M106.24,38.07a1.88,1.88,0,0,1,1.11.41,2.3,2.3,0,0,1,1.14-.46" transform="translate(-92.88 -37.42)"/><path class="cls-9" d="M105.63,38.11a2.24,2.24,0,0,0-.75,1.71,2.38,2.38,0,0,0,.48,1.42,6.83,6.83,0,0,1,1.5-2.52A4.73,4.73,0,0,0,105.63,38.11Z" transform="translate(-92.88 -37.42)"/><path class="cls-9" d="M107.37,39a7.51,7.51,0,0,0-2,2.2,2.48,2.48,0,0,0,3.82.12,4.26,4.26,0,0,0-.89-1.55A3.07,3.07,0,0,0,107.37,39Z" transform="translate(-92.88 -37.42)"/><path class="cls-9" d="M108.93,38a3.55,3.55,0,0,0-1.18.67,3.94,3.94,0,0,1,1.43,2.65,2.26,2.26,0,0,0,.58-1.63A2.21,2.21,0,0,0,108.93,38Z" transform="translate(-92.88 -37.42)"/><path class="cls-9" d="M107.35,38.51a2.29,2.29,0,0,1,1.58-.47,2.32,2.32,0,0,0-1.61-.6,2.52,2.52,0,0,0-1.69.67A2.35,2.35,0,0,1,107.35,38.51Z" transform="translate(-92.88 -37.42)"/><circle class="cls-10" cx="47.12" cy="25.66" r="8.62"/><polygon class="cls-11" points="42.32 20.74 45.1 20.74 46.77 23.68 48.65 20.74 51.12 20.74 48.55 25.05 51.92 30.24 48.91 30.24 46.77 26.43 44.83 30.11 42.32 30.11 45.13 24.95 42.32 20.74"/><circle class="cls-12" cx="66.9" cy="21.56" r="8.54"/><polygon class="cls-13" points="63.19 17.63 65.81 21.51 65.81 25.49 68.03 25.49 68.03 21.56 70.61 17.63 68.19 17.63 66.9 19.69 65.61 17.63 63.19 17.63"/><circle class="cls-14" cx="45.02" cy="45.77" r="8.18"/><path class="cls-15" d="M139.1,78h-2.77l-3.24,8.6h2.32l1-2.31h2.45l1,2.31h2ZM137,82.31l.56-2h.24l.6,2Z" transform="translate(-92.88 -37.42)"/><circle class="cls-16" cx="64" cy="42.1" r="8.45"/><path class="cls-17" d="M158.34,79.52a2.12,2.12,0,0,0,2.07-2.21c0-2.16-3.69-2-3.69-2h-3.05V83.7h4.77s2.16-.14,2.16-2.17S158.34,79.52,158.34,79.52Zm-.84,2.62h-2.12V80.41h2.26s.6,0,.6.87A.77.77,0,0,1,157.5,82.14Zm-.15-3.63h-2V76.74h2a.78.78,0,0,1,.89.88A.79.79,0,0,1,157.35,78.51Z" transform="translate(-92.88 -37.42)"/></svg>