<?xml version="1.0" encoding="UTF-8" standalone="no"?>
<svg
   xmlns:dc="http://purl.org/dc/elements/1.1/"
   xmlns:cc="http://creativecommons.org/ns#"
   xmlns:rdf="http://www.w3.org/1999/02/22-rdf-syntax-ns#"
   xmlns:svg="http://www.w3.org/2000/svg"
   xmlns="http://www.w3.org/2000/svg"
   version="1.1"
   viewBox="0 0 261.11 153.14"
   data-name="360GHDrum"
   id="_360GHDrum">
  <metadata
     id="metadata1005">
    <rdf:RDF>
      <cc:Work
         rdf:about="">
        <dc:format>image/svg+xml</dc:format>
        <dc:type
           rdf:resource="http://purl.org/dc/dcmitype/StillImage" />
      </cc:Work>
    </rdf:RDF>
  </metadata>
  <defs
     id="defs932">
    <style
       id="style930">.cls-1{fill:#333132;}.cls-1,.cls-2,.cls-3,.cls-4,.cls-5,.cls-6,.cls-7,.cls-8,.cls-9{stroke:#000;}.cls-1,.cls-10,.cls-11,.cls-12,.cls-13,.cls-14,.cls-15,.cls-16,.cls-17,.cls-18,.cls-19,.cls-2,.cls-20,.cls-21,.cls-22,.cls-23,.cls-3,.cls-4,.cls-5,.cls-6,.cls-7,.cls-8,.cls-9{stroke-miterlimit:10;}.cls-1,.cls-8,.cls-9{stroke-width:0.75px;}.cls-2{fill:#393839;}.cls-10,.cls-11,.cls-12,.cls-2,.cls-3,.cls-4,.cls-5,.cls-6,.cls-7{stroke-width:0.25px;}.cls-3{fill:#565759;}.cls-4{fill:#302e2f;}.cls-5{fill:#cc493a;}.cls-6{fill:#496fb6;}.cls-7{fill:#46a07c;}.cls-8{fill:#db6f4b;}.cls-9{fill:#ffe17f;}.cls-10{fill:#2d2a2b;}.cls-10,.cls-11,.cls-12,.cls-13,.cls-14,.cls-15,.cls-16,.cls-17,.cls-18,.cls-19,.cls-20,.cls-21,.cls-22,.cls-23{stroke:#231f20;}.cls-11{fill:#464547;}.cls-12{fill:#86888a;}.cls-13{fill:#6ca63c;}.cls-13,.cls-14,.cls-15,.cls-16,.cls-17,.cls-18,.cls-19,.cls-20{stroke-width:0.1px;}.cls-14{fill:#0058a3;}.cls-15{fill:#f6bd17;}.cls-16{fill:#aa1e23;}.cls-17{fill:#1687c9;}.cls-18{fill:#febf38;}.cls-19{fill:#99ca3c;}.cls-20{fill:#dd1f26;}.cls-21{fill:none;}.cls-21,.cls-22,.cls-23{stroke-width:0.15px;}.cls-22{fill:#8dc63f;}.cls-23{fill:#d1d3d4;}</style>
  </defs>
  <g
     id="gy">
    <path
       style="fill:#565759;stroke:#000000;stroke-width:0.25px;stroke-miterlimit:10"
       class="cls-3"
       d="m 217.79,18.11 41.19,19.2 c 0,0 3,0.84 1.69,3.31 -1.31,2.47 -16.1,30.77 -50.21,32.4 -34.11,1.63 -55.42,-28.72 -58.05,-33.24 -1.75,-2.42 6.5,-5.39 6.5,-5.39 l 34.87,-15.41 0.43,-6.48 c 0,0 -0.29,-12.37 13.77,-12.37 7.21,0 10.24,8.54 10.4,10.5 a 69.38,69.38 0 0 1 -0.59,7.48 z"
       id="path960" />
    <path
       style="fill:#ffe17f;stroke:#000000;stroke-width:0.75px;stroke-miterlimit:10"
       class="cls-9"
       d="m 197.37,10.5 c 0,0 -1,10 9.2,10 10.2,0 10.24,-8.16 10.18,-9.69 A 10.22,10.22 0 0 0 206.57,1.64 c -8.38,-0.26 -9.2,8.86 -9.2,8.86 z"
       id="path964" />
    <circle
       style="fill:#f6bd17;stroke:#231f20;stroke-width:0.1px;stroke-miterlimit:10"
       class="cls-15"
       cx="146.71001"
       cy="20.549999"
       r="2.05"
       id="circle976" />
    <polygon
       style="fill:#febf38;stroke:#231f20;stroke-width:0.1px;stroke-miterlimit:10"
       class="cls-18"
       points="146.45,21.49 146.98,21.49 146.98,20.55 147.6,19.61 147.02,19.61 146.71,20.1 146.4,19.61 145.82,19.61 146.45,20.54 "
       id="polygon982" />
  </g>
</svg>
