<svg id="Layer_24" data-name="Layer 24" xmlns="http://www.w3.org/2000/svg" viewBox="0 0 222.06 120.26"><defs><style>.cls-1{fill:#363436;}.cls-1,.cls-2,.cls-3,.cls-4,.cls-6{stroke:#231f20;stroke-miterlimit:10;stroke-width:0.25px;}.cls-2{fill:#292728;}.cls-3{fill:#9d9fa2;}.cls-4{fill:#b1b3b6;}.cls-5{font-size:4px;fill:#231f20;font-family:MyriadPro-Regular, Myriad Pro;}.cls-6{fill:#333132;}</style></defs><path class="cls-1" d="M182.48,9.91s-6.61,5.57-4.35,16.7c2.17,10.69,6.7,11.91,6.7,11.91A154.57,154.57,0,0,0,186.39,56c1.39,9.3,4.87,25.57,4.87,25.57s.52,9.91.87,14.26A78.38,78.38,0,0,0,194,106.09v7.39s.43,4.35,9.56,6.78c3.39.78,4.61.35,4.61.35a106.54,106.54,0,0,0,16.7,4.61c7.56,1.21,13.3.69,15.39-.79,1-.69,1.3-.6,1.82-3a1.69,1.69,0,0,0-.32-1.61l.56-.39s-.19-8.48-4.11-14.55-6.52-9.39-17.34-13c0,0,.91-28.63.39-41.8,0,0,1.37-7.76,1.63-12.66a49.41,49.41,0,0,1,1.24-9.26C225.26,23,226,8.54,226,8.54s.66-.84-2.15-1.43S203,4.57,190.83,7.3C182.93,8.8,182.48,9.91,182.48,9.91Z" transform="translate(-20.35 -5.76)"/><path class="cls-2" d="M185.43,39a73.79,73.79,0,0,0,7.87,4.8c4.57,2.41,5.94,5.94,5.42,9.33s-2.87,18.26-3.79,29-.78,18.79-.78,18.79-.58,5.34-1.43-2.94-.26-13.5-1.5-19.17S186,53.93,185.67,46.17C185.38,39.2,185.43,39,185.43,39Z" transform="translate(-20.35 -5.76)"/><path class="cls-2" d="M220.83,91.89s1,6.46-2.26,9.33-4.35,3-6.35,9.82,4.08,8.09,7.21,9.39,11.83,3.14,19,1a15.69,15.69,0,0,0,3.33-1.52l.56-.39s0-9.52-5.8-17.09S227.3,94.61,220.83,91.89Z" transform="translate(-20.35 -5.76)"/><circle class="cls-3" cx="170.58" cy="13.84" r="6.75"/><path class="cls-4" d="M189.48,13s.38,5.63-5.23,5.63v1.93s5.35-1.09,5.35,5.63l2.44.1s-.52-5.12,5.42-5.12l.13-2.45s-5.55.78-5.55-5.74Z" transform="translate(-20.35 -5.76)"/><circle class="cls-4" cx="193" cy="6.11" r="4.09"/><circle class="cls-4" cx="180.52" cy="22.16" r="3.33"/><circle class="cls-4" cx="188.81" cy="28.58" r="3.33"/><circle class="cls-4" cx="196.44" cy="22.64" r="3.33"/><text class="cls-5" transform="translate(179.22 23.33)">Y</text><text class="cls-5" transform="translate(187.83 29.92)">B</text><text class="cls-5" transform="translate(195.37 23.79)">X</text><path class="cls-4" d="M222.48,63.65a60.67,60.67,0,0,0,9.59,0c.84-.13.13-.91-1.5-1.17a54.22,54.22,0,0,0,1.69-15.2l-8.41-2.67Z" transform="translate(-20.35 -5.76)"/><polygon class="cls-4" points="203.75 38.68 205.3 38.07 213.12 40.55 211.9 41.4 203.75 38.68"/><path class="cls-4" d="M230.59,62.37l1.51-.69s2.94-9.84,1.57-15.22l-1.41.82S232.91,53.27,230.59,62.37Z" transform="translate(-20.35 -5.76)"/><path class="cls-4" d="M232.11,61.79l-1.36.74s2.61.55,1.32,1.12c0,0,1.11-.41,1.28-.76S233.7,62.05,232.11,61.79Z" transform="translate(-20.35 -5.76)"/><path class="cls-2" d="M222.78,38s3.52-8.68,6.59-11.94,4.7-11.48,1-14.41A21.79,21.79,0,0,0,226,9.91s-.24,11.7-1.55,16.79A66.23,66.23,0,0,0,222.78,38Z" transform="translate(-20.35 -5.76)"/><path class="cls-6" d="M74.3,45.22s-12-15.13-36.17-7c-18.78,5.57-23.48,30.61-9.74,36.52,8.78,4.79,9,6.22,22.35,7.26s25.74,1.87,36.17,4.13c10.6,1.85,12.26,1.4,28.18,5.57,7.48,2,16.26-16.44,16.26-16.44s10.69-13,1-23.21-20.87-14.18-33.74-9.92c-7.13,2.79-7,3.31-14.08,3.22S74.3,45.22,74.3,45.22Z" transform="translate(-20.35 -5.76)"/><circle class="cls-4" cx="54.83" cy="73.98" r="2.52"/><circle class="cls-4" cx="85.57" cy="82.42" r="8.22"/><circle class="cls-4" cx="90.39" cy="58.81" r="5.61"/><path class="cls-4" d="M127.6,47.65s8,5.31,9,13.22l4.69-4.35s2.52-2.09-1.48-9.22c-2.78-4.43-6.69-3.73-9-2.43A8,8,0,0,0,127.6,47.65Z" transform="translate(-20.35 -5.76)"/><path class="cls-4" d="M86.3,66.87c7,0,8.7-4.09,8.7-4.09s-.26-4.17-8.7-4.17S78,62.43,78,62.43,79.17,66.87,86.3,66.87Z" transform="translate(-20.35 -5.76)"/><path class="cls-4" d="M95.7,51.48s.43,3.13,7.47,3.13,7.66-4.44,7.66-4.44.26-3.13-7.66-3.13S95.7,51.48,95.7,51.48Z" transform="translate(-20.35 -5.76)"/><text class="cls-5" transform="translate(88.57 60.24)">LB</text></svg>