<svg id="Layer_24" data-name="Layer 24" xmlns="http://www.w3.org/2000/svg" viewBox="0 0 161.63 88.86"><defs><style>.cls-1{fill:#9d9fa2;}.cls-1,.cls-2{stroke:#231f20;stroke-miterlimit:10;stroke-width:0.25px;}.cls-2{fill:#b1b3b6;}.cls-3{font-size:4px;fill:#231f20;font-family:MyriadPro-Regular, Myriad Pro;}</style></defs><circle class="cls-1" cx="118.4" cy="11.94" r="6.75"/><path class="cls-2" d="M189.48,13s.38,5.63-5.23,5.63v1.93s5.35-1.09,5.35,5.63l2.44.1s-.52-5.12,5.42-5.12l.13-2.45s-5.55.78-5.55-5.74Z" transform="translate(-72.53 -7.66)"/><circle class="cls-2" cx="140.82" cy="4.21" r="4.09"/><circle class="cls-2" cx="128.34" cy="20.26" r="3.33"/><circle class="cls-2" cx="136.62" cy="26.68" r="3.33"/><circle class="cls-2" cx="144.26" cy="20.74" r="3.33"/><text class="cls-3" transform="translate(127.04 21.43)">Y</text><text class="cls-3" transform="translate(135.65 28.02)">B</text><text class="cls-3" transform="translate(143.18 21.89)">X</text><path class="cls-2" d="M222.48,63.65a60.67,60.67,0,0,0,9.59,0c.84-.13.13-.91-1.5-1.17a54.22,54.22,0,0,0,1.69-15.2l-8.41-2.67Z" transform="translate(-72.53 -7.66)"/><polygon class="cls-2" points="151.56 36.78 153.11 36.17 160.94 38.65 159.72 39.5 151.56 36.78"/><path class="cls-2" d="M230.59,62.37l1.51-.69s2.94-9.84,1.57-15.22l-1.41.82S232.91,53.27,230.59,62.37Z" transform="translate(-72.53 -7.66)"/><path class="cls-2" d="M232.11,61.79l-1.36.74s2.61.55,1.32,1.12c0,0,1.11-.41,1.28-.76S233.7,62.05,232.11,61.79Z" transform="translate(-72.53 -7.66)"/><circle class="cls-2" cx="2.65" cy="72.08" r="2.52"/><circle class="cls-2" cx="33.39" cy="80.52" r="8.22"/><circle class="cls-2" cx="38.21" cy="56.91" r="5.61"/><path class="cls-2" d="M127.6,47.65s8,5.31,9,13.22l4.69-4.35s2.52-2.09-1.48-9.22c-2.78-4.43-6.69-3.73-9-2.43A8,8,0,0,0,127.6,47.65Z" transform="translate(-72.53 -7.66)"/><path class="cls-2" d="M86.3,66.87c7,0,8.7-4.09,8.7-4.09s-.26-4.17-8.7-4.17S78,62.43,78,62.43,79.17,66.87,86.3,66.87Z" transform="translate(-72.53 -7.66)"/><path class="cls-2" d="M95.7,51.48s.43,3.13,7.47,3.13,7.66-4.44,7.66-4.44.26-3.13-7.66-3.13S95.7,51.48,95.7,51.48Z" transform="translate(-72.53 -7.66)"/><text class="cls-3" transform="translate(36.39 58.34)">LB</text></svg>