<?xml version="1.0" encoding="UTF-8" standalone="no"?>
<svg
   xmlns:dc="http://purl.org/dc/elements/1.1/"
   xmlns:cc="http://creativecommons.org/ns#"
   xmlns:rdf="http://www.w3.org/1999/02/22-rdf-syntax-ns#"
   xmlns:svg="http://www.w3.org/2000/svg"
   xmlns="http://www.w3.org/2000/svg"
   version="1.1"
   viewBox="0 0 252.57 155.05"
   id="Controllers">
  <metadata
     id="metadata91">
    <rdf:RDF>
      <cc:Work
         rdf:about="">
        <dc:format>image/svg+xml</dc:format>
        <dc:type
           rdf:resource="http://purl.org/dc/dcmitype/StillImage" />
      </cc:Work>
    </rdf:RDF>
  </metadata>
  <defs
     id="defs4">
    <style
       id="style2">.cls-1{fill:#636466;}.cls-1,.cls-10,.cls-13,.cls-14,.cls-15,.cls-16,.cls-17,.cls-2,.cls-3,.cls-4,.cls-5,.cls-6,.cls-7,.cls-8{stroke:#231f20;}.cls-1,.cls-10,.cls-11,.cls-12,.cls-13,.cls-14,.cls-15,.cls-16,.cls-17,.cls-18,.cls-2,.cls-3,.cls-4,.cls-5,.cls-6,.cls-7,.cls-8,.cls-9{stroke-miterlimit:10;}.cls-1,.cls-10,.cls-11,.cls-12,.cls-17,.cls-2,.cls-3,.cls-4,.cls-5,.cls-6,.cls-7,.cls-8{stroke-width:0.5px;}.cls-2{fill:#060505;}.cls-12,.cls-18,.cls-3{fill:#bcbec0;}.cls-4{fill:#6ca63c;}.cls-5{fill:#0058a3;}.cls-6{fill:#f6bd17;}.cls-7{fill:#aa1e23;}.cls-8{fill:none;}.cls-9{fill:#8dc63f;stroke-width:0.05px;}.cls-11,.cls-12,.cls-18,.cls-9{stroke:#000;}.cls-10{fill:#d1d3d4;}.cls-11{fill:#67686b;}.cls-13{fill:#1687c9;}.cls-13,.cls-14,.cls-15,.cls-16{stroke-width:0.25px;}.cls-14{fill:#febf38;}.cls-15{fill:#99ca3c;}.cls-16{fill:#dd1f26;}.cls-17{fill:#363436;}.cls-18{stroke-width:0.75px;}.cls-19{font-size:3.41px;fill:#231f20;font-family:MyriadPro-Regular, Myriad Pro;}.cls-20{letter-spacing:-0.09em;}.cls-21{letter-spacing:0.01em;}</style>
  </defs>
  <g
     id="X360Ctrl">
    <g
       id="gb">
      <circle
         style="fill:#aa1e23;stroke:#231f20;stroke-width:0.5px;stroke-miterlimit:10"
         id="circle21"
         r="7.3600001"
         cy="54.43"
         cx="202.75999"
         class="cls-7" />
      <path
         style="fill:#dd1f26;stroke:#231f20;stroke-width:0.25px;stroke-miterlimit:10"
         id="path53"
         d="m 204.03,54.44 a 1.84,1.84 0 0 0 1.8,-1.93 c 0,-1.88 -3.22,-1.71 -3.22,-1.71 h -2.65 v 7.28 h 4.15 c 0,0 1.89,-0.11 1.89,-1.88 0,-1.77 -1.97,-1.76 -1.97,-1.76 z m -0.74,2.3 h -1.84 v -1.5 h 2 c 0,0 0.53,0 0.53,0.75 a 0.67,0.67 0 0 1 -0.69,0.75 z m -0.13,-3.16 h -1.71 v -1.56 h 1.71 a 0.68,0.68 0 0 1 0.78,0.77 0.69,0.69 0 0 1 -0.78,0.77 z"
         class="cls-16" />
    </g>
  </g>
</svg>
