<?xml version="1.0" encoding="UTF-8" standalone="no"?>
<svg
   xmlns:dc="http://purl.org/dc/elements/1.1/"
   xmlns:cc="http://creativecommons.org/ns#"
   xmlns:rdf="http://www.w3.org/1999/02/22-rdf-syntax-ns#"
   xmlns:svg="http://www.w3.org/2000/svg"
   xmlns="http://www.w3.org/2000/svg"
   id="svg82"
   version="1.1"
   viewBox="0 0 261.21 108.38">
  <metadata
     id="metadata86">
    <rdf:RDF>
      <cc:Work
         rdf:about="">
        <dc:format>image/svg+xml</dc:format>
        <dc:type
           rdf:resource="http://purl.org/dc/dcmitype/StillImage" />
      </cc:Work>
    </rdf:RDF>
  </metadata>
  <defs
     id="defs4">
    <style
       id="style2">.cls-1{fill:#171717;}.cls-1,.cls-13,.cls-2,.cls-3,.cls-4,.cls-5,.cls-6,.cls-7{stroke:#000;stroke-width:0.25px;}.cls-1,.cls-10,.cls-11,.cls-12,.cls-13,.cls-16,.cls-17,.cls-2,.cls-3,.cls-4,.cls-5,.cls-6,.cls-7,.cls-8,.cls-9{stroke-miterlimit:10;}.cls-2{fill:#393839;}.cls-3{fill:#939598;}.cls-4{fill:#a7a9ac;}.cls-5{fill:#414042;}.cls-6{fill:#121212;}.cls-7{fill:#f1f2f2;}.cls-10,.cls-11,.cls-12,.cls-8,.cls-9{fill:none;}.cls-8{stroke:#f15a29;}.cls-9{stroke:#1c75bc;}.cls-10{stroke:#f9ed32;}.cls-11{stroke:#be1e2d;}.cls-12{stroke:#009444;}.cls-13{fill:#a6a6a6;}.cls-14{fill:#292728;}.cls-15,.cls-16{fill:#b1b3b6;}.cls-16,.cls-17{stroke:#231f20;stroke-width:0.1px;}.cls-17{fill:#fff;}</style>
  </defs>
  <g
     id="ghome">
    <path
       class="cls-4"
       d="m 31.72,82.8 c 0,0 0,3.72 3.65,3.72 a 3.55,3.55 0 0 0 3.38,-2.1 3.88,3.88 0 0 0 0,-3.57 3.38,3.38 0 0 0 -3.22,-1.77 3.61,3.61 0 0 0 -3.81,3.72 z"
       id="path74"
       style="fill:#a7a9ac;stroke:#000000;stroke-width:0.25px;stroke-miterlimit:10" />
    <path
       class="cls-17"
       d="m 35.44,79.59 a 3.22,3.22 0 1 0 3.2,3.22 3.22,3.22 0 0 0 -3.2,-3.22 z m 0,6.08 a 2.86,2.86 0 0 1 -1.92,-0.75 1.13,1.13 0 0 1 0.64,-0.35 c 0.41,-0.06 0.64,0.25 0.69,0.22 a 5.42,5.42 0 0 0 1.24,-1.25 c 0.32,-0.47 0.51,-0.56 0.77,-0.51 a 0.88,0.88 0 0 0 0.81,-0.14 0.78,0.78 0 0 0 0,-1.17 0.7,0.7 0 0 0 -0.76,-0.13 l -0.08,-0.22 c 0,0 0.26,-0.19 0.21,-0.42 -0.05,-0.23 -0.31,-0.14 -0.35,-0.17 -0.04,-0.03 -0.28,-0.1 -0.34,0.06 -0.06,0.16 -0.09,0.08 -0.16,0.21 a 0.27,0.27 0 0 0 0.08,0.35 0.55,0.55 0 0 0 0.35,0.05 l 0.11,0.2 -0.81,0.35 -0.11,-0.22 c 0,0 0.23,-0.17 0.23,-0.29 0,-0.12 -0.15,-0.27 -0.15,-0.27 h -0.25 a 0.22,0.22 0 0 0 -0.28,0 c -0.15,0.1 -0.1,0.16 -0.18,0.23 -0.08,0.07 -0.11,0.18 0,0.35 0.11,0.17 0.38,0.1 0.38,0.1 l 0.13,0.2 -0.84,0.33 -0.08,-0.2 a 0.35,0.35 0 0 0 0.22,-0.29 c 0,-0.2 -0.09,-0.24 -0.23,-0.26 -0.14,-0.02 -0.32,-0.11 -0.43,0 -0.11,0.11 -0.06,0.13 -0.15,0.22 a 0.24,0.24 0 0 0 0,0.34 0.24,0.24 0 0 0 0.27,0.09 0.11,0.11 0 0 1 0.13,0 l 0.11,0.2 -0.85,0.35 -0.09,-0.22 a 0.52,0.52 0 0 0 0.21,-0.41 c 0,-0.23 -0.32,-0.14 -0.34,-0.16 -0.02,-0.02 -0.11,-0.06 -0.11,-0.06 a 0.85,0.85 0 0 0 -0.24,0.1 c -0.08,0 0,0.06 -0.11,0.18 -0.11,0.12 -0.09,0.19 -0.09,0.19 0,0 0,0.05 0.11,0.18 0.11,0.13 0.37,0.07 0.37,0.07 l 0.11,0.2 -0.54,0.27 c -0.19,0.11 -0.07,0.26 0,0.53 0.07,0.27 -0.22,0.4 -0.22,0.4 a 2.82,2.82 0 1 1 2.52,1.56 z m -2,-2.08 a 0.22,0.22 0 0 1 0.43,0 0.21,0.21 0 0 1 -0.21,0.21 0.21,0.21 0 0 1 -0.22,-0.21 z m 1,-0.43 a 0.21,0.21 0 0 1 0.21,-0.21 0.21,0.21 0 1 1 0,0.42 0.21,0.21 0 0 1 -0.17,-0.21 z m 1,-0.42 a 0.21,0.21 0 1 1 0.21,0.21 0.22,0.22 0 0 1 -0.15,-0.21 z m 1,-0.41 a 0.2,0.2 0 0 1 0.2,-0.21 0.21,0.21 0 0 1 0.21,0.21 0.2,0.2 0 0 1 -0.21,0.2 0.2,0.2 0 0 1 -0.11,-0.2 z"
       id="path78"
       style="fill:#ffffff;stroke:#231f20;stroke-width:0.1px;stroke-miterlimit:10" />
  </g>
</svg>
