<svg id="Keyboard" xmlns="http://www.w3.org/2000/svg" viewBox="0 0 262.93 85.63"><defs><style>.cls-1{fill:#333;}.cls-1,.cls-2,.cls-3,.cls-7{stroke:#231f20;stroke-miterlimit:10;stroke-width:0.5px;}.cls-2{fill:#a7a9ac;}.cls-3{fill:none;}.cls-4{font-size:5.24px;}.cls-12,.cls-4,.cls-7,.cls-8{fill:#231f20;}.cls-12,.cls-4,.cls-8{font-family:MyriadPro-Regular, Myriad Pro;}.cls-5{letter-spacing:0.01em;}.cls-6{letter-spacing:0em;}.cls-8{font-size:3.72px;}.cls-9{letter-spacing:0.01em;}.cls-10{letter-spacing:0em;}.cls-11{letter-spacing:-0.01em;}.cls-12{font-size:4.38px;}</style></defs><g id="Base"><path class="cls-1" d="M263.61,121.77V43.67c0-1.94-2.09-3.51-4.66-3.51H5.83c-2.57,0-4.66,1.57-4.66,3.51v78.1c0,1.94,2.09,3.51,4.66,3.51H259C261.52,125.28,263.61,123.71,263.61,121.77Z" transform="translate(-0.92 -39.91)"/></g><g id="Keys"><path class="cls-2" d="M75.12,123.12h93.4c.86,0,1.56-1.11,1.56-2.47v-7.86c0-1.36-.7-2.47-1.56-2.47H75.12c-.87,0-1.57,1.11-1.57,2.47v7.86C73.55,122,74.25,123.12,75.12,123.12Z" transform="translate(-0.92 -39.91)"/><path class="cls-2" d="M69.1,110.32H54.52a1.54,1.54,0,0,0-1.58,1.49v9.82a1.54,1.54,0,0,0,1.58,1.49H69.1a1.54,1.54,0,0,0,1.58-1.49v-9.82A1.54,1.54,0,0,0,69.1,110.32Z" transform="translate(-0.92 -39.91)"/><rect class="cls-3" x="31.67" y="70.41" width="16.81" height="12.8" rx="1.49"/><path class="cls-2" d="M27.23,110.32H7.3A1.4,1.4,0,0,0,6,111.81v9.82a1.4,1.4,0,0,0,1.29,1.49H27.23a1.41,1.41,0,0,0,1.3-1.49v-9.82A1.41,1.41,0,0,0,27.23,110.32Z" transform="translate(-0.92 -39.91)"/><path class="cls-3" d="M209.63,110.32H194a1.6,1.6,0,0,0-1.69,1.49v9.82a1.6,1.6,0,0,0,1.69,1.49h15.63a1.6,1.6,0,0,0,1.69-1.49v-9.82A1.6,1.6,0,0,0,209.63,110.32Z" transform="translate(-0.92 -39.91)"/><path class="cls-2" d="M188.65,110.32H173.79a1.55,1.55,0,0,0-1.6,1.49v9.82a1.55,1.55,0,0,0,1.6,1.49h14.86a1.55,1.55,0,0,0,1.6-1.49v-9.82A1.55,1.55,0,0,0,188.65,110.32Z" transform="translate(-0.92 -39.91)"/><path class="cls-2" d="M254.87,110.32H237.18a1.74,1.74,0,0,0-1.91,1.49v9.82a1.74,1.74,0,0,0,1.91,1.49h17.69a1.74,1.74,0,0,0,1.91-1.49v-9.82A1.74,1.74,0,0,0,254.87,110.32Z" transform="translate(-0.92 -39.91)"/><path class="cls-3" d="M231.26,110.32H215.6a1.6,1.6,0,0,0-1.69,1.49v9.82a1.6,1.6,0,0,0,1.69,1.49h15.66a1.6,1.6,0,0,0,1.69-1.49v-9.82A1.6,1.6,0,0,0,231.26,110.32Z" transform="translate(-0.92 -39.91)"/><path class="cls-2" d="M38.24,93.36H8a1.78,1.78,0,0,0-2,1.49v9.82c0,.83.88,1.49,2,1.49H38.24c1.09,0,2-.66,2-1.49V94.85A1.78,1.78,0,0,0,38.24,93.36Z" transform="translate(-0.92 -39.91)"/><path class="cls-2" d="M57.49,93.36H45.71a1.4,1.4,0,0,0-1.28,1.49v9.82a1.39,1.39,0,0,0,1.28,1.49H57.49a1.39,1.39,0,0,0,1.27-1.49V94.85A1.4,1.4,0,0,0,57.49,93.36Z" transform="translate(-0.92 -39.91)"/><path class="cls-2" d="M73.87,93.36H62.09a1.4,1.4,0,0,0-1.28,1.49v9.82a1.39,1.39,0,0,0,1.28,1.49H73.87a1.39,1.39,0,0,0,1.27-1.49V94.85A1.4,1.4,0,0,0,73.87,93.36Z" transform="translate(-0.92 -39.91)"/><path class="cls-2" d="M90.36,93.36H78.58a1.4,1.4,0,0,0-1.27,1.49v9.82a1.39,1.39,0,0,0,1.27,1.49H90.36a1.39,1.39,0,0,0,1.27-1.49V94.85A1.4,1.4,0,0,0,90.36,93.36Z" transform="translate(-0.92 -39.91)"/><path class="cls-2" d="M106.74,93.36H95a1.4,1.4,0,0,0-1.27,1.49v9.82A1.39,1.39,0,0,0,95,106.16h11.78a1.39,1.39,0,0,0,1.28-1.49V94.85A1.4,1.4,0,0,0,106.74,93.36Z" transform="translate(-0.92 -39.91)"/><path class="cls-2" d="M123.1,93.36H111.32A1.4,1.4,0,0,0,110,94.85v9.82a1.39,1.39,0,0,0,1.28,1.49H123.1a1.39,1.39,0,0,0,1.27-1.49V94.85A1.4,1.4,0,0,0,123.1,93.36Z" transform="translate(-0.92 -39.91)"/><path class="cls-2" d="M139.59,93.36H127.81a1.4,1.4,0,0,0-1.27,1.49v9.82a1.39,1.39,0,0,0,1.27,1.49h11.78a1.39,1.39,0,0,0,1.27-1.49V94.85A1.4,1.4,0,0,0,139.59,93.36Z" transform="translate(-0.92 -39.91)"/><path class="cls-2" d="M156,93.36H144.19a1.4,1.4,0,0,0-1.27,1.49v9.82a1.39,1.39,0,0,0,1.27,1.49H156a1.39,1.39,0,0,0,1.27-1.49V94.85A1.4,1.4,0,0,0,156,93.36Z" transform="translate(-0.92 -39.91)"/><path class="cls-2" d="M172.49,93.36H160.71a1.4,1.4,0,0,0-1.28,1.49v9.82a1.39,1.39,0,0,0,1.28,1.49h11.78a1.39,1.39,0,0,0,1.27-1.49V94.85A1.4,1.4,0,0,0,172.49,93.36Z" transform="translate(-0.92 -39.91)"/><path class="cls-2" d="M189,93.36H177.2a1.4,1.4,0,0,0-1.27,1.49v9.82a1.39,1.39,0,0,0,1.27,1.49H189a1.39,1.39,0,0,0,1.27-1.49V94.85A1.4,1.4,0,0,0,189,93.36Z" transform="translate(-0.92 -39.91)"/><path class="cls-2" d="M205.36,93.36H193.58a1.4,1.4,0,0,0-1.27,1.49v9.82a1.39,1.39,0,0,0,1.27,1.49h11.78a1.38,1.38,0,0,0,1.27-1.49V94.85A1.39,1.39,0,0,0,205.36,93.36Z" transform="translate(-0.92 -39.91)"/><path class="cls-2" d="M254,93.36H211.86c-1.51,0-2.74.67-2.74,1.49v9.82c0,.83,1.23,1.49,2.74,1.49H254c1.51,0,2.74-.66,2.74-1.49V94.85C256.78,94,255.55,93.36,254,93.36Z" transform="translate(-0.92 -39.91)"/><path class="cls-2" d="M31.07,76.4H7.54A1.51,1.51,0,0,0,6,77.9v9.81a1.51,1.51,0,0,0,1.53,1.5H31.07a1.52,1.52,0,0,0,1.53-1.5V77.9A1.52,1.52,0,0,0,31.07,76.4Z" transform="translate(-0.92 -39.91)"/><path class="cls-2" d="M48.41,76.4H36.62a1.4,1.4,0,0,0-1.27,1.5v9.81a1.4,1.4,0,0,0,1.27,1.5H48.41a1.4,1.4,0,0,0,1.27-1.5V77.9A1.4,1.4,0,0,0,48.41,76.4Z" transform="translate(-0.92 -39.91)"/><path class="cls-2" d="M64.79,76.4H53a1.4,1.4,0,0,0-1.28,1.5v9.81A1.4,1.4,0,0,0,53,89.21H64.79a1.4,1.4,0,0,0,1.27-1.5V77.9A1.4,1.4,0,0,0,64.79,76.4Z" transform="translate(-0.92 -39.91)"/><path class="cls-2" d="M81.28,76.4H69.5a1.4,1.4,0,0,0-1.27,1.5v9.81a1.4,1.4,0,0,0,1.27,1.5H81.28a1.4,1.4,0,0,0,1.27-1.5V77.9A1.4,1.4,0,0,0,81.28,76.4Z" transform="translate(-0.92 -39.91)"/><path class="cls-2" d="M97.66,76.4H85.88a1.4,1.4,0,0,0-1.27,1.5v9.81a1.4,1.4,0,0,0,1.27,1.5H97.66a1.4,1.4,0,0,0,1.27-1.5V77.9A1.4,1.4,0,0,0,97.66,76.4Z" transform="translate(-0.92 -39.91)"/><path class="cls-2" d="M114,76.4H102.23A1.4,1.4,0,0,0,101,77.9v9.81a1.4,1.4,0,0,0,1.27,1.5H114a1.4,1.4,0,0,0,1.28-1.5V77.9A1.4,1.4,0,0,0,114,76.4Z" transform="translate(-0.92 -39.91)"/><path class="cls-2" d="M130.51,76.4H118.73a1.4,1.4,0,0,0-1.27,1.5v9.81a1.4,1.4,0,0,0,1.27,1.5h11.78a1.4,1.4,0,0,0,1.27-1.5V77.9A1.4,1.4,0,0,0,130.51,76.4Z" transform="translate(-0.92 -39.91)"/><path class="cls-2" d="M146.89,76.4H135.11a1.4,1.4,0,0,0-1.27,1.5v9.81a1.4,1.4,0,0,0,1.27,1.5h11.78a1.4,1.4,0,0,0,1.27-1.5V77.9A1.4,1.4,0,0,0,146.89,76.4Z" transform="translate(-0.92 -39.91)"/><path class="cls-2" d="M163.41,76.4H151.63a1.4,1.4,0,0,0-1.28,1.5v9.81a1.4,1.4,0,0,0,1.28,1.5h11.78a1.4,1.4,0,0,0,1.27-1.5V77.9A1.4,1.4,0,0,0,163.41,76.4Z" transform="translate(-0.92 -39.91)"/><path class="cls-2" d="M179.9,76.4H168.12a1.4,1.4,0,0,0-1.27,1.5v9.81a1.4,1.4,0,0,0,1.27,1.5H179.9a1.4,1.4,0,0,0,1.27-1.5V77.9A1.4,1.4,0,0,0,179.9,76.4Z" transform="translate(-0.92 -39.91)"/><path class="cls-2" d="M196.14,76.4H184.36a1.4,1.4,0,0,0-1.27,1.5v9.81a1.4,1.4,0,0,0,1.27,1.5h11.78a1.4,1.4,0,0,0,1.28-1.5V77.9A1.4,1.4,0,0,0,196.14,76.4Z" transform="translate(-0.92 -39.91)"/><path class="cls-2" d="M212.64,76.4H200.86a1.4,1.4,0,0,0-1.27,1.5v9.81a1.4,1.4,0,0,0,1.27,1.5h11.78a1.4,1.4,0,0,0,1.27-1.5V77.9A1.4,1.4,0,0,0,212.64,76.4Z" transform="translate(-0.92 -39.91)"/><path class="cls-2" d="M254.49,76.4H219.24c-1.27,0-2.29.67-2.29,1.5v9.81c0,.83,1,1.5,2.29,1.5h35.25c1.26,0,2.29-.67,2.29-1.5V77.9C256.78,77.07,255.75,76.4,254.49,76.4Z" transform="translate(-0.92 -39.91)"/><path class="cls-2" d="M27.23,59.45H7.3A1.4,1.4,0,0,0,6,60.94v9.82A1.4,1.4,0,0,0,7.3,72.25H27.23a1.41,1.41,0,0,0,1.3-1.49V60.94A1.41,1.41,0,0,0,27.23,59.45Z" transform="translate(-0.92 -39.91)"/><path class="cls-2" d="M43.58,59.45H31.8a1.4,1.4,0,0,0-1.27,1.49v9.82a1.4,1.4,0,0,0,1.27,1.49H43.58a1.4,1.4,0,0,0,1.28-1.49V60.94A1.4,1.4,0,0,0,43.58,59.45Z" transform="translate(-0.92 -39.91)"/><path class="cls-2" d="M60,59.45H48.18a1.4,1.4,0,0,0-1.27,1.49v9.82a1.4,1.4,0,0,0,1.27,1.49H60a1.4,1.4,0,0,0,1.28-1.49V60.94A1.4,1.4,0,0,0,60,59.45Z" transform="translate(-0.92 -39.91)"/><path class="cls-2" d="M76.46,59.45H64.68a1.4,1.4,0,0,0-1.27,1.49v9.82a1.4,1.4,0,0,0,1.27,1.49H76.46a1.4,1.4,0,0,0,1.27-1.49V60.94A1.4,1.4,0,0,0,76.46,59.45Z" transform="translate(-0.92 -39.91)"/><path class="cls-2" d="M92.84,59.45H81.06a1.4,1.4,0,0,0-1.27,1.49v9.82a1.4,1.4,0,0,0,1.27,1.49H92.84a1.4,1.4,0,0,0,1.27-1.49V60.94A1.4,1.4,0,0,0,92.84,59.45Z" transform="translate(-0.92 -39.91)"/><path class="cls-2" d="M109.19,59.45H97.41a1.4,1.4,0,0,0-1.27,1.49v9.82a1.4,1.4,0,0,0,1.27,1.49h11.78a1.4,1.4,0,0,0,1.27-1.49V60.94A1.4,1.4,0,0,0,109.19,59.45Z" transform="translate(-0.92 -39.91)"/><path class="cls-2" d="M125.69,59.45H113.91a1.4,1.4,0,0,0-1.28,1.49v9.82a1.4,1.4,0,0,0,1.28,1.49h11.78A1.4,1.4,0,0,0,127,70.76V60.94A1.4,1.4,0,0,0,125.69,59.45Z" transform="translate(-0.92 -39.91)"/><path class="cls-2" d="M142.07,59.45H130.29A1.4,1.4,0,0,0,129,60.94v9.82a1.4,1.4,0,0,0,1.28,1.49h11.78a1.4,1.4,0,0,0,1.27-1.49V60.94A1.4,1.4,0,0,0,142.07,59.45Z" transform="translate(-0.92 -39.91)"/><path class="cls-2" d="M158.58,59.45H146.8a1.4,1.4,0,0,0-1.27,1.49v9.82a1.4,1.4,0,0,0,1.27,1.49h11.78a1.4,1.4,0,0,0,1.28-1.49V60.94A1.4,1.4,0,0,0,158.58,59.45Z" transform="translate(-0.92 -39.91)"/><path class="cls-2" d="M175.08,59.45H163.3A1.4,1.4,0,0,0,162,60.94v9.82a1.4,1.4,0,0,0,1.28,1.49h11.78a1.4,1.4,0,0,0,1.27-1.49V60.94A1.4,1.4,0,0,0,175.08,59.45Z" transform="translate(-0.92 -39.91)"/><path class="cls-2" d="M191.32,59.45H179.54a1.4,1.4,0,0,0-1.27,1.49v9.82a1.4,1.4,0,0,0,1.27,1.49h11.78a1.4,1.4,0,0,0,1.27-1.49V60.94A1.4,1.4,0,0,0,191.32,59.45Z" transform="translate(-0.92 -39.91)"/><path class="cls-2" d="M207.82,59.45H196a1.4,1.4,0,0,0-1.28,1.49v9.82A1.4,1.4,0,0,0,196,72.25h11.78a1.4,1.4,0,0,0,1.27-1.49V60.94A1.4,1.4,0,0,0,207.82,59.45Z" transform="translate(-0.92 -39.91)"/><path class="cls-2" d="M224.37,59.45H212.59a1.4,1.4,0,0,0-1.27,1.49v9.82a1.4,1.4,0,0,0,1.27,1.49h11.78a1.4,1.4,0,0,0,1.28-1.49V60.94A1.4,1.4,0,0,0,224.37,59.45Z" transform="translate(-0.92 -39.91)"/><path class="cls-2" d="M255.11,59.45H229.43a1.59,1.59,0,0,0-1.67,1.49v9.82a1.59,1.59,0,0,0,1.67,1.49h25.68a1.59,1.59,0,0,0,1.67-1.49V60.94A1.59,1.59,0,0,0,255.11,59.45Z" transform="translate(-0.92 -39.91)"/><path class="cls-3" d="M18.8,42.49H7A1.4,1.4,0,0,0,5.74,44V53.8A1.4,1.4,0,0,0,7,55.29H18.8a1.4,1.4,0,0,0,1.27-1.49V44A1.4,1.4,0,0,0,18.8,42.49Z" transform="translate(-0.92 -39.91)"/><path class="cls-2" d="M35.18,42.49H23.4A1.4,1.4,0,0,0,22.12,44V53.8a1.4,1.4,0,0,0,1.28,1.49H35.18a1.4,1.4,0,0,0,1.27-1.49V44A1.4,1.4,0,0,0,35.18,42.49Z" transform="translate(-0.92 -39.91)"/><path class="cls-2" d="M51.67,42.49H39.89A1.4,1.4,0,0,0,38.62,44V53.8a1.4,1.4,0,0,0,1.27,1.49H51.67a1.4,1.4,0,0,0,1.27-1.49V44A1.4,1.4,0,0,0,51.67,42.49Z" transform="translate(-0.92 -39.91)"/><path class="cls-2" d="M68.05,42.49H56.27A1.4,1.4,0,0,0,55,44V53.8a1.4,1.4,0,0,0,1.27,1.49H68.05a1.4,1.4,0,0,0,1.27-1.49V44A1.4,1.4,0,0,0,68.05,42.49Z" transform="translate(-0.92 -39.91)"/><path class="cls-2" d="M84.4,42.49H72.62A1.4,1.4,0,0,0,71.35,44V53.8a1.4,1.4,0,0,0,1.27,1.49H84.4a1.4,1.4,0,0,0,1.28-1.49V44A1.4,1.4,0,0,0,84.4,42.49Z" transform="translate(-0.92 -39.91)"/><path class="cls-2" d="M100.9,42.49H89.12A1.4,1.4,0,0,0,87.85,44V53.8a1.4,1.4,0,0,0,1.27,1.49H100.9a1.4,1.4,0,0,0,1.27-1.49V44A1.4,1.4,0,0,0,100.9,42.49Z" transform="translate(-0.92 -39.91)"/><path class="cls-2" d="M117.28,42.49H105.5A1.4,1.4,0,0,0,104.23,44V53.8a1.4,1.4,0,0,0,1.27,1.49h11.78a1.4,1.4,0,0,0,1.27-1.49V44A1.4,1.4,0,0,0,117.28,42.49Z" transform="translate(-0.92 -39.91)"/><path class="cls-2" d="M133.8,42.49H122A1.4,1.4,0,0,0,120.74,44V53.8A1.4,1.4,0,0,0,122,55.29H133.8a1.4,1.4,0,0,0,1.27-1.49V44A1.4,1.4,0,0,0,133.8,42.49Z" transform="translate(-0.92 -39.91)"/><path class="cls-2" d="M150.29,42.49H138.51A1.4,1.4,0,0,0,137.24,44V53.8a1.4,1.4,0,0,0,1.27,1.49h11.78a1.4,1.4,0,0,0,1.27-1.49V44A1.4,1.4,0,0,0,150.29,42.49Z" transform="translate(-0.92 -39.91)"/><path class="cls-2" d="M166.53,42.49H154.75A1.4,1.4,0,0,0,153.48,44V53.8a1.4,1.4,0,0,0,1.27,1.49h11.78a1.4,1.4,0,0,0,1.28-1.49V44A1.4,1.4,0,0,0,166.53,42.49Z" transform="translate(-0.92 -39.91)"/><path class="cls-2" d="M183,42.49H171.25A1.4,1.4,0,0,0,170,44V53.8a1.4,1.4,0,0,0,1.27,1.49H183a1.4,1.4,0,0,0,1.27-1.49V44A1.4,1.4,0,0,0,183,42.49Z" transform="translate(-0.92 -39.91)"/><path class="cls-2" d="M199.59,42.49H187.81A1.4,1.4,0,0,0,186.53,44V53.8a1.4,1.4,0,0,0,1.28,1.49h11.78a1.4,1.4,0,0,0,1.27-1.49V44A1.4,1.4,0,0,0,199.59,42.49Z" transform="translate(-0.92 -39.91)"/><path class="cls-2" d="M217.21,42.49H205.43A1.4,1.4,0,0,0,204.16,44V53.8a1.4,1.4,0,0,0,1.27,1.49h11.78a1.39,1.39,0,0,0,1.27-1.49V44A1.39,1.39,0,0,0,217.21,42.49Z" transform="translate(-0.92 -39.91)"/><path class="cls-2" d="M254.76,42.49h-31c-1.11,0-2,.67-2,1.49V53.8c0,.82.9,1.49,2,1.49h31c1.12,0,2-.67,2-1.49V44C256.78,43.16,255.88,42.49,254.76,42.49Z" transform="translate(-0.92 -39.91)"/><text class="cls-4" transform="translate(11.98 77.84)"><tspan class="cls-5">c</tspan><tspan x="2.41" y="0">t</tspan><tspan class="cls-6" x="4.15" y="0">r</tspan><tspan x="5.88" y="0">l</tspan></text><text class="cls-4" transform="translate(57.84 77.84)">alt</text><text class="cls-4" transform="translate(177.35 77.84)">alt</text><text class="cls-4" transform="translate(241.35 77.84)"><tspan class="cls-5">c</tspan><tspan x="2.41" y="0">t</tspan><tspan class="cls-6" x="4.15" y="0">r</tspan><tspan x="5.88" y="0">l</tspan></text><line class="cls-7" x1="109.54" y1="75.19" x2="139.94" y2="75.19"/><text class="cls-8" transform="translate(241.35 59.86)">shi<tspan class="cls-9" x="4.41" y="0">f</tspan><tspan x="5.54" y="0">t</tspan></text><text class="cls-8" transform="translate(241.35 43.59)">E<tspan class="cls-10" x="1.83" y="0">n</tspan><tspan class="cls-11" x="3.88" y="0">t</tspan><tspan x="5.09" y="0">er</tspan></text><text class="cls-8" transform="translate(11.98 59.13)">shi<tspan class="cls-9" x="4.41" y="0">f</tspan><tspan x="5.54" y="0">t</tspan></text><text class="cls-8" transform="translate(11.98 42.81)">caps</text><text class="cls-8" transform="translate(11.98 25.33)">tab</text><text class="cls-12" transform="translate(27.61 9.78)">1</text><text class="cls-12" transform="translate(43.93 9.78)">2</text><text class="cls-12" transform="translate(60.31 9.78)">3</text><text class="cls-12" transform="translate(76.81 9.78)">4</text><text class="cls-12" transform="translate(94.06 9.78)">5</text><text class="cls-12" transform="translate(110.38 9.78)">6</text><text class="cls-12" transform="translate(126.76 9.78)">7</text><text class="cls-12" transform="translate(143.26 9.78)">8</text><text class="cls-12" transform="translate(159.91 9.78)">9</text><text class="cls-12" transform="translate(176.23 9.78)">0</text><text class="cls-12" transform="translate(192.61 9.78)">-</text><text class="cls-12" transform="translate(209.11 9.78)">=</text><text class="cls-8" transform="translate(241.35 8.99)">back</text><text class="cls-12" transform="translate(34.86 27.06)">Q</text><text class="cls-12" transform="translate(51.19 27.06)">W</text><text class="cls-12" transform="translate(67.57 27.06)">E</text><text class="cls-12" transform="translate(84.06 27.06)">R</text><text class="cls-12" transform="translate(101.31 27.06)">T</text><text class="cls-12" transform="translate(117.64 27.06)">Y</text><text class="cls-12" transform="translate(134.02 27.06)">U</text><text class="cls-12" transform="translate(150.51 27.06)">I</text><text class="cls-12" transform="translate(167.16 27.06)">O</text><text class="cls-12" transform="translate(183.49 27.06)">P</text><text class="cls-12" transform="translate(199.87 27.06)">[</text><text class="cls-12" transform="translate(216.37 27.06)">]</text><text class="cls-12" transform="translate(241.35 27.06)">\</text><text class="cls-12" transform="translate(39.47 43.59)">A</text><text class="cls-12" transform="translate(55.8 43.59)">S</text><text class="cls-12" transform="translate(72.18 43.59)">D</text><text class="cls-12" transform="translate(88.67 43.59)">F</text><text class="cls-12" transform="translate(105.92 43.59)">G</text><text class="cls-12" transform="translate(122.25 43.59)">H</text><text class="cls-12" transform="translate(138.63 43.59)">J</text><text class="cls-12" transform="translate(155.12 43.59)">K</text><text class="cls-12" transform="translate(171.77 43.59)">L</text><text class="cls-12" transform="translate(188.1 43.59)">;</text><text class="cls-12" transform="translate(204.48 43.59)">‘</text><text class="cls-12" transform="translate(49.43 61.03)">Z</text><text class="cls-12" transform="translate(65.76 61.03)">X</text><text class="cls-12" transform="translate(82.14 61.03)">C</text><text class="cls-12" transform="translate(98.63 61.03)">V</text><text class="cls-12" transform="translate(115.88 61.03)">B</text><text class="cls-12" transform="translate(132.2 61.03)">N</text><text class="cls-12" transform="translate(148.59 61.03)">M</text><text class="cls-12" transform="translate(165.08 61.03)">,</text><text class="cls-12" transform="translate(181.73 61.03)">.</text><text class="cls-12" transform="translate(198.06 61.03)">/</text></g></svg>