<svg id="Keyboard" xmlns="http://www.w3.org/2000/svg" viewBox="0 0 251.54 81.13"><defs><style>.cls-1{fill:#a7a9ac;}.cls-1,.cls-2,.cls-6{stroke:#231f20;stroke-miterlimit:10;stroke-width:0.5px;}.cls-2{fill:none;}.cls-3{font-size:5.24px;}.cls-11,.cls-3,.cls-6,.cls-7{fill:#231f20;}.cls-11,.cls-3,.cls-7{font-family:MyriadPro-Regular, Myriad Pro;}.cls-4{letter-spacing:0.01em;}.cls-5{letter-spacing:0em;}.cls-7{font-size:3.72px;}.cls-8{letter-spacing:0.01em;}.cls-9{letter-spacing:0em;}.cls-10{letter-spacing:-0.01em;}.cls-11{font-size:4.38px;}</style></defs><g id="Keys"><path class="cls-1" d="M75.12,123.12h93.4c.86,0,1.56-1.11,1.56-2.47v-7.86c0-1.36-.7-2.47-1.56-2.47H75.12c-.87,0-1.57,1.11-1.57,2.47v7.86C73.55,122,74.25,123.12,75.12,123.12Z" transform="translate(-5.49 -42.24)"/><path class="cls-1" d="M69.1,110.32H54.52a1.54,1.54,0,0,0-1.58,1.49v9.82a1.54,1.54,0,0,0,1.58,1.49H69.1a1.54,1.54,0,0,0,1.58-1.49v-9.82A1.54,1.54,0,0,0,69.1,110.32Z" transform="translate(-5.49 -42.24)"/><rect class="cls-2" x="27.11" y="68.08" width="16.81" height="12.8" rx="1.49"/><path class="cls-1" d="M27.23,110.32H7.3A1.4,1.4,0,0,0,6,111.81v9.82a1.4,1.4,0,0,0,1.29,1.49H27.23a1.41,1.41,0,0,0,1.3-1.49v-9.82A1.41,1.41,0,0,0,27.23,110.32Z" transform="translate(-5.49 -42.24)"/><path class="cls-2" d="M209.63,110.32H194a1.6,1.6,0,0,0-1.69,1.49v9.82a1.6,1.6,0,0,0,1.69,1.49h15.63a1.6,1.6,0,0,0,1.69-1.49v-9.82A1.6,1.6,0,0,0,209.63,110.32Z" transform="translate(-5.49 -42.24)"/><path class="cls-1" d="M188.65,110.32H173.79a1.55,1.55,0,0,0-1.6,1.49v9.82a1.55,1.55,0,0,0,1.6,1.49h14.86a1.55,1.55,0,0,0,1.6-1.49v-9.82A1.55,1.55,0,0,0,188.65,110.32Z" transform="translate(-5.49 -42.24)"/><path class="cls-1" d="M254.87,110.32H237.18a1.74,1.74,0,0,0-1.91,1.49v9.82a1.74,1.74,0,0,0,1.91,1.49h17.69a1.74,1.74,0,0,0,1.91-1.49v-9.82A1.74,1.74,0,0,0,254.87,110.32Z" transform="translate(-5.49 -42.24)"/><path class="cls-2" d="M231.26,110.32H215.6a1.6,1.6,0,0,0-1.69,1.49v9.82a1.6,1.6,0,0,0,1.69,1.49h15.66a1.6,1.6,0,0,0,1.69-1.49v-9.82A1.6,1.6,0,0,0,231.26,110.32Z" transform="translate(-5.49 -42.24)"/><path class="cls-1" d="M38.24,93.36H8a1.78,1.78,0,0,0-2,1.49v9.82c0,.83.88,1.49,2,1.49H38.24c1.09,0,2-.66,2-1.49V94.85A1.78,1.78,0,0,0,38.24,93.36Z" transform="translate(-5.49 -42.24)"/><path class="cls-1" d="M57.49,93.36H45.71a1.4,1.4,0,0,0-1.28,1.49v9.82a1.39,1.39,0,0,0,1.28,1.49H57.49a1.39,1.39,0,0,0,1.27-1.49V94.85A1.4,1.4,0,0,0,57.49,93.36Z" transform="translate(-5.49 -42.24)"/><path class="cls-1" d="M73.87,93.36H62.09a1.4,1.4,0,0,0-1.28,1.49v9.82a1.39,1.39,0,0,0,1.28,1.49H73.87a1.39,1.39,0,0,0,1.27-1.49V94.85A1.4,1.4,0,0,0,73.87,93.36Z" transform="translate(-5.49 -42.24)"/><path class="cls-1" d="M90.36,93.36H78.58a1.4,1.4,0,0,0-1.27,1.49v9.82a1.39,1.39,0,0,0,1.27,1.49H90.36a1.39,1.39,0,0,0,1.27-1.49V94.85A1.4,1.4,0,0,0,90.36,93.36Z" transform="translate(-5.49 -42.24)"/><path class="cls-1" d="M106.74,93.36H95a1.4,1.4,0,0,0-1.27,1.49v9.82A1.39,1.39,0,0,0,95,106.16h11.78a1.39,1.39,0,0,0,1.28-1.49V94.85A1.4,1.4,0,0,0,106.74,93.36Z" transform="translate(-5.49 -42.24)"/><path class="cls-1" d="M123.1,93.36H111.32A1.4,1.4,0,0,0,110,94.85v9.82a1.39,1.39,0,0,0,1.28,1.49H123.1a1.39,1.39,0,0,0,1.27-1.49V94.85A1.4,1.4,0,0,0,123.1,93.36Z" transform="translate(-5.49 -42.24)"/><path class="cls-1" d="M139.59,93.36H127.81a1.4,1.4,0,0,0-1.27,1.49v9.82a1.39,1.39,0,0,0,1.27,1.49h11.78a1.39,1.39,0,0,0,1.27-1.49V94.85A1.4,1.4,0,0,0,139.59,93.36Z" transform="translate(-5.49 -42.24)"/><path class="cls-1" d="M156,93.36H144.19a1.4,1.4,0,0,0-1.27,1.49v9.82a1.39,1.39,0,0,0,1.27,1.49H156a1.39,1.39,0,0,0,1.27-1.49V94.85A1.4,1.4,0,0,0,156,93.36Z" transform="translate(-5.49 -42.24)"/><path class="cls-1" d="M172.49,93.36H160.71a1.4,1.4,0,0,0-1.28,1.49v9.82a1.39,1.39,0,0,0,1.28,1.49h11.78a1.39,1.39,0,0,0,1.27-1.49V94.85A1.4,1.4,0,0,0,172.49,93.36Z" transform="translate(-5.49 -42.24)"/><path class="cls-1" d="M189,93.36H177.2a1.4,1.4,0,0,0-1.27,1.49v9.82a1.39,1.39,0,0,0,1.27,1.49H189a1.39,1.39,0,0,0,1.27-1.49V94.85A1.4,1.4,0,0,0,189,93.36Z" transform="translate(-5.49 -42.24)"/><path class="cls-1" d="M205.36,93.36H193.58a1.4,1.4,0,0,0-1.27,1.49v9.82a1.39,1.39,0,0,0,1.27,1.49h11.78a1.38,1.38,0,0,0,1.27-1.49V94.85A1.39,1.39,0,0,0,205.36,93.36Z" transform="translate(-5.49 -42.24)"/><path class="cls-1" d="M254,93.36H211.86c-1.51,0-2.74.67-2.74,1.49v9.82c0,.83,1.23,1.49,2.74,1.49H254c1.51,0,2.74-.66,2.74-1.49V94.85C256.78,94,255.55,93.36,254,93.36Z" transform="translate(-5.49 -42.24)"/><path class="cls-1" d="M31.07,76.4H7.54A1.51,1.51,0,0,0,6,77.9v9.81a1.51,1.51,0,0,0,1.53,1.5H31.07a1.52,1.52,0,0,0,1.53-1.5V77.9A1.52,1.52,0,0,0,31.07,76.4Z" transform="translate(-5.49 -42.24)"/><path class="cls-1" d="M48.41,76.4H36.62a1.4,1.4,0,0,0-1.27,1.5v9.81a1.4,1.4,0,0,0,1.27,1.5H48.41a1.4,1.4,0,0,0,1.27-1.5V77.9A1.4,1.4,0,0,0,48.41,76.4Z" transform="translate(-5.49 -42.24)"/><path class="cls-1" d="M64.79,76.4H53a1.4,1.4,0,0,0-1.28,1.5v9.81A1.4,1.4,0,0,0,53,89.21H64.79a1.4,1.4,0,0,0,1.27-1.5V77.9A1.4,1.4,0,0,0,64.79,76.4Z" transform="translate(-5.49 -42.24)"/><path class="cls-1" d="M81.28,76.4H69.5a1.4,1.4,0,0,0-1.27,1.5v9.81a1.4,1.4,0,0,0,1.27,1.5H81.28a1.4,1.4,0,0,0,1.27-1.5V77.9A1.4,1.4,0,0,0,81.28,76.4Z" transform="translate(-5.49 -42.24)"/><path class="cls-1" d="M97.66,76.4H85.88a1.4,1.4,0,0,0-1.27,1.5v9.81a1.4,1.4,0,0,0,1.27,1.5H97.66a1.4,1.4,0,0,0,1.27-1.5V77.9A1.4,1.4,0,0,0,97.66,76.4Z" transform="translate(-5.49 -42.24)"/><path class="cls-1" d="M114,76.4H102.23A1.4,1.4,0,0,0,101,77.9v9.81a1.4,1.4,0,0,0,1.27,1.5H114a1.4,1.4,0,0,0,1.28-1.5V77.9A1.4,1.4,0,0,0,114,76.4Z" transform="translate(-5.49 -42.24)"/><path class="cls-1" d="M130.51,76.4H118.73a1.4,1.4,0,0,0-1.27,1.5v9.81a1.4,1.4,0,0,0,1.27,1.5h11.78a1.4,1.4,0,0,0,1.27-1.5V77.9A1.4,1.4,0,0,0,130.51,76.4Z" transform="translate(-5.49 -42.24)"/><path class="cls-1" d="M146.89,76.4H135.11a1.4,1.4,0,0,0-1.27,1.5v9.81a1.4,1.4,0,0,0,1.27,1.5h11.78a1.4,1.4,0,0,0,1.27-1.5V77.9A1.4,1.4,0,0,0,146.89,76.4Z" transform="translate(-5.49 -42.24)"/><path class="cls-1" d="M163.41,76.4H151.63a1.4,1.4,0,0,0-1.28,1.5v9.81a1.4,1.4,0,0,0,1.28,1.5h11.78a1.4,1.4,0,0,0,1.27-1.5V77.9A1.4,1.4,0,0,0,163.41,76.4Z" transform="translate(-5.49 -42.24)"/><path class="cls-1" d="M179.9,76.4H168.12a1.4,1.4,0,0,0-1.27,1.5v9.81a1.4,1.4,0,0,0,1.27,1.5H179.9a1.4,1.4,0,0,0,1.27-1.5V77.9A1.4,1.4,0,0,0,179.9,76.4Z" transform="translate(-5.49 -42.24)"/><path class="cls-1" d="M196.14,76.4H184.36a1.4,1.4,0,0,0-1.27,1.5v9.81a1.4,1.4,0,0,0,1.27,1.5h11.78a1.4,1.4,0,0,0,1.28-1.5V77.9A1.4,1.4,0,0,0,196.14,76.4Z" transform="translate(-5.49 -42.24)"/><path class="cls-1" d="M212.64,76.4H200.86a1.4,1.4,0,0,0-1.27,1.5v9.81a1.4,1.4,0,0,0,1.27,1.5h11.78a1.4,1.4,0,0,0,1.27-1.5V77.9A1.4,1.4,0,0,0,212.64,76.4Z" transform="translate(-5.49 -42.24)"/><path class="cls-1" d="M254.49,76.4H219.24c-1.27,0-2.29.67-2.29,1.5v9.81c0,.83,1,1.5,2.29,1.5h35.25c1.26,0,2.29-.67,2.29-1.5V77.9C256.78,77.07,255.75,76.4,254.49,76.4Z" transform="translate(-5.49 -42.24)"/><path class="cls-1" d="M27.23,59.45H7.3A1.4,1.4,0,0,0,6,60.94v9.82A1.4,1.4,0,0,0,7.3,72.25H27.23a1.41,1.41,0,0,0,1.3-1.49V60.94A1.41,1.41,0,0,0,27.23,59.45Z" transform="translate(-5.49 -42.24)"/><path class="cls-1" d="M43.58,59.45H31.8a1.4,1.4,0,0,0-1.27,1.49v9.82a1.4,1.4,0,0,0,1.27,1.49H43.58a1.4,1.4,0,0,0,1.28-1.49V60.94A1.4,1.4,0,0,0,43.58,59.45Z" transform="translate(-5.49 -42.24)"/><path class="cls-1" d="M60,59.45H48.18a1.4,1.4,0,0,0-1.27,1.49v9.82a1.4,1.4,0,0,0,1.27,1.49H60a1.4,1.4,0,0,0,1.28-1.49V60.94A1.4,1.4,0,0,0,60,59.45Z" transform="translate(-5.49 -42.24)"/><path class="cls-1" d="M76.46,59.45H64.68a1.4,1.4,0,0,0-1.27,1.49v9.82a1.4,1.4,0,0,0,1.27,1.49H76.46a1.4,1.4,0,0,0,1.27-1.49V60.94A1.4,1.4,0,0,0,76.46,59.45Z" transform="translate(-5.49 -42.24)"/><path class="cls-1" d="M92.84,59.45H81.06a1.4,1.4,0,0,0-1.27,1.49v9.82a1.4,1.4,0,0,0,1.27,1.49H92.84a1.4,1.4,0,0,0,1.27-1.49V60.94A1.4,1.4,0,0,0,92.84,59.45Z" transform="translate(-5.49 -42.24)"/><path class="cls-1" d="M109.19,59.45H97.41a1.4,1.4,0,0,0-1.27,1.49v9.82a1.4,1.4,0,0,0,1.27,1.49h11.78a1.4,1.4,0,0,0,1.27-1.49V60.94A1.4,1.4,0,0,0,109.19,59.45Z" transform="translate(-5.49 -42.24)"/><path class="cls-1" d="M125.69,59.45H113.91a1.4,1.4,0,0,0-1.28,1.49v9.82a1.4,1.4,0,0,0,1.28,1.49h11.78A1.4,1.4,0,0,0,127,70.76V60.94A1.4,1.4,0,0,0,125.69,59.45Z" transform="translate(-5.49 -42.24)"/><path class="cls-1" d="M142.07,59.45H130.29A1.4,1.4,0,0,0,129,60.94v9.82a1.4,1.4,0,0,0,1.28,1.49h11.78a1.4,1.4,0,0,0,1.27-1.49V60.94A1.4,1.4,0,0,0,142.07,59.45Z" transform="translate(-5.49 -42.24)"/><path class="cls-1" d="M158.58,59.45H146.8a1.4,1.4,0,0,0-1.27,1.49v9.82a1.4,1.4,0,0,0,1.27,1.49h11.78a1.4,1.4,0,0,0,1.28-1.49V60.94A1.4,1.4,0,0,0,158.58,59.45Z" transform="translate(-5.49 -42.24)"/><path class="cls-1" d="M175.08,59.45H163.3A1.4,1.4,0,0,0,162,60.94v9.82a1.4,1.4,0,0,0,1.28,1.49h11.78a1.4,1.4,0,0,0,1.27-1.49V60.94A1.4,1.4,0,0,0,175.08,59.45Z" transform="translate(-5.49 -42.24)"/><path class="cls-1" d="M191.32,59.45H179.54a1.4,1.4,0,0,0-1.27,1.49v9.82a1.4,1.4,0,0,0,1.27,1.49h11.78a1.4,1.4,0,0,0,1.27-1.49V60.94A1.4,1.4,0,0,0,191.32,59.45Z" transform="translate(-5.49 -42.24)"/><path class="cls-1" d="M207.82,59.45H196a1.4,1.4,0,0,0-1.28,1.49v9.82A1.4,1.4,0,0,0,196,72.25h11.78a1.4,1.4,0,0,0,1.27-1.49V60.94A1.4,1.4,0,0,0,207.82,59.45Z" transform="translate(-5.49 -42.24)"/><path class="cls-1" d="M224.37,59.45H212.59a1.4,1.4,0,0,0-1.27,1.49v9.82a1.4,1.4,0,0,0,1.27,1.49h11.78a1.4,1.4,0,0,0,1.28-1.49V60.94A1.4,1.4,0,0,0,224.37,59.45Z" transform="translate(-5.49 -42.24)"/><path class="cls-1" d="M255.11,59.45H229.43a1.59,1.59,0,0,0-1.67,1.49v9.82a1.59,1.59,0,0,0,1.67,1.49h25.68a1.59,1.59,0,0,0,1.67-1.49V60.94A1.59,1.59,0,0,0,255.11,59.45Z" transform="translate(-5.49 -42.24)"/><path class="cls-2" d="M18.8,42.49H7A1.4,1.4,0,0,0,5.74,44V53.8A1.4,1.4,0,0,0,7,55.29H18.8a1.4,1.4,0,0,0,1.27-1.49V44A1.4,1.4,0,0,0,18.8,42.49Z" transform="translate(-5.49 -42.24)"/><path class="cls-1" d="M35.18,42.49H23.4A1.4,1.4,0,0,0,22.12,44V53.8a1.4,1.4,0,0,0,1.28,1.49H35.18a1.4,1.4,0,0,0,1.27-1.49V44A1.4,1.4,0,0,0,35.18,42.49Z" transform="translate(-5.49 -42.24)"/><path class="cls-1" d="M51.67,42.49H39.89A1.4,1.4,0,0,0,38.62,44V53.8a1.4,1.4,0,0,0,1.27,1.49H51.67a1.4,1.4,0,0,0,1.27-1.49V44A1.4,1.4,0,0,0,51.67,42.49Z" transform="translate(-5.49 -42.24)"/><path class="cls-1" d="M68.05,42.49H56.27A1.4,1.4,0,0,0,55,44V53.8a1.4,1.4,0,0,0,1.27,1.49H68.05a1.4,1.4,0,0,0,1.27-1.49V44A1.4,1.4,0,0,0,68.05,42.49Z" transform="translate(-5.49 -42.24)"/><path class="cls-1" d="M84.4,42.49H72.62A1.4,1.4,0,0,0,71.35,44V53.8a1.4,1.4,0,0,0,1.27,1.49H84.4a1.4,1.4,0,0,0,1.28-1.49V44A1.4,1.4,0,0,0,84.4,42.49Z" transform="translate(-5.49 -42.24)"/><path class="cls-1" d="M100.9,42.49H89.12A1.4,1.4,0,0,0,87.85,44V53.8a1.4,1.4,0,0,0,1.27,1.49H100.9a1.4,1.4,0,0,0,1.27-1.49V44A1.4,1.4,0,0,0,100.9,42.49Z" transform="translate(-5.49 -42.24)"/><path class="cls-1" d="M117.28,42.49H105.5A1.4,1.4,0,0,0,104.23,44V53.8a1.4,1.4,0,0,0,1.27,1.49h11.78a1.4,1.4,0,0,0,1.27-1.49V44A1.4,1.4,0,0,0,117.28,42.49Z" transform="translate(-5.49 -42.24)"/><path class="cls-1" d="M133.8,42.49H122A1.4,1.4,0,0,0,120.74,44V53.8A1.4,1.4,0,0,0,122,55.29H133.8a1.4,1.4,0,0,0,1.27-1.49V44A1.4,1.4,0,0,0,133.8,42.49Z" transform="translate(-5.49 -42.24)"/><path class="cls-1" d="M150.29,42.49H138.51A1.4,1.4,0,0,0,137.24,44V53.8a1.4,1.4,0,0,0,1.27,1.49h11.78a1.4,1.4,0,0,0,1.27-1.49V44A1.4,1.4,0,0,0,150.29,42.49Z" transform="translate(-5.49 -42.24)"/><path class="cls-1" d="M166.53,42.49H154.75A1.4,1.4,0,0,0,153.48,44V53.8a1.4,1.4,0,0,0,1.27,1.49h11.78a1.4,1.4,0,0,0,1.28-1.49V44A1.4,1.4,0,0,0,166.53,42.49Z" transform="translate(-5.49 -42.24)"/><path class="cls-1" d="M183,42.49H171.25A1.4,1.4,0,0,0,170,44V53.8a1.4,1.4,0,0,0,1.27,1.49H183a1.4,1.4,0,0,0,1.27-1.49V44A1.4,1.4,0,0,0,183,42.49Z" transform="translate(-5.49 -42.24)"/><path class="cls-1" d="M199.59,42.49H187.81A1.4,1.4,0,0,0,186.53,44V53.8a1.4,1.4,0,0,0,1.28,1.49h11.78a1.4,1.4,0,0,0,1.27-1.49V44A1.4,1.4,0,0,0,199.59,42.49Z" transform="translate(-5.49 -42.24)"/><path class="cls-1" d="M217.21,42.49H205.43A1.4,1.4,0,0,0,204.16,44V53.8a1.4,1.4,0,0,0,1.27,1.49h11.78a1.39,1.39,0,0,0,1.27-1.49V44A1.39,1.39,0,0,0,217.21,42.49Z" transform="translate(-5.49 -42.24)"/><path class="cls-1" d="M254.76,42.49h-31c-1.11,0-2,.67-2,1.49V53.8c0,.82.9,1.49,2,1.49h31c1.12,0,2-.67,2-1.49V44C256.78,43.16,255.88,42.49,254.76,42.49Z" transform="translate(-5.49 -42.24)"/><text class="cls-3" transform="translate(7.41 75.5)"><tspan class="cls-4">c</tspan><tspan x="2.41" y="0">t</tspan><tspan class="cls-5" x="4.15" y="0">r</tspan><tspan x="5.88" y="0">l</tspan></text><text class="cls-3" transform="translate(53.27 75.5)">alt</text><text class="cls-3" transform="translate(172.78 75.5)">alt</text><text class="cls-3" transform="translate(236.78 75.5)"><tspan class="cls-4">c</tspan><tspan x="2.41" y="0">t</tspan><tspan class="cls-5" x="4.15" y="0">r</tspan><tspan x="5.88" y="0">l</tspan></text><line class="cls-6" x1="104.97" y1="72.86" x2="135.37" y2="72.86"/><text class="cls-7" transform="translate(236.78 57.52)">shi<tspan class="cls-8" x="4.41" y="0">f</tspan><tspan x="5.54" y="0">t</tspan></text><text class="cls-7" transform="translate(236.78 41.26)">E<tspan class="cls-9" x="1.83" y="0">n</tspan><tspan class="cls-10" x="3.88" y="0">t</tspan><tspan x="5.09" y="0">er</tspan></text><text class="cls-7" transform="translate(7.41 56.8)">shi<tspan class="cls-8" x="4.41" y="0">f</tspan><tspan x="5.54" y="0">t</tspan></text><text class="cls-7" transform="translate(7.41 40.48)">caps</text><text class="cls-7" transform="translate(7.41 23)">tab</text><text class="cls-11" transform="translate(23.04 7.44)">1</text><text class="cls-11" transform="translate(39.36 7.44)">2</text><text class="cls-11" transform="translate(55.74 7.44)">3</text><text class="cls-11" transform="translate(72.24 7.44)">4</text><text class="cls-11" transform="translate(89.49 7.44)">5</text><text class="cls-11" transform="translate(105.81 7.44)">6</text><text class="cls-11" transform="translate(122.19 7.44)">7</text><text class="cls-11" transform="translate(138.69 7.44)">8</text><text class="cls-11" transform="translate(155.34 7.44)">9</text><text class="cls-11" transform="translate(171.66 7.44)">0</text><text class="cls-11" transform="translate(188.05 7.44)">-</text><text class="cls-11" transform="translate(204.54 7.44)">=</text><text class="cls-7" transform="translate(236.78 6.65)">back</text><text class="cls-11" transform="translate(30.29 24.72)">Q</text><text class="cls-11" transform="translate(46.62 24.72)">W</text><text class="cls-11" transform="translate(63 24.72)">E</text><text class="cls-11" transform="translate(79.5 24.72)">R</text><text class="cls-11" transform="translate(96.74 24.72)">T</text><text class="cls-11" transform="translate(113.07 24.72)">Y</text><text class="cls-11" transform="translate(129.45 24.72)">U</text><text class="cls-11" transform="translate(145.94 24.72)">I</text><text class="cls-11" transform="translate(162.6 24.72)">O</text><text class="cls-11" transform="translate(178.92 24.72)">P</text><text class="cls-11" transform="translate(195.3 24.72)">[</text><text class="cls-11" transform="translate(211.8 24.72)">]</text><text class="cls-11" transform="translate(236.78 24.72)">\</text><text class="cls-11" transform="translate(34.9 41.26)">A</text><text class="cls-11" transform="translate(51.23 41.26)">S</text><text class="cls-11" transform="translate(67.61 41.26)">D</text><text class="cls-11" transform="translate(84.1 41.26)">F</text><text class="cls-11" transform="translate(101.35 41.26)">G</text><text class="cls-11" transform="translate(117.68 41.26)">H</text><text class="cls-11" transform="translate(134.06 41.26)">J</text><text class="cls-11" transform="translate(150.55 41.26)">K</text><text class="cls-11" transform="translate(167.2 41.26)">L</text><text class="cls-11" transform="translate(183.53 41.26)">;</text><text class="cls-11" transform="translate(199.91 41.26)">‘</text><text class="cls-11" transform="translate(44.86 58.69)">Z</text><text class="cls-11" transform="translate(61.19 58.69)">X</text><text class="cls-11" transform="translate(77.57 58.69)">C</text><text class="cls-11" transform="translate(94.06 58.69)">V</text><text class="cls-11" transform="translate(111.31 58.69)">B</text><text class="cls-11" transform="translate(127.64 58.69)">N</text><text class="cls-11" transform="translate(144.02 58.69)">M</text><text class="cls-11" transform="translate(160.51 58.69)">,</text><text class="cls-11" transform="translate(177.16 58.69)">.</text><text class="cls-11" transform="translate(193.49 58.69)">/</text></g></svg>