<?xml version="1.0" encoding="UTF-8" standalone="no"?>
<svg
   xmlns:dc="http://purl.org/dc/elements/1.1/"
   xmlns:cc="http://creativecommons.org/ns#"
   xmlns:rdf="http://www.w3.org/1999/02/22-rdf-syntax-ns#"
   xmlns:svg="http://www.w3.org/2000/svg"
   xmlns="http://www.w3.org/2000/svg"
   version="1.1"
   viewBox="0 0 245.45 145.67"
   id="PS3GHLesPaul">
  <metadata
     id="metadata53">
    <rdf:RDF>
      <cc:Work
         rdf:about="">
        <dc:format>image/svg+xml</dc:format>
        <dc:type
           rdf:resource="http://purl.org/dc/dcmitype/StillImage" />
      </cc:Work>
    </rdf:RDF>
  </metadata>
  <defs
     id="defs4">
    <style
       id="style2">.cls-1{fill:#292728;}.cls-1,.cls-10,.cls-2,.cls-3,.cls-4,.cls-6,.cls-7,.cls-8,.cls-9{stroke:#000;}.cls-1,.cls-10,.cls-2,.cls-3,.cls-4,.cls-5,.cls-6,.cls-7,.cls-8,.cls-9{stroke-miterlimit:10;stroke-width:0.25px;}.cls-2{fill:#9d9fa2;}.cls-3,.cls-5{fill:#333132;}.cls-4{fill:#d1d3d4;}.cls-5{stroke:#231f20;}.cls-6{fill:#b34926;}.cls-7{fill:#3a58a7;}.cls-8{fill:#fbef59;}.cls-9{fill:#be1e2d;}.cls-10{fill:#538c43;}</style>
  </defs>
  <g
     id="gr_x"
     transform="translate(0,-2.4673828e-6)">
    <path
       style="fill:#333132;stroke:#000000;stroke-width:0.25px;stroke-miterlimit:10"
       class="cls-3"
       d="m 48.16,135.21 3,3.48 a 0.83,0.83 0 0 0 1.1,0.08 l 7.67,-6.71 a 0.81,0.81 0 0 0 0.06,-1.21 l -3.42,-3.38 a 0.81,0.81 0 0 0 -1.16,0 l -7.2,6.61 a 0.82,0.82 0 0 0 -0.05,1.13 z"
       transform="translate(-18.9,-7.69)"
       id="path1132" />
    <path
       style="fill:#d1d3d4;stroke:#000000;stroke-width:0.25px;stroke-miterlimit:10"
       class="cls-4"
       d="m 52.1,133.2 20,-8.54 a 1.13,1.13 0 0 1 0.64,1.5 l -20,8.54 a 0.93,0.93 0 0 1 -0.64,-1.5 z"
       transform="translate(-18.9,-7.69)"
       id="path1134" />
    <path
       style="fill:#9d9fa2;stroke:#000000;stroke-width:0.25px;stroke-miterlimit:10"
       class="cls-2"
       d="m 79,121.19 a 1.89,1.89 0 0 1 1,2.4 l -7.2,2.57 a 1.23,1.23 0 0 0 -0.64,-1.5 z"
       transform="translate(-18.9,-7.69)"
       id="path1136" />
  </g>
</svg>
