<?xml version="1.0" encoding="UTF-8" standalone="no"?>
<svg
   xmlns:dc="http://purl.org/dc/elements/1.1/"
   xmlns:cc="http://creativecommons.org/ns#"
   xmlns:rdf="http://www.w3.org/1999/02/22-rdf-syntax-ns#"
   xmlns:svg="http://www.w3.org/2000/svg"
   xmlns="http://www.w3.org/2000/svg"
   id="svg88"
   version="1.1"
   viewBox="0 0 225.44 155.98">
  <metadata
     id="metadata92">
    <rdf:RDF>
      <cc:Work
         rdf:about="">
        <dc:format>image/svg+xml</dc:format>
        <dc:type
           rdf:resource="http://purl.org/dc/dcmitype/StillImage" />
      </cc:Work>
    </rdf:RDF>
  </metadata>
  <defs
     id="defs4">
    <style
       id="style2">.cls-1{fill:#393839;}.cls-1,.cls-10,.cls-11,.cls-12,.cls-2,.cls-3,.cls-4,.cls-5,.cls-6,.cls-7,.cls-8,.cls-9{stroke:#000;stroke-width:0.25px;}.cls-1,.cls-10,.cls-11,.cls-12,.cls-13,.cls-14,.cls-15,.cls-16,.cls-17,.cls-18,.cls-19,.cls-2,.cls-20,.cls-21,.cls-22,.cls-23,.cls-24,.cls-3,.cls-4,.cls-5,.cls-6,.cls-7,.cls-8,.cls-9{stroke-miterlimit:10;}.cls-2{fill:#464547;}.cls-3{fill:#d75d5e;}.cls-4{fill:#919396;}.cls-5{fill:#fff682;}.cls-6{fill:#4d7aae;}.cls-7{fill:#009d6f;}.cls-8{fill:#fff462;}.cls-9{fill:#5aa2d8;}.cls-10{fill:#2cb67a;}.cls-11{fill:#3e3e3f;}.cls-12{fill:#848689;}.cls-13{fill:#6ca63c;}.cls-13,.cls-14,.cls-15,.cls-16,.cls-17,.cls-18,.cls-19,.cls-20,.cls-21,.cls-22,.cls-23,.cls-24{stroke:#231f20;}.cls-13,.cls-14,.cls-15,.cls-16,.cls-17,.cls-18,.cls-19,.cls-20{stroke-width:0.1px;}.cls-14{fill:#0058a3;}.cls-15{fill:#f6bd17;}.cls-16{fill:#aa1e23;}.cls-17{fill:#1687c9;}.cls-18{fill:#febf38;}.cls-19{fill:#99ca3c;}.cls-20{fill:#dd1f26;}.cls-21{fill:none;}.cls-21,.cls-22,.cls-23,.cls-24{stroke-width:0.05px;}.cls-22{fill:#8dc63f;}.cls-23{fill:#d1d3d4;}.cls-24{fill:#9d9fa2;}</style>
  </defs>
  <g
     id="gb">
    <path
       class="cls-3"
       d="m 59.54,114.56 c -4.26,-7.22 -13.3,-17 -30.6,-10.78 -17.3,6.22 -18.18,22.95 -18.27,26.95 0,0 1.13,23.31 27.13,20.7 21.31,-3.13 27.74,-26.96 21.74,-36.87 z m -17.39,33.91 c -6.87,3.57 -33.21,-0.26 -29.13,-22.34 4.08,-22.08 24,-22 24,-22 7.14,-1.34 21.83,3.19 22.78,18.76 0.95,15.57 -10.78,22.02 -17.65,25.58 z"
       id="path14"
       style="fill:#d75d5e;stroke:#000000;stroke-width:0.25px;stroke-miterlimit:10" />
    <path
       class="cls-4"
       d="m 42.1,148.4 c -6.87,3.56 -33.21,-0.26 -29.13,-22.35 4.08,-22.09 24,-22 24,-22 7.15,-1.33 21.83,3.2 22.79,18.76 0.96,15.56 -10.79,22.02 -17.66,25.59 z"
       id="path16"
       style="fill:#919396;stroke:#000000;stroke-width:0.25px;stroke-miterlimit:10" />
    <circle
       class="cls-16"
       cx="122.27"
       cy="113.06"
       r="1.0599999"
       id="circle58"
       style="fill:#aa1e23;stroke:#231f20;stroke-width:0.1px;stroke-miterlimit:10" />
    <path
       class="cls-20"
       d="m 122.45,113.05 a 0.26,0.26 0 0 0 0.26,-0.27 c 0,-0.28 -0.46,-0.25 -0.46,-0.25 h -0.39 v 1 h 0.6 c 0,0 0.28,0 0.28,-0.27 0,-0.27 -0.29,-0.21 -0.29,-0.21 z m -0.1,0.33 h -0.27 v -0.21 h 0.29 c 0,0 0.08,0 0.08,0.1 0,0.1 -0.08,0.11 -0.08,0.11 z m 0,-0.45 h -0.25 v -0.23 h 0.27 a 0.1,0.1 0 0 1 0.11,0.11 c -0.04,0.13 -0.11,0.12 -0.11,0.12 z"
       id="path66"
       style="fill:#dd1f26;stroke:#231f20;stroke-width:0.1px;stroke-miterlimit:10" />
  </g>
</svg>
