<?xml version="1.0" encoding="UTF-8" standalone="no"?>
<svg
   xmlns:dc="http://purl.org/dc/elements/1.1/"
   xmlns:cc="http://creativecommons.org/ns#"
   xmlns:rdf="http://www.w3.org/1999/02/22-rdf-syntax-ns#"
   xmlns:svg="http://www.w3.org/2000/svg"
   xmlns="http://www.w3.org/2000/svg"
   id="svg88"
   version="1.1"
   viewBox="0 0 225.44 155.98">
  <metadata
     id="metadata92">
    <rdf:RDF>
      <cc:Work
         rdf:about="">
        <dc:format>image/svg+xml</dc:format>
        <dc:type
           rdf:resource="http://purl.org/dc/dcmitype/StillImage" />
      </cc:Work>
    </rdf:RDF>
  </metadata>
  <defs
     id="defs4">
    <style
       id="style2">.cls-1{fill:#393839;}.cls-1,.cls-10,.cls-11,.cls-12,.cls-2,.cls-3,.cls-4,.cls-5,.cls-6,.cls-7,.cls-8,.cls-9{stroke:#000;stroke-width:0.25px;}.cls-1,.cls-10,.cls-11,.cls-12,.cls-13,.cls-14,.cls-15,.cls-16,.cls-17,.cls-18,.cls-19,.cls-2,.cls-20,.cls-21,.cls-22,.cls-23,.cls-24,.cls-3,.cls-4,.cls-5,.cls-6,.cls-7,.cls-8,.cls-9{stroke-miterlimit:10;}.cls-2{fill:#464547;}.cls-3{fill:#d75d5e;}.cls-4{fill:#919396;}.cls-5{fill:#fff682;}.cls-6{fill:#4d7aae;}.cls-7{fill:#009d6f;}.cls-8{fill:#fff462;}.cls-9{fill:#5aa2d8;}.cls-10{fill:#2cb67a;}.cls-11{fill:#3e3e3f;}.cls-12{fill:#848689;}.cls-13{fill:#6ca63c;}.cls-13,.cls-14,.cls-15,.cls-16,.cls-17,.cls-18,.cls-19,.cls-20,.cls-21,.cls-22,.cls-23,.cls-24{stroke:#231f20;}.cls-13,.cls-14,.cls-15,.cls-16,.cls-17,.cls-18,.cls-19,.cls-20{stroke-width:0.1px;}.cls-14{fill:#0058a3;}.cls-15{fill:#f6bd17;}.cls-16{fill:#aa1e23;}.cls-17{fill:#1687c9;}.cls-18{fill:#febf38;}.cls-19{fill:#99ca3c;}.cls-20{fill:#dd1f26;}.cls-21{fill:none;}.cls-21,.cls-22,.cls-23,.cls-24{stroke-width:0.05px;}.cls-22{fill:#8dc63f;}.cls-23{fill:#d1d3d4;}.cls-24{fill:#9d9fa2;}</style>
  </defs>
  <g
     id="gRB">
    <path
       class="cls-11"
       d="m 113.42,149.88 38.52,5.06 6.54,-5.06 a 64.35,64.35 0 0 0 1,-12.35 c 0,-7.77 -1.23,-8.89 -1.23,-8.89 l -7,-5.06 -37.16,9.39 c 0,0 -15.06,0 -23.83,-2.1 0,0 -7.16,-0.5 -11.61,1.48 -4.45,1.98 -8.88,3.83 -8.88,3.83 0,0 -2.84,0.61 -2.84,5.43 v 3.45 c 0,0 -1.36,5.27 4.07,6.65 5.43,1.38 12.72,4.22 22,1.63 a 124.32,124.32 0 0 1 20.42,-3.46 z"
       id="path42"
       style="fill:#3e3e3f;stroke:#000000;stroke-width:0.25px;stroke-miterlimit:10" />
    <path
       class="cls-4"
       d="m 133.02,147.72 c 0,0 2.41,0.37 2.59,-1.85 0.18,-2.22 0,-11.11 0,-11.11 0,0 0.65,-2.23 -2.59,-1.95 -3.24,0.28 -20,1.67 -30.28,0.56 -10.28,-1.11 -16.31,-3 -24.91,0 -8.6,3 -10.65,3.42 -10.46,9 0.19,5.58 -1.2,7.5 6.76,9.44 7.96,1.94 10.18,3.15 19.54,0.84 a 150.62,150.62 0 0 1 39.35,-4.93 z"
       id="path44"
       style="fill:#919396;stroke:#000000;stroke-width:0.25px;stroke-miterlimit:10" />
  </g>
</svg>
