<?xml version="1.0" encoding="UTF-8" standalone="no"?>
<svg
   xmlns:dc="http://purl.org/dc/elements/1.1/"
   xmlns:cc="http://creativecommons.org/ns#"
   xmlns:rdf="http://www.w3.org/1999/02/22-rdf-syntax-ns#"
   xmlns:svg="http://www.w3.org/2000/svg"
   xmlns="http://www.w3.org/2000/svg"
   id="svg52"
   version="1.1"
   viewBox="0 0 250.73 148.38">
  <metadata
     id="metadata56">
    <rdf:RDF>
      <cc:Work
         rdf:about="">
        <dc:format>image/svg+xml</dc:format>
        <dc:type
           rdf:resource="http://purl.org/dc/dcmitype/StillImage" />
      </cc:Work>
    </rdf:RDF>
  </metadata>
  <defs
     id="defs4">
    <style
       id="style2">.cls-1{fill:#2d2a2b;}.cls-1,.cls-2,.cls-3,.cls-4,.cls-5,.cls-6,.cls-7{stroke:#231f20;stroke-miterlimit:10;}.cls-1,.cls-2,.cls-3,.cls-4{stroke-width:0.5px;}.cls-2{fill:#58595b;}.cls-3{fill:#b1b3b6;}.cls-4,.cls-7{fill:#9d9fa2;}.cls-5{fill:#fff;}.cls-5,.cls-6,.cls-7{stroke-width:0.25px;}.cls-6{fill:#231f20;}</style>
  </defs>
  <g
     id="gr_x">
    <path
       class="cls-2"
       d="m 26.13,137.82 1.25,1.36 a 2,2 0 0 0 2.82,0.09 l 6.4,-6.08 a 2,2 0 0 0 0.05,-2.82 l -1.1,-1.13 a 2,2 0 0 0 -2.74,-0.09 L 26.27,135 a 2,2 0 0 0 -0.14,2.82 z"
       id="path14"
       style="fill:#58595b;stroke:#231f20;stroke-width:0.5px;stroke-miterlimit:10" />
    <path
       class="cls-3"
       d="m 62.38,117.65 c 0,0 0.4,0.62 0.82,0.5 l 0.11,0.12 -31.22,16.62 a 1.06,1.06 0 0 1 -0.93,-0.6 1.58,1.58 0 0 1 -0.23,-1 l 31.65,-16.87 c 0,0 0.1,0.06 0,0.09 a 0.81,0.81 0 0 0 -0.2,1.08"
       id="path16"
       style="fill:#b1b3b6;stroke:#231f20;stroke-width:0.5px;stroke-miterlimit:10" />
    <path
       class="cls-4"
       d="m 63.27,118.27 12.66,-6.23 a 1.64,1.64 0 0 0 0.37,-2 2.13,2.13 0 0 0 -1.65,-1.28 l -12.11,7.72 c 0,0 -0.83,1.15 0.73,1.79 z"
       id="path18"
       style="fill:#9d9fa2;stroke:#231f20;stroke-width:0.5px;stroke-miterlimit:10" />
  </g>
</svg>
