<?xml version="1.0" encoding="UTF-8" standalone="no"?>
<svg
   xmlns:dc="http://purl.org/dc/elements/1.1/"
   xmlns:cc="http://creativecommons.org/ns#"
   xmlns:rdf="http://www.w3.org/1999/02/22-rdf-syntax-ns#"
   xmlns:svg="http://www.w3.org/2000/svg"
   xmlns="http://www.w3.org/2000/svg"
   xmlns:sodipodi="http://sodipodi.sourceforge.net/DTD/sodipodi-0.dtd"
   xmlns:inkscape="http://www.inkscape.org/namespaces/inkscape"
   id="Controllers"
   viewBox="0 0 254.89 140.88"
   version="1.1"
   sodipodi:docname="Base.svg"
   inkscape:version="0.92.5 (2060ec1f9f, 2020-04-08)">
  <metadata
     id="metadata71">
    <rdf:RDF>
      <cc:Work
         rdf:about="">
        <dc:format>image/svg+xml</dc:format>
        <dc:type
           rdf:resource="http://purl.org/dc/dcmitype/StillImage" />
      </cc:Work>
    </rdf:RDF>
  </metadata>
  <sodipodi:namedview
     pagecolor="#ffffff"
     bordercolor="#666666"
     borderopacity="1"
     objecttolerance="10"
     gridtolerance="10"
     guidetolerance="10"
     inkscape:pageopacity="0"
     inkscape:pageshadow="2"
     inkscape:window-width="2560"
     inkscape:window-height="1555"
     id="namedview69"
     showgrid="false"
     inkscape:zoom="2.6285849"
     inkscape:cx="108.18407"
     inkscape:cy="-2.9336963"
     inkscape:window-x="1080"
     inkscape:window-y="182"
     inkscape:window-maximized="0"
     inkscape:current-layer="Controllers" />
  <defs
     id="defs4">
    <style
       id="style2">.cls-1{fill:#58595b;}.cls-1,.cls-2,.cls-3{stroke:#231f20;}.cls-1,.cls-2,.cls-3,.cls-4,.cls-5,.cls-6,.cls-7,.cls-8{stroke-miterlimit:10;}.cls-2{fill:#bcbec0;}.cls-3{fill:#302e2f;}.cls-4,.cls-5,.cls-6,.cls-7{fill:none;}.cls-4{stroke:#1c75bc;}.cls-5{stroke:#bb567c;}.cls-6{stroke:#5955a2;}.cls-7{stroke:#5bae41;}.cls-8{fill:#939598;stroke:#000;stroke-width:0.5px;}.cls-9{font-size:3.01px;fill:#231f20;font-family:MyriadPro-Regular, Myriad Pro;}</style>
  </defs>
  <g
     id="BaseFront">
    <path
       style="fill:#58595b;stroke:#231f20;stroke-miterlimit:10"
       inkscape:connector-curvature="0"
       id="path6"
       transform="translate(-5.62,-6.57)"
       d="m 208.37,22.88 c 7.43,1.7 6.15,17.4 6.15,17.4 7,4.24 11.25,8.91 14.65,17.82 3.4,8.91 8.48,45 10.18,58.78 1.7,13.78 -4,28 -20.37,29.89 -16.37,1.89 -22.92,-11 -31.83,-26.28 l -3.75,-6.23 c 0,0 -4.74,9.06 -17.89,9.06 -13.15,0 -22.28,-11.18 -22.28,-14.79 l -21.51,-0.07 c 0,0 -4,15.21 -20.93,15.21 -13,0 -19.52,-10.18 -19.52,-10.18 0,0 -11.46,19.09 -13.8,22.06 -2.34,2.97 -12.09,16.56 -29.47,8.92 -17.38,-7.64 -12.52,-27.8 -12.52,-27.8 0,0 5.07,-24.62 8.52,-47.11 3.45,-22.49 15.91,-27.8 15.91,-27.8 0,0 0,-2.75 0.21,-6.36 0.64,-8.91 5.73,-11.46 5.73,-11.46 0,0 3.82,-1.13 14.43,-1.13 10.61,0 11.88,0.92 11.88,0.92 5,2.61 6.37,15.06 6.37,15.06 h 87.43 c 0,-13.15 7,-15.91 7,-15.91 0,0 8.27,-0.53 13.89,-0.53 5.62,0 11.52,0.53 11.52,0.53 z"
       class="cls-1" />
  </g>
  <path
     class="cls-2"
     d="m 63.13,60.43 -5.27,-5.28 v -8.14 h 10.92 v 8.48 l -5,4.89 a 0.5,0.5 0 0 1 -0.65,0.05 z"
     id="gup"
     inkscape:connector-curvature="0"
     style="fill:#bcbec0;stroke:#231f20;stroke-miterlimit:10"
     inkscape:label="#path9" />
  <path
     class="cls-2"
     d="m 66.74,64.04 5.27,-5.27 h 8.1 V 69.7 h -8.49 l -4.88,-5 a 0.51,0.51 0 0 1 0,-0.66 z"
     id="gright"
     inkscape:connector-curvature="0"
     style="fill:#bcbec0;stroke:#231f20;stroke-miterlimit:10"
     inkscape:label="#path11" />
  <path
     class="cls-2"
     d="m 64.12,67.91 5.26,5.27 v 8.1 H 58.46 v -8.49 l 5,-4.88 a 0.5,0.5 0 0 1 0.66,0 z"
     id="gdown"
     inkscape:connector-curvature="0"
     style="fill:#bcbec0;stroke:#231f20;stroke-miterlimit:10"
     inkscape:label="#path13" />
  <g
     id="gleft"
     inkscape:label="#g979">
    <path
       style="fill:#bcbec0;stroke:#231f20;stroke-miterlimit:10"
       inkscape:connector-curvature="0"
       id="path15"
       d="m 59.58,64.43 -5.27,5.27 h -8.1 V 58.77 h 8.49 l 4.88,5 a 0.5,0.5 0 0 1 0,0.66 z"
       class="cls-2" />
  </g>
  <g
     id="gback"
     inkscape:label="#g989">
    <path
       style="fill:#bcbec0;stroke:#231f20;stroke-miterlimit:10"
       inkscape:connector-curvature="0"
       id="path25"
       d="m 102.17,61.09 v 4.84 a 0.64,0.64 0 0 0 0.69,0.56 h 9.52 a 0.64,0.64 0 0 0 0.69,-0.56 v -4.84 a 0.64,0.64 0 0 0 -0.69,-0.57 h -9.51 a 0.64,0.64 0 0 0 -0.7,0.57 z"
       class="cls-2" />
  </g>
  <g
     id="gstart"
     inkscape:label="#g992">
    <path
       style="fill:#bcbec0;stroke:#231f20;stroke-miterlimit:10"
       inkscape:connector-curvature="0"
       id="path27"
       d="m 141.78,60.52 c -0.45,0 -0.82,0.26 -0.82,0.57 v 4.84 c 0,0.31 0.37,0.56 0.82,0.56 l 10.6,-2.45 a 0.53,0.53 0 0 0 0,-1.06 z"
       class="cls-2" />
  </g>
  <circle
     class="cls-2"
     cx="94.910004"
     cy="95.010002"
     r="14.81"
     id="gljoy"
     style="fill:#bcbec0;stroke:#231f20;stroke-miterlimit:10"
     inkscape:label="#circle29" />
  <circle
     class="cls-2"
     cx="160.11"
     cy="95.010002"
     r="14.81"
     id="grjoy"
     style="fill:#bcbec0;stroke:#231f20;stroke-miterlimit:10"
     inkscape:label="#circle31" />
  <path
     class="cls-3"
     d="m 76.22,16.9 c 0,0 0,-4.25 -7,-4.25 H 59.01 c 0,0 -8.28,0.21 -8.28,4.25 a 133.26,133.26 0 0 1 13.35,-0.55 94.1,94.1 0 0 1 12.14,0.55 z"
     id="path35"
     inkscape:connector-curvature="0"
     style="fill:#302e2f;stroke:#231f20;stroke-miterlimit:10" />
  <path
     class="cls-3"
     d="m 203.18,16.28 c 0,0 0,-4.24 -7,-4.24 h -10.2 c 0,0 -8.28,0.21 -8.28,4.24 a 133,133 0 0 1 13.35,-0.55 94,94 0 0 1 12.13,0.55 z"
     id="path37"
     inkscape:connector-curvature="0"
     style="fill:#302e2f;stroke:#231f20;stroke-miterlimit:10" />
  <g
     id="ga"
     inkscape:label="#g997">
    <circle
       style="fill:#bcbec0;stroke:#231f20;stroke-miterlimit:10"
       id="circle17"
       r="7.9099998"
       cy="80.209999"
       cx="191.17999"
       class="cls-2" />
    <polyline
       style="fill:none;stroke:#1c75bc;stroke-miterlimit:10"
       id="polyline39"
       points="195.32 75.48 191.18 80.21 187.01 75.48"
       class="cls-4" />
    <polyline
       style="fill:none;stroke:#1c75bc;stroke-miterlimit:10"
       id="polyline41"
       points="195.32 84.85 191.18 80.21 187.01 84.85"
       class="cls-4" />
  </g>
  <g
     id="gb"
     inkscape:label="#g1001">
    <circle
       style="fill:#bcbec0;stroke:#231f20;stroke-miterlimit:10"
       id="circle19"
       r="7.9099998"
       cy="63.599998"
       cx="208.64999"
       class="cls-2" />
    <circle
       style="fill:none;stroke:#bb567c;stroke-miterlimit:10"
       id="circle43"
       r="4.9899998"
       cy="63.599998"
       cx="208.64999"
       class="cls-5" />
  </g>
  <g
     id="gx"
     inkscape:label="#g1009">
    <circle
       style="fill:#bcbec0;stroke:#231f20;stroke-miterlimit:10"
       id="circle21"
       r="7.9099998"
       cy="63.599998"
       cx="172.85001"
       class="cls-2" />
    <path
       style="fill:none;stroke:#5955a2;stroke-miterlimit:10"
       inkscape:connector-curvature="0"
       id="path45"
       d="m 168.64,60.04 v 7.11 a 0.46,0.46 0 0 0 0.44,0.48 h 7.55 a 0.47,0.47 0 0 0 0.44,-0.48 v -7.11 a 0.47,0.47 0 0 0 -0.44,-0.48 h -7.55 a 0.46,0.46 0 0 0 -0.44,0.48 z"
       class="cls-6" />
  </g>
  <g
     id="gy"
     inkscape:label="#g1005">
    <circle
       style="fill:#bcbec0;stroke:#231f20;stroke-miterlimit:10"
       id="circle23"
       r="7.9099998"
       cy="47.77"
       cx="191.17999"
       class="cls-2" />
    <path
       style="fill:none;stroke:#5bae41;stroke-miterlimit:10"
       inkscape:connector-curvature="0"
       id="path47"
       d="m 190.88,43.43 -3.61,7 a 0.34,0.34 0 0 0 0.3,0.5 h 7.2 a 0.34,0.34 0 0 0 0.3,-0.5 l -3.59,-7 a 0.33,0.33 0 0 0 -0.6,0 z"
       class="cls-7" />
  </g>
  <g
     id="gRB"
     inkscape:label="#g948">
    <path
       style="fill:#939598;stroke:#000000;stroke-width:0.5px;stroke-miterlimit:10"
       inkscape:connector-curvature="0"
       id="path54"
       d="m 229.16,13.96 h 22.1 c 0,0 2.36,0.49 2.36,-2.26 V 1.87 c 0,0 0.59,-1.57 -3.14,-1.57 h -21.42 c 0,0 -2.68,-0.49 -2.68,1.57 v 9.34 a 2.77,2.77 0 0 0 2.78,2.75 z"
       class="cls-8" />
    <text
       y="8.4200001"
       x="238.81"
       style="font-size:3.00999999px;font-family:MyriadPro-Regular, 'Myriad Pro';fill:#231f20"
       id="text58"
       class="cls-9">R1</text>
  </g>
  <g
     id="grt"
     inkscape:label="#g956">
    <path
       style="fill:#939598;stroke:#000000;stroke-width:0.5px;stroke-miterlimit:10"
       inkscape:connector-curvature="0"
       id="path56"
       d="m 251.65,20.43 c -3.73,0 -24.59,0.07 -24.59,0.07 0,0 -3.14,-0.23 -3.14,4.71 0,4.94 1,22.24 1,22.24 a 5.13,5.13 0 0 0 5.11,3.44 h 20.35 c 0,0 4.12,0.1 4.12,-3.44 0,-3.54 0.07,-22.56 0.07,-22.56 0,0 0.81,-4.46 -2.92,-4.46 z"
       class="cls-8" />
    <text
       y="39.759998"
       x="238.81"
       style="font-size:3.00999999px;font-family:MyriadPro-Regular, 'Myriad Pro';fill:#231f20"
       id="text60"
       class="cls-9">R2</text>
  </g>
  <g
     id="gLB"
     inkscape:label="#g944">
    <path
       style="fill:#939598;stroke:#000000;stroke-width:0.5px;stroke-miterlimit:10"
       inkscape:connector-curvature="0"
       id="path50"
       d="m 5.2,14.7 h 22.1 c 0,0 2.36,0.49 2.36,-2.26 V 2.62 c 0,0 0.59,-1.57 -3.15,-1.57 H 5.1 c 0,0 -2.66,-0.49 -2.66,1.57 v 9.33 A 2.78,2.78 0 0 0 5.2,14.7 Z"
       class="cls-8" />
    <text
       y="8.8999996"
       x="13.45"
       style="font-size:3.00999999px;font-family:MyriadPro-Regular, 'Myriad Pro';fill:#231f20"
       id="text62"
       class="cls-9">L1</text>
  </g>
  <g
     id="glt"
     inkscape:label="#g952">
    <path
       style="fill:#939598;stroke:#000000;stroke-width:0.5px;stroke-miterlimit:10"
       inkscape:connector-curvature="0"
       id="path52"
       d="m 28.19,22.37 -24.6,0.06 c 0,0 -3.14,-0.23 -3.14,4.72 0,4.95 -0.17,22.28 -0.17,22.28 0,0 -0.59,3.44 3.54,3.44 h 22.17 c 0,0 4.13,0.1 4.13,-3.44 0,-3.54 1,-22.56 1,-22.56 0,0 0.8,-4.5 -2.93,-4.5 z"
       class="cls-8" />
    <text
       y="40.23"
       x="13.45"
       style="font-size:3.00999999px;font-family:MyriadPro-Regular, 'Myriad Pro';fill:#231f20"
       id="text64"
       class="cls-9">L2</text>
  </g>
  <g
     id="ghome"
     inkscape:label="#g986">
    <circle
       style="fill:#bcbec0;stroke:#231f20;stroke-miterlimit:10"
       id="circle33"
       r="7"
       cy="75.720001"
       cx="127.2"
       class="cls-2" />
    <g
       data-name="Layer 28"
       id="Layer_28"
       transform="matrix(2.6119643,0,0,2.6119643,-2.3140205,-305.55349)">
      <path
         id="path71"
         transform="translate(-30.24,-2.88)"
         d="m 80.19,148 v 0.87 a 0.42,0.42 0 0 0 0.65,-0.33 0.8,0.8 0 0 0 -0.52,-0.95 c -0.22,-0.09 -1,-0.28 -1,-0.28 v 2.61 l 0.59,0.19 v -2.18 c 0,0 0,-0.21 0.14,-0.15 0.14,0.06 0.14,0.22 0.14,0.22 z"
         class="cls-21"
         inkscape:connector-curvature="0" />
      <path
         id="path73"
         transform="translate(-30.24,-2.88)"
         d="m 81.61,149.29 c -0.11,-0.19 -0.72,-0.26 -0.88,-0.25 a 2.26,2.26 0 0 0 -0.66,0.11 v 0.36 l 0.63,-0.22 a 0.61,0.61 0 0 1 0.39,0 c 0.08,0 0,0.09 -0.11,0.13 l -0.91,0.32 v 0.34 l 1.29,-0.46 c 0,0 0.37,-0.14 0.25,-0.33 z"
         class="cls-21"
         inkscape:connector-curvature="0" />
      <path
         id="path75"
         transform="translate(-30.24,-2.88)"
         d="m 78,149.41 c 0,0.11 0,0.23 0.43,0.33 a 2.1,2.1 0 0 0 0.81,0 v -0.31 l -0.18,0.07 c -0.18,0.06 -0.43,0.1 -0.5,0 -0.07,-0.1 0.06,-0.11 0.06,-0.11 l 0.62,-0.22 v -0.34 l -0.74,0.26 c 0,0 -0.45,0.21 -0.5,0.32 z"
         class="cls-21"
         inkscape:connector-curvature="0" />
    </g>
  </g>
</svg>
