<?xml version="1.0" encoding="UTF-8" standalone="no"?>
<svg
   xmlns:dc="http://purl.org/dc/elements/1.1/"
   xmlns:cc="http://creativecommons.org/ns#"
   xmlns:rdf="http://www.w3.org/1999/02/22-rdf-syntax-ns#"
   xmlns:svg="http://www.w3.org/2000/svg"
   xmlns="http://www.w3.org/2000/svg"
   id="svg78"
   version="1.1"
   viewBox="0 0 227.95 158.41">
  <metadata
     id="metadata82">
    <rdf:RDF>
      <cc:Work
         rdf:about="">
        <dc:format>image/svg+xml</dc:format>
        <dc:type
           rdf:resource="http://purl.org/dc/dcmitype/StillImage" />
      </cc:Work>
    </rdf:RDF>
  </metadata>
  <defs
     id="defs4">
    <style
       id="style2">.cls-1{fill:#393839;}.cls-1,.cls-15,.cls-16,.cls-17,.cls-18,.cls-2,.cls-3,.cls-4,.cls-5,.cls-6,.cls-7{stroke:#000;}.cls-1,.cls-10,.cls-11,.cls-12,.cls-13,.cls-14,.cls-15,.cls-16,.cls-17,.cls-18,.cls-19,.cls-2,.cls-20,.cls-21,.cls-3,.cls-4,.cls-5,.cls-6,.cls-7,.cls-8,.cls-9{stroke-miterlimit:10;}.cls-1,.cls-10,.cls-11,.cls-12,.cls-13,.cls-14,.cls-15,.cls-16,.cls-17,.cls-18,.cls-2,.cls-20,.cls-3,.cls-4,.cls-5,.cls-6,.cls-7,.cls-8,.cls-9{stroke-width:0.25px;}.cls-2{fill:#ba4125;}.cls-10,.cls-11,.cls-12,.cls-3,.cls-8,.cls-9{fill:#77787b;}.cls-4{fill:#4d70b3;}.cls-5{fill:#f6d854;}.cls-6{fill:#a92129;}.cls-7{fill:#5cbb59;}.cls-8{stroke:#a0410d;}.cls-9{stroke:#0054a6;}.cls-10{stroke:#ffe073;}.cls-11{stroke:#a3062a;}.cls-12{stroke:#007a4b;}.cls-13{fill:#888a8c;}.cls-13,.cls-14,.cls-19,.cls-20,.cls-21{stroke:#231f20;}.cls-14,.cls-15{fill:#2d2a2b;}.cls-16{fill:#c4c6c8;}.cls-17{fill:#6f7173;}.cls-18{fill:#999;}.cls-19{fill:#8f9194;}.cls-19,.cls-21{stroke-width:0.1px;}.cls-20{fill:#bcbec0;}.cls-21{fill:#464547;}</style>
  </defs>
  <g
     id="gb"
     transform="translate(3.2900505e-8,2.9755464e-6)">
    <path
       style="fill:#a92129;stroke:#000000;stroke-width:0.25px;stroke-miterlimit:10"
       class="cls-6"
       d="m 205.15,28.53 -3.76,-4.72 -4.58,3.06 4.2,5.38 c 0,0 1.34,1.53 3.39,0 a 2.81,2.81 0 0 0 0.75,-3.72 z m -1.65,2.63 a 1.73,1.73 0 0 1 -2.44,0 l -3,-3.87 3.29,-2.19 2.65,3.39 a 2,2 0 0 1 -0.5,2.67 z"
       transform="translate(-25.69,-1.22)"
       id="path20" />
    <path
       style="fill:#77787b;stroke:#000000;stroke-width:0.25px;stroke-miterlimit:10"
       class="cls-3"
       d="m 203.5,31.19 a 1.72,1.72 0 0 1 -2.44,0 l -3,-3.86 3.29,-2.2 2.65,3.39 a 2,2 0 0 1 -0.5,2.67 z"
       transform="translate(-25.69,-1.22)"
       id="path22" />
  </g>
</svg>
