<?xml version="1.0" encoding="UTF-8" standalone="no"?>
<svg
   xmlns:dc="http://purl.org/dc/elements/1.1/"
   xmlns:cc="http://creativecommons.org/ns#"
   xmlns:rdf="http://www.w3.org/1999/02/22-rdf-syntax-ns#"
   xmlns:svg="http://www.w3.org/2000/svg"
   xmlns="http://www.w3.org/2000/svg"
   id="svg78"
   version="1.1"
   viewBox="0 0 227.95 158.41">
  <metadata
     id="metadata82">
    <rdf:RDF>
      <cc:Work
         rdf:about="">
        <dc:format>image/svg+xml</dc:format>
        <dc:type
           rdf:resource="http://purl.org/dc/dcmitype/StillImage" />
      </cc:Work>
    </rdf:RDF>
  </metadata>
  <defs
     id="defs4">
    <style
       id="style2">.cls-1{fill:#393839;}.cls-1,.cls-15,.cls-16,.cls-17,.cls-18,.cls-2,.cls-3,.cls-4,.cls-5,.cls-6,.cls-7{stroke:#000;}.cls-1,.cls-10,.cls-11,.cls-12,.cls-13,.cls-14,.cls-15,.cls-16,.cls-17,.cls-18,.cls-19,.cls-2,.cls-20,.cls-21,.cls-3,.cls-4,.cls-5,.cls-6,.cls-7,.cls-8,.cls-9{stroke-miterlimit:10;}.cls-1,.cls-10,.cls-11,.cls-12,.cls-13,.cls-14,.cls-15,.cls-16,.cls-17,.cls-18,.cls-2,.cls-20,.cls-3,.cls-4,.cls-5,.cls-6,.cls-7,.cls-8,.cls-9{stroke-width:0.25px;}.cls-2{fill:#ba4125;}.cls-10,.cls-11,.cls-12,.cls-3,.cls-8,.cls-9{fill:#77787b;}.cls-4{fill:#4d70b3;}.cls-5{fill:#f6d854;}.cls-6{fill:#a92129;}.cls-7{fill:#5cbb59;}.cls-8{stroke:#a0410d;}.cls-9{stroke:#0054a6;}.cls-10{stroke:#ffe073;}.cls-11{stroke:#a3062a;}.cls-12{stroke:#007a4b;}.cls-13{fill:#888a8c;}.cls-13,.cls-14,.cls-19,.cls-20,.cls-21{stroke:#231f20;}.cls-14,.cls-15{fill:#2d2a2b;}.cls-16{fill:#c4c6c8;}.cls-17{fill:#6f7173;}.cls-18{fill:#999;}.cls-19{fill:#8f9194;}.cls-19,.cls-21{stroke-width:0.1px;}.cls-20{fill:#bcbec0;}.cls-21{fill:#464547;}</style>
  </defs>
  <g
     id="ghome">
    <ellipse
       style="fill:#d1d3d4;stroke:#231f20;stroke-width:0.03784915px;stroke-miterlimit:10;fill-opacity:1"
       class="cls-21"
       cx="65.97097"
       cy="-138.92204"
       rx="1.6123737"
       ry="1.5669546"
       id="ellipse70-6"
       transform="rotate(135)" />
    <g
       id="Layer_28"
       data-name="Layer 28"
       transform="matrix(0.73335778,0,0,0.73335778,15.194372,37.794244)">
      <path
         class="cls-21"
         d="m 80.19,148 v 0.87 a 0.42,0.42 0 0 0 0.65,-0.33 0.8,0.8 0 0 0 -0.52,-0.95 c -0.22,-0.09 -1,-0.28 -1,-0.28 v 2.61 l 0.59,0.19 v -2.18 c 0,0 0,-0.21 0.14,-0.15 0.14,0.06 0.14,0.22 0.14,0.22 z"
         transform="translate(-30.24,-2.88)"
         id="path71"
         style="fill:#464547;stroke:#231f20;stroke-width:0.1px;stroke-miterlimit:10" />
      <path
         class="cls-21"
         d="m 81.61,149.29 c -0.11,-0.19 -0.72,-0.26 -0.88,-0.25 a 2.26,2.26 0 0 0 -0.66,0.11 v 0.36 l 0.63,-0.22 a 0.61,0.61 0 0 1 0.39,0 c 0.08,0 0,0.09 -0.11,0.13 l -0.91,0.32 v 0.34 l 1.29,-0.46 c 0,0 0.37,-0.14 0.25,-0.33 z"
         transform="translate(-30.24,-2.88)"
         id="path73"
         style="fill:#464547;stroke:#231f20;stroke-width:0.1px;stroke-miterlimit:10" />
      <path
         class="cls-21"
         d="m 78,149.41 c 0,0.11 0,0.23 0.43,0.33 a 2.1,2.1 0 0 0 0.81,0 v -0.31 l -0.18,0.07 c -0.18,0.06 -0.43,0.1 -0.5,0 -0.07,-0.1 0.06,-0.11 0.06,-0.11 l 0.62,-0.22 v -0.34 l -0.74,0.26 c 0,0 -0.45,0.21 -0.5,0.32 z"
         transform="translate(-30.24,-2.88)"
         id="path75"
         style="fill:#464547;stroke:#231f20;stroke-width:0.1px;stroke-miterlimit:10" />
    </g>
    <ellipse
       style="fill:none;stroke:#231f20;stroke-width:0.04368645px;stroke-miterlimit:10"
       class="cls-21"
       cx="65.97097"
       cy="-138.92204"
       rx="1.8610427"
       ry="1.8086189"
       id="ellipse70"
       transform="rotate(135)" />
  </g>
</svg>
