<?xml version="1.0" encoding="UTF-8" standalone="no"?>
<svg
   xmlns:dc="http://purl.org/dc/elements/1.1/"
   xmlns:cc="http://creativecommons.org/ns#"
   xmlns:rdf="http://www.w3.org/1999/02/22-rdf-syntax-ns#"
   xmlns:svg="http://www.w3.org/2000/svg"
   xmlns="http://www.w3.org/2000/svg"
   version="1.1"
   viewBox="0 0 260.52 152.63"
   data-name="360ArcadePad"
   id="_360ArcadePad">
  <metadata
     id="metadata117">
    <rdf:RDF>
      <cc:Work
         rdf:about="">
        <dc:format>image/svg+xml</dc:format>
        <dc:type
           rdf:resource="http://purl.org/dc/dcmitype/StillImage" />
      </cc:Work>
    </rdf:RDF>
  </metadata>
  <defs
     id="defs4">
    <style
       id="style2">.cls-1{fill:#363436;}.cls-1,.cls-10,.cls-11,.cls-12,.cls-13,.cls-14,.cls-15,.cls-16,.cls-17,.cls-2,.cls-3,.cls-4,.cls-5,.cls-6,.cls-7,.cls-8,.cls-9{stroke:#231f20;stroke-miterlimit:10;}.cls-1,.cls-10,.cls-11,.cls-2,.cls-3,.cls-4,.cls-5,.cls-6,.cls-7,.cls-8,.cls-9{stroke-width:0.5px;}.cls-2{fill:#0058a3;}.cls-3{fill:#1687c9;}.cls-4{fill:#f6bd17;}.cls-5{fill:#febf38;}.cls-6{fill:#6ca63c;}.cls-7{fill:#99ca3c;}.cls-8{fill:#aa1e23;}.cls-9{fill:#dd1f26;}.cls-10,.cls-16,.cls-17{fill:#a7a9ac;}.cls-11{fill:#939598;}.cls-12{fill:#8a8c8e;}.cls-12,.cls-17{stroke-width:0.25px;}.cls-13{fill:none;}.cls-13,.cls-14,.cls-15,.cls-16{stroke-width:0.05px;}.cls-14{fill:#8dc63f;}.cls-15{fill:#d1d3d4;}.cls-18{font-size:4.95px;fill:#231f20;font-family:MyriadPro-Regular, Myriad Pro;}.cls-19{letter-spacing:0.01em;}.cls-20{letter-spacing:-0.09em;}</style>
  </defs>
  <g
     id="gb">
    <circle
       class="cls-8"
       cx="190.79"
       cy="62.97"
       r="9.13"
       id="circle20" />
    <path
       class="cls-9"
       d="M194.33,65.81a2.28,2.28,0,0,0,2.23-2.38c0-2.34-4-2.13-4-2.13h-3.28v9h5.14s2.34-.14,2.34-2.34S194.33,65.81,194.33,65.81Zm-.91,2.83h-2.29V66.78h2.44s.64,0,.64.93A.82.82,0,0,1,193.42,68.64Zm-.17-3.92h-2.12V62.81h2.13s1-.14,1,.95A.85.85,0,0,1,193.25,64.72Z"
       transform="translate(-1.96 -2.84)"
       id="path22" />
  </g>
</svg>
