<?xml version="1.0" encoding="UTF-8" standalone="no"?>
<svg
   xmlns:dc="http://purl.org/dc/elements/1.1/"
   xmlns:cc="http://creativecommons.org/ns#"
   xmlns:rdf="http://www.w3.org/1999/02/22-rdf-syntax-ns#"
   xmlns:svg="http://www.w3.org/2000/svg"
   xmlns="http://www.w3.org/2000/svg"
   xmlns:sodipodi="http://sodipodi.sourceforge.net/DTD/sodipodi-0.dtd"
   xmlns:inkscape="http://www.inkscape.org/namespaces/inkscape"
   id="_360GHGuitarWT"
   data-name="360GHGuitarWT"
   viewBox="0 0 227.95 158.41"
   version="1.1"
   sodipodi:docname="Base.svg"
   inkscape:version="0.92.5 (2060ec1f9f, 2020-04-08)">
  <metadata
     id="metadata87">
    <rdf:RDF>
      <cc:Work
         rdf:about="">
        <dc:format>image/svg+xml</dc:format>
        <dc:type
           rdf:resource="http://purl.org/dc/dcmitype/StillImage" />
      </cc:Work>
    </rdf:RDF>
  </metadata>
  <sodipodi:namedview
     pagecolor="#ffffff"
     bordercolor="#666666"
     borderopacity="1"
     objecttolerance="10"
     gridtolerance="10"
     guidetolerance="10"
     inkscape:pageopacity="0"
     inkscape:pageshadow="2"
     inkscape:window-width="2560"
     inkscape:window-height="1555"
     id="namedview85"
     showgrid="false"
     inkscape:snap-center="true"
     inkscape:snap-object-midpoints="true"
     inkscape:snap-bbox="true"
     inkscape:bbox-paths="true"
     inkscape:bbox-nodes="true"
     inkscape:snap-bbox-edge-midpoints="true"
     inkscape:snap-bbox-midpoints="true"
     inkscape:zoom="8.3134292"
     inkscape:cx="113.85448"
     inkscape:cy="62.594682"
     inkscape:window-x="1080"
     inkscape:window-y="182"
     inkscape:window-maximized="0"
     inkscape:current-layer="_360GHGuitarWT" />
  <defs
     id="defs4">
    <style
       id="style2">.cls-1{fill:#393839;}.cls-1,.cls-15,.cls-16,.cls-17,.cls-18,.cls-2,.cls-3,.cls-4,.cls-5,.cls-6,.cls-7{stroke:#000;}.cls-1,.cls-10,.cls-11,.cls-12,.cls-13,.cls-14,.cls-15,.cls-16,.cls-17,.cls-18,.cls-19,.cls-2,.cls-20,.cls-21,.cls-22,.cls-23,.cls-3,.cls-4,.cls-5,.cls-6,.cls-7,.cls-8,.cls-9{stroke-miterlimit:10;}.cls-1,.cls-10,.cls-11,.cls-12,.cls-13,.cls-14,.cls-15,.cls-16,.cls-17,.cls-18,.cls-2,.cls-20,.cls-3,.cls-4,.cls-5,.cls-6,.cls-7,.cls-8,.cls-9{stroke-width:0.25px;}.cls-2{fill:#ba4125;}.cls-10,.cls-11,.cls-12,.cls-3,.cls-8,.cls-9{fill:#77787b;}.cls-4{fill:#4d70b3;}.cls-5{fill:#f6d854;}.cls-6{fill:#a92129;}.cls-7{fill:#5cbb59;}.cls-8{stroke:#a0410d;}.cls-9{stroke:#0054a6;}.cls-10{stroke:#ffe073;}.cls-11{stroke:#a3062a;}.cls-12{stroke:#007a4b;}.cls-13{fill:#888a8c;}.cls-13,.cls-14,.cls-19,.cls-20,.cls-21,.cls-22,.cls-23{stroke:#231f20;}.cls-14,.cls-15{fill:#2d2a2b;}.cls-16{fill:#c4c6c8;}.cls-17{fill:#6f7173;}.cls-18{fill:#999;}.cls-19{fill:#8f9194;stroke-width:0.1px;}.cls-20{fill:#bcbec0;}.cls-21{fill:none;}.cls-21,.cls-22,.cls-23{stroke-width:0.05px;}.cls-22{fill:#8dc63f;}.cls-23{fill:#d1d3d4;}</style>
  </defs>
  <path
     class="cls-1"
     d="M34.45,132.82s9.13,19.3,20.22,24,25,3.26,32.6-4.44,16.31-28.3,21.66-30.39,5.34-2.74,12.78-3.52,15.13-3.26,20.48-9.52c2.48-3.27,2.21-7.18-1.18-7.31s-7,6.13-13,3.26S115.58,96,123.8,90.68s10.56-7.3,10.56-7.3l.26-1.3s26.35-19,55-37.31c23.78-15.14,29.21-23.35,39.91-17.35,0,0,8.28-10.69,15.13-11.87,6.13-1,6.49-1.17,6.49-1.17l2.25-2.51L238.58,1.47S238,1,237,1.86a20.54,20.54,0,0,1-9.06,5.31A86.11,86.11,0,0,1,215.2,9l-1.86,1.76s.72,4.73-1.6,5.67S122.62,70,122.62,70s-3.87,3.87-6.43-1-2.92-9,2.21-13.61,7.18-5,5.31-11.65c-1.48-4.74-13.35.17-17.48,3.22S90.1,69.21,78.71,73.29C60.19,81,42.45,76.42,33.06,88.51s-8.09,24.7-4.79,32.26A95.14,95.14,0,0,0,34.45,132.82Z"
     id="path6"
     transform="translate(-25.69 -1.22)" />
  <g
     id="gLB"
     inkscape:label="#g958">
    <path
       id="path8"
       transform="translate(-25.69 -1.22)"
       d="M185.62,40.08l-3.19-4.15-4.86,3.27L181,43.92a3.16,3.16,0,0,0,3.64.66,2.79,2.79,0,0,0,1.64-1.42A3.3,3.3,0,0,0,185.62,40.08Zm-.48,2.22a2,2,0,0,1-1.17,1,2.28,2.28,0,0,1-2.61-.47l-2.43-3.39,3.48-2.34,2.29,3A2.37,2.37,0,0,1,185.14,42.3Z"
       class="cls-2" />
    <path
       id="path10"
       transform="translate(-25.69 -1.22)"
       d="M185.14,42.3a2,2,0,0,1-1.17,1,2.28,2.28,0,0,1-2.61-.47l-2.43-3.39,3.48-2.34,2.29,3A2.37,2.37,0,0,1,185.14,42.3Z"
       class="cls-3" />
  </g>
  <g
     id="gx"
     inkscape:label="#g962">
    <path
       id="path12"
       transform="translate(-25.69 -1.22)"
       d="M192.27,36.59l-3.68-4.93L183.67,35l4.2,5.38a3,3,0,0,0,3.82,0C193.9,38.87,192.27,36.59,192.27,36.59ZM191,39.22a2.11,2.11,0,0,1-2.7,0l-3-3.8L188.76,33l2.6,3.48A1.89,1.89,0,0,1,191,39.22Z"
       class="cls-4" />
    <path
       id="path14"
       transform="translate(-25.69 -1.22)"
       d="M191,39.22a2.11,2.11,0,0,1-2.7,0l-3-3.8L188.76,33l2.6,3.48A1.89,1.89,0,0,1,191,39.22Z"
       class="cls-3" />
  </g>
  <g
     id="gy"
     inkscape:label="#g974">
    <path
       id="path16"
       transform="translate(-25.69 -1.22)"
       d="M198.89,32.77l-3.71-5-5,3.26,4.24,5.33a3.1,3.1,0,0,0,3.75,0A2.91,2.91,0,0,0,198.89,32.77Zm-1.67,2.48a2.27,2.27,0,0,1-2.74,0l-3.1-3.89L195,29l2.72,3.65A2.12,2.12,0,0,1,197.22,35.25Z"
       class="cls-5" />
    <path
       id="path18"
       transform="translate(-25.69 -1.22)"
       d="M197.22,35.25a2.27,2.27,0,0,1-2.74,0l-3.1-3.89L195,29l2.72,3.65A2.12,2.12,0,0,1,197.22,35.25Z"
       class="cls-3" />
  </g>
  <g
     id="gb"
     inkscape:label="#g970">
    <path
       id="path20"
       transform="translate(-25.69 -1.22)"
       d="M205.15,28.53l-3.76-4.72-4.58,3.06,4.2,5.38s1.34,1.53,3.39,0A2.81,2.81,0,0,0,205.15,28.53Zm-1.65,2.63a1.73,1.73,0,0,1-2.44,0l-3-3.87,3.29-2.19L204,28.49A2,2,0,0,1,203.5,31.16Z"
       class="cls-6" />
    <path
       id="path22"
       transform="translate(-25.69 -1.22)"
       d="M203.5,31.19a1.72,1.72,0,0,1-2.44,0l-3-3.86,3.29-2.2L204,28.52A2,2,0,0,1,203.5,31.19Z"
       class="cls-3" />
  </g>
  <g
     id="ga"
     inkscape:label="#g966">
    <path
       id="path24"
       transform="translate(-25.69 -1.22)"
       d="M211.51,24.91l-3.78-4.82L203,23.15l4.21,5.32a2.84,2.84,0,0,0,3.62,0A2.63,2.63,0,0,0,211.51,24.91Zm-1.6,2.41a2,2,0,0,1-2.58,0l-3-3.79,3.4-2.19,2.69,3.44A1.88,1.88,0,0,1,209.91,27.32Z"
       class="cls-7" />
    <path
       id="path26"
       transform="translate(-25.69 -1.22)"
       d="M209.91,27.32a2,2,0,0,1-2.58,0l-3-3.79,3.4-2.19,2.69,3.44A1.88,1.88,0,0,1,209.91,27.32Z"
       class="cls-3" />
  </g>
  <polygon
     class="cls-3"
     points="112.63 63.29 116.94 69.29 123.63 64.77 119.54 58.81 112.63 63.29"
     id="polygon28" />
  <polygon
     class="cls-3"
     points="130.54 60.4 126.4 54.36 119.54 58.81 123.63 64.77 130.54 60.4"
     id="polygon30" />
  <polygon
     class="cls-3"
     points="137.21 56.01 133.28 50.12 126.4 54.36 130.54 60.4 137.21 56.01"
     id="polygon32" />
  <polygon
     class="cls-3"
     points="143.98 51.64 140.11 45.99 133.28 50.12 137.21 56.01 143.98 51.64"
     id="polygon34" />
  <polygon
     class="cls-3"
     points="150.54 47.18 146.67 42.03 140.11 45.99 143.98 51.64 150.54 47.18"
     id="polygon36" />
  <line
     class="cls-8"
     x1="113.94"
     y1="63.77"
     x2="119.79"
     y2="59.82"
     id="line38" />
  <line
     class="cls-9"
     x1="120.53"
     y1="59.4"
     x2="126.56"
     y2="55.49"
     id="line40" />
  <line
     class="cls-10"
     x1="127.51"
     y1="54.95"
     x2="133.65"
     y2="51.08"
     id="line42" />
  <line
     class="cls-11"
     x1="134.61"
     y1="50.73"
     x2="140.22"
     y2="46.86"
     id="line44" />
  <line
     class="cls-12"
     x1="141.2"
     y1="46.37"
     x2="146.81"
     y2="42.79"
     id="line46" />
  <g
     id="gstrum"
     inkscape:label="#g954">
    <polygon
       id="polygon48"
       points="51.46 104.12 77.06 88.29 78.85 90.81 53.06 106.68 51.46 104.12"
       class="cls-13" />
    <path
       id="path50"
       transform="translate(-25.69 -1.22)"
       d="M78.75,107.9s-1.61,1.07-2.39,0c-1.06-1.44.78-2.56.78-2.56Z"
       class="cls-14" />
    <path
       id="path52"
       transform="translate(-25.69 -1.22)"
       d="M102.75,89.51s2.1-1.48,3-.15S104.54,92,104.54,92Z"
       class="cls-14" />
  </g>
  <g
     id="gr_x">
    <path
       id="path54"
       transform="translate(-25.69 -1.22)"
       d="M65.75,132.86l-6.69,7.22a1.63,1.63,0,0,0,0,2.55c1.41,1.34,3,3,3,3s1,.88,2.52-.65,6.2-6.88,6.2-6.88a1.46,1.46,0,0,0,0-2.39l-3.1-2.82A1.62,1.62,0,0,0,65.75,132.86Z"
       class="cls-15" />
    <path
       id="path56"
       transform="translate(-25.69 -1.22)"
       d="M63.71,138.18s-.89.85-.21,1.53c.52.52,1.62-.19,1.62-.19l27.76-20.47a.71.71,0,0,0-.15-.87c-.42-.45-.73-.4-.73-.4Z"
       class="cls-16" />
    <path
       id="path58"
       transform="translate(-25.69 -1.22)"
       d="M91.87,117.52a3.6,3.6,0,0,1,.86.66,4.75,4.75,0,0,1,.35,1l13.32-10a.82.82,0,0,0-.2-1.17c-.66-.64-1.11-.46-1.11-.46Z"
       class="cls-17" />
  </g>
  <path
     class="cls-20"
     d="M56.52,105.65l11.87,18.76a1.64,1.64,0,0,0,2.2.54l.8-.45a1.64,1.64,0,0,0,.56-2.31L60,103.52a1.64,1.64,0,0,0-2.15-.56l-.68.37A1.64,1.64,0,0,0,56.52,105.65Z"
     transform="translate(-25.69 -1.22)"
     id="gback"
     inkscape:label="#path64" />
  <g
     id="g949">
    <rect
       id="rect66"
       transform="translate(-84.59 62.14) rotate(-34.6)"
       rx="1.59"
       height="3.9"
       width="3.9"
       y="124.28"
       x="70.31"
       class="cls-20" />
    <rect
       id="rect68"
       transform="translate(-73.47 48.61) rotate(-34.6)"
       rx="1.59"
       height="3.9"
       width="3.9"
       y="99.67"
       x="54.15"
       class="cls-20" />
  </g>
  <circle
     class="cls-15"
     id="circle46-6"
     style="fill:#434345;stroke:#231f20;stroke-width:0.27672404;stroke-linejoin:round;stroke-miterlimit:10;stroke-dasharray:none"
     cy="-138.86409"
     cx="65.895309"
     r="5.6254334"
     transform="rotate(135)" />
  <path
     sodipodi:type="star"
     style="opacity:1;vector-effect:none;fill:#000000;fill-opacity:1;stroke:#231f20;stroke-width:0.2;stroke-linecap:round;stroke-linejoin:round;stroke-miterlimit:4;stroke-dasharray:none;stroke-dashoffset:0;stroke-opacity:1"
     id="gdown"
     sodipodi:sides="3"
     sodipodi:cx="97.942856"
     sodipodi:cy="67.830307"
     sodipodi:r1="0.85285169"
     sodipodi:r2="0.42642584"
     sodipodi:arg1="1.5707963"
     sodipodi:arg2="2.6179939"
     inkscape:flatsided="false"
     inkscape:rounded="0"
     inkscape:randomized="0"
     d="m 97.942856,68.683159 -0.369296,-0.639639 -0.369295,-0.639639 0.738591,0 0.738591,0 -0.369296,0.639639 z"
     inkscape:transform-center-y="-0.35994506"
     transform="matrix(-1.1312258,1.1312258,-0.97169321,-0.97169319,226.05311,97.722105)"
     inkscape:transform-center-x="-0.32033002"
     inkscape:label="#path1699" />
  <path
     sodipodi:type="star"
     style="opacity:1;vector-effect:none;fill:#000000;fill-opacity:1;stroke:#231f20;stroke-width:0.2;stroke-linecap:round;stroke-linejoin:round;stroke-miterlimit:4;stroke-dasharray:none;stroke-dashoffset:0;stroke-opacity:1"
     id="gup"
     sodipodi:sides="3"
     sodipodi:cx="97.942856"
     sodipodi:cy="67.830307"
     sodipodi:r1="0.85285169"
     sodipodi:r2="0.42642584"
     sodipodi:arg1="1.5707963"
     sodipodi:arg2="2.6179939"
     inkscape:flatsided="false"
     inkscape:rounded="0"
     inkscape:randomized="0"
     d="m 97.942856,68.683159 -0.369296,-0.639639 -0.369295,-0.639639 0.738591,0 0.738591,0 -0.369296,0.639639 z"
     inkscape:transform-center-y="2.2707169"
     transform="matrix(-1.2426055,1.2426055,1.0673654,1.0673654,103.19544,-46.705953)"
     inkscape:transform-center-x="1.0091855"
     inkscape:label="#path1699-0" />
  <path
     sodipodi:type="star"
     style="opacity:1;vector-effect:none;fill:#050506;fill-opacity:1;stroke:#231f20;stroke-width:0.2;stroke-linecap:round;stroke-linejoin:round;stroke-miterlimit:4;stroke-dasharray:none;stroke-dashoffset:0;stroke-opacity:1"
     id="gright"
     sodipodi:sides="3"
     sodipodi:cx="97.942856"
     sodipodi:cy="67.830307"
     sodipodi:r1="0.85285169"
     sodipodi:r2="0.42642584"
     sodipodi:arg1="1.5707963"
     sodipodi:arg2="2.6179939"
     inkscape:flatsided="false"
     inkscape:rounded="0"
     inkscape:randomized="0"
     d="m 97.942856,68.683159 -0.369296,-0.639639 -0.369295,-0.639639 0.738591,0 0.738591,0 -0.369296,0.639639 z"
     transform="matrix(1.2085851,1.2085851,-1.0381428,1.0381428,1.390603,-41.380867)"
     inkscape:transform-center-x="0.38454831"
     inkscape:transform-center-y="-0.34223691"
     inkscape:label="#path1699-6" />
  <path
     sodipodi:type="star"
     style="opacity:1;vector-effect:none;fill:#000000;fill-opacity:1;stroke:#231f20;stroke-width:0.2;stroke-linecap:round;stroke-linejoin:round;stroke-miterlimit:4;stroke-dasharray:none;stroke-dashoffset:0;stroke-opacity:1"
     id="gleft"
     sodipodi:sides="3"
     sodipodi:cx="97.942856"
     sodipodi:cy="67.830307"
     sodipodi:r1="0.85285169"
     sodipodi:r2="0.42642584"
     sodipodi:arg1="1.5707963"
     sodipodi:arg2="2.6179939"
     inkscape:flatsided="false"
     inkscape:rounded="0"
     inkscape:randomized="0"
     d="m 97.942856,68.683159 -0.369296,-0.639639 -0.369295,-0.639639 0.738591,0 0.738591,0 -0.369296,0.639639 z"
     inkscape:transform-center-y="1.0478705"
     transform="matrix(1.2902708,1.2902708,1.1083087,-1.1083087,-147.51369,91.307629)"
     inkscape:transform-center-x="-2.3578049"
     inkscape:label="#path1699-0-1" />
  <g
     id="ghome"
     inkscape:label="#g932"
     transform="matrix(-0.61781966,0.61781966,-0.61781966,-0.61781966,172.47297,204.43287)">
    <circle
       id="circle62"
       r="2.54"
       cy="145.97"
       cx="49.610001"
       class="cls-19"
       style="fill:#8f9194;stroke:#231f20;stroke-width:0.1px;stroke-miterlimit:10" />
    <ellipse
       id="ellipse70"
       ry="2.0699999"
       rx="2.1300001"
       cy="146.03"
       cx="49.639999"
       class="cls-21"
       style="fill:none;stroke:#231f20;stroke-width:0.05px;stroke-miterlimit:10" />
    <path
       id="path72"
       transform="translate(-25.69,-1.22)"
       d="m 74.39,145.72 a 3,3 0 0 0 -0.53,0 v 0 a 4.3,4.3 0 0 1 1.07,0.54 5.77,5.77 0 0 0 -1.31,2.19 v 0 a 6.63,6.63 0 0 1 1.75,-1.92 2.85,2.85 0 0 1 0.8,0.68 3.54,3.54 0 0 1 0.78,1.35 v 0 a 3.4,3.4 0 0 0 -1.25,-2.31 3.13,3.13 0 0 1 1,-0.59 v 0 a 1.7,1.7 0 0 0 -0.39,0"
       class="cls-22"
       inkscape:connector-curvature="0"
       style="fill:#8dc63f;stroke:#231f20;stroke-width:0.05px;stroke-miterlimit:10" />
    <path
       id="path74"
       transform="translate(-25.69,-1.22)"
       d="m 74.39,145.72 a 1.57,1.57 0 0 1 1,0.36 1.92,1.92 0 0 1 1,-0.4"
       class="cls-22"
       inkscape:connector-curvature="0"
       style="fill:#8dc63f;stroke:#231f20;stroke-width:0.05px;stroke-miterlimit:10" />
    <path
       id="path76"
       transform="translate(-25.69,-1.22)"
       d="m 73.85,145.75 a 2,2 0 0 0 -0.65,1.5 2,2 0 0 0 0.42,1.23 6,6 0 0 1 1.31,-2.19 4.32,4.32 0 0 0 -1.08,-0.54 z"
       class="cls-23"
       inkscape:connector-curvature="0"
       style="fill:#d1d3d4;stroke:#231f20;stroke-width:0.05px;stroke-miterlimit:10" />
    <path
       id="path78"
       transform="translate(-25.69,-1.22)"
       d="m 75.37,146.56 a 6.63,6.63 0 0 0 -1.75,1.92 2.16,2.16 0 0 0 3.33,0.11 3.7,3.7 0 0 0 -0.78,-1.35 2.85,2.85 0 0 0 -0.8,-0.68 z"
       class="cls-23"
       inkscape:connector-curvature="0"
       style="fill:#d1d3d4;stroke:#231f20;stroke-width:0.05px;stroke-miterlimit:10" />
    <path
       id="path80"
       transform="translate(-25.69,-1.22)"
       d="m 76.73,145.69 a 3.15,3.15 0 0 0 -1,0.59 3.44,3.44 0 0 1 1.27,2.31 2,2 0 0 0 0.51,-1.42 1.94,1.94 0 0 0 -0.78,-1.48 z"
       class="cls-23"
       inkscape:connector-curvature="0"
       style="fill:#d1d3d4;stroke:#231f20;stroke-width:0.05px;stroke-miterlimit:10" />
    <path
       id="path82"
       transform="translate(-25.69,-1.22)"
       d="m 75.36,146.1 a 2,2 0 0 1 1.37,-0.41 2,2 0 0 0 -1.4,-0.52 2.22,2.22 0 0 0 -1.48,0.58 2.11,2.11 0 0 1 1.51,0.35 z"
       class="cls-23"
       inkscape:connector-curvature="0"
       style="fill:#d1d3d4;stroke:#231f20;stroke-width:0.05px;stroke-miterlimit:10" />
  </g>
  <circle
     class="cls-13"
     cx="59.731346"
     cy="136.80821"
     r="4.5300002"
     id="gljoy"
     style="fill:#999999;fill-opacity:1;stroke:#231f20;stroke-width:0.1px;stroke-miterlimit:10"
     inkscape:label="#circle68" />
</svg>
