<svg id="_360GHGuitarWT" data-name="360GHGuitarWT" xmlns="http://www.w3.org/2000/svg" viewBox="0 0 158.17 131.4"><defs><style>.cls-1{fill:#ba4125;}.cls-1,.cls-13,.cls-14,.cls-15,.cls-2,.cls-3,.cls-4,.cls-5,.cls-6{stroke:#000;}.cls-1,.cls-10,.cls-11,.cls-12,.cls-13,.cls-14,.cls-15,.cls-16,.cls-17,.cls-18,.cls-19,.cls-2,.cls-20,.cls-3,.cls-4,.cls-5,.cls-6,.cls-7,.cls-8,.cls-9{stroke-miterlimit:10;}.cls-1,.cls-10,.cls-11,.cls-12,.cls-13,.cls-14,.cls-15,.cls-17,.cls-2,.cls-3,.cls-4,.cls-5,.cls-6,.cls-7,.cls-8,.cls-9{stroke-width:0.25px;}.cls-10,.cls-11,.cls-2,.cls-7,.cls-8,.cls-9{fill:#77787b;}.cls-3{fill:#4d70b3;}.cls-4{fill:#f6d854;}.cls-5{fill:#a92129;}.cls-6{fill:#5cbb59;}.cls-7{stroke:#a0410d;}.cls-8{stroke:#0054a6;}.cls-9{stroke:#ffe073;}.cls-10{stroke:#a3062a;}.cls-11{stroke:#007a4b;}.cls-12{fill:#888a8c;}.cls-12,.cls-16,.cls-17,.cls-18,.cls-19,.cls-20{stroke:#231f20;}.cls-13{fill:#c4c6c8;}.cls-14{fill:#6f7173;}.cls-15{fill:#999;}.cls-16{fill:#8f9194;stroke-width:0.1px;}.cls-17{fill:#bcbec0;}.cls-18{fill:none;}.cls-18,.cls-19,.cls-20{stroke-width:0.05px;}.cls-19{fill:#8dc63f;}.cls-20{fill:#d1d3d4;}</style></defs><path class="cls-1" d="M185.62,40.08l-3.19-4.15-4.86,3.27L181,43.92a3.16,3.16,0,0,0,3.64.66,2.79,2.79,0,0,0,1.64-1.42A3.3,3.3,0,0,0,185.62,40.08Zm-.48,2.22a2,2,0,0,1-1.17,1,2.28,2.28,0,0,1-2.61-.47l-2.43-3.39,3.48-2.34,2.29,3A2.37,2.37,0,0,1,185.14,42.3Z" transform="translate(-53.89 -19.92)"/><path class="cls-2" d="M185.14,42.3a2,2,0,0,1-1.17,1,2.28,2.28,0,0,1-2.61-.47l-2.43-3.39,3.48-2.34,2.29,3A2.37,2.37,0,0,1,185.14,42.3Z" transform="translate(-53.89 -19.92)"/><path class="cls-3" d="M192.27,36.59l-3.68-4.93L183.67,35l4.2,5.38a3,3,0,0,0,3.82,0C193.9,38.87,192.27,36.59,192.27,36.59ZM191,39.22a2.11,2.11,0,0,1-2.7,0l-3-3.8L188.76,33l2.6,3.48A1.89,1.89,0,0,1,191,39.22Z" transform="translate(-53.89 -19.92)"/><path class="cls-2" d="M191,39.22a2.11,2.11,0,0,1-2.7,0l-3-3.8L188.76,33l2.6,3.48A1.89,1.89,0,0,1,191,39.22Z" transform="translate(-53.89 -19.92)"/><path class="cls-4" d="M198.89,32.77l-3.71-5-5,3.26,4.24,5.33a3.1,3.1,0,0,0,3.75,0A2.91,2.91,0,0,0,198.89,32.77Zm-1.67,2.48a2.27,2.27,0,0,1-2.74,0l-3.1-3.89L195,29l2.72,3.65A2.12,2.12,0,0,1,197.22,35.25Z" transform="translate(-53.89 -19.92)"/><path class="cls-2" d="M197.22,35.25a2.27,2.27,0,0,1-2.74,0l-3.1-3.89L195,29l2.72,3.65A2.12,2.12,0,0,1,197.22,35.25Z" transform="translate(-53.89 -19.92)"/><path class="cls-5" d="M205.15,28.53l-3.76-4.72-4.58,3.06,4.2,5.38s1.34,1.53,3.39,0A2.81,2.81,0,0,0,205.15,28.53Zm-1.65,2.63a1.73,1.73,0,0,1-2.44,0l-3-3.87,3.29-2.19L204,28.49A2,2,0,0,1,203.5,31.16Z" transform="translate(-53.89 -19.92)"/><path class="cls-2" d="M203.5,31.19a1.72,1.72,0,0,1-2.44,0l-3-3.86,3.29-2.2L204,28.52A2,2,0,0,1,203.5,31.19Z" transform="translate(-53.89 -19.92)"/><path class="cls-6" d="M211.51,24.91l-3.78-4.82L203,23.15l4.21,5.32a2.84,2.84,0,0,0,3.62,0A2.63,2.63,0,0,0,211.51,24.91Zm-1.6,2.41a2,2,0,0,1-2.58,0l-3-3.79,3.4-2.19,2.69,3.44A1.88,1.88,0,0,1,209.91,27.32Z" transform="translate(-53.89 -19.92)"/><path class="cls-2" d="M209.91,27.32a2,2,0,0,1-2.58,0l-3-3.79,3.4-2.19,2.69,3.44A1.88,1.88,0,0,1,209.91,27.32Z" transform="translate(-53.89 -19.92)"/><polygon class="cls-2" points="84.43 44.59 88.74 50.59 95.43 46.07 91.34 40.11 84.43 44.59"/><polygon class="cls-2" points="102.34 41.7 98.2 35.66 91.34 40.11 95.43 46.07 102.34 41.7"/><polygon class="cls-2" points="109.01 37.31 105.08 31.42 98.2 35.66 102.34 41.7 109.01 37.31"/><polygon class="cls-2" points="115.78 32.94 111.91 27.29 105.08 31.42 109.01 37.31 115.78 32.94"/><polygon class="cls-2" points="122.34 28.48 118.48 23.33 111.91 27.29 115.78 32.94 122.34 28.48"/><line class="cls-7" x1="85.75" y1="45.07" x2="91.6" y2="41.12"/><line class="cls-8" x1="92.33" y1="40.7" x2="98.36" y2="36.79"/><line class="cls-9" x1="99.31" y1="36.25" x2="105.45" y2="32.38"/><line class="cls-10" x1="106.42" y1="32.03" x2="112.02" y2="28.16"/><line class="cls-11" x1="113" y1="27.67" x2="118.61" y2="24.09"/><polygon class="cls-12" points="23.26 85.42 48.87 69.59 50.65 72.11 24.87 87.98 23.26 85.42"/><path class="cls-13" d="M63.71,138.18s-.89.85-.21,1.53c.52.52,1.62-.19,1.62-.19l27.76-20.47a.71.71,0,0,0-.15-.87c-.42-.45-.73-.4-.73-.4Z" transform="translate(-53.89 -19.92)"/><path class="cls-14" d="M91.87,117.52a3.6,3.6,0,0,1,.86.66,4.75,4.75,0,0,1,.35,1l13.32-10a.82.82,0,0,0-.2-1.17c-.66-.64-1.11-.46-1.11-.46Z" transform="translate(-53.89 -19.92)"/><circle class="cls-15" cx="21.51" cy="127.33" r="3.95"/><circle class="cls-16" cx="21.41" cy="127.26" r="2.54"/><path class="cls-17" d="M56.52,105.65l11.87,18.76a1.64,1.64,0,0,0,2.2.54l.8-.45a1.64,1.64,0,0,0,.56-2.31L60,103.52a1.64,1.64,0,0,0-2.15-.56l-.68.37A1.64,1.64,0,0,0,56.52,105.65Z" transform="translate(-53.89 -19.92)"/><rect class="cls-17" x="70.31" y="124.28" width="3.9" height="3.9" rx="1.59" transform="translate(-112.79 43.44) rotate(-34.6)"/><rect class="cls-17" x="54.15" y="99.67" width="3.9" height="3.9" rx="1.59" transform="translate(-101.67 29.91) rotate(-34.6)"/><ellipse class="cls-18" cx="21.44" cy="127.33" rx="2.13" ry="2.07"/><path class="cls-19" d="M74.39,145.72a3,3,0,0,0-.53,0h0a4.3,4.3,0,0,1,1.07.54,5.77,5.77,0,0,0-1.31,2.19h0a6.63,6.63,0,0,1,1.75-1.92,2.85,2.85,0,0,1,.8.68,3.54,3.54,0,0,1,.78,1.35h0a3.4,3.4,0,0,0-1.25-2.31,3.13,3.13,0,0,1,1-.59h0a1.7,1.7,0,0,0-.39,0" transform="translate(-53.89 -19.92)"/><path class="cls-19" d="M74.39,145.72a1.57,1.57,0,0,1,1,.36,1.92,1.92,0,0,1,1-.4" transform="translate(-53.89 -19.92)"/><path class="cls-20" d="M73.85,145.75a2,2,0,0,0-.65,1.5,2,2,0,0,0,.42,1.23,6,6,0,0,1,1.31-2.19A4.32,4.32,0,0,0,73.85,145.75Z" transform="translate(-53.89 -19.92)"/><path class="cls-20" d="M75.37,146.56a6.63,6.63,0,0,0-1.75,1.92,2.16,2.16,0,0,0,3.33.11,3.7,3.7,0,0,0-.78-1.35A2.85,2.85,0,0,0,75.37,146.56Z" transform="translate(-53.89 -19.92)"/><path class="cls-20" d="M76.73,145.69a3.15,3.15,0,0,0-1,.59A3.44,3.44,0,0,1,77,148.59a2,2,0,0,0,.51-1.42A1.94,1.94,0,0,0,76.73,145.69Z" transform="translate(-53.89 -19.92)"/><path class="cls-20" d="M75.36,146.1a2,2,0,0,1,1.37-.41,2,2,0,0,0-1.4-.52,2.22,2.22,0,0,0-1.48.58A2.11,2.11,0,0,1,75.36,146.1Z" transform="translate(-53.89 -19.92)"/></svg>