<?xml version="1.0" encoding="UTF-8" standalone="no"?>
<svg
   xmlns:dc="http://purl.org/dc/elements/1.1/"
   xmlns:cc="http://creativecommons.org/ns#"
   xmlns:rdf="http://www.w3.org/1999/02/22-rdf-syntax-ns#"
   xmlns:svg="http://www.w3.org/2000/svg"
   xmlns="http://www.w3.org/2000/svg"
   id="svg100"
   version="1.1"
   viewBox="0 0 225.44 155.98">
  <metadata
     id="metadata104">
    <rdf:RDF>
      <cc:Work
         rdf:about="">
        <dc:format>image/svg+xml</dc:format>
        <dc:type
           rdf:resource="http://purl.org/dc/dcmitype/StillImage" />
      </cc:Work>
    </rdf:RDF>
  </metadata>
  <defs
     id="defs4">
    <style
       id="style2">.cls-1{fill:#393839;}.cls-1,.cls-10,.cls-11,.cls-12,.cls-13,.cls-2,.cls-3,.cls-4,.cls-5,.cls-6,.cls-7,.cls-8,.cls-9{stroke:#000;}.cls-1,.cls-10,.cls-11,.cls-12,.cls-13,.cls-14,.cls-15,.cls-16,.cls-17,.cls-18,.cls-19,.cls-2,.cls-3,.cls-4,.cls-5,.cls-6,.cls-7,.cls-8,.cls-9{stroke-miterlimit:10;}.cls-1,.cls-10,.cls-11,.cls-12,.cls-13,.cls-14,.cls-15,.cls-16,.cls-17,.cls-2,.cls-3,.cls-4,.cls-5,.cls-6,.cls-7,.cls-8,.cls-9{stroke-width:0.25px;}.cls-19,.cls-2{fill:#464547;}.cls-3{fill:#d75d5e;}.cls-4{fill:#919396;}.cls-5{fill:#fff682;}.cls-6{fill:#4d7aae;}.cls-7{fill:#009d6f;}.cls-8{fill:#fff462;}.cls-9{fill:#5aa2d8;}.cls-10{fill:#2cb67a;}.cls-11{fill:#3e3e3f;}.cls-12,.cls-18{fill:#b1b3b6;}.cls-13{fill:#848689;}.cls-14,.cls-15,.cls-16,.cls-17{fill:none;}.cls-14{stroke:#7baac0;}.cls-15{stroke:#c53648;}.cls-16{stroke:#7e7794;}.cls-17{stroke:#1d998b;}.cls-18,.cls-19{stroke:#231f20;stroke-width:0.1px;}.cls-20{font-size:1.47px;letter-spacing:0em;}.cls-20,.cls-23{fill:#d1d3d4;font-family:MyriadPro-Regular, Myriad Pro;}.cls-21{letter-spacing:0.02em;}.cls-22{letter-spacing:0em;}.cls-23{font-size:1.39px;}.cls-24{letter-spacing:0.01em;}.cls-25{letter-spacing:0.01em;}</style>
  </defs>
  <g
     id="ga"
     transform="translate(0,4.6107699e-6)">
    <path
       class="cls-7"
       d="m 217.63,116.5 c -2.18,-8 -10.63,-21.29 -28.48,-21.29 -17.36,0 -22.8,12.22 -24.49,19.13 a 18.61,18.61 0 0 0 0,8.9 c 1.88,7.63 8.22,22.78 28.91,22.78 21.1,-1.11 24.25,-15.63 24.56,-24.9 a 15.62,15.62 0 0 0 -0.5,-4.62 z m -24.76,27.43 c -18.44,0 -24.62,-14.72 -26.48,-21.41 a 14.75,14.75 0 0 1 -0.28,-6.83 c 1.26,-6.44 6.08,-18.54 22.78,-18.54 21.24,0 26.22,17.69 26.94,20.89 0.72,3.2 0.91,25.89 -22.96,25.89 z"
       id="path26"
       style="fill:#009d6f;stroke:#000000;stroke-width:0.25px;stroke-miterlimit:10" />
    <path
       class="cls-4"
       d="m 192.87,144 c -18.44,0 -24.62,-14.71 -26.48,-21.4 a 14.79,14.79 0 0 1 -0.28,-6.84 c 1.29,-6.4 6.08,-18.53 22.78,-18.53 21.24,0 26.22,17.69 26.94,20.88 0.72,3.19 0.91,25.89 -22.96,25.89 z"
       id="path28"
       style="fill:#919396;stroke:#000000;stroke-width:0.25px;stroke-miterlimit:10" />
    <path
       style="fill:#b1b3b6;stroke:#000000;stroke-width:0.15519716px;stroke-miterlimit:10"
       id="path48-6"
       d="m 121.09956,113.43902 a 0.91255926,0.91255926 0 0 0 1.0243,1.03051 1.0187762,1.0187762 0 1 0 0.0745,-2.03619 1.0118854,1.0118854 0 0 0 -1.0988,1.00568 z"
       class="cls-12" />
    <polyline
       transform="matrix(0.62078861,0,0,0.62078861,48.430042,41.756556)"
       style="fill:none;stroke:#7baac0;stroke-width:0.25px;stroke-miterlimit:10"
       id="polyline60"
       points="117.91 114.68 118.74 115.45 117.91 116.31"
       class="cls-14" />
    <polyline
       transform="matrix(0.62078861,0,0,0.62078861,48.430042,41.756556)"
       style="fill:none;stroke:#7baac0;stroke-width:0.25px;stroke-miterlimit:10"
       id="polyline62"
       points="119.58 116.31 118.74 115.45 119.58 114.68"
       class="cls-14" />
  </g>
</svg>
