<svg xmlns="http://www.w3.org/2000/svg" viewBox="0 0 210.43 121.21"><defs><style>.cls-1,.cls-5,.cls-6,.cls-7,.cls-8{fill:none;}.cls-1,.cls-2,.cls-3,.cls-4{stroke:#231f20;}.cls-1,.cls-2,.cls-3,.cls-4,.cls-5,.cls-6,.cls-7,.cls-8{stroke-miterlimit:10;}.cls-2{fill:#302e2f;}.cls-3{fill:#333;}.cls-4{fill:#414042;}.cls-5{stroke:#1c75bc;}.cls-6{stroke:#bb567c;}.cls-7{stroke:#5955a2;}.cls-8{stroke:#5bae41;}</style></defs><g id="CtrlBtnSelect"><path class="cls-1" d="M54.59,60l-6.48-6.47v-10H61.55V54l-6.09,6A.61.61,0,0,1,54.59,60Z" transform="translate(-33.3 -0.06)"/><path class="cls-1" d="M59,64.49,65.52,58h10V71.45H65l-6-6.09A.63.63,0,0,1,59,64.49Z" transform="translate(-33.3 -0.06)"/><path class="cls-1" d="M55.81,69.25l6.48,6.48v10H48.85V75.25l6.09-6A.63.63,0,0,1,55.81,69.25Z" transform="translate(-33.3 -0.06)"/><path class="cls-1" d="M50.23,65l-6.48,6.48h-10V58H44.23l6,6.09A.62.62,0,0,1,50.23,65Z" transform="translate(-33.3 -0.06)"/><circle class="cls-1" cx="178.73" cy="84.3" r="9.73"/><circle class="cls-1" cx="200.2" cy="63.88" r="9.73"/><circle class="cls-1" cx="156.19" cy="63.88" r="9.73"/><circle class="cls-1" cx="178.73" cy="44.43" r="9.73"/><path class="cls-1" d="M102.59,60.86v6a.79.79,0,0,0,.85.7h11.7a.79.79,0,0,0,.84-.7v-6a.78.78,0,0,0-.84-.69h-11.7A.78.78,0,0,0,102.59,60.86Z" transform="translate(-33.3 -0.06)"/><path class="cls-1" d="M151.28,60.17c-.55,0-1,.31-1,.69v6c0,.38.45.7,1,.7l13.07-3a.66.66,0,0,0,0-1.31Z" transform="translate(-33.3 -0.06)"/><circle class="cls-1" cx="60.38" cy="102.5" r="18.2"/><circle class="cls-1" cx="140.53" cy="102.5" r="18.2"/><circle class="cls-1" cx="100.08" cy="78.79" r="8.61"/><path class="cls-1" d="M70.68,6.53s0-5.21-8.63-5.21H49.53s-10.17.26-10.17,5.21c0,0,6-.67,16.41-.67A116.43,116.43,0,0,1,70.68,6.53Z" transform="translate(-33.3 -0.06)"/><path class="cls-1" d="M226.77,5.78s0-5.22-8.63-5.22H205.62s-10.18.26-10.18,5.22a162.67,162.67,0,0,1,16.41-.68A115,115,0,0,1,226.77,5.78Z" transform="translate(-33.3 -0.06)"/></g><g id="CtrlBtnDis"><path class="cls-1" d="M54.59,60l-6.48-6.47v-10H61.55V54l-6.09,6A.61.61,0,0,1,54.59,60Z" transform="translate(-33.3 -0.06)"/><path class="cls-1" d="M59,64.49,65.52,58h10V71.45H65l-6-6.09A.63.63,0,0,1,59,64.49Z" transform="translate(-33.3 -0.06)"/><path class="cls-1" d="M55.81,69.25l6.48,6.48v10H48.85V75.25l6.09-6A.63.63,0,0,1,55.81,69.25Z" transform="translate(-33.3 -0.06)"/><path class="cls-1" d="M50.23,65l-6.48,6.48h-10V58H44.23l6,6.09A.62.62,0,0,1,50.23,65Z" transform="translate(-33.3 -0.06)"/><circle class="cls-1" cx="178.73" cy="84.3" r="9.73"/><circle class="cls-1" cx="200.2" cy="63.88" r="9.73"/><circle class="cls-1" cx="156.19" cy="63.88" r="9.73"/><circle class="cls-1" cx="178.73" cy="44.43" r="9.73"/><path class="cls-1" d="M102.59,60.86v6a.79.79,0,0,0,.85.7h11.7a.79.79,0,0,0,.84-.7v-6a.78.78,0,0,0-.84-.69h-11.7A.78.78,0,0,0,102.59,60.86Z" transform="translate(-33.3 -0.06)"/><path class="cls-1" d="M151.28,60.17c-.55,0-1,.31-1,.69v6c0,.38.45.7,1,.7l13.07-3a.66.66,0,0,0,0-1.31Z" transform="translate(-33.3 -0.06)"/><circle class="cls-1" cx="60.38" cy="102.5" r="18.2"/><circle class="cls-1" cx="140.53" cy="102.5" r="18.2"/><circle class="cls-1" cx="100.08" cy="78.79" r="8.61"/><path class="cls-1" d="M70.68,6.53s0-5.21-8.63-5.21H49.53s-10.17.26-10.17,5.21c0,0,6-.67,16.41-.67A116.43,116.43,0,0,1,70.68,6.53Z" transform="translate(-33.3 -0.06)"/><path class="cls-1" d="M226.77,5.78s0-5.22-8.63-5.22H205.62s-10.18.26-10.18,5.22a162.67,162.67,0,0,1,16.41-.68A115,115,0,0,1,226.77,5.78Z" transform="translate(-33.3 -0.06)"/></g><g id="CtrlBtnUsed"><path class="cls-2" d="M54.59,60l-6.48-6.47v-10H61.55V54l-6.09,6A.61.61,0,0,1,54.59,60Z" transform="translate(-33.3 -0.06)"/><path class="cls-2" d="M59,64.49,65.52,58h10V71.45H65l-6-6.09A.63.63,0,0,1,59,64.49Z" transform="translate(-33.3 -0.06)"/><path class="cls-2" d="M55.81,69.25l6.48,6.48v10H48.85V75.25l6.09-6A.63.63,0,0,1,55.81,69.25Z" transform="translate(-33.3 -0.06)"/><path class="cls-2" d="M50.23,65l-6.48,6.48h-10V58H44.23l6,6.09A.62.62,0,0,1,50.23,65Z" transform="translate(-33.3 -0.06)"/><circle class="cls-3" cx="178.73" cy="84.3" r="9.73"/><circle class="cls-3" cx="200.2" cy="63.88" r="9.73"/><circle class="cls-3" cx="156.19" cy="63.88" r="9.73"/><circle class="cls-3" cx="178.73" cy="44.43" r="9.73"/><path class="cls-2" d="M102.59,60.86v6a.79.79,0,0,0,.85.7h11.7a.79.79,0,0,0,.84-.7v-6a.78.78,0,0,0-.84-.69h-11.7A.78.78,0,0,0,102.59,60.86Z" transform="translate(-33.3 -0.06)"/><path class="cls-2" d="M151.28,60.17c-.55,0-1,.31-1,.69v6c0,.38.45.7,1,.7l13.07-3a.66.66,0,0,0,0-1.31Z" transform="translate(-33.3 -0.06)"/><circle class="cls-2" cx="60.38" cy="102.5" r="18.2"/><circle class="cls-2" cx="140.53" cy="102.5" r="18.2"/><circle class="cls-4" cx="100.08" cy="78.79" r="8.61"/><path class="cls-2" d="M70.68,6.53s0-5.21-8.63-5.21H49.53s-10.17.26-10.17,5.21c0,0,6-.67,16.41-.67A116.43,116.43,0,0,1,70.68,6.53Z" transform="translate(-33.3 -0.06)"/><path class="cls-2" d="M226.77,5.78s0-5.22-8.63-5.22H205.62s-10.18.26-10.18,5.22a162.67,162.67,0,0,1,16.41-.68A115,115,0,0,1,226.77,5.78Z" transform="translate(-33.3 -0.06)"/><polyline class="cls-5" points="183.82 78.49 178.73 84.3 173.6 78.49"/><polyline class="cls-5" points="183.82 90.01 178.73 84.3 173.6 90.01"/><circle class="cls-6" cx="200.2" cy="63.88" r="6.13"/><path class="cls-7" d="M184.3,59.58v8.73a.57.57,0,0,0,.55.59h9.28a.56.56,0,0,0,.54-.59V59.58a.56.56,0,0,0-.54-.59h-9.28A.57.57,0,0,0,184.3,59.58Z" transform="translate(-33.3 -0.06)"/><path class="cls-8" d="M211.65,39.14l-4.44,8.58a.42.42,0,0,0,.37.61h8.85a.42.42,0,0,0,.37-.61l-4.41-8.58A.42.42,0,0,0,211.65,39.14Z" transform="translate(-33.3 -0.06)"/></g></svg>