<?xml version="1.0" encoding="UTF-8" standalone="no"?>
<svg
   xmlns:dc="http://purl.org/dc/elements/1.1/"
   xmlns:cc="http://creativecommons.org/ns#"
   xmlns:rdf="http://www.w3.org/1999/02/22-rdf-syntax-ns#"
   xmlns:svg="http://www.w3.org/2000/svg"
   xmlns="http://www.w3.org/2000/svg"
   xmlns:sodipodi="http://sodipodi.sourceforge.net/DTD/sodipodi-0.dtd"
   xmlns:inkscape="http://www.inkscape.org/namespaces/inkscape"
   viewBox="0 0 210.43 121.21"
   version="1.1"
   id="svg109"
   sodipodi:docname="Btn_High.svg"
   inkscape:version="0.92.5 (2060ec1f9f, 2020-04-08)">
  <metadata
     id="metadata113">
    <rdf:RDF>
      <cc:Work
         rdf:about="">
        <dc:format>image/svg+xml</dc:format>
        <dc:type
           rdf:resource="http://purl.org/dc/dcmitype/StillImage" />
      </cc:Work>
    </rdf:RDF>
  </metadata>
  <sodipodi:namedview
     pagecolor="#ffffff"
     bordercolor="#666666"
     borderopacity="1"
     objecttolerance="10"
     gridtolerance="10"
     guidetolerance="10"
     inkscape:pageopacity="0"
     inkscape:pageshadow="2"
     inkscape:window-width="2560"
     inkscape:window-height="1555"
     id="namedview111"
     showgrid="false"
     inkscape:zoom="3.1839568"
     inkscape:cx="125.93523"
     inkscape:cy="77.836695"
     inkscape:window-x="1080"
     inkscape:window-y="182"
     inkscape:window-maximized="0"
     inkscape:current-layer="svg109" />
  <defs
     id="defs4">
    <style
       id="style2">.cls-1,.cls-5,.cls-6,.cls-7,.cls-8{fill:none;}.cls-1,.cls-2,.cls-3,.cls-4{stroke:#231f20;}.cls-1,.cls-2,.cls-3,.cls-4,.cls-5,.cls-6,.cls-7,.cls-8{stroke-miterlimit:10;}.cls-2{fill:#302e2f;}.cls-3{fill:#333;}.cls-4{fill:#414042;}.cls-5{stroke:#1c75bc;}.cls-6{stroke:#bb567c;}.cls-7{stroke:#5955a2;}.cls-8{stroke:#5bae41;}</style>
  </defs>
  <path
     class="cls-1"
     d="m 21.29,59.94 -6.48,-6.47 v -10 h 13.44 v 10.47 l -6.09,6 a 0.61,0.61 0 0 1 -0.87,0 z"
     id="path6"
     inkscape:connector-curvature="0"
     style="fill:none;stroke:#dce0df;stroke-miterlimit:10;opacity:1" />
  <path
     class="cls-1"
     d="m 25.7,64.43 6.52,-6.49 h 10 V 71.39 H 31.7 l -6,-6.09 a 0.63,0.63 0 0 1 0,-0.87 z"
     id="path8"
     inkscape:connector-curvature="0"
     style="fill:none;stroke:#dce0df;stroke-miterlimit:10;opacity:1" />
  <path
     class="cls-1"
     d="m 22.51,69.19 6.48,6.48 v 10 H 15.55 V 75.19 l 6.09,-6 a 0.63,0.63 0 0 1 0.87,0 z"
     id="path10"
     inkscape:connector-curvature="0"
     style="fill:none;stroke:#dce0df;stroke-miterlimit:10;opacity:1" />
  <path
     class="cls-1"
     d="m 16.93,64.94 -6.48,6.48 h -10 V 57.94 h 10.48 l 6,6.09 a 0.62,0.62 0 0 1 0,0.91 z"
     id="path12"
     inkscape:connector-curvature="0"
     style="fill:none;stroke:#dce0df;stroke-miterlimit:10;opacity:1" />
  <circle
     class="cls-1"
     cx="178.73"
     cy="84.300003"
     r="9.7299995"
     id="circle14"
     style="fill:none;stroke:#dce0df;stroke-miterlimit:10;opacity:1" />
  <circle
     class="cls-1"
     cx="200.2"
     cy="63.880001"
     r="9.7299995"
     id="circle16"
     style="fill:none;stroke:#dce0df;stroke-miterlimit:10;opacity:1" />
  <circle
     class="cls-1"
     cx="156.19"
     cy="63.880001"
     r="9.7299995"
     id="circle18"
     style="fill:none;stroke:#dce0df;stroke-miterlimit:10;opacity:1" />
  <circle
     class="cls-1"
     cx="178.73"
     cy="44.43"
     r="9.7299995"
     id="circle20"
     style="fill:none;stroke:#dce0df;stroke-miterlimit:10;opacity:1" />
  <path
     class="cls-1"
     d="m 69.29,60.8 v 6 a 0.79,0.79 0 0 0 0.85,0.7 h 11.7 a 0.79,0.79 0 0 0 0.84,-0.7 v -6 a 0.78,0.78 0 0 0 -0.84,-0.69 h -11.7 a 0.78,0.78 0 0 0 -0.85,0.69 z"
     id="path22"
     inkscape:connector-curvature="0"
     style="fill:none;stroke:#dce0df;stroke-miterlimit:10;opacity:1" />
  <path
     class="cls-1"
     d="m 117.98,60.11 c -0.55,0 -1,0.31 -1,0.69 v 6 c 0,0.38 0.45,0.7 1,0.7 l 13.07,-3 a 0.66,0.66 0 0 0 0,-1.31 z"
     id="path24"
     inkscape:connector-curvature="0"
     style="fill:none;stroke:#dce0df;stroke-miterlimit:10;opacity:1" />
  <circle
     class="cls-1"
     cx="60.380001"
     cy="102.5"
     r="18.200001"
     id="circle26"
     style="fill:none;stroke:#dce0df;stroke-miterlimit:10;opacity:1" />
  <circle
     class="cls-1"
     cx="140.53"
     cy="102.5"
     r="18.200001"
     id="circle28"
     style="fill:none;stroke:#dce0df;stroke-miterlimit:10;opacity:1" />
  <circle
     class="cls-1"
     cx="100.08"
     cy="78.790001"
     r="8.6099997"
     id="circle30"
     style="fill:none;stroke:#dce0df;stroke-miterlimit:10;opacity:1" />
  <path
     class="cls-1"
     d="m 37.38,6.47 c 0,0 0,-5.21 -8.63,-5.21 H 16.23 c 0,0 -10.17,0.26 -10.17,5.21 0,0 6,-0.67 16.41,-0.67 a 116.43,116.43 0 0 1 14.91,0.67 z"
     id="path32"
     inkscape:connector-curvature="0"
     style="fill:none;stroke:#dce0df;stroke-miterlimit:10;opacity:1" />
  <path
     class="cls-1"
     d="m 193.47,5.72 c 0,0 0,-5.22 -8.63,-5.22 h -12.52 c 0,0 -10.18,0.26 -10.18,5.22 a 162.67,162.67 0 0 1 16.41,-0.68 115,115 0 0 1 14.92,0.68 z"
     id="path34"
     inkscape:connector-curvature="0"
     style="fill:none;stroke:#dce0df;stroke-miterlimit:10;opacity:1" />
  <path
     class="cls-1"
     d="m 21.29,59.94 -6.48,-6.47 v -10 h 13.44 v 10.47 l -6.09,6 a 0.61,0.61 0 0 1 -0.87,0 z"
     id="path37"
     inkscape:connector-curvature="0"
     style="fill:none;stroke:#dce0df;stroke-miterlimit:10;opacity:1" />
  <path
     class="cls-1"
     d="m 25.7,64.43 6.52,-6.49 h 10 V 71.39 H 31.7 l -6,-6.09 a 0.63,0.63 0 0 1 0,-0.87 z"
     id="path39"
     inkscape:connector-curvature="0"
     style="fill:none;stroke:#dce0df;stroke-miterlimit:10;opacity:1" />
  <path
     class="cls-1"
     d="m 22.51,69.19 6.48,6.48 v 10 H 15.55 V 75.19 l 6.09,-6 a 0.63,0.63 0 0 1 0.87,0 z"
     id="path41"
     inkscape:connector-curvature="0"
     style="fill:none;stroke:#dce0df;stroke-miterlimit:10;opacity:1" />
  <path
     class="cls-1"
     d="m 16.93,64.94 -6.48,6.48 h -10 V 57.94 h 10.48 l 6,6.09 a 0.62,0.62 0 0 1 0,0.91 z"
     id="path43"
     inkscape:connector-curvature="0"
     style="fill:none;stroke:#dce0df;stroke-miterlimit:10;opacity:1" />
  <circle
     class="cls-1"
     cx="178.73"
     cy="84.300003"
     r="9.7299995"
     id="circle45"
     style="fill:none;stroke:#dce0df;stroke-miterlimit:10;opacity:1" />
  <circle
     class="cls-1"
     cx="200.2"
     cy="63.880001"
     r="9.7299995"
     id="circle47"
     style="fill:none;stroke:#dce0df;stroke-miterlimit:10;opacity:1" />
  <circle
     class="cls-1"
     cx="156.19"
     cy="63.880001"
     r="9.7299995"
     id="circle49"
     style="fill:none;stroke:#dce0df;stroke-miterlimit:10;opacity:1" />
  <circle
     class="cls-1"
     cx="178.73"
     cy="44.43"
     r="9.7299995"
     id="circle51"
     style="fill:none;stroke:#dce0df;stroke-miterlimit:10;opacity:1" />
  <path
     class="cls-1"
     d="m 69.29,60.8 v 6 a 0.79,0.79 0 0 0 0.85,0.7 h 11.7 a 0.79,0.79 0 0 0 0.84,-0.7 v -6 a 0.78,0.78 0 0 0 -0.84,-0.69 h -11.7 a 0.78,0.78 0 0 0 -0.85,0.69 z"
     id="path53"
     inkscape:connector-curvature="0"
     style="fill:none;stroke:#dce0df;stroke-miterlimit:10;opacity:1" />
  <path
     class="cls-1"
     d="m 117.98,60.11 c -0.55,0 -1,0.31 -1,0.69 v 6 c 0,0.38 0.45,0.7 1,0.7 l 13.07,-3 a 0.66,0.66 0 0 0 0,-1.31 z"
     id="path55"
     inkscape:connector-curvature="0"
     style="fill:none;stroke:#dce0df;stroke-miterlimit:10;opacity:1" />
  <circle
     class="cls-1"
     cx="60.380001"
     cy="102.5"
     r="18.200001"
     id="circle57"
     style="fill:none;stroke:#dce0df;stroke-miterlimit:10;opacity:1" />
  <circle
     class="cls-1"
     cx="140.53"
     cy="102.5"
     r="18.200001"
     id="circle59"
     style="fill:none;stroke:#dce0df;stroke-miterlimit:10;opacity:1" />
  <circle
     class="cls-1"
     cx="100.08"
     cy="78.790001"
     r="8.6099997"
     id="circle61"
     style="fill:none;stroke:#dce0df;stroke-miterlimit:10;opacity:1" />
  <path
     class="cls-1"
     d="m 37.38,6.47 c 0,0 0,-5.21 -8.63,-5.21 H 16.23 c 0,0 -10.17,0.26 -10.17,5.21 0,0 6,-0.67 16.41,-0.67 a 116.43,116.43 0 0 1 14.91,0.67 z"
     id="path63"
     inkscape:connector-curvature="0"
     style="fill:none;stroke:#dce0df;stroke-miterlimit:10;opacity:1" />
  <path
     class="cls-1"
     d="m 193.47,5.72 c 0,0 0,-5.22 -8.63,-5.22 h -12.52 c 0,0 -10.18,0.26 -10.18,5.22 a 162.67,162.67 0 0 1 16.41,-0.68 115,115 0 0 1 14.92,0.68 z"
     id="path65"
     inkscape:connector-curvature="0"
     style="fill:none;stroke:#dce0df;stroke-miterlimit:10;opacity:1" />
  <path
     class="cls-2"
     d="m 21.29,59.94 -6.48,-6.47 v -10 h 13.44 v 10.47 l -6.09,6 a 0.61,0.61 0 0 1 -0.87,0 z"
     id="path68"
     inkscape:connector-curvature="0"
     style="fill:#cfd1d0;stroke:#dce0df;stroke-miterlimit:10;opacity:1" />
  <path
     class="cls-2"
     d="m 25.7,64.43 6.52,-6.49 h 10 V 71.39 H 31.7 l -6,-6.09 a 0.63,0.63 0 0 1 0,-0.87 z"
     id="path70"
     inkscape:connector-curvature="0"
     style="fill:#cfd1d0;stroke:#dce0df;stroke-miterlimit:10;opacity:1" />
  <path
     class="cls-2"
     d="m 22.51,69.19 6.48,6.48 v 10 H 15.55 V 75.19 l 6.09,-6 a 0.63,0.63 0 0 1 0.87,0 z"
     id="path72"
     inkscape:connector-curvature="0"
     style="fill:#cfd1d0;stroke:#dce0df;stroke-miterlimit:10;opacity:1" />
  <path
     class="cls-2"
     d="m 16.93,64.94 -6.48,6.48 h -10 V 57.94 h 10.48 l 6,6.09 a 0.62,0.62 0 0 1 0,0.91 z"
     id="path74"
     inkscape:connector-curvature="0"
     style="fill:#cfd1d0;stroke:#dce0df;stroke-miterlimit:10;opacity:1" />
  <circle
     class="cls-3"
     cx="178.73"
     cy="84.300003"
     r="9.7299995"
     id="circle76"
     style="fill:#cccccc;stroke:#dce0df;stroke-miterlimit:10;opacity:1" />
  <circle
     class="cls-3"
     cx="200.2"
     cy="63.880001"
     r="9.7299995"
     id="circle78"
     style="fill:#cccccc;stroke:#dce0df;stroke-miterlimit:10;opacity:1" />
  <circle
     class="cls-3"
     cx="156.19"
     cy="63.880001"
     r="9.7299995"
     id="circle80"
     style="fill:#cccccc;stroke:#dce0df;stroke-miterlimit:10;opacity:1" />
  <circle
     class="cls-3"
     cx="178.73"
     cy="44.43"
     r="9.7299995"
     id="circle82"
     style="fill:#cccccc;stroke:#dce0df;stroke-miterlimit:10;opacity:1" />
  <path
     class="cls-2"
     d="m 69.29,60.8 v 6 a 0.79,0.79 0 0 0 0.85,0.7 h 11.7 a 0.79,0.79 0 0 0 0.84,-0.7 v -6 a 0.78,0.78 0 0 0 -0.84,-0.69 h -11.7 a 0.78,0.78 0 0 0 -0.85,0.69 z"
     id="path84"
     inkscape:connector-curvature="0"
     style="fill:#cfd1d0;stroke:#dce0df;stroke-miterlimit:10;opacity:1" />
  <path
     class="cls-2"
     d="m 117.98,60.11 c -0.55,0 -1,0.31 -1,0.69 v 6 c 0,0.38 0.45,0.7 1,0.7 l 13.07,-3 a 0.66,0.66 0 0 0 0,-1.31 z"
     id="path86"
     inkscape:connector-curvature="0"
     style="fill:#cfd1d0;stroke:#dce0df;stroke-miterlimit:10;opacity:1" />
  <circle
     class="cls-2"
     cx="60.380001"
     cy="102.5"
     r="18.200001"
     id="circle88"
     style="fill:#cfd1d0;stroke:#dce0df;stroke-miterlimit:10;opacity:1" />
  <circle
     class="cls-2"
     cx="140.53"
     cy="102.5"
     r="18.200001"
     id="circle90"
     style="fill:#cfd1d0;stroke:#dce0df;stroke-miterlimit:10;opacity:1" />
  <circle
     class="cls-4"
     cx="100.08"
     cy="78.790001"
     r="8.6099997"
     id="circle92"
     style="fill:#bebfbd;stroke:#dce0df;stroke-miterlimit:10;opacity:1" />
  <path
     class="cls-2"
     d="m 37.38,6.47 c 0,0 0,-5.21 -8.63,-5.21 H 16.23 c 0,0 -10.17,0.26 -10.17,5.21 0,0 6,-0.67 16.41,-0.67 a 116.43,116.43 0 0 1 14.91,0.67 z"
     id="path94"
     inkscape:connector-curvature="0"
     style="fill:#cfd1d0;stroke:#dce0df;stroke-miterlimit:10;opacity:1" />
  <path
     class="cls-2"
     d="m 193.47,5.72 c 0,0 0,-5.22 -8.63,-5.22 h -12.52 c 0,0 -10.18,0.26 -10.18,5.22 a 162.67,162.67 0 0 1 16.41,-0.68 115,115 0 0 1 14.92,0.68 z"
     id="path96"
     inkscape:connector-curvature="0"
     style="fill:#cfd1d0;stroke:#dce0df;stroke-miterlimit:10;opacity:1" />
  <polyline
     class="cls-5"
     points="183.82 78.49 178.73 84.3 173.6 78.49"
     id="polyline98"
     style="fill:none;stroke:#e38a43;stroke-miterlimit:10;opacity:1" />
  <polyline
     class="cls-5"
     points="183.82 90.01 178.73 84.3 173.6 90.01"
     id="polyline100"
     style="fill:none;stroke:#e38a43;stroke-miterlimit:10;opacity:1" />
  <circle
     class="cls-6"
     cx="200.2"
     cy="63.880001"
     r="6.1300001"
     id="circle102"
     style="fill:none;stroke:#44a983;stroke-miterlimit:10;opacity:1" />
  <path
     class="cls-7"
     d="m 151,59.52 v 8.73 a 0.57,0.57 0 0 0 0.55,0.59 h 9.28 a 0.56,0.56 0 0 0 0.54,-0.59 v -8.73 a 0.56,0.56 0 0 0 -0.54,-0.59 h -9.28 A 0.57,0.57 0 0 0 151,59.52 Z"
     id="path104"
     inkscape:connector-curvature="0"
     style="fill:none;stroke:#a6aa5d;stroke-miterlimit:10;opacity:1" />
  <path
     class="cls-8"
     d="m 178.35,39.08 -4.44,8.58 a 0.42,0.42 0 0 0 0.37,0.61 h 8.85 a 0.42,0.42 0 0 0 0.37,-0.61 l -4.41,-8.58 a 0.42,0.42 0 0 0 -0.74,0 z"
     id="path106"
     inkscape:connector-curvature="0"
     style="fill:none;stroke:#a451be;stroke-miterlimit:10;opacity:1" />
</svg>
