<?xml version="1.0" encoding="UTF-8" standalone="no"?>
<svg
   xmlns:dc="http://purl.org/dc/elements/1.1/"
   xmlns:cc="http://creativecommons.org/ns#"
   xmlns:rdf="http://www.w3.org/1999/02/22-rdf-syntax-ns#"
   xmlns:svg="http://www.w3.org/2000/svg"
   xmlns="http://www.w3.org/2000/svg"
   xmlns:sodipodi="http://sodipodi.sourceforge.net/DTD/sodipodi-0.dtd"
   xmlns:inkscape="http://www.inkscape.org/namespaces/inkscape"
   viewBox="0 0 210.43 121.21"
   version="1.1"
   id="svg109"
   sodipodi:docname="L2.svg"
   inkscape:version="0.92.5 (2060ec1f9f, 2020-04-08)">
  <metadata
     id="metadata113">
    <rdf:RDF>
      <cc:Work
         rdf:about="">
        <dc:format>image/svg+xml</dc:format>
        <dc:type
           rdf:resource="http://purl.org/dc/dcmitype/StillImage" />
        <dc:title></dc:title>
      </cc:Work>
    </rdf:RDF>
  </metadata>
  <sodipodi:namedview
     pagecolor="#ffffff"
     bordercolor="#666666"
     borderopacity="1"
     objecttolerance="10"
     gridtolerance="10"
     guidetolerance="10"
     inkscape:pageopacity="0"
     inkscape:pageshadow="2"
     inkscape:window-width="2560"
     inkscape:window-height="1555"
     id="namedview111"
     showgrid="false"
     inkscape:zoom="3.1839568"
     inkscape:cx="125.93523"
     inkscape:cy="77.836695"
     inkscape:window-x="1080"
     inkscape:window-y="182"
     inkscape:window-maximized="0"
     inkscape:current-layer="svg109" />
  <defs
     id="defs4">
    <style
       id="style2">.cls-1,.cls-5,.cls-6,.cls-7,.cls-8{fill:none;}.cls-1,.cls-2,.cls-3,.cls-4{stroke:#231f20;}.cls-1,.cls-2,.cls-3,.cls-4,.cls-5,.cls-6,.cls-7,.cls-8{stroke-miterlimit:10;}.cls-2{fill:#302e2f;}.cls-3{fill:#333;}.cls-4{fill:#414042;}.cls-5{stroke:#1c75bc;}.cls-6{stroke:#bb567c;}.cls-7{stroke:#5955a2;}.cls-8{stroke:#5bae41;}</style>
  </defs>
  <path
     class="cls-1"
     d="m 193.47,5.72 c 0,0 0,-5.22 -8.63,-5.22 h -12.52 c 0,0 -10.18,0.26 -10.18,5.22 a 162.67,162.67 0 0 1 16.41,-0.68 115,115 0 0 1 14.92,0.68 z"
     id="path34"
     inkscape:connector-curvature="0"
     style="fill:none;stroke:#dce0df;stroke-miterlimit:10;opacity:1" />
  <path
     class="cls-1"
     d="m 193.47,5.72 c 0,0 0,-5.22 -8.63,-5.22 h -12.52 c 0,0 -10.18,0.26 -10.18,5.22 a 162.67,162.67 0 0 1 16.41,-0.68 115,115 0 0 1 14.92,0.68 z"
     id="path65"
     inkscape:connector-curvature="0"
     style="fill:none;stroke:#dce0df;stroke-miterlimit:10;opacity:1" />
  <path
     class="cls-2"
     d="m 193.47,5.72 c 0,0 0,-5.22 -8.63,-5.22 h -12.52 c 0,0 -10.18,0.26 -10.18,5.22 a 162.67,162.67 0 0 1 16.41,-0.68 115,115 0 0 1 14.92,0.68 z"
     id="path96"
     inkscape:connector-curvature="0"
     style="fill:#cfd1d0;stroke:#dce0df;stroke-miterlimit:10;opacity:1" />
</svg>
