<svg id="Layer_9" data-name="Layer 9" xmlns="http://www.w3.org/2000/svg" viewBox="0 0 257.25 105.99"><defs><style>.cls-1{fill:#58595b;}.cls-1,.cls-2,.cls-3{stroke:#000;stroke-miterlimit:10;}.cls-2{fill:none;stroke-width:2px;}.cls-3{fill:#939598;stroke-width:0.5px;}.cls-4{font-size:4px;fill:#231f20;font-family:MyriadPro-Regular, Myriad Pro;}</style></defs><path class="cls-1" d="M256,52.26c.26,6.7,2.61,24.44,3.56,35.13s-.52,14.61-8,22.09-14.61,8.43-14.61,8.43V105.13c0-4.87-4.34-4.35-4.34-4.35s-25.4-.26-30.61-.26a4.6,4.6,0,0,0-5,4.87v11.74c-.17-1.56-3.22-1.56-9.83-5.22a50.72,50.72,0,0,1-10.69-7.82l-86.87.08s-.18.87-7.83,6.18c-10,6.87-11.65,6.17-11.65,6.17v-9.65c0-6.09-2.78-5.91-2.78-5.91S38,101,33.61,101s-4.18,6.26-4.18,6.26v11.22C13,112.43,9.7,106.78,6.22,102.7s-3-7.57-1.65-11,2.6-18.87,2.6-18.87c1.7-15,3.22-21.3,3.22-21.3s.44-7.13,23.91-9.91,33.92,0,33.92,0,.87-4.35,11.65-5c13.48-.78,28,0,28,0s10.43,1.13,12.43,5.22c.87,1.65.44,5.65.44,5.65l24.52-.09-.09-4.43s-.69-3.3,6-4.7a96,96,0,0,1,20-2C179,36.09,190.3,36.09,197,41a224.75,224.75,0,0,1,34,1.05C247.43,44.09,253.78,46.87,256,52.26Z" transform="translate(-3.04 -35.65)"/><path class="cls-2" d="M169.83,50.87s3.78,8.09,22.43,9.78,48.13.78,55.17-3.39,8.53-5,8.53-5" transform="translate(-3.04 -35.65)"/><path class="cls-2" d="M95.87,50.87s-4.58,5.56-21.78,8.61c-17,3-45.66,3-53.61-.78-9.8-4.66-9.92-7.83-9.92-7.83" transform="translate(-3.04 -35.65)"/><path class="cls-3" d="M35.74,90.78H65.09s3.13.65,3.13-3v-13S69,72.65,64,72.65H35.61s-3.52-.65-3.52,2.09V87.13S32.22,90.78,35.74,90.78Z" transform="translate(-3.04 -35.65)"/><path class="cls-3" d="M66.26,101c-5,0-32.65.08-32.65.08s-4.18-.3-4.18,6.26-.21,29.53-.21,29.53-.79,4.56,4.69,4.56H63.35s5.48.13,5.48-4.56,1.3-30,1.3-30S71.22,101,66.26,101Z" transform="translate(-3.04 -35.65)"/><path class="cls-3" d="M203.55,92.22H232.9s3.13.65,3.13-3v-13s.78-2.08-4.18-2.08H203.42s-3.52-.66-3.52,2.08v12.4S200,92.22,203.55,92.22Z" transform="translate(-3.04 -35.65)"/><path class="cls-3" d="M233.42,100.83c-5,0-32.65.08-32.65.08s-4.18-.3-4.18,6.26,1.28,29.53,1.28,29.53a6.8,6.8,0,0,0,6.78,4.56h27.07s5.48.13,5.48-4.56.09-30,.09-30S238.37,100.83,233.42,100.83Z" transform="translate(-3.04 -35.65)"/><text class="cls-4" transform="translate(45.36 47.49)">R1</text><text class="cls-4" transform="translate(45.36 89.08)">R2</text><text class="cls-4" transform="translate(212.34 49.15)">L1</text><text class="cls-4" transform="translate(212.34 90.75)">L2</text></svg>