<svg id="_360DancePad" data-name="360DancePad" xmlns="http://www.w3.org/2000/svg" viewBox="0 0 138.56 148.85"><defs><style>.cls-1{fill:#414042;}.cls-1,.cls-11,.cls-12,.cls-2,.cls-3,.cls-4,.cls-5,.cls-6{stroke:#231f20;stroke-miterlimit:10;}.cls-1,.cls-12,.cls-2,.cls-3,.cls-4,.cls-5,.cls-6{stroke-width:0.25px;}.cls-2{fill:#d97629;}.cls-3{fill:#5bba47;}.cls-4{fill:#da7729;}.cls-5{fill:#e87825;}.cls-6{fill:#67bd45;}.cls-7,.cls-8{font-size:4px;fill:#231f20;font-family:MyriadPro-Regular, Myriad Pro;}.cls-8{letter-spacing:0em;}.cls-9{letter-spacing:0em;}.cls-10{letter-spacing:0.02em;}.cls-11,.cls-12{fill:#babcbe;}.cls-11{stroke-width:0.5px;}</style></defs><circle class="cls-1" cx="69.45" cy="78.89" r="30.78"/><path class="cls-2" d="M105.17,115.91l-5.56,5.31L99.7,149l10.52,10.26,30.95-.35s10.35-10,10.44-10.44,0-28.86,0-28.86l-4.74-4.74s-6,8.17-21.78,8.17S105.17,115.91,105.17,115.91Z" transform="translate(-55.98 -10.5)"/><path class="cls-3" d="M99.41,70.27l-5.3-5.56-27.74.08L56.11,75.31l.35,31s10,10.35,10.43,10.44,28.87,0,28.87,0L100.5,112s-8.28-6.4-8.28-22.23S99.41,70.27,99.41,70.27Z" transform="translate(-55.98 -10.5)"/><path class="cls-2" d="M145.86,63.35l5.56-5-.08-26-10.52-9.62-31,.33s-10.35,9.37-10.44,9.77,0,27.05,0,27.05l4.74,4.44s5.9-8.41,21.71-7.76S145.86,63.35,145.86,63.35Z" transform="translate(-55.98 -10.5)"/><path class="cls-3" d="M151.11,110.31l5.3,5.57,27.74-.09,10.26-10.52-.34-31s-10-10.35-10.44-10.43-28.87,0-28.87,0L150,68.61s8.07,4.91,8.07,20.74S151.11,110.31,151.11,110.31Z" transform="translate(-55.98 -10.5)"/><circle class="cls-4" cx="24.82" cy="34.83" r="13.76"/><circle class="cls-3" cx="113.58" cy="34.05" r="13.76"/><circle class="cls-4" cx="113.48" cy="124.07" r="13.76"/><path class="cls-5" d="M72.39,11.35s-1.91.26-2,2.87a2.78,2.78,0,0,0,2,3H83.93a3,3,0,0,0,3.17-3.17c0-3.29-2.71-2.7-2.71-2.7Z" transform="translate(-55.98 -10.5)"/><path class="cls-6" d="M164.23,10.66s-1.91.26-1.95,2.87a2.76,2.76,0,0,0,1.95,3h11.55a3,3,0,0,0,3.16-3.16c0-3.29-2.71-2.71-2.71-2.71Z" transform="translate(-55.98 -10.5)"/><text class="cls-7" transform="translate(18.69 4.63)">Back</text><text class="cls-8" transform="translate(110.79 4.33)">S<tspan class="cls-9" x="1.96" y="0">ta</tspan><tspan class="cls-10" x="5.21" y="0">r</tspan><tspan class="cls-9" x="6.62" y="0">t</tspan></text><path class="cls-11" d="M171.74,36h-3.83l-5.69,15,2.91,0,2-5H172l1.82,5h3.09Zm-4.11,7.37,1.61-5.06H170l1.43,5.06Z" transform="translate(-55.98 -10.5)"/><circle class="cls-3" cx="25.54" cy="125.2" r="13.76"/><polygon class="cls-12" points="18.84 117.55 21.93 117.55 25.58 124.59 29.5 117.55 32.49 117.55 27.1 127.42 27.1 133.55 23.93 133.55 23.93 127.42 18.84 117.55"/><polygon class="cls-12" points="120.5 131.66 116.97 131.66 114.3 126.11 111.63 131.66 108.63 131.66 112.47 123.31 108.1 116.59 111.1 116.59 114.3 121.68 117.43 116.55 120.43 116.55 116.34 123.5 120.5 131.66"/><path class="cls-12" d="M85.72,45.46c.88,0,2.63-.37,2.63-4a3.64,3.64,0,0,0-3.83-3.82l-7.65-.13V53.17h7.39a3.67,3.67,0,0,0,3.89-3.89C88.15,45.85,86.57,45.49,85.72,45.46Zm-7-6.6,4.92,0a2.29,2.29,0,0,1,2.55,2.29c0,3.43-2.73,3.39-2.73,3.39H78.67Zm4.86,12.82h-4.9v-5.6l5.09.05s2.61,0,2.61,3.21C86.33,51.84,83.53,51.68,83.53,51.68Z" transform="translate(-55.98 -10.5)"/></svg>