<svg xmlns="http://www.w3.org/2000/svg" viewBox="0 0 119.65 119.65"><defs><style>.cls-1{fill:#9fa1a4;}.cls-1,.cls-2{stroke:#231f20;stroke-miterlimit:10;stroke-width:0.75px;}.cls-2{fill:#231f20;}</style></defs><g id="Layer_38" data-name="Layer 38"><rect class="cls-1" x="14.65" y="35.98" width="34.96" height="1.58"/><rect class="cls-1" x="70.34" y="36.15" width="34.78" height="1.36"/><path class="cls-1" d="M140.24,21.13A59.45,59.45,0,1,0,199.7,80.58,59.45,59.45,0,0,0,140.24,21.13ZM87.8,80.7a52.56,52.56,0,0,1,52.56-52.56,61.48,61.48,0,0,1,13.3,1.73,52,52,0,0,0-9.8.49c-8.7,1.13-12.36,5.69-14.28,7.54s-4.37,7.83,2.34,11.75S146.69,52,146.69,52l0,11.12a38.43,38.43,0,0,0-6.1-.49,37.25,37.25,0,0,0-10,1.37V59.5H94.07V83.13h13.06l-.62,1.46H95.15v1.59h10.7A39.59,39.59,0,0,0,103.17,100,37.19,37.19,0,0,0,113.65,126,52.5,52.5,0,0,1,87.8,80.7Zm62.6,51.58a52.34,52.34,0,0,1-19.09.18,33,33,0,1,1,19.09-.18ZM168,125.43a37.33,37.33,0,0,0,7.28-39.31h10.2V84.76H174.75l-1-1.8h12.73V59.48H149.66l0,4.3c-.63-.16-1.26-.36-1.91-.49l0-11.72s5.72.38,13.56-6.06,1.21-12.42,1.21-12.42l0,0A52.57,52.57,0,0,1,168,125.43Z" transform="translate(-80.42 -20.76)"/><ellipse class="cls-2" cx="145.56" cy="37" rx="1.81" ry="1.31" transform="translate(-84.8 24.89) rotate(-17.56)"/><path class="cls-2" d="M145.09,33.05s-1.74,1.47-1.17,1.67,1.24-.39,1.23.79h.43l-.11-.74s1.7-.17,1-.79S145.29,32.83,145.09,33.05Z" transform="translate(-80.42 -20.76)"/></g></svg>