<svg xmlns="http://www.w3.org/2000/svg" viewBox="0 0 125.74 125.74"><defs><style>.cls-1{fill:#fff;stroke:#231f20;stroke-miterlimit:10;}</style></defs><g id="Layer_35" data-name="Layer 35"><path class="cls-1" d="M112.15,30.52a62.37,62.37,0,1,0,62.37,62.37A62.38,62.38,0,0,0,112.15,30.52Zm-.26,117.93a54.6,54.6,0,0,1-37.25-14.61A21.83,21.83,0,0,1,87,127.2c7.93-1.33,12.48,4.72,13.31,4.16,5.61-3,18-15,24.2-24.19s9.76-10.93,14.87-9.93,8.82,1.88,15.81-2.78,6.05-16.37-.5-22.69-14.81-2.55-14.81-2.55L138.32,65s5.16-3.61,4.17-8.1-6.11-2.72-6.83-3.28c-1.83-1.33-5.38-1.94-6.6,1.11S127.34,56.4,126,58.9s-.61,4.93,1.67,6.71,6.65.89,6.65.89l2.22,4-15.81,6.72-2-4.28s4.38-3.27,4.5-5.6c.55-4.72-3.06-5.27-3.06-5.27l-3.71,0a4.06,4.06,0,0,0-5.28-.77c-3,1.88-2,3.1-3.6,4.55s-2.17,3.33-.61,6.66,7.49,1.94,7.49,1.94l2.38,3.94-16.25,6.49-1.5-4s4-1.55,4.22-5.49-1.67-4.72-4.44-5-6.16-2.22-8.38-.39-1.11,2.44-2.89,4.16a4.59,4.59,0,0,0-.16,6.6c1.94,2.11,3.94,2.44,5.27,1.72a2.19,2.19,0,0,1,2.49.5l2.11,3.89L80.84,93.46l-1.78-4.1s4.66-3.55,4.11-8S77,78.65,76.45,78.21c-1.44-1.67-2-1.17-2-1.17a23.05,23.05,0,0,0-4.78,1.89c-1.55,1,.23,1.33-2.05,3.49s-1.77,3.72-1.77,3.72-.34,1,2,3.61S75.18,91,75.18,91l2.22,3.88s-6.77,3.33-10.49,5.38-1.5,5,.39,10.16-4.36,7.9-4.36,7.9a54.8,54.8,0,1,1,49,30.16ZM73.51,108.17a4.11,4.11,0,1,1,4.11,4.11A4.11,4.11,0,0,1,73.51,108.17Zm20.15-8.38a4.11,4.11,0,1,1,4.1,4.11A4.1,4.1,0,0,1,93.66,99.79Zm19.81-8.16a4,4,0,1,1,4,4A4,4,0,0,1,113.47,91.63Zm19.89-8a4,4,0,1,1,4,4A4,4,0,0,1,133.36,83.62Z" transform="translate(-49.28 -30.02)"/></g></svg>